<?xml version="1.0" encoding="utf-8"?>
<!-- Generator: Adobe Illustrator 27.5.0, SVG Export Plug-In . SVG Version: 6.00 Build 0)  -->
<svg version="1.1" xmlns="http://www.w3.org/2000/svg" xmlns:xlink="http://www.w3.org/1999/xlink" x="0px" y="0px"
	 viewBox="0 0 750 500" style="enable-background:new 0 0 750 500;" xml:space="preserve">
<g id="BACKGROUND">
	<rect style="fill:#FFFFFF00;" width="750" height="500"/>
</g>
<g id="OBJECTS">
	<g>
		<defs>
			<rect id="SVGID_1_" width="750" height="500"/>
		</defs>
		<clipPath id="SVGID_00000093899131592882353170000003710508144472994184_">
			<use xlink:href="#SVGID_1_"  style="overflow:visible;"/>
		</clipPath>
		<g style="clip-path:url(#SVGID_00000093899131592882353170000003710508144472994184_);">
			<path style="fill:#EE94C3;" d="M361.749,449.539c21.474-7.533,36.874-27.981,36.874-52.028c0-30.445-24.681-55.126-55.126-55.126
				s-55.126,24.681-55.126,55.126c0,24.49,15.971,45.246,38.064,52.43v27.862h-25.002l21.032,20.613l21.032,20.613l21.032-20.613
				l21.032-20.613h-23.812V449.539z M316.097,397.511c0-15.133,12.267-27.4,27.4-27.4c15.133,0,27.4,12.267,27.4,27.4
				c0,15.132-12.267,27.4-27.4,27.4C328.364,424.91,316.097,412.643,316.097,397.511z"/>
			<path style="fill:#D3DEE2;" d="M515.846,59.984c13.109-27.478,1.461-60.381-26.017-73.491
				c-27.478-13.11-60.381-1.461-73.491,26.017c-10.545,22.103-5.068,47.713,11.779,63.711l-6.508,13.641l-12.649-6.035
				l-9.043,18.955l12.649,6.035l-9.598,20.118l31.872,15.206l9.598-20.119l11.574,5.522l9.043-18.955l-11.574-5.522l6.681-14.004
				C482.788,93.511,505.492,81.688,515.846,59.984z M441.363,24.449c6.516-13.658,22.87-19.448,36.528-12.931
				c13.658,6.516,19.448,22.87,12.932,36.528c-6.516,13.658-22.87,19.447-36.528,12.931
				C440.637,54.46,434.847,38.106,441.363,24.449z"/>
			<g>
				<path style="fill:#7753B1;" d="M725.116,293.011l-93.731-29.751c-8.388-2.662-13.072-11.703-10.41-20.091l43.042-135.604
					c2.662-8.388,11.703-13.072,20.091-10.41l93.731,29.751c8.388,2.662,13.072,11.703,10.41,20.091l-43.042,135.604
					C742.544,290.989,733.504,295.674,725.116,293.011z"/>
				<path style="fill:#E0A702;" d="M688.965,117.895c-1.214,3.826-5.301,5.944-9.127,4.729c-3.826-1.215-5.944-5.301-4.729-9.127
					c1.215-3.826,5.301-5.944,9.127-4.729C688.062,109.982,690.18,114.068,688.965,117.895z"/>
				<path style="fill:#E0A702;" d="M715.899,126.444c-1.215,3.826-5.301,5.944-9.127,4.729c-3.826-1.214-5.944-5.301-4.729-9.127
					c1.215-3.826,5.301-5.944,9.127-4.729C714.997,118.531,717.114,122.618,715.899,126.444z"/>
				<path style="fill:#E0A702;" d="M682.062,139.642c-1.215,3.826-5.301,5.944-9.127,4.729c-3.826-1.215-5.944-5.301-4.729-9.127
					c1.214-3.826,5.301-5.944,9.127-4.729C681.16,131.729,683.277,135.815,682.062,139.642z"/>
				<path style="fill:#E0A702;" d="M708.997,148.191c-1.214,3.826-5.301,5.944-9.127,4.729c-3.826-1.214-5.944-5.301-4.729-9.127
					c1.215-3.826,5.301-5.944,9.127-4.729C708.094,140.278,710.211,144.365,708.997,148.191z"/>
				<path style="fill:#E0A702;" d="M675.16,161.389c-1.215,3.826-5.301,5.944-9.127,4.729c-3.826-1.215-5.944-5.301-4.729-9.127
					c1.214-3.826,5.301-5.944,9.127-4.729C674.257,153.476,676.374,157.562,675.16,161.389z"/>
				<path style="fill:#E0A702;" d="M702.094,169.938c-1.214,3.826-5.301,5.944-9.127,4.729c-3.826-1.215-5.944-5.301-4.729-9.127
					c1.215-3.826,5.301-5.944,9.127-4.729C701.191,162.025,703.308,166.111,702.094,169.938z"/>
				<path style="fill:#E0A702;" d="M668.257,183.135c-1.214,3.826-5.301,5.944-9.127,4.729c-3.826-1.214-5.944-5.301-4.729-9.127
					c1.215-3.826,5.301-5.944,9.127-4.729C667.354,175.223,669.471,179.309,668.257,183.135z"/>
				<path style="fill:#E0A702;" d="M695.191,191.685c-1.215,3.826-5.301,5.944-9.127,4.729c-3.826-1.214-5.944-5.301-4.729-9.127
					s5.301-5.944,9.127-4.729C694.288,183.772,696.406,187.858,695.191,191.685z"/>
				<path style="fill:#E0A702;" d="M661.354,204.882c-1.215,3.826-5.301,5.944-9.127,4.729c-3.826-1.215-5.944-5.301-4.729-9.127
					c1.214-3.826,5.301-5.944,9.127-4.729C660.451,196.969,662.569,201.056,661.354,204.882z"/>
				<path style="fill:#E0A702;" d="M688.288,213.432c-1.214,3.826-5.301,5.944-9.127,4.729c-3.826-1.214-5.944-5.301-4.729-9.127
					c1.215-3.826,5.301-5.944,9.127-4.729C687.386,205.519,689.503,209.605,688.288,213.432z"/>
				<path style="fill:#E0A702;" d="M654.451,226.629c-1.215,3.826-5.301,5.944-9.127,4.729c-3.826-1.215-5.944-5.301-4.729-9.127
					c1.214-3.826,5.301-5.944,9.127-4.729C653.549,218.717,655.666,222.803,654.451,226.629z"/>
				<path style="fill:#E0A702;" d="M681.386,235.179c-1.214,3.826-5.301,5.944-9.127,4.729c-3.826-1.215-5.944-5.301-4.729-9.127
					c1.215-3.826,5.301-5.944,9.127-4.729C680.483,227.266,682.6,231.352,681.386,235.179z"/>
				<path style="fill:#E0A702;" d="M647.549,248.376c-1.214,3.826-5.301,5.944-9.127,4.729c-3.826-1.214-5.944-5.301-4.729-9.127
					c1.215-3.826,5.301-5.944,9.127-4.729C646.646,240.463,648.763,244.55,647.549,248.376z"/>
				<path style="fill:#E0A702;" d="M674.483,256.926c-1.215,3.826-5.301,5.944-9.127,4.729s-5.944-5.301-4.729-9.127
					s5.301-5.944,9.127-4.729C673.58,249.013,675.698,253.099,674.483,256.926z"/>
				<path style="fill:#E0A702;" d="M748.021,136.64c-1.214,3.826-5.301,5.944-9.127,4.729c-3.826-1.215-5.944-5.301-4.729-9.127
					c1.215-3.826,5.301-5.944,9.127-4.729C747.118,128.727,749.235,132.813,748.021,136.64z"/>
				<path style="fill:#E0A702;" d="M774.955,145.189c-1.215,3.826-5.301,5.944-9.127,4.729c-3.826-1.215-5.944-5.301-4.729-9.127
					c1.214-3.826,5.301-5.944,9.127-4.729C774.052,137.276,776.17,141.363,774.955,145.189z"/>
				<path style="fill:#E0A702;" d="M741.118,158.387c-1.215,3.826-5.301,5.944-9.128,4.729c-3.826-1.214-5.944-5.301-4.729-9.127
					c1.214-3.826,5.301-5.944,9.127-4.729C740.216,150.474,742.333,154.56,741.118,158.387z"/>
				<path style="fill:#E0A702;" d="M768.052,166.936c-1.214,3.826-5.301,5.944-9.127,4.729c-3.826-1.215-5.944-5.301-4.729-9.127
					c1.215-3.826,5.301-5.944,9.127-4.729C767.15,159.023,769.267,163.109,768.052,166.936z"/>
				<path style="fill:#E0A702;" d="M734.216,180.134c-1.215,3.826-5.301,5.944-9.127,4.729c-3.826-1.215-5.944-5.301-4.729-9.127
					c1.215-3.826,5.301-5.944,9.128-4.729C733.313,172.221,735.43,176.307,734.216,180.134z"/>
				<path style="fill:#E0A702;" d="M761.15,188.683c-1.214,3.826-5.301,5.944-9.127,4.729c-3.826-1.215-5.944-5.301-4.729-9.127
					c1.215-3.826,5.301-5.944,9.127-4.729C760.247,180.77,762.364,184.856,761.15,188.683z"/>
				<path style="fill:#E0A702;" d="M727.313,201.88c-1.215,3.826-5.301,5.944-9.127,4.729c-3.826-1.215-5.944-5.301-4.729-9.127
					c1.215-3.826,5.301-5.944,9.127-4.729C726.41,193.968,728.527,198.054,727.313,201.88z"/>
				<path style="fill:#E0A702;" d="M754.247,210.43c-1.215,3.826-5.301,5.944-9.127,4.729c-3.826-1.215-5.944-5.301-4.729-9.127
					s5.301-5.944,9.127-4.729C753.344,202.517,755.462,206.603,754.247,210.43z"/>
				<path style="fill:#E0A702;" d="M720.41,223.627c-1.215,3.826-5.301,5.944-9.127,4.729c-3.826-1.214-5.944-5.301-4.729-9.127
					c1.215-3.826,5.301-5.944,9.127-4.729C719.507,215.715,721.625,219.801,720.41,223.627z"/>
				<path style="fill:#E0A702;" d="M747.344,232.177c-1.214,3.826-5.301,5.944-9.127,4.729c-3.826-1.215-5.944-5.301-4.729-9.127
					c1.214-3.826,5.301-5.944,9.127-4.729C746.442,224.264,748.559,228.35,747.344,232.177z"/>
				<path style="fill:#E0A702;" d="M713.507,245.374c-1.215,3.826-5.301,5.944-9.127,4.729c-3.826-1.214-5.944-5.301-4.729-9.127
					c1.215-3.826,5.301-5.944,9.128-4.729C712.604,237.462,714.722,241.548,713.507,245.374z"/>
				<path style="fill:#E0A702;" d="M740.442,253.924c-1.214,3.826-5.301,5.944-9.127,4.729s-5.944-5.301-4.729-9.127
					c1.215-3.826,5.301-5.944,9.127-4.729C739.539,246.011,741.656,250.097,740.442,253.924z"/>
				<path style="fill:#E0A702;" d="M706.605,267.121c-1.215,3.826-5.301,5.944-9.127,4.729c-3.826-1.215-5.944-5.301-4.729-9.127
					c1.215-3.826,5.301-5.944,9.127-4.729C705.702,259.208,707.819,263.295,706.605,267.121z"/>
				<path style="fill:#E0A702;" d="M733.539,275.671c-1.215,3.826-5.301,5.944-9.127,4.729c-3.826-1.214-5.944-5.301-4.729-9.127
					c1.214-3.826,5.301-5.944,9.127-4.729C732.636,267.758,734.753,271.844,733.539,275.671z"/>
				<path style="fill:#3C2C06;" d="M730.029,115.932l-51.214,161.349c-0.397,1.251,1.547,1.871,1.945,0.617l51.214-161.349
					C732.371,115.297,730.427,114.678,730.029,115.932z"/>
			</g>
			<g>
				<path style="fill:#E0A702;" d="M158.447,219.02c6.126,4.007,14.417,2.274,18.424-3.852v0c4.007-6.126,2.274-14.417-3.852-18.424
					l-15.394-10.07c-4.763,7.514-9.386,15.117-14.069,22.604L158.447,219.02z"/>
				<path style="fill:#EE94C3;" d="M124.897,181.169L124.897,181.169c-4.007,6.126-2.274,14.417,3.852,18.424l14.806,9.686
					c4.683-7.487,9.306-15.09,14.069-22.604l-14.304-9.357C137.195,173.31,128.905,175.043,124.897,181.169z"/>
				<path style="fill:#3C2C06;" d="M155.47,188.209l-11.863,18.134c-0.618,0.944,0.849,1.906,1.468,0.96l11.863-18.134
					C157.555,188.225,156.088,187.263,155.47,188.209z"/>
			</g>
			<g>
				<path style="fill:#E0A702;" d="M692.066,54.318c-4.924,5.416-4.522,13.877,0.895,18.801v0
					c5.416,4.924,13.877,4.522,18.801-0.895l12.375-13.611c-6.668-5.89-13.446-11.656-20.1-17.462L692.066,54.318z"/>
				<path style="fill:#EE94C3;" d="M734.739,27.165L734.739,27.165c-5.416-4.924-13.877-4.522-18.801,0.895l-11.902,13.091
					c6.654,5.806,13.431,11.572,20.1,17.462l11.498-12.647C740.558,40.55,740.156,32.09,734.739,27.165z"/>
				<path style="fill:#3C2C06;" d="M722.96,56.243l-16.034-14.577c-0.835-0.759-2.016,0.537-1.18,1.298l16.034,14.577
					C722.615,58.299,723.797,57.003,722.96,56.243z"/>
			</g>
			<g>
				<path style="fill:#E0A702;" d="M228.698,148.148c-7.309,0.4-12.962,6.707-12.563,14.016v0c0.4,7.309,6.707,12.962,14.017,12.563
					l18.368-1.005c-0.613-8.876-1.392-17.74-2.054-26.546L228.698,148.148z"/>
				<path style="fill:#EE94C3;" d="M278.149,158.772L278.149,158.772c-0.4-7.309-6.707-12.962-14.016-12.563l-17.666,0.966
					c0.662,8.806,1.44,17.67,2.054,26.546l17.067-0.934C272.896,172.388,278.549,166.081,278.149,158.772z"/>
				<path style="fill:#3C2C06;" d="M249.347,171.208l-1.184-21.638c-0.062-1.127-1.813-1.033-1.751,0.096l1.184,21.638
					C247.658,172.431,249.409,172.337,249.347,171.208z"/>
			</g>
			<g>
				<path style="fill:#E0A702;" d="M44.113,466.074c-7.261-0.93-13.962,4.25-14.892,11.511l0,0
					c-0.93,7.261,4.25,13.962,11.511,14.892l18.246,2.337c1.003-8.84,1.842-17.699,2.786-26.479L44.113,466.074z"/>
				<path style="fill:#EE94C3;" d="M90.824,485.474L90.824,485.474c0.93-7.261-4.25-13.962-11.511-14.892l-17.55-2.247
					c-0.943,8.78-1.782,17.639-2.786,26.479l16.954,2.171C83.192,497.915,89.894,492.735,90.824,485.474z"/>
				<path style="fill:#3C2C06;" d="M60.246,492.491l2.753-21.494c0.143-1.119-1.596-1.344-1.739-0.223l-2.753,21.494
					C58.363,493.388,60.103,493.613,60.246,492.491z"/>
			</g>
			<g>
				<path style="fill:#E0A702;" d="M-1.304,27.895c-4.924,5.416-4.522,13.877,0.895,18.801h0c5.416,4.924,13.877,4.522,18.801-0.895
					l12.375-13.611c-6.668-5.89-13.446-11.656-20.1-17.462L-1.304,27.895z"/>
				<path style="fill:#EE94C3;" d="M41.369,0.743L41.369,0.743c-5.416-4.924-13.877-4.522-18.801,0.894L10.666,14.729
					c6.654,5.806,13.431,11.572,20.1,17.462l11.498-12.647C47.188,14.128,46.785,5.667,41.369,0.743z"/>
				<path style="fill:#3C2C06;" d="M29.59,29.82L13.556,15.243c-0.835-0.759-2.016,0.537-1.18,1.298L28.41,31.118
					C29.245,31.877,30.426,30.581,29.59,29.82z"/>
			</g>
			<g>
				<path style="fill:#E0A702;" d="M542.178,362.853c-4.924,5.416-4.522,13.877,0.895,18.801l0,0
					c5.416,4.924,13.877,4.522,18.801-0.895l12.374-13.611c-6.668-5.89-13.446-11.656-20.1-17.462L542.178,362.853z"/>
				<path style="fill:#EE94C3;" d="M584.851,335.701L584.851,335.701c-5.416-4.924-13.877-4.522-18.801,0.895l-11.902,13.091
					c6.654,5.806,13.431,11.572,20.1,17.462l11.498-12.647C590.67,349.086,590.267,340.625,584.851,335.701z"/>
				<path style="fill:#3C2C06;" d="M573.072,364.778l-16.034-14.577c-0.835-0.759-2.016,0.537-1.18,1.298l16.034,14.577
					C572.727,366.835,573.908,365.539,573.072,364.778z"/>
			</g>
			<g>
				<path style="fill:#E0A702;" d="M427.929,343.38c-6.471-3.422-14.565-0.928-17.988,5.542l0,0
					c-3.422,6.471-0.928,14.565,5.542,17.988l16.261,8.601c4.047-7.923,7.945-15.922,11.915-23.811L427.929,343.38z"/>
				<path style="fill:#EE94C3;" d="M464.841,377.96L464.841,377.96c3.422-6.471,0.929-14.565-5.542-17.988l-15.64-8.272
					c-3.969,7.889-7.868,15.887-11.915,23.811l15.109,7.991C453.324,386.925,461.418,384.431,464.841,377.96z"/>
				<path style="fill:#3C2C06;" d="M433.748,373.783l10.132-19.155c0.528-0.998-1.022-1.819-1.55-0.82l-10.132,19.156
					C431.67,373.96,433.219,374.782,433.748,373.783z"/>
			</g>
			<g>
				<path style="fill:#E0A702;" d="M508.536,117.669c-3.919-6.183-12.184-8.034-18.367-4.115v0
					c-6.182,3.919-8.034,12.184-4.115,18.367l9.849,15.537c7.445-4.871,14.8-9.88,22.16-14.759L508.536,117.669z"/>
				<path style="fill:#EE94C3;" d="M523.421,166.008L523.421,166.008c6.183-3.919,8.034-12.184,4.115-18.367l-9.473-14.943
					c-7.361,4.879-14.715,9.888-22.16,14.759l9.151,14.436C508.973,168.075,517.238,169.927,523.421,166.008z"/>
				<path style="fill:#3C2C06;" d="M498.5,146.951l18.302-11.602c0.953-0.604,0.016-2.086-0.939-1.481l-18.302,11.602
					C496.608,146.074,497.545,147.556,498.5,146.951z"/>
			</g>
			<g>
				<path style="fill:#E0A702;" d="M621.239,183.085c6.024-4.159,7.549-12.491,3.39-18.514l0,0
					c-4.159-6.024-12.491-7.549-18.514-3.39l-15.137,10.452c5.16,7.248,10.454,14.399,15.619,21.563L621.239,183.085z"/>
				<path style="fill:#EE94C3;" d="M573.522,199.859L573.522,199.859c4.159,6.024,12.491,7.549,18.515,3.39l14.559-10.053
					c-5.165-7.163-10.459-14.315-15.619-21.563l-14.065,9.712C570.888,185.504,569.363,193.836,573.522,199.859z"/>
				<path style="fill:#3C2C06;" d="M591.584,174.208l12.313,17.832c0.641,0.929,2.085-0.066,1.443-0.996l-12.313-17.832
					C592.386,172.283,590.942,173.278,591.584,174.208z"/>
			</g>
			<g>
				<path style="fill:#E0A702;" d="M377.665,171.504c5.97,4.236,14.32,2.817,18.556-3.152l0,0c4.236-5.97,2.817-14.32-3.153-18.556
					l-15.002-10.645c-5.044,7.329-9.951,14.752-14.914,22.057L377.665,171.504z"/>
				<path style="fill:#EE94C3;" d="M345.571,132.411L345.571,132.411c-4.236,5.97-2.818,14.32,3.152,18.557l14.429,10.239
					c4.963-7.305,9.87-14.728,14.914-22.057l-13.94-9.891C358.157,125.023,349.807,126.441,345.571,132.411z"/>
				<path style="fill:#3C2C06;" d="M375.855,140.602l-12.54,17.673c-0.653,0.92,0.776,1.937,1.43,1.015l12.54-17.673
					C377.938,140.697,376.509,139.681,375.855,140.602z"/>
			</g>
			<g>
				<polygon style="fill:#E0A702;" points="651.876,280.452 576.237,438.997 602.085,433.673 614.519,462.726 640.299,452.746
					645.206,477.366 670.395,467.104 677.869,492.949 705.87,483.188 718.228,509.682 799.517,344.584 761.597,352.976
					756.713,324.163 731.005,340.063 728.603,305.287 697.789,324.636 696.445,296.671 664.467,310.841 				"/>

					<ellipse transform="matrix(0.4306 -0.9025 0.9025 0.4306 30.9604 841.7225)" style="fill:#E5C570;" cx="682.58" cy="396.324" rx="63.039" ry="65.822"/>

					<ellipse transform="matrix(0.4306 -0.9025 0.9025 0.4306 31.8255 842.6874)" style="fill:#E0A702;" cx="683.773" cy="396.121" rx="51.003" ry="52.62"/>
				<path style="fill:#FFF5CC;" d="M679.327,385.397l-7.004,14.681c-0.299-0.385-0.594-0.773-0.882-1.164
					c-1.875-2.547-3.449-5.42-3.663-8.635c-0.182-2.734,0.782-5.524,3.091-7.134c1.063-0.742,2.351-1.162,3.656-1.037
					c1.494,0.143,2.85,0.833,4.034,1.727c0.452,0.342,0.882,0.709,1.299,1.092C679.644,384.988,679.451,385.136,679.327,385.397z
					 M680.077,406.66c-0.006-0.003-0.011-0.003-0.017-0.006c-0.065-0.058-0.135-0.108-0.216-0.147l-0.743-0.354
					c-0.019-0.01-0.039-0.014-0.058-0.022c-0.076-0.077-0.166-0.146-0.287-0.198c-1.598-0.68-2.9-1.807-4.075-3.066
					c-0.372-0.398-0.731-0.81-1.086-1.226c0.022-0.035,0.046-0.067,0.065-0.107l7.322-15.348c0.018-0.038,0.028-0.076,0.041-0.113
					c0.369,0.385,0.73,0.779,1.086,1.176c1.198,1.338,2.425,2.604,4.055,3.414c1.66,0.826,3.513,1.202,5.32,1.552
					c0.26,0.05,0.521,0.095,0.781,0.142l-7.606,15.943c-0.013,0.028-0.019,0.054-0.029,0.081c-0.838-0.223-1.659-0.492-2.452-0.801
					C681.464,407.303,680.765,406.993,680.077,406.66z M698.632,405.894c-3.352,3.049-7.877,3.646-12.175,2.892l7.65-16.034
					c0.012-0.025,0.017-0.05,0.027-0.075c0.937,0.15,1.875,0.293,2.813,0.445c1.558,0.252,3.225,0.648,4.188,2.011
					c0.784,1.109,1.05,2.526,0.997,3.865C702.025,401.671,700.577,404.125,698.632,405.894z"/>
				<path style="fill:#3C2C06;" d="M655.698,454.274c-33.107-15.795-47.616-54.692-32.342-86.707
					c15.274-32.016,54.635-45.212,87.743-29.417c33.107,15.795,47.615,54.692,32.341,86.707
					C728.166,456.873,688.805,470.069,655.698,454.274z M710.096,340.253c-31.948-15.242-69.916-2.539-84.637,28.317
					c-14.721,30.856-0.706,68.36,31.242,83.602c31.948,15.242,69.916,2.539,84.637-28.317
					C756.059,392.998,742.044,355.495,710.096,340.253z"/>
				<path style="fill:#3C2C06;" d="M660.977,443.209c-26.797-12.785-38.541-44.268-26.178-70.182
					c12.363-25.914,44.223-36.595,71.021-23.81c26.798,12.785,38.541,44.268,26.178,70.182
					C719.634,445.312,687.775,455.993,660.977,443.209z M705.008,350.918c-25.859-12.337-56.591-2.055-68.507,22.921
					c-11.915,24.975-0.571,55.331,25.288,67.668s56.591,2.055,68.506-22.921C742.211,393.611,730.867,363.255,705.008,350.918z"/>
				<path style="fill:#3C2C06;" d="M664.606,375.717c-1.26,2.642-4.424,3.762-7.065,2.501c-2.642-1.26-3.762-4.424-2.501-7.065
					c1.26-2.642,4.424-3.762,7.065-2.501C664.746,369.912,665.866,373.075,664.606,375.717z"/>
				<path style="fill:#3C2C06;" d="M722.304,403.244c-1.26,2.642-4.424,3.762-7.065,2.501c-2.642-1.26-3.762-4.424-2.501-7.065
					c1.26-2.642,4.424-3.762,7.065-2.501C722.445,397.439,723.565,400.602,722.304,403.244z"/>

					<ellipse transform="matrix(0.9427 -0.3337 0.3337 0.9427 -92.8788 239.889)" style="fill:#D06BA9;" cx="651.786" cy="390.279" rx="10.199" ry="10.199"/>
				<path style="fill:#D06BA9;" d="M719.707,422.089c-2.425,5.084-8.513,7.239-13.597,4.814c-5.084-2.426-7.239-8.513-4.814-13.597
					c2.426-5.084,8.513-7.239,13.597-4.814C719.977,410.917,722.132,417.005,719.707,422.089z"/>
				<path style="fill:#3C2C06;" d="M703.622,401.258c0.833-3.074,0.225-6.912-2.638-8.725c-1.667-1.055-3.716-1.208-5.618-1.503
					c-1.965-0.304-3.943-0.632-5.872-1.118c-0.904-0.228-1.787-0.521-2.62-0.944c-0.845-0.43-1.569-1.017-2.241-1.683
					c-1.279-1.267-2.391-2.684-3.733-3.892c-2.524-2.272-5.912-3.967-9.319-2.687c-2.995,1.126-5.032,3.992-5.522,7.098
					c-0.545,3.451,0.58,6.9,2.331,9.843c0.943,1.585,2.072,3.049,3.241,4.471c1.191,1.449,2.425,2.908,3.927,4.047
					c0.744,0.565,1.547,1.054,2.407,1.42c0.03,0.013,0.058,0.016,0.087,0.026c0.075,0.078,0.158,0.146,0.258,0.194l0.743,0.354
					c0.002,0.001,0.004,0.001,0.006,0.002c0.064,0.057,0.139,0.108,0.228,0.151c5.849,2.83,13.268,3.996,18.971,0.18
					C700.807,406.79,702.815,404.236,703.622,401.258z M679.327,385.397l-7.004,14.681c-0.299-0.385-0.594-0.773-0.882-1.164
					c-1.875-2.547-3.449-5.42-3.663-8.635c-0.182-2.734,0.782-5.524,3.091-7.134c1.063-0.742,2.351-1.162,3.656-1.037
					c1.494,0.143,2.85,0.833,4.034,1.727c0.452,0.342,0.882,0.709,1.299,1.092C679.644,384.988,679.451,385.136,679.327,385.397z
					 M680.077,406.66c-0.006-0.003-0.011-0.003-0.017-0.006c-0.065-0.058-0.135-0.108-0.216-0.147l-0.743-0.354
					c-0.019-0.01-0.039-0.014-0.058-0.022c-0.076-0.077-0.166-0.146-0.287-0.198c-1.598-0.68-2.9-1.807-4.075-3.066
					c-0.372-0.398-0.731-0.81-1.086-1.226c0.022-0.035,0.046-0.067,0.065-0.107l7.322-15.348c0.018-0.038,0.028-0.076,0.041-0.113
					c0.369,0.385,0.73,0.779,1.086,1.176c1.198,1.338,2.425,2.604,4.055,3.414c1.66,0.826,3.513,1.202,5.32,1.552
					c0.26,0.05,0.521,0.095,0.781,0.142l-7.606,15.943c-0.013,0.028-0.019,0.054-0.029,0.081c-0.838-0.223-1.659-0.492-2.452-0.801
					C681.464,407.303,680.765,406.993,680.077,406.66z M698.632,405.894c-3.352,3.049-7.877,3.646-12.175,2.892l7.65-16.034
					c0.012-0.025,0.017-0.05,0.027-0.075c0.937,0.15,1.875,0.293,2.813,0.445c1.558,0.252,3.225,0.648,4.188,2.011
					c0.784,1.109,1.05,2.526,0.997,3.865C702.025,401.671,700.577,404.125,698.632,405.894z"/>
			</g>
			<g>
				<polygon style="fill:#E0A702;" points="199.07,-44.912 221.135,129.361 240.004,110.91 266.17,128.63 282.464,106.298
					299.9,124.36 315.545,102.11 335.803,119.814 354.085,96.466 378.803,112.075 357.948,-70.764 330.583,-43.206 310.899,-64.807
					297.865,-37.534 277.046,-65.493 261.581,-32.558 245.334,-55.359 226.09,-26.152 				"/>

					<ellipse transform="matrix(0.9921 -0.1256 0.1256 0.9921 -2.2415 36.3998)" style="fill:#E5C570;" cx="287.536" cy="35.975" rx="65.822" ry="63.039"/>

					<ellipse transform="matrix(0.9921 -0.1256 0.1256 0.9921 -2.132 36.5036)" style="fill:#E0A702;" cx="288.43" cy="35.16" rx="52.62" ry="51.003"/>
				<path style="fill:#FFF5CC;" d="M278.892,28.541l2.043,16.137c-0.46-0.162-0.918-0.329-1.371-0.503
					c-2.954-1.13-5.832-2.695-7.749-5.285c-1.631-2.202-2.328-5.07-1.256-7.673c0.494-1.199,1.35-2.249,2.515-2.849
					c1.334-0.687,2.848-0.84,4.328-0.727c0.565,0.043,1.125,0.119,1.682,0.216C278.939,28.025,278.856,28.254,278.892,28.541z
					 M291.018,46.025c-0.006,0.001-0.011,0.003-0.018,0.004c-0.086-0.014-0.173-0.018-0.262-0.007l-0.816,0.103
					c-0.021,0.002-0.04,0.01-0.061,0.013c-0.105-0.023-0.218-0.034-0.348-0.012c-1.712,0.292-3.417,0.047-5.086-0.377
					c-0.528-0.134-1.053-0.286-1.577-0.444c0-0.041,0.002-0.081-0.003-0.125l-2.136-16.87c-0.005-0.042-0.017-0.079-0.027-0.117
					c0.519,0.125,1.035,0.261,1.549,0.402c1.731,0.478,3.448,0.88,5.257,0.681c1.843-0.203,3.605-0.888,5.315-1.57
					c0.246-0.098,0.49-0.201,0.734-0.303l2.219,17.524c0.004,0.03,0.013,0.056,0.019,0.084c-0.825,0.265-1.662,0.483-2.496,0.651
					C292.532,45.815,291.777,45.933,291.018,46.025z M306.214,35.349c-1.172,4.376-4.656,7.325-8.679,9.014l-2.232-17.624
					c-0.004-0.028-0.012-0.051-0.018-0.078c0.869-0.38,1.736-0.767,2.607-1.147c1.447-0.63,3.063-1.198,4.611-0.572
					c1.259,0.509,2.249,1.558,2.927,2.713C306.786,29.962,306.894,32.811,306.214,35.349z"/>
				<path style="fill:#3C2C06;" d="M296.245,99.261c-36.392,4.607-69.623-20.274-74.079-55.466
					c-4.456-35.192,21.526-67.57,57.918-72.178c36.391-4.608,69.623,20.274,74.079,55.466
					C358.618,62.275,332.637,94.654,296.245,99.261z M280.377-26.071c-35.117,4.446-60.194,35.657-55.9,69.574
					c4.294,33.917,36.358,57.893,71.475,53.447c35.117-4.446,60.193-35.657,55.899-69.574
					C347.557-6.541,315.494-30.518,280.377-26.071z"/>
				<path style="fill:#3C2C06;" d="M294.705,87.098c-29.456,3.729-56.354-16.41-59.961-44.895
					c-3.606-28.485,17.424-54.693,46.88-58.422s56.354,16.41,59.961,44.895C345.191,57.16,324.161,83.368,294.705,87.098z
					 M281.861-14.349c-28.424,3.599-48.722,28.861-45.246,56.315c3.476,27.453,29.429,46.86,57.853,43.261
					c28.424-3.599,48.721-28.861,45.245-56.314C336.238,1.46,310.286-17.947,281.861-14.349z"/>
				<path style="fill:#3C2C06;" d="M261.275,28.354c0.368,2.904-1.688,5.556-4.592,5.924c-2.904,0.368-5.556-1.688-5.923-4.592
					c-0.368-2.904,1.688-5.556,4.592-5.924C258.255,23.395,260.907,25.451,261.275,28.354z"/>
				<path style="fill:#3C2C06;" d="M324.698,20.324c0.368,2.904-1.688,5.556-4.592,5.924c-2.904,0.368-5.556-1.688-5.924-4.592
					c-0.368-2.904,1.688-5.556,4.592-5.924C321.678,15.365,324.33,17.421,324.698,20.324z"/>
				<path style="fill:#D06BA9;" d="M268.48,46.255c0.708,5.588-3.249,10.692-8.837,11.4c-5.588,0.708-10.692-3.249-11.4-8.837
					c-0.708-5.588,3.249-10.692,8.837-11.4C262.669,36.71,267.772,40.666,268.48,46.255z"/>
				<path style="fill:#D06BA9;" d="M332.699,37.583c0.708,5.588-3.249,10.692-8.837,11.4c-5.588,0.708-10.692-3.249-11.4-8.837
					c-0.708-5.588,3.249-10.692,8.837-11.4C326.887,28.038,331.991,31.994,332.699,37.583z"/>
				<path style="fill:#3C2C06;" d="M307.907,28.752c-0.961-3.036-3.547-5.936-6.936-5.914c-1.973,0.013-3.78,0.992-5.538,1.773
					c-1.817,0.806-3.659,1.6-5.544,2.234c-0.884,0.297-1.785,0.528-2.714,0.622c-0.943,0.095-1.87-0.008-2.795-0.204
					c-1.761-0.375-3.462-0.965-5.244-1.256c-3.351-0.547-7.118-0.142-9.293,2.777c-1.911,2.566-2.075,6.079-0.809,8.957
					c1.406,3.198,4.218,5.491,7.281,7.021c1.65,0.824,3.391,1.445,5.144,2.01c1.785,0.575,3.612,1.136,5.492,1.282
					c0.932,0.073,1.871,0.051,2.793-0.106c0.032-0.005,0.057-0.018,0.087-0.025c0.105,0.025,0.212,0.037,0.322,0.024l0.816-0.103
					c0.002,0,0.004-0.001,0.006-0.001c0.084,0.014,0.175,0.016,0.273,0.004c6.451-0.781,13.322-3.81,16.058-10.103
					C308.529,34.928,308.838,31.694,307.907,28.752z M278.892,28.541l2.043,16.137c-0.46-0.162-0.918-0.329-1.371-0.503
					c-2.954-1.13-5.832-2.695-7.749-5.285c-1.631-2.202-2.328-5.07-1.256-7.673c0.494-1.199,1.35-2.249,2.515-2.849
					c1.334-0.687,2.848-0.84,4.328-0.727c0.565,0.043,1.125,0.119,1.682,0.216C278.939,28.025,278.856,28.254,278.892,28.541z
					 M291.018,46.025c-0.006,0.001-0.011,0.003-0.018,0.004c-0.086-0.014-0.173-0.018-0.262-0.007l-0.816,0.103
					c-0.021,0.002-0.04,0.01-0.061,0.013c-0.105-0.023-0.218-0.034-0.348-0.012c-1.712,0.292-3.417,0.047-5.086-0.377
					c-0.528-0.134-1.053-0.286-1.577-0.444c0-0.041,0.002-0.081-0.003-0.125l-2.136-16.87c-0.005-0.042-0.017-0.079-0.027-0.117
					c0.519,0.125,1.035,0.261,1.549,0.402c1.731,0.478,3.448,0.88,5.257,0.681c1.843-0.203,3.605-0.888,5.315-1.57
					c0.246-0.098,0.49-0.201,0.734-0.303l2.219,17.524c0.004,0.03,0.013,0.056,0.019,0.084c-0.825,0.265-1.662,0.483-2.496,0.651
					C292.532,45.815,291.777,45.933,291.018,46.025z M306.214,35.349c-1.172,4.376-4.656,7.325-8.679,9.014l-2.232-17.624
					c-0.004-0.028-0.012-0.051-0.018-0.078c0.869-0.38,1.736-0.767,2.607-1.147c1.447-0.63,3.063-1.198,4.611-0.572
					c1.259,0.509,2.249,1.558,2.927,2.713C306.786,29.962,306.894,32.811,306.214,35.349z"/>
			</g>
			<g>
				<path style="fill:#7753B1;" d="M88.263,296.425c-1.897-2.389-4.278-4.43-6.973-5.867c-3.243-1.729-6.86-2.601-10.511-2.858
					c-6.42-0.453-12.934,0.931-18.818,3.465c-5.488,2.364-10.504,5.848-14.691,10.106c-4.235,4.306-7.621,9.419-9.851,15.035
					c-0.536,1.351-0.999,2.729-1.39,4.129c-0.043,0.154-0.046,0.294-0.023,0.422c-2.163,3.433-4.536,6.722-7.349,9.66
					c-2.407,2.514-5.108,4.749-8.127,6.493c-3.071,1.775-6.377,2.899-9.881,3.425c-3.805,0.571-7.75,0.664-11.363,2.12
					c-3.129,1.261-5.817,3.357-8.043,5.873c-4.862,5.495-7.35,12.445-10.954,18.729c-1.783,3.109-3.869,6.028-6.621,8.354
					c-1.31,1.108-2.791,2.092-4.379,2.824c-1.388,0.369-2.793,0.681-4.214,0.923c-0.847,0.145-1.698,0.263-2.552,0.357
					c-1.178,0.129-1.215,1.776,0,1.862c2.636,0.187,5.138-0.366,7.444-1.415c4.569-1.23,8.964-3.084,13.093-5.432
					c6.295-3.579,11.932-8.237,16.898-13.49c2.328-2.462,4.618-5.065,7.421-7.004c1.328-0.918,2.76-1.683,4.321-2.117
					c1.713-0.477,3.492-0.49,5.244-0.224c3.843,0.583,7.621,2.059,11.556,1.371c3.538-0.618,6.381-2.991,9.245-4.98
					c1.413-0.982,2.882-1.901,4.493-2.521c1.56-0.6,3.21-0.996,4.876-1.142c0.37-0.033,0.741-0.052,1.112-0.064
					c0.75,0.531,1.54,1.01,2.375,1.417c3.028,1.477,6.37,2.135,9.72,2.272c3.403,0.14,6.819-0.257,10.156-0.906
					c3.431-0.668,6.803-1.654,10.031-2.996c6.333-2.633,12.153-6.609,16.406-12.043c4.12-5.264,6.82-11.676,7.072-18.403
					C94.22,307.562,92.142,301.31,88.263,296.425z M43.191,344.957c0.72,0.17,1.43,0.382,2.123,0.64
					C44.593,345.421,43.884,345.209,43.191,344.957z"/>
				<path style="fill:#3C2C06;" d="M55.618,313.181c-2.14-0.432-4.294-0.78-6.459-1.059c-0.5-0.064-0.931,0.474-0.931,0.931
					c0,0.557,0.43,0.866,0.931,0.931c1.675,0.216,3.342,0.49,5,0.806c-0.533,1.631-1.065,3.262-1.597,4.893
					c-0.156,0.478,0.182,1.017,0.65,1.145c0.505,0.139,0.989-0.171,1.145-0.65c0.637-1.951,1.274-3.901,1.91-5.852
					C56.417,313.872,56.095,313.277,55.618,313.181z"/>
				<path style="fill:#3C2C06;" d="M80.588,303.933c-1.632-0.274-3.235-0.693-4.794-1.245c0.483-1.397,1.014-2.745,1.584-4.009
					c0.2-0.443,0.142-1.022-0.334-1.274c-0.407-0.215-1.06-0.14-1.274,0.334c-0.768,1.702-1.451,3.441-2.033,5.216
					c-0.152,0.463,0.176,1.037,0.65,1.145c0.094,0.021,0.185,0.025,0.274,0.022c0.114,0.129,0.267,0.232,0.449,0.298
					c1.619,0.586,3.286,1.023,4.983,1.308c0.479,0.081,1.026-0.126,1.145-0.65C81.341,304.629,81.102,304.02,80.588,303.933z"/>
				<path style="fill:#3C2C06;" d="M72.328,310.159c-0.121-1.851-1.021-3.469-1.949-5.029c-0.612-1.029-2.223-0.093-1.608,0.94
					c0.832,1.399,1.755,2.895,1.704,4.584c-0.038,1.279-0.816,2.282-1.964,2.792c-2.661,1.182-5.304-0.712-6.908-2.729
					c-0.313-0.394-0.99-0.327-1.317,0c-0.389,0.389-0.314,0.922,0,1.317c1.683,2.117,4.282,3.918,7.11,3.597
					C70.234,315.308,72.523,313.137,72.328,310.159z"/>
				<path style="fill:#3C2C06;" d="M27.425,318.271c-0.463-0.127-1.04,0.156-1.145,0.65c-0.637,2.997-0.702,6.047-0.219,9.071
					c0.079,0.497,0.699,0.773,1.145,0.65c0.529-0.145,0.73-0.647,0.65-1.145c-0.427-2.675-0.344-5.433,0.219-8.081
					C28.18,318.924,27.93,318.409,27.425,318.271z"/>
				<path style="fill:#3C2C06;" d="M38.799,344.233c-2.532-1.152-4.646-2.823-6.357-5.024c-0.309-0.397-0.992-0.324-1.317,0
					c-0.392,0.392-0.31,0.918,0,1.317c1.771,2.277,4.109,4.12,6.734,5.315c0.457,0.208,1.002,0.131,1.274-0.334
					C39.367,345.107,39.259,344.442,38.799,344.233z"/>
				<path style="fill:#D06BA9;" d="M62.545,325.253c0,2.608-2.115,4.723-4.723,4.723c-2.608,0-4.723-2.115-4.723-4.723
					c0-2.608,2.115-4.723,4.723-4.723C60.43,320.53,62.545,322.644,62.545,325.253z"/>
				<circle style="fill:#D06BA9;" cx="82.788" cy="312.116" r="4.723"/>
			</g>
			<g>
				<path style="fill:#7753B1;" d="M172.02,311.119c-2.44-5.444-6.774-9.93-12.304-12.232c-6.343-2.64-13.607-2.301-20.151-0.629
					c-6.426,1.641-12.503,4.715-17.499,9.092c-4.833,4.234-8.57,9.741-10.618,15.838c-0.329,0.978-0.605,1.972-0.84,2.976
					c-2.013,3.826-4.642,7.327-7.75,10.344c-2.461,2.389-5.209,4.464-8.19,6.161c-3.167,1.803-6.542,3.041-10.027,4.074
					c-3.733,1.107-7.514,2.07-11.096,3.622c-3.553,1.539-6.683,3.772-9.242,6.683c-5.281,6.006-7.932,13.643-11.823,20.511
					c-1.928,3.404-4.198,6.638-7.208,9.174c-2.714,2.286-6.102,4.06-9.677,4.389c-0.885,0.081-1.772,0.077-2.657-0.004
					c-1.048-0.095-1.261,1.593-0.247,1.829c7.762,1.807,16.108,0.356,22.95-3.684c3.423-2.021,6.426-4.685,8.816-7.861
					c2.376-3.158,4.152-6.708,6.354-9.982c2.122-3.154,4.77-6.052,8.41-7.42c4.106-1.543,8.592-1.263,12.887-1.004
					c4.436,0.268,8.911,0.544,13.265-0.559c4.137-1.048,7.935-3.118,11.275-5.745c1.885-1.483,3.582-3.144,5.128-4.932
					c1.451,0.734,2.986,1.305,4.569,1.72c3.301,0.866,6.753,1.11,10.155,1.025c3.349-0.084,6.701-0.501,9.962-1.271
					c6.421-1.516,12.572-4.474,17.461-8.947c4.545-4.158,8.009-9.615,9.556-15.598C174.997,322.82,174.501,316.654,172.02,311.119z"
					/>
				<path style="fill:#3C2C06;" d="M140.757,317.004c-0.532-0.43-1.164-0.693-1.826-0.754c-0.168-0.041-0.34-0.069-0.524-0.086
					c-0.399-0.039-0.804,0.021-1.168,0.188c-0.108,0.015-0.214,0.052-0.313,0.118c-0.787,0.528-1.397,1.259-1.712,2.158
					c-0.32,0.912-0.148,1.876,0.406,2.645c0.329,0.642,0.893,1.192,1.49,1.484c0.563,0.275,1.147,0.382,1.761,0.289
					c0.787,0.036,1.568-0.214,2.133-0.811C142.342,320.819,142.304,318.254,140.757,317.004z"/>
				<path style="fill:#3C2C06;" d="M162.474,307.541c-0.789-0.638-1.797-0.924-2.799-0.701c-0.101,0.022-0.197,0.054-0.293,0.088
					c-0.242-0.083-0.511-0.075-0.739,0.078c-0.787,0.528-1.397,1.259-1.712,2.158c-0.339,0.966-0.132,1.993,0.503,2.781
					c0.576,0.716,1.5,1.259,2.378,1.509c1.024,0.292,2.158,0.112,2.91-0.684C164.059,311.357,164.021,308.792,162.474,307.541z"/>
				<path style="fill:#3C2C06;" d="M155.454,317.048c-0.092-1.375-0.709-2.623-1.499-3.729c-0.292-0.409-0.812-0.604-1.274-0.334
					c-0.404,0.236-0.628,0.862-0.334,1.274c0.642,0.9,1.262,1.934,1.253,3.075c-0.006,0.799-0.363,1.684-1.115,2.011
					c-0.852,0.371-1.853,0.1-2.641-0.399c-0.973-0.617-1.7-1.582-2.405-2.473c-0.312-0.395-0.99-0.326-1.317,0
					c-0.39,0.39-0.313,0.921,0,1.317c1.384,1.75,3.029,3.53,5.43,3.579c1.096,0.022,2.221-0.402,2.928-1.259
					C155.18,319.262,155.527,318.145,155.454,317.048z"/>
				<path style="fill:#3C2C06;" d="M111.212,325.283c-0.463-0.127-1.04,0.156-1.145,0.65c-0.637,2.997-0.702,6.047-0.219,9.071
					c0.08,0.497,0.699,0.773,1.145,0.65c0.529-0.145,0.73-0.647,0.65-1.145c-0.428-2.675-0.344-5.433,0.219-8.081
					C111.967,325.937,111.717,325.422,111.212,325.283z"/>
				<path style="fill:#3C2C06;" d="M122.585,351.245c-2.532-1.152-4.646-2.823-6.357-5.024c-0.309-0.397-0.992-0.324-1.317,0
					c-0.392,0.392-0.31,0.919,0,1.317c1.771,2.277,4.109,4.12,6.734,5.315c0.457,0.208,1.002,0.131,1.274-0.334
					C123.153,352.12,123.045,351.455,122.585,351.245z"/>
				<path style="fill:#D06BA9;" d="M146.688,328.671c0,2.608-2.115,4.723-4.723,4.723c-2.609,0-4.723-2.115-4.723-4.723
					s2.115-4.723,4.723-4.723C144.573,323.948,146.688,326.063,146.688,328.671z"/>
				<path style="fill:#D06BA9;" d="M168.589,318.24c0,2.608-2.115,4.723-4.723,4.723c-2.608,0-4.723-2.115-4.723-4.723
					c0-2.608,2.115-4.723,4.723-4.723C166.475,313.517,168.589,315.632,168.589,318.24z"/>
			</g>
			<g>
				<path style="fill:#7753B1;" d="M114.399,395.886c-1.316-3.11-3.336-5.924-5.989-8.031c-2.62-2.081-5.682-3.506-8.9-4.393
					c-6.645-1.83-13.911-1.629-20.567,0.035c-6.653,1.664-12.892,4.949-17.903,9.646c-4.184,3.921-7.494,8.781-9.586,14.121
					c-1.372,2.067-2.66,4.191-3.928,6.282c-4.05,6.678-8.526,13.831-15.645,17.592c-7.444,3.932-16.352,2.5-24.016,5.769
					c-3.864,1.648-6.891,4.554-9.223,8.003c-2.405,3.559-4.014,7.557-5.643,11.509c-1.667,4.044-3.397,8.235-6.178,11.662
					c-2.276,2.805-5.267,5.206-8.786,6.182c-0.224,0.036-0.448,0.076-0.673,0.109c-0.925,0.137-1.854,0.24-2.786,0.322
					c-1.177,0.103-1.217,1.837,0,1.862c1.324,0.027,2.617-0.15,3.865-0.489c6.417-1.045,12.623-3.264,18.26-6.523
					c3.349-1.936,6.495-4.239,9.352-6.847c2.766-2.526,5.104-5.39,7.451-8.296c2.172-2.689,4.463-5.482,7.461-7.287
					c1.423-0.857,3.015-1.471,4.675-1.649c2.024-0.217,4.049,0.091,6.037,0.456c2.049,0.377,4.106,0.819,6.194,0.895
					c1.975,0.072,3.898-0.262,5.703-1.068c3.09-1.381,5.456-3.954,7.905-6.208c1.549-1.425,3.238-2.813,5.156-3.663
					c1.775,1.465,3.788,2.635,5.915,3.525c6.415,2.684,13.78,2.915,20.567,1.784c6.96-1.159,13.595-4.044,19.111-8.452
					c5.087-4.065,9.125-9.404,11.601-15.428C116.612,410.542,117.296,402.732,114.399,395.886z"/>
				<polygon style="fill:#3C2C06;" points="82.788,408.757 79.027,403.423 75.44,402.067 71.172,403.994 68.678,407.283
					69.229,409.874 71.058,414.771 72.907,413.936 71.054,409.41 71.107,406.991 72.748,404.851 75.868,404.015 78.144,404.832
					81.009,409.77 				"/>
				<polygon style="fill:#3C2C06;" points="104.634,396.053 100.874,390.719 97.286,389.363 93.018,391.29 90.524,394.58
					91.076,397.171 92.905,402.067 94.753,401.232 92.901,396.706 92.953,394.287 94.594,392.148 97.714,391.311 99.99,392.128
					102.855,397.066 				"/>
				<path style="fill:#3C2C06;" d="M91.916,403.428c-0.24-0.424-0.855-0.604-1.274-0.334c-0.429,0.276-0.591,0.82-0.334,1.274
					c0.02,0.036,0.09,0.194,0.089,0.178c0.012,0.033,0.024,0.065,0.034,0.098c0.026,0.086,0.043,0.174,0.063,0.262
					c0,0.002,0.001,0.002,0.001,0.004c0,0.006,0,0.008,0,0.016c0.002,0.108,0.058,0.382-0.007,0.474
					c0.02-0.135,0.022-0.15,0.005-0.045c-0.008,0.045-0.017,0.09-0.027,0.134c-0.015,0.067-0.032,0.133-0.052,0.199
					c-0.018,0.061-0.04,0.12-0.062,0.18c-0.012,0.03-0.035,0.086-0.047,0.11c-0.071,0.142-0.156,0.273-0.245,0.404
					c-0.025,0.03-0.05,0.06-0.077,0.088c-0.046,0.051-0.095,0.1-0.145,0.148c-0.028,0.027-0.163,0.129-0.153,0.127
					c-0.04,0.028-0.08,0.056-0.122,0.081c-0.071,0.043-0.145,0.079-0.218,0.118c-0.011,0.006-0.015,0.008-0.022,0.012
					c-0.013,0.003-0.033,0.009-0.07,0.022c-0.083,0.028-0.167,0.053-0.252,0.074c-0.012,0.003-0.082,0.018-0.138,0.03
					c-0.023,0-0.186,0.021-0.208,0.022c-0.088,0.004-0.176,0.005-0.263,0.003c-0.061-0.002-0.121-0.007-0.181-0.012
					c0.048,0.002-0.13-0.015-0.172-0.024c-0.174-0.035-0.345-0.082-0.513-0.142c-0.042-0.015-0.062-0.021-0.074-0.024
					c-0.007-0.004-0.011-0.006-0.021-0.011c-0.08-0.039-0.16-0.077-0.239-0.121c-0.078-0.043-0.154-0.089-0.229-0.137
					c-0.015-0.009-0.111-0.078-0.154-0.108c-0.042-0.037-0.127-0.108-0.139-0.119c-0.075-0.069-0.145-0.142-0.214-0.216
					c-0.332-0.358-0.986-0.361-1.317,0c-0.352,0.383-0.354,0.935,0,1.317c1.066,1.15,2.713,1.679,4.247,1.362
					c1.436-0.297,2.604-1.522,2.889-2.955C92.445,405.06,92.35,404.194,91.916,403.428z"/>
				<path style="fill:#3C2C06;" d="M50.191,410.236c-0.463-0.127-1.04,0.156-1.145,0.65c-0.637,2.997-0.702,6.047-0.219,9.071
					c0.08,0.497,0.699,0.773,1.145,0.65c0.529-0.145,0.73-0.647,0.65-1.145c-0.428-2.675-0.344-5.433,0.219-8.081
					C50.946,410.889,50.696,410.374,50.191,410.236z"/>
				<path style="fill:#3C2C06;" d="M61.564,436.198c-2.532-1.152-4.646-2.823-6.357-5.024c-0.309-0.397-0.992-0.324-1.317,0
					c-0.392,0.392-0.31,0.918,0,1.317c1.771,2.277,4.109,4.12,6.734,5.315c0.457,0.208,1.002,0.131,1.274-0.334
					C62.132,437.072,62.024,436.407,61.564,436.198z"/>
				<circle style="fill:#D06BA9;" cx="78.065" cy="419.494" r="4.723"/>
				<path style="fill:#D06BA9;" d="M107.908,405.964c0,2.608-2.115,4.723-4.723,4.723c-2.608,0-4.723-2.115-4.723-4.723
					c0-2.608,2.115-4.723,4.723-4.723C105.793,401.241,107.908,403.355,107.908,405.964z"/>
			</g>
			<g>
				<path style="fill:#D3DEE2;" d="M165.876,451.118l-15.949,17.542l-17.839-16.218c-2.141-1.947-5.485-1.787-7.432,0.354
					l-8.747,9.621c-1.946,2.141-1.787,5.485,0.354,7.432l53.415,48.563c2.141,1.946,5.485,1.787,7.432-0.354l8.747-9.62
					c1.946-2.141,1.787-5.485-0.354-7.432l-17.839-16.218l15.933-17.525C177.898,461.668,172.042,456.259,165.876,451.118z"/>
				<path style="fill:#D3DEE2;" d="M213.297,471.078c1.858,0.518,3.939,0.002,5.319-1.516l54.138-59.547
					c1.947-2.141,1.787-5.485-0.354-7.432l-3.176-2.887c1.642-0.001,3.367-0.733,4.648-2.142l1.213-1.334
					c2.229-2.451,2.3-6.05,0.159-7.996l-39.406-35.826c-2.141-1.947-5.716-1.533-7.945,0.918l-1.213,1.334
					c-1.281,1.409-1.845,3.195-1.691,4.83l-3.176-2.887c-2.141-1.947-5.485-1.787-7.432,0.354l-54.137,59.547
					c-1.263,1.389-1.634,3.283-1.158,4.975C176.342,438.901,193.842,456.065,213.297,471.078z"/>
				<path style="fill:#D3DEE2;" d="M222.199,479.929l-11.014-10.014c0.623,0.567,1.35,0.949,2.113,1.162
					c-19.455-15.013-36.955-32.177-54.21-49.61c0.258,0.916,0.76,1.773,1.512,2.457l-11.014-10.014
					c-2.141-1.946-5.485-1.787-7.432,0.354l-3.868,4.255c-1.947,2.141-1.787,5.485,0.354,7.432l27.438,24.946l-0.2,0.22
					c6.165,5.141,12.021,10.551,17.722,16.143l0.216-0.237l27.438,24.946c2.141,1.947,5.485,1.787,7.432-0.354l3.868-4.255
					C224.499,485.22,224.34,481.875,222.199,479.929z"/>
				<path style="fill:#3C2C06;" d="M185.605,499.624l-52.47-47.704c-0.835-0.759-2.016,0.537-1.18,1.298l52.47,47.704
					C185.26,501.68,186.441,500.384,185.605,499.624z"/>
				<path style="fill:#3C2C06;" d="M169.637,517.187l-52.47-47.704c-0.835-0.759-2.016,0.537-1.18,1.298l52.47,47.704
					C169.292,519.244,170.473,517.948,169.637,517.187z"/>
				<path style="fill:#3C2C06;" d="M212.657,492.061l-74.563-67.789c-0.835-0.759-2.016,0.537-1.18,1.298l74.563,67.789
					C212.312,494.118,213.493,492.822,212.657,492.061z"/>
				<path style="fill:#3C2C06;" d="M274.688,404.067l-54.886-49.901c-0.835-0.759-2.016,0.537-1.18,1.298l54.886,49.901
					C274.344,406.124,275.525,404.827,274.688,404.067z"/>
				<path style="fill:#3C2C06;" d="M276.054,387.654l-40.043-36.405c-0.835-0.759-2.016,0.537-1.18,1.298l40.043,36.405
					C275.709,389.71,276.891,388.414,276.054,387.654z"/>
				<path style="fill:#3C2C06;" d="M308.848,310.055l-53.667,59.029c-0.759,0.835,0.537,2.016,1.298,1.18l53.666-59.029
					C310.905,310.4,309.608,309.219,308.848,310.055z"/>
				<path style="fill:#3C2C06;" d="M222.69,381.307c-1.56,1.716-4.215,1.842-5.931,0.282c-1.716-1.56-1.842-4.215-0.282-5.931
					c1.56-1.716,4.215-1.842,5.931-0.282C224.124,376.935,224.25,379.591,222.69,381.307z"/>
				<path style="fill:#3C2C06;" d="M254.448,410.18c-1.56,1.716-4.215,1.842-5.931,0.282c-1.716-1.56-1.842-4.215-0.282-5.931
					c1.56-1.716,4.215-1.842,5.931-0.282C255.882,405.809,256.008,408.464,254.448,410.18z"/>
				<path style="fill:#3C2C06;" d="M237.841,399.439c-1.767,1.89-4.726,2.538-7.145,1.632c-2.529-0.947-4.039-3.515-4.057-6.159
					c-0.012-1.755,0.781-3.172,1.772-4.568c0.274-0.386,0.322-0.893-0.059-1.239c-0.318-0.289-0.963-0.33-1.239,0.059
					c-0.608,0.857-1.242,1.722-1.636,2.703c-0.311,0.776-0.496,1.572-0.561,2.404c-0.129,1.666,0.248,3.334,1.033,4.806
					c1.586,2.973,4.943,4.544,8.252,4.052c1.882-0.28,3.63-1.113,4.938-2.512C239.91,399.794,238.612,398.614,237.841,399.439z"/>

					<rect x="169.924" y="403.706" transform="matrix(0.7399 0.6727 -0.6727 0.7399 340.7971 -24.7791)" style="fill:#E0A702;" width="65.039" height="49.27"/>
				<path style="fill:#3C2C06;" d="M223.604,480.021l-74.563-67.789c-0.835-0.759-2.016,0.537-1.18,1.298l74.563,67.789
					C223.259,482.078,224.44,480.781,223.604,480.021z"/>
				<g>

						<rect x="232.759" y="428" transform="matrix(0.7399 0.6727 -0.6727 0.7399 350.7373 -48.5753)" style="fill:#3C2C06;" width="10.858" height="2.594"/>

						<rect x="225.856" y="435.592" transform="matrix(0.7399 0.6727 -0.6727 0.7399 354.0494 -41.9572)" style="fill:#3C2C06;" width="10.858" height="2.594"/>

						<rect x="218.954" y="443.185" transform="matrix(0.7399 0.6727 -0.6727 0.7399 357.3615 -35.3391)" style="fill:#3C2C06;" width="10.858" height="2.594"/>

						<rect x="212.051" y="450.777" transform="matrix(0.7399 0.6727 -0.6727 0.7399 360.6736 -28.721)" style="fill:#3C2C06;" width="10.858" height="2.594"/>

						<rect x="205.148" y="458.369" transform="matrix(0.7399 0.6727 -0.6727 0.7399 363.9857 -22.1029)" style="fill:#3C2C06;" width="10.858" height="2.594"/>
				</g>
			</g>
			<path style="fill:#7753B1;" d="M160.451,23.623C146.118-3.237,112.724-13.392,85.864,0.94
				c-26.86,14.333-37.016,47.727-22.683,74.587c11.529,21.606,35.391,32.399,58.265,28.337l7.115,13.334l-12.365,6.598l9.887,18.529
				l12.365-6.598l9.498,17.8l-11.346,6.054l40.788,12.88l12.01-41.053l-10.296,5.494l-9.498-17.8l11.314-6.037l-9.887-18.529
				l-11.314,6.037l-7.305-13.689C167.812,70.129,171.772,44.839,160.451,23.623z M124.715,73.749
				c-13.351,7.124-29.949,2.076-37.073-11.274c-7.124-13.351-2.076-29.949,11.274-37.073c13.351-7.124,29.949-2.076,37.073,11.274
				C143.113,50.027,138.066,66.625,124.715,73.749z"/>
			<g>
				<path style="fill:#D3DEE2;" d="M116.365,217.993l-37.118-88.572c-8.681-20.716-29.607-32.774-50.906-31.315l-3.882-9.262
					C21.23,81.139,12.285,77.477,4.58,80.706l0,0c-7.705,3.229-11.367,12.174-8.138,19.879l3.583,8.551
					c-17.441,13.94-24.382,38.367-15.351,59.917l37.1,88.531c-3.698,3.452-5.07,8.991-3.008,13.913
					c2.643,6.307,9.966,9.305,16.273,6.662l86.569-36.279c6.307-2.643,9.305-9.966,6.662-16.273
					C126.225,220.726,121.376,217.829,116.365,217.993z"/>
				<path style="fill:#3C2C06;" d="M7.63,155.309c1.293,3.085-0.16,6.633-3.245,7.926c-3.085,1.293-6.634-0.16-7.926-3.245
					c-1.293-3.085,0.16-6.633,3.245-7.926C2.789,150.772,6.338,152.225,7.63,155.309z"/>
				<path style="fill:#3C2C06;" d="M64.726,131.382c1.293,3.085-0.16,6.633-3.245,7.926c-3.085,1.293-6.633-0.16-7.926-3.245
					c-1.293-3.085,0.16-6.633,3.245-7.926C59.885,126.845,63.433,128.298,64.726,131.382z"/>
				<path style="fill:#3C2C06;" d="M40.566,146.549c1.394,3.462,0.438,7.724-2.22,10.336c-2.778,2.729-7.056,3.138-10.523,1.552
					c-2.302-1.053-3.671-2.954-4.892-5.1c-0.338-0.594-0.971-0.964-1.655-0.678c-0.571,0.24-1.018,1.058-0.678,1.655
					c0.75,1.317,1.494,2.672,2.538,3.785c0.825,0.88,1.752,1.606,2.802,2.198c2.099,1.184,4.51,1.707,6.912,1.577
					c4.854-0.262,8.952-3.694,10.325-8.319c0.781-2.631,0.756-5.424-0.276-7.985C42.291,144.062,39.958,145.039,40.566,146.549z"/>
				<path style="fill:#3C2C06;" d="M25.872,97.87c-3.714-0.028-7.266,1.017-10.638,2.515c-3.519,1.563-6.88,3.488-10.275,5.298
					c-0.463,0.247-0.736,0.755-0.52,1.27c0.188,0.449,0.805,0.768,1.27,0.52c3.294-1.757,6.556-3.615,9.959-5.156
					c3.123-1.414,6.48-2.549,9.948-2.523c0.524,0.004,1.015-0.27,1.09-0.834C26.768,98.491,26.399,97.874,25.872,97.87z"/>
				<path style="fill:#3C2C06;" d="M111.743,217.688l-87.878,36.827c-1.152,0.483-0.404,2.274,0.75,1.79l87.878-36.827
					C113.646,218.995,112.897,217.204,111.743,217.688z"/>
				<path style="fill:#D06BA9;" d="M18.728,174.138c2.177,5.195-0.269,11.172-5.465,13.349c-5.195,2.177-11.172-0.27-13.349-5.465
					c-2.177-5.195,0.27-11.172,5.465-13.349C10.575,166.496,16.551,168.943,18.728,174.138z"/>
				<path style="fill:#D06BA9;" d="M76.214,148.076c2.177,5.195-0.27,11.172-5.465,13.349c-5.195,2.177-11.172-0.27-13.349-5.465
					c-2.177-5.195,0.27-11.172,5.465-13.349C68.061,140.435,74.037,142.881,76.214,148.076z"/>
				<path style="fill:#FFFFFF;" d="M36.776,103.315c-2.956-0.497-8.633-0.584-9.956,2.708c-0.2,0.145-0.369,0.343-0.49,0.577
					c-1.858,3.619-0.399,8.078,2.601,10.582c3.103,2.59,7.725,3.34,11.542,2.142c1.957-0.614,3.684-1.908,4.632-3.746
					c0.868-1.682,0.862-3.636,0.343-5.419C44.301,106.225,40.636,103.964,36.776,103.315z"/>
				<path style="fill:#FFFFFF;" d="M113.454,233.774l-51.236,21.471c-1.762,0.739-3.808-0.099-4.547-1.861l-0.757-1.808
					c-0.739-1.762,0.099-3.808,1.861-4.547l51.236-21.472c1.762-0.738,3.808,0.099,4.547,1.861l0.758,1.808
					C116.054,230.99,115.216,233.036,113.454,233.774z"/>
			</g>
			<g>
				<path style="fill:#D3DEE2;" d="M570.237,458.047l-6.419,0.813c0.93-4.831,1.124-9.799,0.489-14.816
					c-4.025-31.788-39.676-53.456-79.629-48.397c-39.953,5.059-69.079,34.928-65.054,66.716c0.635,5.017,2.061,9.78,4.166,14.227
					l-6.016,0.762c-4.574,0.579-7.843,4.796-7.264,9.37v0c0.579,4.574,4.795,7.843,9.37,7.264l152.465-19.304
					c4.574-0.579,7.843-4.795,7.264-9.37v0C579.028,460.736,574.811,457.467,570.237,458.047z"/>
				<path style="fill:#3C2C06;" d="M566.483,457.791l-143.649,18.188c-1.12,0.142-0.901,1.882,0.22,1.74l143.649-18.188
					C567.823,459.389,567.604,457.649,566.483,457.791z"/>
				<polygon style="fill:#3C2C06;" points="445.364,421.392 447.92,429.211 451.74,432.173 457.597,431.431 461.819,428.391
					462.114,425.065 461.723,418.488 459.186,418.81 459.743,424.949 458.784,427.844 456.014,429.815 451.946,429.667
					449.506,427.841 447.882,420.83 				"/>
				<polygon style="fill:#3C2C06;" points="514.096,412.69 516.652,420.509 520.472,423.471 526.329,422.729 530.551,419.689
					530.846,416.363 530.455,409.786 527.918,410.107 528.475,416.247 527.516,419.142 524.746,421.112 520.678,420.965
					518.238,419.138 516.614,412.128 				"/>
				<path style="fill:#FFF5CC;" d="M480.783,423.268l1.954,15.434c-0.44-0.155-0.878-0.315-1.311-0.481
					c-2.825-1.08-5.578-2.578-7.412-5.055c-1.56-2.106-2.227-4.849-1.201-7.339c0.472-1.147,1.291-2.151,2.406-2.724
					c1.276-0.657,2.724-0.803,4.139-0.696c0.54,0.041,1.076,0.114,1.609,0.207C480.827,422.774,480.748,422.994,480.783,423.268z
					 M492.381,439.991c-0.006,0.001-0.011,0.003-0.017,0.004c-0.082-0.013-0.165-0.017-0.25-0.006l-0.781,0.099
					c-0.02,0.002-0.039,0.009-0.058,0.013c-0.101-0.022-0.209-0.032-0.333-0.011c-1.638,0.279-3.268,0.045-4.864-0.361
					c-0.505-0.128-1.007-0.273-1.508-0.425c0-0.039,0.002-0.078-0.003-0.12l-2.043-16.136c-0.005-0.04-0.016-0.075-0.026-0.112
					c0.496,0.119,0.99,0.249,1.481,0.385c1.655,0.457,3.298,0.842,5.028,0.651c1.763-0.194,3.448-0.849,5.083-1.501
					c0.235-0.094,0.468-0.192,0.702-0.289l2.122,16.761c0.004,0.029,0.013,0.053,0.018,0.081c-0.789,0.254-1.589,0.462-2.387,0.623
					C493.829,439.79,493.107,439.903,492.381,439.991z M506.915,429.78c-1.121,4.186-4.454,7.006-8.302,8.622l-2.134-16.857
					c-0.003-0.027-0.012-0.049-0.017-0.074c0.832-0.364,1.66-0.734,2.493-1.097c1.384-0.603,2.93-1.146,4.41-0.548
					c1.204,0.487,2.151,1.49,2.8,2.595C507.462,424.628,507.565,427.352,506.915,429.78z"/>
				<path style="fill:#D06BA9;" d="M465.696,442.57c0.639,5.048-2.935,9.659-7.983,10.298c-5.048,0.639-9.659-2.935-10.298-7.983
					c-0.639-5.048,2.935-9.659,7.983-10.298C460.446,433.947,465.057,437.521,465.696,442.57z"/>
				<path style="fill:#D06BA9;" d="M536.453,433.611c0.639,5.048-2.935,9.659-7.984,10.298c-5.048,0.639-9.659-2.935-10.298-7.983
					c-0.639-5.048,2.935-9.659,7.984-10.298C531.203,424.988,535.814,428.563,536.453,433.611z"/>
				<path style="fill:#3C2C06;" d="M508.534,423.47c-0.919-2.904-3.393-5.678-6.634-5.657c-1.887,0.012-3.615,0.949-5.297,1.695
					c-1.738,0.771-3.5,1.531-5.303,2.137c-0.845,0.284-1.707,0.505-2.596,0.595c-0.902,0.091-1.789-0.007-2.673-0.195
					c-1.684-0.359-3.312-0.923-5.016-1.202c-3.205-0.523-6.809-0.136-8.888,2.656c-1.828,2.454-1.985,5.814-0.774,8.567
					c1.345,3.059,4.034,5.252,6.964,6.715c1.578,0.788,3.243,1.383,4.92,1.922c1.708,0.55,3.455,1.086,5.253,1.226
					c0.891,0.07,1.789,0.048,2.671-0.102c0.03-0.005,0.055-0.017,0.083-0.024c0.1,0.023,0.202,0.036,0.308,0.023l0.781-0.099
					c0.002,0,0.004-0.001,0.006-0.001c0.081,0.013,0.168,0.015,0.262,0.004c6.17-0.747,12.742-3.644,15.359-9.663
					C509.129,429.377,509.424,426.284,508.534,423.47z M480.783,423.268l1.954,15.434c-0.44-0.155-0.878-0.315-1.311-0.481
					c-2.825-1.08-5.578-2.578-7.412-5.055c-1.56-2.106-2.227-4.849-1.201-7.339c0.472-1.147,1.291-2.151,2.406-2.724
					c1.276-0.657,2.724-0.803,4.139-0.696c0.54,0.041,1.076,0.114,1.609,0.207C480.827,422.774,480.748,422.994,480.783,423.268z
					 M492.381,439.991c-0.006,0.001-0.011,0.003-0.017,0.004c-0.082-0.013-0.165-0.017-0.25-0.006l-0.781,0.099
					c-0.02,0.002-0.039,0.009-0.058,0.013c-0.101-0.022-0.209-0.032-0.333-0.011c-1.638,0.279-3.268,0.045-4.864-0.361
					c-0.505-0.128-1.007-0.273-1.508-0.425c0-0.039,0.002-0.078-0.003-0.12l-2.043-16.136c-0.005-0.04-0.016-0.075-0.026-0.112
					c0.496,0.119,0.99,0.249,1.481,0.385c1.655,0.457,3.298,0.842,5.028,0.651c1.763-0.194,3.448-0.849,5.083-1.501
					c0.235-0.094,0.468-0.192,0.702-0.289l2.122,16.761c0.004,0.029,0.013,0.053,0.018,0.081c-0.789,0.254-1.589,0.462-2.387,0.623
					C493.829,439.79,493.107,439.903,492.381,439.991z M506.915,429.78c-1.121,4.186-4.454,7.006-8.302,8.622l-2.134-16.857
					c-0.003-0.027-0.012-0.049-0.017-0.074c0.832-0.364,1.66-0.734,2.493-1.097c1.384-0.603,2.93-1.146,4.41-0.548
					c1.204,0.487,2.151,1.49,2.8,2.595C507.462,424.628,507.565,427.352,506.915,429.78z"/>
				<path style="fill:#FFFFFF;" d="M566.832,469.843l-62.861,7.959c-1.896,0.24-3.643-1.115-3.883-3.01l-0.138-1.09
					c-0.24-1.896,1.115-3.643,3.01-3.883l62.861-7.959c1.896-0.24,3.643,1.115,3.883,3.01l0.138,1.091
					C570.082,467.856,568.728,469.603,566.832,469.843z"/>
				<path style="fill:#FFFFFF;" d="M494.888,399.222c-2.692,0.298-7.646,1.623-7.984,4.809c-0.138,0.175-0.237,0.389-0.283,0.622
					c-0.721,3.603,1.647,7.118,4.871,8.554c3.335,1.485,7.537,0.996,10.559-0.986c1.549-1.017,2.73-2.567,3.101-4.398
					c0.339-1.676-0.148-3.373-1.039-4.794C502.146,399.894,498.403,398.833,494.888,399.222z"/>
			</g>
			<g>
				<path style="fill:#D3DEE2;" d="M656.981-32.911c-8.396-4.836-17.88-9.21-27.596-10.223c2.834,0.549,5.625,1.257,8.241,1.845
					c-2.616-0.589-5.407-1.296-8.241-1.845c-5.073-0.528-10.209-0.14-15.286,1.577c5.077-1.718,10.213-2.105,15.286-1.577
					c-7.507-1.454-15.315-1.792-20.963,4.179c-4.447,4.812-3.431,12.039,0.124,16.629c13.59,18.822,34.63,30.826,57.844,30.934
					c6.274,0.072,14.776-2.655,14.856-9.713C681.728-15.844,668.512-26.191,656.981-32.911z"/>
				<path style="fill:#D3DEE2;" d="M689.29,4.473c0.661-4.367,1.132-31.464-39.774-47.921c-38.156-15.351-49.359,1.039-49.359,1.039
					s-0.395,0.162-1.113,0.579c-1.587,6.328-1.554,12.905,1.821,19.104c10.916,19.419,29.318,28.883,49.637,35.389
					c10.783,3.574,21.913,4.171,31.707-1.835c2.622-1.511,4.918-3.364,6.935-5.471C689.196,5.059,689.246,4.764,689.29,4.473z
					 M666.39,8.609c-23.215-0.108-44.255-12.112-57.844-30.934c-3.556-4.59-4.571-11.817-0.124-16.629
					c5.648-5.971,13.456-5.634,20.963-4.179c9.716,1.012,19.201,5.386,27.596,10.223c11.531,6.72,24.747,17.066,24.265,31.806
					C681.166,5.953,672.664,8.68,666.39,8.609z"/>
				<path style="fill:#D3DEE2;" d="M582.143,100.679c-0.218,5.969,1.496,11.715,1.429,17.576
					C583.639,112.393,581.925,106.648,582.143,100.679c-2.988-1.459-5.974-2.747-8.837-3.875
					C576.169,97.932,579.155,99.22,582.143,100.679c0.007-0.18,0.02-0.362,0.031-0.543c-12.801-6.823-27.358-12.88-41.787-5.276
					c-4.42,2.459-5.57,6.995-4.518,11.086c4.66,17.779,21.494,27.226,36.946,33.99c12.022,5,32.518,9.625,39.283-5.827
					C610.465,118.294,596.271,107.574,582.143,100.679z"/>
				<path style="fill:#D3DEE2;" d="M618.861,132.461c-7.146-33.65-49.583-53.899-81.388-43.437c-5.631,1.806-8.808,6.958-10.11,12.9
					c1.581,10.559,6.875,20.969,18.945,28.761c31.373,20.255,53.455,25.562,71.025,12.359c0.301-0.227,0.602-0.465,0.901-0.712
					C619.337,139.285,619.646,135.977,618.861,132.461z M572.815,139.936c-15.452-6.764-32.286-16.211-36.946-33.99
					c-1.051-4.09,0.098-8.626,4.518-11.086c14.429-7.604,28.986-1.547,41.787,5.276c0.014-0.24,0.024-0.48,0.044-0.721
					c-0.02,0.241-0.031,0.481-0.044,0.721c0.64,0.341,1.276,0.683,1.907,1.026c-0.63-0.343-1.267-0.685-1.907-1.026
					c-0.01,0.181-0.024,0.362-0.031,0.543c14.128,6.895,28.322,17.616,29.954,33.43
					C605.333,149.561,584.836,144.936,572.815,139.936z"/>
				<path style="fill:#D3DEE2;" d="M654.566,72.783c5.255-9.164,30.881-46.755,34.577-67.426c-2.017,2.107-4.313,3.96-6.935,5.471
					c-9.794,6.006-20.924,5.409-31.707,1.835c-20.318-6.506-38.72-15.971-49.637-35.389c-3.375-6.199-3.407-12.776-1.821-19.104
					c-3.418,1.983-14.172,9.744-24.725,33.387c-12.771,28.612-32.029,56.412-38.518,68.672c-3.993,7.543-10.967,24.809-8.438,41.694
					c1.302-5.942,4.48-11.094,10.11-12.9c31.806-10.461,74.242,9.787,81.388,43.437c0.785,3.516,0.475,6.825-0.627,9.872
					C635.391,128.215,649.269,82.021,654.566,72.783z"/>
				<path style="fill:#3C2C06;" d="M631.307,5.975c-11.982-6.163-22.025-14.37-28.278-23.111
					c-6.398-8.944-8.094-17.423-4.775-23.875c3.319-6.452,11.202-10.005,22.198-10.002c10.747,0.002,23.264,3.398,35.247,9.561
					c11.982,6.163,22.025,14.37,28.277,23.111c6.398,8.944,8.094,17.423,4.775,23.875c-3.319,6.453-11.202,10.004-22.199,10.002
					C655.806,15.534,643.289,12.138,631.307,5.975z M654.737-39.58c-23.918-12.302-48.417-12.512-54.611-0.468
					c-6.194,12.044,8.225,31.85,32.143,44.152c23.918,12.302,48.417,12.511,54.611,0.468
					C693.074-7.472,678.655-27.278,654.737-39.58z"/>
				<path style="fill:#3C2C06;" d="M634.022,0.697c-10.013-5.15-18.479-11.863-23.839-18.902
					c-5.494-7.215-7.095-13.958-4.508-18.988c2.587-5.029,9.003-7.649,18.068-7.377c8.844,0.266,19.228,3.248,29.241,8.398
					c10.013,5.15,18.479,11.862,23.838,18.902c5.494,7.215,7.095,13.958,4.508,18.988c-2.587,5.03-9.003,7.649-18.068,7.377
					C654.419,8.829,644.034,5.846,634.022,0.697z M652.208-34.664c-20.027-10.3-40.225-11.087-45.025-1.754
					c-4.8,9.333,7.587,25.306,27.614,35.606c20.027,10.3,40.225,11.087,45.025,1.754S672.235-24.364,652.208-34.664z"/>
				<path style="fill:#3C2C06;" d="M561.482,141.735c-11.982-6.163-22.025-14.37-28.277-23.111
					c-6.398-8.944-8.094-17.422-4.775-23.875c3.319-6.452,11.202-10.004,22.199-10.002c10.747,0.003,23.264,3.398,35.247,9.561
					c11.982,6.163,22.025,14.37,28.277,23.111c6.398,8.944,8.094,17.423,4.775,23.875c-3.319,6.452-11.202,10.004-22.199,10.002
					C585.982,151.294,573.465,147.898,561.482,141.735z M584.913,96.18c-23.918-12.302-48.417-12.511-54.611-0.468
					c-6.194,12.044,8.225,31.85,32.143,44.152c23.918,12.302,48.417,12.511,54.611,0.467
					C623.25,128.288,608.831,108.481,584.913,96.18z"/>
				<path style="fill:#3C2C06;" d="M564.198,136.456c-10.013-5.15-18.479-11.863-23.839-18.902
					c-5.494-7.215-7.095-13.958-4.508-18.988s9.003-7.649,18.068-7.377c8.844,0.266,19.228,3.248,29.241,8.398
					c10.013,5.15,18.479,11.862,23.838,18.902c5.494,7.215,7.095,13.958,4.508,18.988c-2.587,5.03-9.003,7.649-18.068,7.377
					C584.595,144.588,574.21,141.606,564.198,136.456z M582.384,101.096c-20.027-10.3-40.225-11.087-45.025-1.754
					c-4.8,9.333,7.587,25.306,27.614,35.606c20.027,10.3,40.225,11.087,45.025,1.754
					C614.799,127.368,602.411,111.396,582.384,101.096z"/>
				<path style="fill:#3C2C06;" d="M576.474,71.973c0.106-0.504-0.227-0.892-0.679-1.038c-5.476-1.767-10.972-3.506-16.585-4.791
					c-5.55-1.27-11.246-2.097-16.951-1.962c-2.712,0.064-5.414,0.364-8.071,0.908c3.365-7.202,7.668-13.964,12.07-20.573
					c3.326-4.992,6.73-9.934,9.909-15.023c3.217-5.148,6.1-10.472,8.735-15.939c5.191-10.769,9.605-21.934,15.553-32.326
					c0.688-1.201,1.398-2.394,2.132-3.575c2.62,7.5,7.023,14.351,12.747,19.861c1.632,1.57,3.372,3.025,5.203,4.357
					c0.383,0.278,0.893,0.326,1.239-0.051c0.292-0.317,0.334-0.959-0.051-1.239c-6.402-4.655-11.615-10.834-15.147-17.917
					c-0.988-1.981-1.826-4.035-2.529-6.133c-0.085-0.254-0.245-0.415-0.433-0.503c4.658-7.208,10.249-13.875,17.209-18.931
					c1.08-0.785,2.191-1.525,3.327-2.228c0.962-0.595,0.018-2.074-0.942-1.48c-9.209,5.699-16.328,14.086-22.018,23.195
					c-6.322,10.122-10.87,21.193-15.876,31.989c-2.608,5.624-5.361,11.183-8.519,16.522c-3.109,5.256-6.53,10.319-9.934,15.386
					c-6.323,9.413-12.674,18.955-16.698,29.623c-3.495,9.265-5.384,19.401-3.621,29.256c0.215,1.201,0.477,2.392,0.79,3.571
					c0.29,1.093,1.959,0.553,1.67-0.536c-2.542-9.571-1.288-19.645,1.811-28.93c0.725-2.174,1.56-4.3,2.474-6.39
					c5.344-1.28,10.91-1.412,16.357-0.812c5.632,0.621,11.161,1.958,16.595,3.533c3.082,0.894,6.14,1.869,9.195,2.855
					C575.887,72.797,576.384,72.401,576.474,71.973z"/>
				<path style="fill:#3C2C06;" d="M649.449,87.658c4.194-10.06,9.521-19.481,15.221-28.753
					c5.561-9.046,11.326-17.991,16.107-27.486c4.508-8.953,8.194-18.446,9.788-28.381c0.203-1.266,0.368-2.537,0.503-3.812
					c0.117-1.11-1.598-1.484-1.717-0.359c-0.983,9.306-3.88,18.248-7.733,26.739c-0.102,0.02-0.204,0.053-0.301,0.101
					c-5.026,2.497-10.742,3.576-16.334,3.18c-1.579-0.112-3.149-0.359-4.692-0.71c-1.1-0.25-1.462,1.466-0.359,1.717
					c5.813,1.32,11.972,1.034,17.646-0.79c0.994-0.319,1.967-0.695,2.924-1.108c-4.436,9.266-9.891,17.986-15.293,26.708
					c-5.686,9.18-11.309,18.427-15.68,28.323c-2.18,4.936-4.11,9.976-6.16,14.966c-2.047,4.983-4.263,9.89-6.708,14.691
					c-0.515,1.011-1.041,2.017-1.574,3.019c-1.708-6.476-6.127-11.825-11.081-16.164c-1.549-1.357-3.163-2.638-4.799-3.887
					c-0.376-0.287-0.898-0.32-1.239,0.051c-0.298,0.324-0.327,0.95,0.051,1.239c5.354,4.09,10.602,8.649,13.689,14.759
					c0.788,1.56,1.394,3.211,1.811,4.907c0.084,0.343,0.417,0.565,0.758,0.6c-4.297,7.904-9.157,15.502-14.548,22.703
					c-0.788,1.052-1.588,2.096-2.397,3.132c-0.691,0.885,0.596,2.078,1.291,1.188c6.585-8.434,12.47-17.413,17.548-26.833
					c2.57-4.767,4.934-9.646,7.082-14.618C645.414,97.78,647.353,92.686,649.449,87.658z"/>
				<polygon style="fill:#3C2C06;" points="580.631,17.375 578.317,25.27 579.794,29.873 585.044,32.573 590.245,32.453
					592.369,29.877 595.765,24.231 593.492,23.062 590.479,28.44 588.051,30.285 584.653,30.345 581.38,27.923 580.401,25.036
					583.025,18.336 				"/>
				<polygon style="fill:#3C2C06;" points="635.426,46.131 633.113,54.026 634.589,58.628 639.839,61.328 645.041,61.208
					647.164,58.632 650.561,52.986 648.287,51.817 645.274,57.196 642.847,59.041 639.448,59.1 636.176,56.678 635.196,53.792
					637.821,47.091 				"/>
				<path style="fill:#3C2C06;" d="M623.185,46.736c-0.37-0.34-0.893-0.275-1.239,0.051c-2.615,2.464-6.223,4.027-9.85,3.377
					c-1.8-0.322-3.426-1.16-4.69-2.487c-1.242-1.304-2.042-2.989-2.472-4.725c-0.52-2.102-0.478-4.315-0.181-6.447
					c0.065-0.469-0.193-0.936-0.679-1.038c-0.44-0.092-0.972,0.208-1.038,0.679c-0.59,4.234-0.172,8.82,2.658,12.226
					c2.8,3.37,7.418,4.405,11.542,3.18c2.264-0.673,4.29-1.967,6-3.578C623.581,47.651,623.516,47.04,623.185,46.736z"/>
				<path style="fill:#3C2C06;" d="M629.183,17.628c-2.23-1.006-4.461-2.011-6.691-3.017c-0.432-0.195-0.956-0.058-1.181,0.379
					c-0.208,0.405-0.055,0.985,0.379,1.181c2.23,1.006,4.461,2.011,6.691,3.017c0.432,0.195,0.956,0.058,1.181-0.379
					C629.771,18.403,629.617,17.823,629.183,17.628z"/>
				<path style="fill:#3C2C06;" d="M603.849,85.03l-8.745-4.876c-0.986-0.55-1.787,1.01-0.802,1.56l8.745,4.876
					C604.033,87.139,604.834,85.579,603.849,85.03z"/>

					<ellipse transform="matrix(0.6514 -0.7587 0.7587 0.6514 167.4055 452.5435)" style="fill:#D06BA9;" cx="576.228" cy="44.076" rx="9.214" ry="9.214"/>
				<path style="fill:#D06BA9;" d="M638.404,76.054c-2.327,4.525-7.883,6.307-12.408,3.979c-4.525-2.327-6.307-7.882-3.979-12.408
					c2.327-4.525,7.883-6.307,12.408-3.979C638.95,65.974,640.732,71.529,638.404,76.054z"/>
				<path style="fill:#FFFFFF;" d="M662.293-18.791c-2.388-1.277-7.224-2.986-9.305-0.548c-0.213,0.067-0.415,0.187-0.585,0.353
					c-2.632,2.564-2.667,6.802-0.819,9.81c1.911,3.111,5.653,5.084,9.266,5.157c1.853,0.038,3.703-0.573,5.045-1.874
					c1.227-1.19,1.785-2.865,1.854-4.542C667.899-14.133,665.411-17.125,662.293-18.791z"/>
			</g>
		</g>
	</g>
	<g>

			<text transform="matrix(1 0 0 1 311.7526 236.7993)" style="fill:#7753B1; font-family:'FredokaOne-Regular'; font-size:34.2251px;">WORLD</text>

			<text transform="matrix(1 0 0 1 138.2717 282.2859)" style="fill:#3C2C06; font-family:'FredokaOne-Regular'; font-size:44.7929px;">SEXUAL HEALTH DAY</text>
	</g>
</g>
</svg>
