<?xml version="1.0" encoding="utf-8"?>
<!-- Generator: Adobe Illustrator 27.5.0, SVG Export Plug-In . SVG Version: 6.00 Build 0)  -->
<svg version="1.1" xmlns="http://www.w3.org/2000/svg" xmlns:xlink="http://www.w3.org/1999/xlink" x="0px" y="0px"
	 viewBox="0 0 500 500" style="enable-background:new 0 0 500 500;" xml:space="preserve">
<g id="BACKGROUND">
	<g>
		<rect style="fill:#FFFFFF00;" width="500" height="500"/>
	</g>
</g>
<g id="OBJECTS">
	<g>
		<defs>
			<rect id="SVGID_1_" width="500" height="500"/>
		</defs>
		<clipPath id="SVGID_00000029008577902162163500000013653258042007760782_">
			<use xlink:href="#SVGID_1_"  style="overflow:visible;"/>
		</clipPath>
		<g style="clip-path:url(#SVGID_00000029008577902162163500000013653258042007760782_);">
			<g>
				<path style="fill:#2E3355;" d="M288.445,262.295c0,0,39.136,4.161,44.151,21.98c5.015,17.82,3.935,33.676,3.935,33.676
					s32.994-0.556,39.983,14.476c6.989,15.032-3.506,31.735-3.506,31.735s16.776-3.726,21.605,3.079
					c4.829,6.805,6.35,17.108,6.35,17.108s6.467-15.947,13.839-18.137s16.265,5.923,16.265,5.923s-6.966-13.655-1.695-20.63
					s14.791-1.626,14.791-1.626s-22.081-31.304,1.951-44.104c0,0-13.966,10.565-4.934,26.939c0,0,0.94-24.117,12.318-28.441
					c0,0,21.71,9.275,16.033,32.095c-5.677,22.82-20.607,16.185-20.607,16.185s10.901,7.391,3.03,19.919
					c-7.871,12.528-18.076,6.502-18.076,6.502s6.861,7.459-5.004,22.809c-11.865,15.35-26.354-5.065-26.354-5.065
					s-1.091,15.168-20.514,21.693c-19.423,6.525-35.557-15.511-35.557-15.511s-11.59,15.617-43.98,12.032
					c-32.391-3.586-24.879-77.394-24.879-77.394s-22.081,8.636-38.056-20.017C223.559,288.867,270.961,263.967,288.445,262.295z"/>
				<path style="fill:#DA2C86;" d="M439.605,344.732c0,0,17.168,6.042,16.939,8.798s-3.228,4.458-3.228,4.458
					s-16.93-8.247-18.352-10.976C433.542,344.284,439.605,344.732,439.605,344.732z"/>
				<path style="fill:#DA2C86;" d="M402.476,379.214c0,0,5.604,22.201,3.141,23.069c-2.463,0.867-6.609-0.164-6.609-0.164
					s-1.481-22.546-0.399-23.665C399.692,377.334,402.476,379.214,402.476,379.214z"/>
				<path style="fill:#DA2C86;" d="M425.681,367.813c0,0,9.116,18.288,11.047,18.531c1.931,0.243,6.25-4.785,6.25-4.785
					s-12.134-17.687-13.51-17.664C428.092,363.919,425.681,367.813,425.681,367.813z"/>
			</g>
			<g>
				<path style="fill:#2E3355;" d="M163.578,466.535c0,0-1.95,61.755,0.65,72.806l177.465-7.151l-35.103-82.557L163.578,466.535z"/>
				<path style="fill:#FFC3A5;" d="M204.15,284.528c0,0-50.066-1.213-62.673,23.68c-12.606,24.893-39.69,85.679-3.219,134.425
					c0,0,41.657-9.615,49.466-34.426C195.533,383.394,213.129,288.49,204.15,284.528z"/>
				<path style="fill:#FFA386;" d="M120.75,371.783l28.552,22.178c0,0,56.174-86.203,32.492-86.198
					c-15.127,0.003-40.013,22.876-56.019,39.402C123.548,354.898,121.74,363.187,120.75,371.783z"/>
				<path style="fill:#FFC3A5;" d="M321.952,458.821c0,0,7.206-65.273,7.307-145.389c0.046-36.959-143.003-43.644-162.929-10.478
					c-19.926,33.167-21.262,155.425,3.425,169.837C194.443,487.202,322.266,479.972,321.952,458.821z"/>
				<path style="fill:#B980C8;" d="M222.162,280.952c8.429,22.726,25.342,21.17,25.342,21.17
					c9.801,3.646,19.678-6.792,32.772-15.374c7.958-5.216,29.149,0.811,42.493,8.6c0,0,40.454,13.293,23.85,111.681
					c-5.76,34.127-24.667,51.792-24.667,51.792c0.314,21.151-127.509,28.381-152.197,13.97
					c-24.688-14.411-24.936-139.872-0.278-176.976C171.683,292.495,180.62,279.057,222.162,280.952z"/>
			</g>
			<g>
				<path style="fill:#FFC3A5;" d="M263.551,262.057c-4.985-1.627-30.094,8.525-30.094,8.525s-9.722,29.317,18.712,30.848
					C275.64,302.695,268.536,263.684,263.551,262.057z"/>
				<path style="fill:#FFA386;" d="M233.457,270.582c0,0,25.109-10.152,30.094-8.525c2.221,0.725,4.855,8.871,5.026,17.569
					c-10.116,8.185-23.256,10.284-33.394,4.215c-1.134-0.679-2.256-1.811-3.317-3.257
					C231.984,275.051,233.457,270.582,233.457,270.582z"/>
				<path style="fill:#FFC3A5;" d="M255.878,227.444c32.948,4.295,23.694,43.161,9.607,50.136
					c-11.822,5.853-25.297,4.934-33.863-3.395C223.057,265.858,223.304,223.198,255.878,227.444z"/>
				<path style="fill:#FFA386;" d="M270.96,269.524c0.328,3.51-2.251,6.622-5.761,6.951c-3.51,0.328-6.622-2.251-6.951-5.761
					c-0.328-3.51,2.251-6.622,5.761-6.951C267.52,263.434,270.631,266.013,270.96,269.524z"/>
				<path style="fill:#FFA386;" d="M240.068,262.44c0.328,3.51-2.251,6.622-5.761,6.951c-3.51,0.328-6.622-2.251-6.951-5.761
					c-0.328-3.51,2.251-6.622,5.761-6.951C236.627,256.351,239.739,258.93,240.068,262.44z"/>
				<path style="fill:none;stroke:#1D223A;stroke-width:0.75;stroke-miterlimit:10;" d="M246.836,280.881
					c0,0,23.506,5.621,29.608-20.774"/>
				<path style="fill:#2E3355;" d="M229.679,216.643c10.48-9.387,17.812-1.305,17.812-1.305s5.523-4.38,26.3-0.838
					c18.196,3.102,22.859,15.827,23.165,29.643c0.733,33.091-29.097,32.139-29.097,32.139c4.408-6.026,9.19-15.763,8.421-23.189
					l-2.936-4.498l2.17,9.988c-0.924-0.533-3.042,0.775-5.307-2.36c-2.039-2.822,1.988-9.1,1.988-9.1
					c-8.578-0.437-21.638-19.56-21.638-19.56c-13.923,1.69-23.115,18.357-24.71,21.454l1.573,0.998
					c-2.682,12.584,2.888,22.934,2.888,22.934S192.81,249.666,229.679,216.643z"/>
				<path style="fill:#FFC3A5;" d="M271.807,255.849c-0.538-1.587-0.92-4.926,1.498-6.645c2.482-1.764,4.414-3.705,8.218-2.186
					c4.423,1.766,2.915,9.665-2.301,12.459c-2.749,1.473-6.171,0.043-7.172-2.91L271.807,255.849z"/>
				<path style="fill:#FFA386;" d="M280.6,249.337c4.115,1.277,0.677,8.725-3.863,7.531
					C272.197,255.674,276.486,248.06,280.6,249.337z"/>
				<path style="fill:#FFC3A5;" d="M231.316,247.52c0,0-5.66-8.211-11.173-5.258c-5.513,2.953,0.316,15.271,9.647,12.239
					L231.316,247.52z"/>
				<path style="fill:#FFA386;" d="M221.319,244.463c-3.947,1.728,0.3,8.746,4.679,7.053
					C230.377,249.824,225.266,242.735,221.319,244.463z"/>
				<g>
					<g>
						<path style="fill:#FFFFFF;" d="M244.049,252.197c0,0-4.415-10.208-12.559-5.655
							C231.49,246.543,233.785,264.517,244.049,252.197z"/>
						<g>
							<path style="fill:#1D223A;" d="M238.442,246.043c0.101,0.961,0.089,1.95-0.13,2.952c-0.535,2.45-1.987,4.449-3.891,5.701
								c-2.254-2.874-2.932-8.153-2.932-8.153C234.247,245.001,236.566,245.169,238.442,246.043z"/>
						</g>
						<path style="fill:#1D223A;" d="M244.383,253.445c0,0-1.957-11.234-13.59-8.321c0,0-0.748,2.888,0.481,3.138
							C232.503,248.512,235.961,242.013,244.383,253.445z"/>
					</g>
					<g>
						<g>
							<path style="fill:#FFFFFF;" d="M255.17,255.429c0,0,7.446-7.092,12.731-0.274
								C267.902,255.155,259.453,269.623,255.17,255.429z"/>
							<path style="fill:#1D223A;" d="M262.092,252.221c0.036,0.791,0.008,1.595-0.17,2.409c-0.56,2.564-2.134,4.615-4.169,5.851
								c-0.943-0.957-1.828-2.553-2.582-5.052C255.17,255.429,258.388,252.387,262.092,252.221z"/>
							<path style="fill:#1D223A;" d="M253.878,255.855c0,0,6.283-8.337,15.13-1.655c0,0-0.407,2.728-1.544,2.497
								C266.328,256.465,266.853,250.717,253.878,255.855z"/>
						</g>
					</g>
					<path style="fill:#2E3355;" d="M249.878,254.99l-0.265,2.685c0,0,1.844-1.309,2.336-0.644c1.278,1.725-2.596,2.736-2.343,2.705
						c0.254-0.031,2.326-2.214,1.644-2.105c-0.682,0.109-1.641,1.281-2.21,0.835C248.47,258.02,249.878,254.99,249.878,254.99z"/>
					<path style="fill:#2E3355;" d="M254.258,245.946c0,0,7.761-8.025,13.017-0.32c0,0-8.847-1.027-11.682,1.968L254.258,245.946z"
						/>
					<path style="fill:#2E3355;" d="M246.632,245.668c0,0-3.239-10.684-11.434-6.231c0,0,8.339,3.127,9.493,7.087L246.632,245.668z"
						/>
					<g>
						<path style="fill:#1D223A;" d="M244.936,260.24c0.368,0.803,0.735,1.59,1.14,2.326c0.403,0.696,0.913,1.515,1.52,1.379
							c0.745-0.072,1.558-0.436,2.335-0.772l2.357-1.116c-0.642,0.604-1.342,1.142-2.097,1.606
							c-0.763,0.452-1.543,0.893-2.539,1.017c-0.251,0.018-0.54,0.021-0.837-0.131c-0.25-0.144-0.438-0.319-0.6-0.506
							c-0.32-0.374-0.522-0.793-0.7-1.207C245.175,261.998,244.994,261.124,244.936,260.24z"/>
					</g>
					<path style="fill:none;stroke:#1D223A;stroke-width:0.5;stroke-miterlimit:10;" d="M243.918,257.532
						c0,0,1.392,2.993-1.086,6.164"/>
					<path style="fill:none;stroke:#1D223A;stroke-width:0.5;stroke-miterlimit:10;" d="M253.037,260.736
						c0,0-1.428,0.974-1.447,4.646"/>
				</g>
			</g>
			<g>
				<g>
					<path style="fill:#FFC3A5;" d="M323.046,301.655c0,0,24.354,0.159,40.718,45.061c16.364,44.902-47.573,153.704-47.573,153.704
						s-83.009,18.816-174.278-54.033c0,0-16.947-1.81-18.466-6.409s4.913-23.631,4.913-23.631l37.974,15.129
						c0,0,76.265-12.879,99.742,0.996C266.076,432.471,268.432,322.44,323.046,301.655z"/>
					<path style="fill:#FFA386;" d="M244.977,496.944c-27.701-4.27-79.202-38.925-79.202-38.925
						c3.753-0.933,21.448-20.184,30.589-30.35c-16.97,1.602-30.03,3.806-30.03,3.806l-32.139-12.804l-10.884,17.693
						c-0.149,1.53-0.133,2.8,0.136,3.613c1.519,4.599,18.466,6.409,18.466,6.409c39.139,31.24,76.751,45.615,106.958,51.854
						C249.463,497.889,248.339,497.462,244.977,496.944z"/>
					<path style="fill:none;stroke:#1D223A;stroke-miterlimit:10;" d="M254.862,427.705c0,0,24.571,5.901,34.434,29.022"/>
				</g>
				<g>
					<path style="fill:#FFC3A5;" d="M213.73,302.634c0,0,0.037-14.431,3.042-19.492c3.005-5.061,27.688-20.746,30.116-18.853
						c2.427,1.893-8.708,12.008-8.708,12.008s9.421-1.451,11.806,0.769c3.577,3.328-1.446,6.082-1.446,6.082s4.926-0.64,5.925,4.487
						c0.557,2.861-2.017,4.485-2.017,4.485s6.152,2.038,5.822,4.878c-0.33,2.839-3.499,5.349-5.659,5.616
						c-2.161,0.267-2.428-1.893-2.428-1.893s-5.373,14.052-10.394,15.656c-5.021,1.604-9.754,3.702-9.754,3.702
						s-31.874,134.704-97.883,152.016C66.143,489.405,89.82,323.927,213.73,302.634z"/>
					<path style="fill:none;stroke:#1D223A;stroke-miterlimit:10;" d="M210.244,379.908c0,0-33.937,94.117-91.56,94.298"/>
					<path style="fill:none;stroke:#1D223A;stroke-width:0.75;stroke-miterlimit:10;" d="M215.183,288.138
						c0,0,1.476-5.598,3.949-7.916c2.473-2.318,25.671-18.566,27.833-16.012c2.163,2.554-8.837,12.165-8.837,12.165"/>
					<path style="fill:none;stroke:#1D223A;stroke-width:0.75;stroke-miterlimit:10;" d="M230.1,278.744
						c0,0,15.723-5.645,20.07-1.401c3.089,3.016-1.168,5.602-1.168,5.602"/>
					<path style="fill:none;stroke:#1D223A;stroke-width:0.75;stroke-miterlimit:10;" d="M236.514,282.618
						c0,0,14.732-0.571,16.607,2.087c1.874,2.659,1.398,6.325-0.672,7.415"/>
					<path style="fill:none;stroke:#1D223A;stroke-width:0.75;stroke-miterlimit:10;" d="M242.787,290.905
						c0,0,15.292,0.711,15.261,5.231c-0.031,4.52-4.497,7.716-6.348,6.456c-1.85-1.26,1.521-5.514,1.521-5.514"/>
					<path style="fill:none;stroke:#1D223A;stroke-miterlimit:10;" d="M173.034,316.033c0,0-53.136,28.223-68.77,78.343"/>
				</g>
			</g>
		</g>
	</g>
	<g>
		<g>
			<path style="fill:#FF5E80;" d="M82.707,363.457c4.301-1.184,7.474,7.254,1.246,7.914
				C77.724,372.031,77.651,364.85,82.707,363.457z"/>
			<path style="fill:none;stroke:#FFFFFF;stroke-width:0.75;stroke-miterlimit:10;" d="M81.956,365.64
				c0.449-0.348,1.013-0.597,1.718-0.643"/>
			<path style="fill:none;stroke:#FFFFFF;stroke-width:0.75;stroke-miterlimit:10;" d="M80.299,368.617c0,0,0.175-1.087,0.83-2.072"
				/>
		</g>
		<g>
			<path style="fill:#FF5E80;" d="M370.114,261.137c3.441,2.839-1.641,10.286-5.76,5.568
				C360.234,261.987,366.068,257.8,370.114,261.137z"/>
			<path style="fill:none;stroke:#FFFFFF;stroke-width:0.75;stroke-miterlimit:10;" d="M367.896,261.777
				c0.543,0.167,1.071,0.485,1.514,1.036"/>
			<path style="fill:none;stroke:#FFFFFF;stroke-width:0.75;stroke-miterlimit:10;" d="M364.508,262.133c0,0,0.99-0.482,2.172-0.511
				"/>
		</g>
		<g>
			<path style="fill:#FF5E80;" d="M229.607,173.175c3.441,2.839-1.641,10.286-5.76,5.568
				C219.727,174.025,225.562,169.838,229.607,173.175z"/>
			<path style="fill:none;stroke:#FFFFFF;stroke-width:0.75;stroke-miterlimit:10;" d="M227.39,173.816
				c0.543,0.167,1.071,0.485,1.514,1.036"/>
			<path style="fill:none;stroke:#FFFFFF;stroke-width:0.75;stroke-miterlimit:10;" d="M224.001,174.171c0,0,0.99-0.482,2.172-0.511
				"/>
		</g>
		<g>
			<g>
				<path style="fill:#ACD1FF;" d="M181.501,240.632c0,0-19.146-3.697-20.937-4.883c-1.791-1.187-4.276-3.459-3.64-6.35
					c0.636-2.891,3.303-5.056,5.309-5.268c2.005-0.212,21.924,4.634,23.176,5.516c1.252,0.882,2.527,3.354,1.97,6.309
					C186.822,238.911,183.536,240.706,181.501,240.632z"/>
				<path style="fill:#00AEEF;" d="M160.564,235.748c0.783,0.519,4.881,1.517,9.247,2.476c1.273-2.342,3.837-7.724,3.164-12.015
					c-5.002-1.182-9.81-2.178-10.742-2.079c-2.005,0.212-4.673,2.377-5.309,5.268C156.288,232.29,158.773,234.562,160.564,235.748z"
					/>
			</g>
			<path style="fill:none;stroke:#1D223A;stroke-miterlimit:10;" d="M185.801,238.617c0,0,4.73-4.778-0.393-8.97
				c0,0-22.473-5.876-23.176-5.516c-0.703,0.36-5.508,0.775-5.309,5.268"/>
		</g>
		<g>
			<g>
				<path style="fill:#ACD1FF;" d="M116.947,45.641c7.735-1.209,11.847,11.496,1.574,12.584
					C108.248,59.313,109.212,46.849,116.947,45.641z"/>
				<path style="fill:#8CC0ED;" d="M112.238,53.595c0,0,10.186-4.828,10.12-4.233C122.291,49.957,111.444,55.182,112.238,53.595z"/>
			</g>
			<path style="fill:none;stroke:#1D223A;stroke-miterlimit:10;" d="M124.264,50.043c-0.703-1.77-2.07-3.089-3.042-3.258"/>
			<path style="fill:none;stroke:#1D223A;stroke-miterlimit:10;" d="M111.379,55.587c0,0,4.637,5.868,10.411,1.798
				c1.598-1.127,2.435-2.413,2.763-3.692"/>
		</g>
		<g>
			<g>
				<path style="fill:#ACD1FF;" d="M406.406,337.038c7.735-1.209,11.847,11.496,1.574,12.584
					C397.707,350.71,398.671,338.246,406.406,337.038z"/>
				<path style="fill:#8CC0ED;" d="M401.697,344.992c0,0,10.186-4.828,10.12-4.233C411.75,341.354,400.903,346.579,401.697,344.992z
					"/>
			</g>
			<path style="fill:none;stroke:#1D223A;stroke-miterlimit:10;" d="M413.723,341.44c-0.703-1.77-2.07-3.089-3.042-3.258"/>
			<path style="fill:none;stroke:#1D223A;stroke-miterlimit:10;" d="M400.838,346.983c0,0,4.638,5.868,10.411,1.798
				c1.598-1.127,2.435-2.413,2.763-3.692"/>
		</g>
		<g>
			<g>
				<path style="fill:#FFA2B6;" d="M460.154,152.293c0,0-17.044-3.033-18.65-4.063c-1.605-1.03-3.841-3.014-3.314-5.59
					c0.527-2.575,2.867-4.531,4.644-4.746s19.523,3.829,20.646,4.595c1.123,0.766,2.287,2.944,1.831,5.575
					C464.856,150.696,461.962,152.333,460.154,152.293z"/>
				<path style="fill:#00AEEF;" d="M452.203,143.803c0.302-1.418,0.423-2.872,0.195-4.203c-4.456-0.984-8.737-1.806-9.563-1.706
					c-1.777,0.214-4.117,2.171-4.644,4.746c-0.527,2.575,1.709,4.559,3.314,5.589c0.702,0.45,4.353,1.283,8.241,2.078
					C450.46,148.946,451.642,146.437,452.203,143.803"/>
			</g>
			<path style="fill:none;stroke:#1D223A;stroke-miterlimit:10;" d="M441.504,148.23c0,0,18.127,3.893,18.65,4.063
				c0.523,0.17,4.757,0.132,5.157-4.228c0.401-4.36-1.831-5.575-1.831-5.575"/>
		</g>
		<g>
			<path style="fill:none;stroke:#1D223A;stroke-miterlimit:10;" d="M356.785,90.077c-0.252-1.027-0.87-2.073-1.955-3.057"/>
			<path style="fill:none;stroke:#1D223A;stroke-miterlimit:10;" d="M347.23,93.88c0,0,2.039,3.8,5.654,2.503
				c1.892-0.679,3.429-2.222,3.892-4.056"/>
			<g>
				<path style="fill:#FFA2B6;" d="M356.628,90.026c1.415,6.13-8.531,10.159-9.995,1.988
					C345.168,83.842,355.213,83.896,356.628,90.026z"/>
				<path style="fill:#FF5E80;" d="M349.981,86.71c0,0,4.458,7.885,3.977,7.867C353.477,94.558,348.663,86.166,349.981,86.71z"/>
			</g>
		</g>
	</g>
	<g>
		<g>
			<g>
				<polygon style="fill:#ACD1FF;" points="399.909,118.697 416.993,84.582 417.726,86.679 400.641,119.355 				"/>
				<path style="fill:#00AEEF;" d="M390.208,130.382c0,0,4.905-8.775,5.709-9.601c0.804-0.826,1.795-1.361,1.795-1.361l2.095-3.609
					l2.685,1.457l-2.095,3.609l-0.003,3.187l-5.046,8.282L390.208,130.382z"/>
				<polygon style="fill:#ACD1FF;" points="391.169,128.654 396.06,131.464 394.443,135.177 388.908,132.164 				"/>
				<path style="fill:#ACD1FF;" d="M364.127,175.257l-12.263,21.596l-0.236,5.202l-4.349,8.175c0,0-4.578-0.498-4.071,0.608
					c0.508,1.107,12.026,6.594,12.232,5.642c0.206-0.952-2.816-3.102-2.816-3.102l4.133-8.923l4.155-3.163l12.85-22.202
					L364.127,175.257z"/>
				<path style="fill:#8CC0ED;" d="M356.911,179.215c0,0,24.3-46.284,25.492-47.885c1.192-1.601,6.624-0.93,6.624-0.93l5.784,2.944
					c0,0,4.186,5.64,4.172,6.482c-0.014,0.842-25.263,47.931-25.263,47.931S362.052,185.906,356.911,179.215z"/>
				<path style="fill:#FF5E80;" d="M383.458,131.675c0,0,4.517-0.307,6.061,0.325c1.544,0.631,4.798,3.55,4.798,3.55
					s3.624,3.221,3.534,4.092c-0.09,0.871-13.684,25.714-13.684,25.714l-15.083-7.522
					C369.085,157.833,383.047,131.289,383.458,131.675z"/>
				<path style="fill:#ACD1FF;" d="M359.203,180.951l10.248-18.458l10.719,6.201l-9.086,18.064
					C371.084,186.757,360.214,182.247,359.203,180.951z"/>
				<path style="fill:#8CC0ED;" d="M356.911,179.215c0,0-3.358-1.991-4.141-1.487c-0.783,0.504-2.062,1.743-1.453,2.043
					c0.609,0.3,24.715,13.021,25.274,12.384c0.559-0.637-0.331-3.524-0.968-4.084C374.987,187.512,356.911,179.215,356.911,179.215z
					"/>
				<path style="fill:#00AEEF;" d="M368.083,162.842c-0.394-1.162,1.554-4.187,2.26-4.465c0.706-0.278,7.558-0.085,8.211,0.38
					c0.653,0.465,4.082,5.516,4.699,5.65c0.411,0.089-1.508,6.459-2.778,5.86C379.205,169.669,368.477,164.005,368.083,162.842z"/>
				<g>
					<line style="fill:none;stroke:#1D223A;stroke-miterlimit:10;" x1="379.529" y1="139.196" x2="390.984" y2="145.437"/>
					<line style="fill:none;stroke:#1D223A;stroke-miterlimit:10;" x1="378.937" y1="141.403" x2="386.989" y2="145.824"/>
					<line style="fill:none;stroke:#1D223A;stroke-miterlimit:10;" x1="377.669" y1="143.477" x2="385.72" y2="147.898"/>
					<line style="fill:none;stroke:#1D223A;stroke-miterlimit:10;" x1="376.754" y1="145.681" x2="384.806" y2="150.102"/>
					<line style="fill:none;stroke:#1D223A;stroke-miterlimit:10;" x1="383.261" y1="133.549" x2="391.312" y2="137.97"/>
					<line style="fill:none;stroke:#1D223A;stroke-miterlimit:10;" x1="381.992" y1="135.622" x2="390.044" y2="140.043"/>
					<line style="fill:none;stroke:#1D223A;stroke-miterlimit:10;" x1="381.078" y1="137.827" x2="389.129" y2="142.248"/>
				</g>
				<g>
					<line style="fill:none;stroke:#1D223A;stroke-miterlimit:10;" x1="375.511" y1="146.898" x2="386.967" y2="153.139"/>
					<line style="fill:none;stroke:#1D223A;stroke-miterlimit:10;" x1="374.919" y1="149.105" x2="382.971" y2="153.527"/>
					<line style="fill:none;stroke:#1D223A;stroke-miterlimit:10;" x1="373.651" y1="151.179" x2="381.703" y2="155.6"/>
					<line style="fill:none;stroke:#1D223A;stroke-miterlimit:10;" x1="372.736" y1="153.383" x2="380.788" y2="157.804"/>
				</g>
				<g>
					<line style="fill:none;stroke:#1D223A;stroke-miterlimit:10;" x1="371.394" y1="155.562" x2="382.85" y2="161.802"/>
					<line style="fill:none;stroke:#1D223A;stroke-miterlimit:10;" x1="370.803" y1="157.769" x2="378.854" y2="162.19"/>
					<line style="fill:none;stroke:#1D223A;stroke-miterlimit:10;" x1="369.534" y1="159.842" x2="377.586" y2="164.263"/>
					<line style="fill:none;stroke:#1D223A;stroke-miterlimit:10;" x1="368.619" y1="162.046" x2="376.671" y2="166.467"/>
				</g>
				<g>
					<line style="fill:none;stroke:#1D223A;stroke-miterlimit:10;" x1="367.077" y1="165.656" x2="378.532" y2="171.896"/>
					<line style="fill:none;stroke:#1D223A;stroke-miterlimit:10;" x1="366.485" y1="167.863" x2="374.536" y2="172.284"/>
					<line style="fill:none;stroke:#1D223A;stroke-miterlimit:10;" x1="365.216" y1="169.936" x2="373.268" y2="174.357"/>
					<line style="fill:none;stroke:#1D223A;stroke-miterlimit:10;" x1="364.302" y1="172.141" x2="372.353" y2="176.562"/>
				</g>
			</g>
			<path style="fill:none;stroke:#1D223A;stroke-width:1.5;stroke-miterlimit:10;" d="M351.317,179.77
				c0,0,25.388,12.625,25.274,12.384"/>

				<line style="fill:none;stroke:#1D223A;stroke-width:1.5;stroke-miterlimit:10;" x1="389.028" y1="130.4" x2="394.812" y2="133.344"/>
		</g>
		<polyline style="fill:none;stroke:#1D223A;stroke-miterlimit:10;" points="397.031,136.088 398.984,139.826 373.721,187.756
			356.911,179.215 		"/>
	</g>
	<g>
		<g>
			<g>
				<g>
					<path style="fill:#ACD1FF;" d="M32.963,151.109c-0.817-3.084,1.198-4.962,8.627-11.665c7.43-6.704,50.868-51.809,54.213-52.65
						c3.345-0.841,6.361-0.487,10.524,2.227c4.163,2.714,25.098,22.555,25.626,27.615c0.528,5.06-62.137,66.361-69.173,66.601
						C55.744,183.477,33.779,154.193,32.963,151.109z"/>
					<path style="fill:#8CC0ED;" d="M131.954,116.635c-0.3-2.873-7.177-10.508-13.828-17.071l-74.127,66.999
						c6.827,8.317,14.981,16.802,18.782,16.673C69.816,182.997,132.482,121.696,131.954,116.635z"/>
					<path style="fill:#FF5E80;" d="M55.213,137.201c6.881-4.515,12.884,4.934,6.306,9.936
						C54.941,152.139,48.573,141.557,55.213,137.201z"/>
					<path style="fill:#FF5E80;" d="M73.26,120.392c7.536-4.944,14.109,5.404,6.906,10.881
						C72.962,136.75,65.989,125.162,73.26,120.392z"/>
					<path style="fill:#FF5E80;" d="M90.648,104.476c7.319-4.801,13.702,5.248,6.707,10.568
						C90.359,120.363,83.587,109.109,90.648,104.476z"/>
					<path style="fill:#FF5E80;" d="M103.77,117.898c6.867-4.505,12.856,4.924,6.292,9.915
						C103.498,132.804,97.144,122.245,103.77,117.898z"/>
					<path style="fill:#FF5E80;" d="M86.143,134.764c7.124-4.674,13.339,5.109,6.529,10.287
						C85.862,150.23,79.269,139.274,86.143,134.764z"/>
					<path style="fill:#FF5E80;" d="M68.058,151.727c6.857-4.499,12.838,4.917,6.284,9.901
						C67.787,166.612,61.442,156.067,68.058,151.727z"/>
				</g>
			</g>
			<path style="fill:none;stroke:#1D223A;stroke-width:1.5;stroke-miterlimit:10;" d="M121.239,131.59
				c6.563-7.031,10.884-12.637,10.715-14.954"/>
			<path style="fill:none;stroke:#1D223A;stroke-width:1.5;stroke-miterlimit:10;" d="M40.095,162.225
				c0,0,16.424,23.067,22.685,21.012c4.241-1.392,34.773-27.441,53.831-46.825"/>
		</g>
		<path style="fill:none;stroke:#FFFFFF;stroke-miterlimit:10;" d="M55.926,138.394c0.401-0.326,0.868-0.646,1.41-0.956"/>
		<path style="fill:none;stroke:#FFFFFF;stroke-miterlimit:10;" d="M54.236,145.176c0,0-1.639-2.806,0.515-5.593"/>
		<path style="fill:none;stroke:#FFFFFF;stroke-miterlimit:10;" d="M74.716,121.136c0.396-0.225,0.84-0.435,1.336-0.625"/>
		<path style="fill:none;stroke:#FFFFFF;stroke-miterlimit:10;" d="M71.834,128.404c0,0-1.412-3.893,1.829-6.549"/>
		<path style="fill:none;stroke:#FFFFFF;stroke-miterlimit:10;" d="M93.661,104.311c0.435-0.148,0.913-0.28,1.436-0.394"/>
		<path style="fill:none;stroke:#FFFFFF;stroke-miterlimit:10;" d="M90.174,112.192c0,0-2.647-4.936,2.306-7.395"/>
		<path style="fill:none;stroke:#FFFFFF;stroke-miterlimit:10;" d="M87.595,135.63c0.466-0.277,1.013-0.522,1.653-0.725"/>
		<path style="fill:none;stroke:#FFFFFF;stroke-miterlimit:10;" d="M85.733,143.079c0,0-1.755-3.791,0.569-6.399"/>
		<path style="fill:none;stroke:#FFFFFF;stroke-miterlimit:10;" d="M105.155,118.512c0.47-0.29,1.014-0.548,1.642-0.763"/>
		<path style="fill:none;stroke:#FFFFFF;stroke-miterlimit:10;" d="M103.171,125.604c0,0-1.82-3.661,0.936-6.288"/>
		<path style="fill:none;stroke:#FFFFFF;stroke-miterlimit:10;" d="M68.983,152.633c0.724-0.443,1.654-0.813,2.84-1.074"/>
		<path style="fill:none;stroke:#FFFFFF;stroke-miterlimit:10;" d="M67.642,160.395c0,0-2.099-3.679-0.162-6.397"/>
	</g>
	<g>
		<g>
			<g>
				<g>
					<path style="fill:#FF5E80;" d="M18.457,274.298l11.266,3.992l-3.178,8.683l11.933,4.368l3.224-8.806l12.712,4.505
						c-0.073,1.813,0.038,3.631,0.337,5.414c2.09,12.472,12.963,23.674,29.703,20.986v0c9.941-1.603,17.885-7.902,21.248-16.848
						c3.198-8.506,1.784-17.895-3.689-24.505c-3.147-3.8-10.164-9.618-23.121-8.549c-1.225,0.101-2.505,0.264-3.838,0.495
						c-8.038,1.397-13.632,5.535-16.954,10.831L46.07,270.6l3.041-8.307l-11.933-4.368l-3.086,8.431l-11.389-4.036L18.457,274.298z
						 M77.229,276.553c6.753-1.176,12.078,0.118,14.994,3.639c2.534,3.06,3.155,7.742,1.582,11.927
						c-1.037,2.759-3.895,7.568-11.376,8.775v0c-9.007,1.456-14.092-4.248-15.146-10.54
						C66.376,284.942,68.437,278.081,77.229,276.553z"/>
					<polyline style="fill:none;stroke:#1D223A;stroke-width:1.5;stroke-miterlimit:10;" points="18.457,274.298 29.722,278.29
						26.544,286.973 38.477,291.341 41.701,282.535 					"/>
				</g>
				<g>
					<g>
						<path style="fill:#00AEEF;" d="M117.051,288.948c-3.46,3.932-8.287,6.745-13.775,7.838
							c-9.056,1.804-18.275-1.501-24.661-8.839c-10.753-12.356-7.1-26.997,2.066-35.074c8.834-7.783,23.238-9.54,33.675,2.161
							c10.073,11.292,8.799,21.279,7.143,26.227C120.545,284.111,119.019,286.711,117.051,288.948z M87.517,263.365
							c-3.676,4.177-4.857,10.529,0.359,16.522l0,0c4.806,5.523,10.209,5.414,13.002,4.858c4.236-0.844,7.76-3.741,8.979-7.381
							c1.402-4.188-0.254-9.216-4.663-14.158c-5.739-6.434-12.42-4.625-16.396-1.121C88.345,262.483,87.916,262.912,87.517,263.365z
							"/>
					</g>
					<path style="fill:none;stroke:#1D223A;stroke-width:1.5;stroke-miterlimit:10;" d="M85.325,269.746
						c0,0-1.482-8.826,10.266-10.653c12.01-1.868,15.885,14.955,14.266,18.271"/>
					<g>

							<rect x="80.902" y="212.092" transform="matrix(0.9768 -0.214 0.214 0.9768 -47.3488 23.9702)" style="fill:#00AEEF;" width="12.277" height="37.179"/>
					</g>
					<g>
						<polygon style="fill:#00AEEF;" points="104.875,231.981 84.982,221.771 71.523,240.833 60.419,235.595 79.363,204.905
							110.62,221.13 						"/>
					</g>
				</g>
				<path style="fill:#FF5E80;" d="M92.223,280.192c0.973,1.174,1.652,2.592,2.044,4.125c2.647,0.889,5.043,0.741,6.611,0.429
					c2.243-0.447,4.282-1.473,5.889-2.877c-0.805-3.581-2.401-6.939-4.756-9.783c-3.147-3.8-10.164-9.618-23.121-8.549
					c-1.225,0.101-2.505,0.264-3.838,0.495c-3.197,0.556-6.001,1.551-8.435,2.874l3.994,12.643c1.569-1.414,3.728-2.495,6.618-2.997
					C83.982,275.377,89.308,276.67,92.223,280.192z"/>
				<path style="fill:none;stroke:#1D223A;stroke-width:1.5;stroke-miterlimit:10;" d="M67.363,285.827
					c0,0,1.127-8.406,11.268-9.506c13.321-1.445,15.636,7.996,15.636,7.996"/>
			</g>
			<polyline style="fill:none;stroke:#1D223A;stroke-width:1.5;stroke-miterlimit:10;" points="71.523,240.833 80.532,228.101
				85.022,250.154 			"/>
			<path style="fill:none;stroke:#1D223A;stroke-width:1.5;stroke-miterlimit:10;" d="M104.875,231.981l-12.853-6.412l4.901,20.745
				c0,0,14.101-0.846,20.689,13.375"/>
		</g>
		<g>
			<g>
				<path style="fill:#ACD1FF;" d="M415.579,276.758c5.007,6.157,12.922,9.022,21.172,7.663v0
					c13.89-2.297,19.497-13.984,17.854-24.355c-0.235-1.483-0.627-2.943-1.162-4.351l6.898-5.394l-5.483-5.671l-7.527,2.449
					c-4.012-3.294-9.508-5.077-16.205-4.058c-1.11,0.169-2.161,0.379-3.152,0.622c-10.484,2.575-14.475,9.006-15.951,12.828
					C409.456,263.138,410.818,270.904,415.579,276.758z M421.866,260.293c1.367-3.542,5.22-5.964,10.846-6.819
					c7.326-1.115,10.758,3.744,11.471,8.244c0.829,5.232-1.672,11.064-9.147,12.292v0c-6.209,1.022-9.727-2.01-11.271-3.909
					C421.423,267.22,420.678,263.37,421.866,260.293z"/>
				<g>
					<g>
						<path style="fill:#00AEEF;" d="M399.097,268.853c-2.608-3.459-6.244-10.987-1.291-22.534
							c5.133-11.965,16.937-14.379,25.945-10.58c9.347,3.943,16.083,14.508,10.875,27.072c-3.093,7.462-9.481,12.494-17.087,13.462
							c-4.609,0.586-9.151-0.356-12.912-2.54C402.487,272.491,400.6,270.846,399.097,268.853z M419.789,245.133
							c-4.055-1.71-9.792-1.373-12.614,5.206c-2.168,5.053-2.146,9.449,0.062,12.377c1.919,2.545,5.458,3.897,9.016,3.444
							c2.346-0.298,6.628-1.637,8.956-7.253l0,0c2.527-6.094-0.078-10.784-4.074-13.104
							C420.701,245.551,420.251,245.327,419.789,245.133z"/>
					</g>
					<path style="fill:none;stroke:#1D223A;stroke-width:1.5;stroke-miterlimit:10;" d="M424.544,250.249
						c0,0-1.16-7.34-10.892-5.681c-9.949,1.696-8.565,15.963-6.415,18.147"/>
					<g>

							<rect x="407.797" y="204.507" transform="matrix(0.9942 -0.1072 0.1072 0.9942 -21.2072 45.5511)" style="fill:#00AEEF;" width="10.194" height="30.871"/>
					</g>
					<g>
						<polygon style="fill:#00AEEF;" points="399.193,225.669 412.165,212.384 427.788,223.845 435.149,216.793 412.142,197.623
							391.809,218.64 						"/>
					</g>
				</g>
				<g>
					<polygon style="fill:#ACD1FF;" points="450.326,233.603 452.69,223.525 481.543,230.539 476.57,260.539 466.611,257.713
						467.92,244.998 452.868,256.154 446.704,247.838 462.002,236.499 					"/>
					<polyline style="fill:none;stroke:#1D223A;stroke-width:1.5;stroke-miterlimit:10;" points="466.611,257.713 467.92,244.998
						452.868,256.154 					"/>
					<path style="fill:#ACD1FF;" d="M412.023,256.491c1.476-3.822,5.467-10.253,15.951-12.828c0.991-0.243,2.042-0.453,3.152-0.622
						c2.664-0.405,5.134-0.361,7.4,0.039l0.189,11.008c-1.608-0.7-3.593-0.981-6.001-0.615c-5.627,0.855-9.479,3.277-10.846,6.819
						c-0.456,1.181-0.617,2.477-0.521,3.787c-1.849,1.398-3.775,1.913-5.092,2.081c-1.884,0.24-3.76-0.031-5.395-0.712
						C410.547,262.416,410.918,259.351,412.023,256.491z"/>
				</g>
				<path style="fill:none;stroke:#1D223A;stroke-width:1.5;stroke-miterlimit:10;" d="M442.926,258.175
					c0,0-3.104-6.322-11.379-4.514c-10.87,2.375-10.203,10.418-10.203,10.418"/>
			</g>
			<polyline style="fill:none;stroke:#1D223A;stroke-width:1.5;stroke-miterlimit:10;" points="427.788,223.845 417.338,216.195
				419.617,234.743 			"/>
			<path style="fill:none;stroke:#1D223A;stroke-width:1.5;stroke-miterlimit:10;" d="M399.193,225.669l8.43-8.438l1.611,17.627
				c0,0-11.326,3.051-12.763,15.986"/>
		</g>
		<g>
			<g>
				<g>
					<path style="fill:#FF5E80;" d="M289.562,35.733l-5.351,10.373l-7.747-3.896l-5.514,10.966l7.634,3.839l-5.651,10.955
						c-5.841-1.532-12.516-0.747-19.1,3.584c-1.092,0.718-2.101,1.45-3.03,2.189c-9.83,7.815-10.924,16.551-10.627,21.308
						c0.517,8.273,5.73,15.819,13.605,19.694c8.284,4.075,18.042,3.258,26.102-2.186l0,0c13.565-9.176,13.814-24.253,7.039-34.417
						c-0.968-1.453-2.093-2.806-3.343-4.035l5.972-11.577l8.093,4.069l5.514-10.966l-7.979-4.012l5.293-10.26L289.562,35.733z
						 M276.707,84.95c3.418,5.127,3.608,12.506-3.696,17.436l0,0c-6.066,4.097-11.258,2.6-13.812,1.344
						c-3.875-1.907-6.534-5.613-6.773-9.444c-0.275-4.408,2.62-8.84,8.152-12.477C267.78,77.072,273.768,80.541,276.707,84.95z"/>
					<polyline style="fill:none;stroke:#1D223A;stroke-width:1.5;stroke-miterlimit:10;" points="300.471,41.361 295.178,51.62
						303.158,55.633 297.643,66.599 289.551,62.53 					"/>
				</g>
				<g>
					<path style="fill:#FFA2B6;" d="M232.519,114.397c2.557,1.376,5.35,2.198,8.215,2.471c5.037,0.481,10.295-0.73,14.882-3.589
						c7.569-4.718,11.876-13.14,11.52-22.53c-0.599-15.811-12.852-23.704-24.647-23.331c-1.873,0.059-3.744,0.339-5.562,0.824
						l-6.234-11.825l7.899-4.434l-6.008-10.704l-7.788,4.372l-5.546-10.125l-10.766,5.897l5.607,10.237l-7.562,4.245l6.008,10.704
						l7.451-4.182l6.316,11.983c-3.834,3.983-6.282,9.618-6.098,16.797C220.581,105.818,228.081,112.008,232.519,114.397z
						 M232.062,90.903c-0.213-8.325,5.687-11.469,10.804-11.631c0.582-0.019,1.167-0.001,1.748,0.055
						c5.35,0.511,10.382,4.203,10.672,11.871c0.268,7.067-3.608,10.563-5.943,12.018c-3.541,2.207-7.938,2.497-11.203,0.74
						C234.384,101.933,232.226,97.298,232.062,90.903z"/>
					<polyline style="fill:none;stroke:#1D223A;stroke-width:1.5;stroke-miterlimit:10;" points="212.537,66.609 219.989,62.426
						226.304,74.409 					"/>
					<path style="fill:none;stroke:#1D223A;stroke-width:1.5;stroke-miterlimit:10;" d="M250.377,82.37
						c0,0-4.793-7.195-14.273-0.713c-9.692,6.626-1.297,21.034,2.036,22.298"/>
				</g>
				<path style="fill:#FF5E80;" d="M252.426,94.287c0.092,1.47,0.551,2.918,1.289,4.256c-1.276,2.376-3.061,3.856-4.372,4.673
					c-1.875,1.168-3.989,1.794-6.049,1.868c-1.801-3.053-2.898-6.474-3.12-10.033c-0.297-4.757,0.797-13.493,10.627-21.308
					c0.929-0.739,1.938-1.471,3.03-2.189c2.619-1.722,5.251-2.876,7.84-3.554l5.548,11.544c-2.04,0.042-4.275,0.708-6.642,2.266
					C255.046,85.447,252.151,89.879,252.426,94.287z"/>
				<path style="fill:none;stroke:#1D223A;stroke-width:1.5;stroke-miterlimit:10;" d="M273.658,81.817c0,0-6.352-5.174-14.22,0.757
					c-10.335,7.791-5.722,15.969-5.722,15.969"/>
			</g>
		</g>
	</g>
	<g>
		<g>
			<g>
				<g>
					<g>
						<path style="fill:#ACD1FF;" d="M157.993,140.32c0,0,6.318-13.491,17.841-13.82c11.524-0.329,16.646,5.779,22.367,13.538
							c5.72,7.759,4.022,14.14-2.248,21.848c-6.27,7.708-11.108,12.7-25.723,5.856C155.615,160.897,154.34,144.334,157.993,140.32z"
							/>
						<path style="fill:#00AEEF;" d="M202.671,157.094c1.615-5.956,3.463-10.93-0.008-17.253
							c-3.471-6.324-7.949-11.773-14.289-14.238c-6.34-2.466-9.885-3.734-16.126-2.35c-6.241,1.384-16.31,12.91-17.814,19.238
							c-1.738,7.314-0.476,14.679,7.393,23.015c7.014,7.43,16.246,9.782,23.674,6.94
							C192.929,169.603,201.057,163.05,202.671,157.094z M183.752,167.327c-4.933,0.915-14.896-3.495-18.538-7.196
							c-3.641-3.701-5.883-7.003-5.564-13.15c0.319-6.146,3.269-9.167,6.488-12.215c0,0,4.48-3.993,7.114-4.807
							c2.633-0.814,3.764-0.387,6.777-0.153c3.013,0.234,4.857,0.995,9.222,3.807c4.365,2.812,7.107,7.013,8.838,10.639
							c1.731,3.626,2.387,7.363-0.573,11.607C194.557,160.102,188.685,166.412,183.752,167.327z"/>
					</g>
					<path style="fill:none;stroke:#FFFFFF;stroke-miterlimit:10;" d="M187.643,169.569c-2.575,1.267-5.434,2.069-8.535,2.21"/>
					<path style="fill:none;stroke:#FFFFFF;stroke-miterlimit:10;" d="M198.752,137.293c0,0,4.38,4.006,3.693,11.215
						c-0.636,6.678-5.248,15.189-12.645,19.853"/>
				</g>
				<path style="fill:none;stroke:#1D223A;stroke-miterlimit:10;" d="M164.059,136.15c0,0-10.139,15.588,1.156,23.981"/>
				<path style="fill:none;stroke:#1D223A;stroke-miterlimit:10;" d="M154.484,140.909c0,0,8.403-17.691,21.119-17.898
					c12.717-0.207,20.268,5.936,23.817,11.39"/>
			</g>
		</g>
		<g>
			<g>
				<g>
					<path style="fill:#FFA2B6;" d="M285.18,151.382c0,0,9.909-11.124,21.046-8.146c11.137,2.978,14.301,10.295,17.566,19.365
						c3.265,9.07-0.186,14.7-8.397,20.295c-8.211,5.595-14.273,8.996-26.324-1.739C277.02,170.421,280.531,154.184,285.18,151.382z"
						/>
					<path style="fill:#DB2756;" d="M323.201,180.223c3.249-5.246,6.442-9.484,4.922-16.536c-1.519-7.052-4.253-13.553-9.624-17.728
						c-5.371-4.175-8.406-6.403-14.783-6.86c-6.377-0.457-19.319,7.711-22.568,13.346c-3.756,6.513-4.65,13.931,0.509,24.168
						c4.598,9.125,12.774,14.017,20.704,13.415C310.29,189.427,319.952,185.469,323.201,180.223z M302.147,184.623
						c-4.989-0.533-13.277-7.606-15.708-12.193c-2.432-4.587-3.636-8.392-1.574-14.191c2.062-5.799,5.752-7.851,9.708-9.852
						c0,0,5.435-2.546,8.191-2.574c2.756-0.028,3.718,0.705,6.538,1.79c2.821,1.085,4.371,2.341,7.75,6.283
						c3.38,3.942,4.806,8.751,5.429,12.721c0.623,3.97,0.184,7.738-3.865,10.959S307.135,185.156,302.147,184.623z"/>
				</g>
				<path style="fill:none;stroke:#FFFFFF;stroke-miterlimit:10;" d="M325.563,160.454c1.16,3.274,1.782,7.043,0.485,10.324
					c-3.097,7.832-13.897,18.504-25.852,17.313"/>
				<path style="fill:none;stroke:#FFFFFF;stroke-miterlimit:10;" d="M321.305,152.324c0,0,1.529,2.071,2.969,5.059"/>
				<path style="fill:none;stroke:#FFFFFF;stroke-miterlimit:10;" d="M287.532,150.939c0,0-8.49,6.989-4.577,18.479"/>
			</g>
			<path style="fill:none;stroke:#1D223A;stroke-miterlimit:10;" d="M312.344,148.827c0,0-5.192-3.691-11.257-2.771
				c-6.065,0.92-19.611,8.543-17.355,19.32c2.256,10.777,12.216,18.715,14.542,18.201"/>
			<path style="fill:none;stroke:#1D223A;stroke-miterlimit:10;" d="M289.297,145.255c0,0,9.666-8.995,20.134-5.419
				s16.778,14.803,18.189,20.802"/>
		</g>
	</g>
</g>
</svg>
