<?xml version="1.0" encoding="utf-8"?>
<!-- Generator: Adobe Illustrator 27.5.0, SVG Export Plug-In . SVG Version: 6.00 Build 0)  -->
<svg version="1.1" xmlns="http://www.w3.org/2000/svg" xmlns:xlink="http://www.w3.org/1999/xlink" x="0px" y="0px"
	 viewBox="0 0 500 500" style="enable-background:new 0 0 500 500;" xml:space="preserve">
<g id="BACKGROUND">
	<rect style="fill:#FFFFFF00;" width="500" height="500"/>
</g>
<g id="OBJECTS">
	<g>
		<path style="fill:#DAEAE7;" d="M306.818,178.976c2.803-5.131,3.521-11.465,4.907-17.266c2.073-8.675,6.334-17.154,10.726-24.891
			c5.149-9.071,13.225-22.416,23.889-25.402c4.927,11.928,9.766,22.616,9.556,36.017c-0.222,14.154-6.657,27.975-18.411,36.139
			c-4.883,3.392-11.578,6.103-17.449,4.134c-5.812-1.95-10.942-8.449-8.11-14.602"/>
		<path style="fill:#B9D8D2;" d="M325.248,207.335c-2.644-5.844,4.78-21.819,6.993-27.433c4.397-11.155,11.027-20.748,19.288-29.445
			c11.559-12.169,26.502-27.215,44.039-29.578c-3.064,6.601-2.413,15.802-3.89,23.049c-2.63,12.901-8.207,24.471-15.555,35.385
			c-9.171,13.622-23.928,31.132-41.479,31.954C330.696,211.453,325.864,210.565,325.248,207.335z"/>
		<path style="fill:#DAEAE7;" d="M318.933,232.335c-0.089-11.488,9.118-22.126,17.798-28.611
			c14.483-10.821,30.428-12.349,47.77-13.451c-4.721,20.92-16.563,45.082-36.43,55.691c-7.719,4.122-13.61,2.711-20.36-2.195
			C323.709,240.86,318.378,235.095,318.933,232.335z"/>
		<path style="fill:#DAEAE7;" d="M394.169,332.884c-9.057-4.982,24.582-27.039,28.31-28.793
			c15.714-7.389,33.306-10.226,50.202-6.726c-15.862,13.555-28.709,30.469-49.121,38.163c-6.358,2.397-12.743,2.45-19.374,1.703
			C401.114,336.886,393.651,335.83,394.169,332.884z"/>
		<path style="fill:#B9D8D2;" d="M365.334,355.388c2.229-4.878,8.88-10.078,11.918-12.728c6.58-5.638,13.365-9.762,21.544-12.655
			c19.456-6.883,38.799-3.981,57.971,2.701c-7.576,4.721-13.584,12.283-21.285,17.279c-12.173,7.897-26.934,12.285-41.137,14.918
			c-8.621,1.598-16.39,2.504-24.708-0.833C364.36,361.951,363.8,358.746,365.334,355.388z"/>
		<path style="fill:#B9D8D2;" d="M386.488,312.259c-4.211-3.096,12.464-20.786,15.298-23.293
			c12.246-10.834,26.968-18.822,43.584-18.78c-2.182,4.333-1.579,10.481-2.474,15.223c-1.228,6.511-3.636,13.457-7.935,18.628
			c-6.518,7.84-16.44,12.932-26.108,15.4C399.314,321.872,391.089,316.625,386.488,312.259z"/>
		<path style="fill:#B9D8D2;" d="M348.827,142.85c-1.324,0.108-2.519,0.545-3.685,1.187c-1.14,0.627-2.239,1.314-3.302,2.062
			c-1.061,0.746-2.1,1.52-3.126,2.313c-0.249,0.193-0.526,0.403-0.801,0.63c0.751-3.499,1.486-7.002,2.174-10.511
			c0.465-2.369,0.912-4.738,1.256-7.128c0.178-1.235,0.352-2.47,0.53-3.704c0.188-1.302,0.056-2.439-0.112-3.74
			c-0.038-0.29-0.403-0.442-0.579-0.157c-0.521,0.847-1.126,1.681-1.436,2.631c-0.338,1.036-0.603,2.101-0.906,3.148
			c-0.58,2.008-1.109,4.019-1.61,6.046c-0.259-0.623-0.524-1.245-0.761-1.875c-0.389-1.036-0.745-2.079-1.153-3.107
			c-0.217-0.546-0.396-1.139-0.709-1.64c-0.133-0.213-0.329-0.446-0.534-0.595c-0.125-0.091-0.324-0.158-0.402-0.218
			c-0.088-0.067-0.264-0.022-0.307,0.08c-0.042,0.1-0.176,0.244-0.24,0.388c-0.103,0.23-0.153,0.538-0.157,0.789
			c-0.008,0.59,0.155,1.195,0.279,1.766c0.25,1.152,0.615,2.264,0.998,3.378c0.386,1.121,0.736,2.334,1.299,3.379
			c0.241,0.448,0.53,0.876,0.83,1.288c-0.763,3.284-1.496,6.575-2.247,9.861c-0.674,2.948-1.354,5.894-2.028,8.842
			c-0.542-1.253-1.098-2.495-1.707-3.723c-0.779-1.573-1.508-3.166-2.239-4.763c-0.589-1.287-1.206-3.193-2.541-3.884
			c-0.112-0.058-0.239-0.007-0.279,0.113c-0.468,1.426,0.434,3.244,0.914,4.574c0.597,1.653,1.195,3.302,1.741,4.972
			c0.549,1.677,1.152,3.315,1.813,4.952c0.327,0.809,0.704,1.688,1.223,2.442c-0.937,4.088-1.869,8.177-2.813,12.263
			c-1.102,4.767-2.575,9.546-1.761,14.459c0.062,0.373,0.548,0.339,0.725,0.095c2.583-3.573,3.406-7.82,4.378-12.046
			c0.996-4.334,1.983-8.67,2.962-13.008c0.877-3.891,1.751-7.788,2.606-11.689c1.332,0.12,2.502-0.874,3.485-1.67
			c0.96-0.777,1.94-1.527,2.939-2.254c1.026-0.746,2.041-1.507,3.061-2.261c1.076-0.796,2.015-1.639,2.76-2.752
			C349.615,143.409,349.287,142.812,348.827,142.85z"/>
		<path style="fill:#B9D8D2;" d="M379.613,204.998c-0.145-0.052-0.253-0.287-0.387-0.382c-0.111-0.079-0.257-0.14-0.377-0.205
			c-0.293-0.16-0.575-0.333-0.901-0.416c-0.623-0.159-1.309-0.26-1.948-0.3c-0.604-0.037-1.261-0.125-1.911-0.145
			c0.623-0.545,1.252-1.083,1.872-1.632c1.401-1.242,3.398-2.724,3.6-4.701c0.025-0.246-0.226-0.442-0.449-0.449
			c-1.736-0.05-3.158,1.385-4.448,2.399c-1.567,1.233-3.077,2.544-4.626,3.8c-1.172,0.951-2.346,1.899-3.521,2.846
			c0.145-0.738,0.277-1.47,0.431-2.161c0.264-1.183,0.465-2.369,0.637-3.569c0.18-1.26,0.266-2.424-0.186-3.627
			c-0.059-0.158-0.244-0.221-0.375-0.099c-0.921,0.861-1.35,1.907-1.758,3.087c-0.409,1.184-0.741,2.387-1.037,3.603
			c-0.295,1.213-0.627,2.423-0.887,3.644c-0.135,0.632-0.23,1.279-0.323,1.918c-0.718,0.571-1.432,1.146-2.154,1.713
			c-4.717,3.706-9.521,7.3-14.4,10.791c0.502-1.409,0.941-2.845,1.367-4.274c0.559-1.879,1.057-3.766,1.442-5.689
			c0.191-0.954,0.396-1.915,0.52-2.881c0.11-0.858,0.334-1.913,0.007-2.733c-0.221-0.554-0.911-0.851-1.384-0.365
			c-0.616,0.633-0.823,1.576-1.093,2.401c-0.304,0.928-0.542,1.879-0.823,2.814c-0.564,1.873-1.125,3.75-1.738,5.607
			c-0.614,1.861-1.319,3.685-1.995,5.523c-0.21,0.572-0.703,1.749-0.811,2.779c-1.741,1.21-3.501,2.393-5.227,3.624
			c-0.893,0.637-1.811,1.248-2.633,1.978c-0.864,0.767-1.264,1.365-1.659,2.428c-0.128,0.344,0.197,0.66,0.516,0.677
			c0.976,0.051,1.541-0.026,2.449-0.423c0.953-0.417,1.813-0.96,2.687-1.519c1.621-1.038,3.2-2.131,4.777-3.235
			c3.209-2.247,6.385-4.54,9.529-6.879c0.317-0.236,0.631-0.476,0.948-0.713c0.629,0.152,1.299,0.196,1.663,0.222
			c1.603,0.117,3.206,0.179,4.807,0.342c1.6,0.163,3.181,0.435,4.775,0.635c1.421,0.179,3.35,0.774,4.603-0.114
			c0.171-0.121,0.242-0.326,0.136-0.519c-0.738-1.349-2.694-1.594-4.075-1.902c-1.576-0.352-3.199-0.548-4.8-0.747
			c-1.277-0.159-2.559-0.278-3.842-0.374c4.895-3.717,9.723-7.534,14.384-11.532c0.32-0.274,0.634-0.556,0.953-0.831
			c0.326,0.15,0.679,0.255,0.985,0.333c0.767,0.195,1.566,0.221,2.353,0.29c0.747,0.065,1.47,0.088,2.22,0.054
			c0.416-0.019,0.768-0.122,1.158-0.263c0.14-0.051,0.289-0.091,0.423-0.154c0.191-0.089,0.323-0.306,0.526-0.346
			C379.794,205.295,379.76,205.05,379.613,204.998z"/>
		<path style="fill:#B9D8D2;" d="M455.429,302.136c-1.972,0.185-3.712,1.905-5.304,2.98c-0.396,0.267-0.799,0.522-1.198,0.783
			c0.004-0.031,0.007-0.056,0.008-0.065c0.017-0.117,0.034-0.233,0.052-0.35c0.046-0.293,0.097-0.585,0.153-0.876
			c0.118-0.615,0.166-1.217,0.271-1.821c0.154-0.889-0.92-1.367-1.451-0.611c-0.169,0.24-0.323,0.472-0.498,0.693
			c-0.215,0.272-0.355,0.576-0.506,0.887c-0.295,0.61-0.573,1.232-0.818,1.863c-0.218,0.561-0.323,1.19-0.44,1.78
			c-0.037,0.184-0.085,0.401-0.103,0.6c-0.214,0.129-0.424,0.265-0.639,0.392c-3.637,2.165-7.447,3.928-11.279,5.715
			c-0.114,0.053-0.229,0.103-0.342,0.156c0.512-0.703,1.013-1.414,1.484-2.144c0.716-1.111,1.388-2.293,1.941-3.493
			c0.328-0.713,0.595-1.383,0.732-2.121c0.067-0.36,0.144-0.74,0.165-1.105c0.022-0.365-0.121-0.654-0.18-1.004
			c-0.074-0.438-0.644-0.601-0.988-0.402c-0.085,0.048-0.169,0.098-0.252,0.147c-0.481,0.163-0.828,0.554-1.187,0.942
			c-0.49,0.529-0.888,1.056-1.269,1.668c-0.703,1.131-1.383,2.277-2.083,3.41c-0.68,1.1-1.357,2.199-2.088,3.266
			c-0.603,0.881-1.268,1.974-1.357,3.093c-6.027,2.569-12.163,4.841-18.322,7.101c-2.24,0.822-4.487,1.625-6.737,2.42
			c-2.173,0.767-4.567,1.458-6.273,3.087c-0.453,0.432-0.062,1.054,0.464,1.119c2.124,0.262,4.267-0.478,6.265-1.105
			c2.026-0.636,4.05-1.28,6.069-1.936c0.586-0.191,1.169-0.391,1.753-0.587c0.689,0.309,1.461,0.478,2.167,0.64
			c1.356,0.311,2.71,0.642,4.08,0.883c2.55,0.448,5.52,1.415,7.978,0.234c0.258-0.124,0.289-0.519,0.091-0.704
			c-0.948-0.886-2.216-1.384-3.488-1.597c-1.377-0.231-2.76-0.435-4.139-0.652c-0.776-0.122-1.556-0.221-2.337-0.315
			c2.035-0.735,4.06-1.498,6.076-2.281c4.027-1.563,8.013-3.224,11.906-5.096c2.503-1.204,4.92-2.544,7.313-3.932
			c0.069,0.06,0.137,0.121,0.219,0.178c0.336,0.234,0.713,0.458,1.096,0.603c0.633,0.239,1.298,0.419,1.954,0.583
			c0.728,0.182,1.505,0.318,2.255,0.266c0.454-0.032,0.844-0.09,1.23-0.339c0.337-0.218,0.702-0.453,0.712-0.903
			c0.017-0.801-1.114-1.256-1.715-1.424c-0.778-0.217-1.27-0.226-2.177-0.336c-0.018-0.004-0.342-0.049-0.38-0.055
			c-0.18-0.028-0.36-0.059-0.539-0.091c-0.017-0.003-0.034-0.007-0.051-0.01c0.428-0.255,0.857-0.508,1.286-0.764
			c0.722-0.432,1.433-0.882,2.145-1.33c0.138-0.042,0.272-0.113,0.393-0.223c0.016-0.014,0.028-0.033,0.044-0.048
			c1.191-0.756,2.372-1.529,3.532-2.331c1.699-1.175,4.257-2.512,4.992-4.541C456.258,302.624,455.867,302.095,455.429,302.136z"/>
		<path style="fill:#DAEAE7;" d="M429.085,289.92c2.615-2.867,5.133-5.821,7.56-8.849c0.692-0.863-0.459-2.093-1.244-1.244
			c-2.234,2.414-4.534,4.773-6.884,7.084c0.028-0.115,0.061-0.228,0.088-0.343c0.173-0.751,0.426-1.528,0.509-2.294
			c0.082-0.758,0.037-1.55,0.063-2.314c0.006-0.167-0.206-0.194-0.289-0.078c-0.445,0.613-0.964,1.203-1.371,1.84
			c-0.401,0.628-0.661,1.396-0.976,2.071c-0.346,0.743-0.652,1.496-0.95,2.259c-0.293,0.748-0.628,1.464-0.621,2.277
			c-3.743,3.513-7.613,6.893-11.598,10.125c0.096-0.295,0.194-0.59,0.281-0.886c0.366-1.249,0.703-2.508,1.054-3.761
			c0.351-1.252,0.666-2.523,0.908-3.801c0.12-0.634,0.231-1.277,0.305-1.917c0.071-0.617-0.082-1.081-0.178-1.676
			c-0.036-0.222-0.349-0.276-0.49-0.129c-0.509,0.525-0.907,0.891-1.245,1.564c-0.293,0.582-0.562,1.18-0.812,1.781
			c-0.557,1.341-1.07,2.688-1.544,4.06c-0.457,1.321-0.929,2.636-1.346,3.97c-0.337,1.078-0.627,2.244,0.076,3.165
			c-1.737,1.357-3.487,2.696-5.263,3.996c-2.977,2.178-6.55,4.156-8.743,7.188c-0.412,0.57,0.266,1.205,0.838,1.09
			c3.27-0.657,6.15-2.935,8.794-4.848c2.779-2.01,5.516-4.087,8.152-6.283c2.051-1.708,4.065-3.472,6.048-5.27
			c0.607,0.132,1.217,0.236,1.857,0.238c0.575,0.002,1.16,0.073,1.729,0.061c0.532-0.011,1.076-0.106,1.606-0.159
			c1.166-0.115,2.329-0.222,3.486-0.411c0.958-0.157,2.439-0.387,2.945-1.335c0.165-0.31,0.099-0.618-0.113-0.878
			c-0.673-0.822-2.272-0.753-3.23-0.728c-1.074,0.028-2.141,0.141-3.211,0.238c-0.563,0.051-1.13,0.086-1.691,0.162
			c-0.155,0.021-0.307,0.061-0.461,0.095C425.171,294.018,427.177,292.012,429.085,289.92z"/>
		<path style="fill:#DAEAE7;" d="M436.805,336.977c-2.148-0.027-4.244-0.045-6.393,0.105c-1.226,0.085-2.451,0.211-3.675,0.346
			c0.104-0.099,0.215-0.19,0.316-0.293c0.691-0.698,1.392-1.386,2.102-2.065c0.692-0.662,1.395-1.311,2.102-1.957
			c0.169-0.155,0.331-0.307,0.477-0.483c0.107-0.129,0.21-0.259,0.312-0.391c0.162-0.21,0.241-0.398,0.36-0.632
			c-0.095,0.189,0.027-0.012,0.079-0.087c0.068-0.099,0.136-0.197,0.205-0.296c0.222-0.322,0.331-0.622,0.311-1.019
			c-0.019-0.375-0.269-0.811-0.674-0.885c-0.46-0.084-0.76-0.057-1.188,0.154c-0.111,0.055-0.219,0.114-0.329,0.172
			c-0.029,0.015-0.307,0.159-0.127,0.083c-0.279,0.118-0.548,0.201-0.808,0.372c-0.282,0.185-0.55,0.391-0.8,0.619
			c-0.725,0.662-1.435,1.342-2.138,2.028c-0.685,0.668-1.361,1.346-2.028,2.032c-0.355,0.365-0.681,0.741-0.999,1.138
			c-0.143,0.178-0.285,0.356-0.426,0.535c-0.283,0.36-0.413,0.658-0.513,1.09c-0.025,0.109-0.035,0.219-0.032,0.327
			c-2.756,0.324-5.513,0.677-8.259,1.09c-0.086-0.031-0.169-0.069-0.256-0.097c-0.443-0.144-0.812,0.018-1.053,0.303
			c-0.715,0.113-1.43,0.223-2.142,0.344c-3.767,0.641-7.482,1.507-11.117,2.625c0.185-0.188,0.365-0.379,0.553-0.564
			c1.35-1.329,2.745-2.612,4.182-3.845c1.398-1.2,2.841-2.346,4.262-3.517c1.483-1.221,2.746-2.485,3.755-4.125
			c0.243-0.395-0.157-0.768-0.546-0.71c-1.898,0.284-3.536,1.033-5.115,2.122c-1.642,1.132-3.182,2.382-4.686,3.69
			c-1.429,1.242-2.815,2.534-4.156,3.871c-0.67,0.668-1.342,1.339-1.977,2.04c-0.659,0.726-1.557,1.619-1.801,2.579
			c-0.034,0.131-0.042,0.266-0.035,0.401c-1.941,0.763-3.855,1.602-5.732,2.537c-1.86,0.926-3.724,1.908-5.44,3.083
			c-0.881,0.603-1.723,1.25-2.452,2.034c-0.707,0.761-1.25,1.664-1.867,2.499c-0.162,0.22,0.112,0.589,0.37,0.482
			c1.691-0.7,3.392-1.178,4.995-2.099c1.589-0.913,3.152-1.867,4.774-2.72c3.313-1.742,6.761-3.154,10.292-4.387
			c4.803-1.677,9.706-3.033,14.674-4.096c0.674,0.555,1.417,1.025,2.159,1.484c0.962,0.596,1.935,1.174,2.918,1.734
			c0.983,0.561,1.994,1.076,3.027,1.541c0.599,0.27,1.295,0.502,1.955,0.56c0.533,0.047,1.019-0.084,1.536-0.184
			c0.246-0.047,0.34-0.359,0.227-0.557c-0.269-0.471-0.492-0.967-0.9-1.342c-0.395-0.363-0.889-0.713-1.351-0.985
			c-1.004-0.592-2.068-1.101-3.104-1.634c-0.866-0.445-1.721-0.91-2.572-1.382c1.576-0.287,3.156-0.554,4.743-0.785
			c2.391-0.348,4.788-0.63,7.183-0.945c2.343-0.308,4.605-0.789,6.907-1.291C437.26,337.541,437.168,336.982,436.805,336.977z"/>
		<path style="fill:#DAEAE7;" d="M383.43,150.261c-1.038-0.265-2.219,0.337-3.111,0.798c-0.917,0.474-1.833,0.95-2.75,1.425
			c-0.913,0.473-1.864,0.905-2.722,1.473c-0.188,0.125-0.388,0.253-0.589,0.386c1.044-1.576,2.088-3.151,3.104-4.745
			c1.512-2.373,2.975-4.764,4.356-7.216c0.726-1.288,1.396-2.593,2.033-3.927c0.552-1.157,1.186-2.309,1.332-3.589
			c0.026-0.226-0.286-0.399-0.467-0.268c-0.849,0.611-1.392,1.417-2.021,2.251c-0.809,1.072-1.616,2.154-2.361,3.271
			c-1,1.497-1.992,2.998-2.984,4.499c0.016-0.219,0.026-0.438,0.024-0.663c-0.008-0.843-0.156-1.689-0.209-2.531
			c-0.054-0.856-0.169-1.694-0.272-2.545c-0.061-0.503-0.243-0.946-0.348-1.438c-0.092-0.433-0.259-0.774-0.482-1.155
			c-0.199-0.341-0.623-0.28-0.834,0c-0.281,0.373-0.468,0.705-0.592,1.155c-0.136,0.492-0.322,0.927-0.379,1.438
			c-0.105,0.926-0.142,1.811-0.057,2.74c0.088,0.965,0.154,1.972,0.444,2.899c0.233,0.745,0.628,1.762,1.254,2.288
			c-2.64,4.039-5.359,8.028-8.143,11.969c-0.901,1.276-1.827,2.533-2.746,3.796c-0.041-0.451-0.093-0.887-0.123-1.272
			c-0.135-1.742-0.127-3.495,0.023-5.236c0.149-1.735,0.449-3.473,0.842-5.169c0.377-1.629,0.582-3.298,0.779-4.959
			c0.041-0.348-0.487-0.558-0.707-0.293c-1.116,1.35-2.036,2.893-2.521,4.577c-0.518,1.799-0.825,3.632-0.985,5.496
			c-0.159,1.857-0.158,3.728,0.006,5.584c0.095,1.073,0.254,2.663,0.909,3.724c-4.486,6.056-9.164,11.966-14.013,17.738
			c-1.201,1.43-2.43,2.836-3.654,4.246c0.24-1.629,0.453-3.259,0.645-4.895c0.21-1.785,0.451-3.568,0.575-5.361
			c0.136-1.961-0.067-3.822-0.177-5.773c-0.025-0.446-0.64-0.54-0.779-0.105c-0.597,1.857-1.259,3.601-1.62,5.53
			c-0.331,1.766-0.546,3.552-0.791,5.332c-0.244,1.774-0.473,3.545-0.66,5.327c-0.112,1.068-0.386,2.314-0.329,3.473
			c-1.524,1.591-3.123,3.267-3.651,5.351c-0.155,0.613,0.426,1.31,1.082,1.082c2.387-0.829,3.86-2.937,5.481-4.775
			c1.683-1.907,3.345-3.832,4.987-5.775c1.482-1.754,2.938-3.529,4.382-5.315c0.269-0.027,0.536-0.07,0.78-0.13
			c1.017-0.25,2.022-0.61,3.017-0.938c1.929-0.635,3.838-1.401,5.684-2.247c1.816-0.833,3.573-1.728,5.274-2.777
			c1.77-1.091,3.263-2.42,4.728-3.889c0.209-0.21-0.001-0.624-0.302-0.519c-1.822,0.633-3.624,1.23-5.362,2.069
			c-1.849,0.892-3.691,1.802-5.547,2.679c-1.793,0.847-3.591,1.678-5.394,2.504c-0.151,0.069-0.304,0.134-0.456,0.201
			c0.927-1.172,1.861-2.338,2.774-3.522c4.557-5.907,8.93-11.955,13.096-18.142c0.921,0.114,1.872-0.277,2.723-0.592
			c1.02-0.378,1.98-0.903,2.954-1.387c0.957-0.475,1.913-0.949,2.87-1.425c0.903-0.449,1.977-1.046,2.38-2.029
			C383.943,150.68,383.701,150.33,383.43,150.261z"/>
		<path style="fill:#E9C3C8;" d="M341.135,375.58c2.677-10.05,7.196-19.693,12.737-28.475c6.323-10.021,13.907-18.03,24.946-22.837
			c6.325-2.755,16.158-6.561,16.778,3.661c0.497,8.205-8.555,20.757-14.069,26.463c11.965-7.833,22.649-14.099,37.423-13.398
			c10.472,0.497,29.957,3.231,30.372,16.717c0.784,25.434-42.737,22.561-58.41,25.565c13.309-0.591,40.025,17.273,29.399,32.772
			c-12.467,18.183-39.446,10.138-53.767-0.388c4.371,8.575,7.021,20.999-6.045,22.404c-14.905,1.603-18.247-18.444-20.561-29.102
			C337.504,397.745,338.246,386.426,341.135,375.58z"/>
		<path style="fill:#E0A8B8;" d="M343.235,379.274c1.771-6.647,4.76-13.025,8.424-18.833c4.182-6.628,9.198-11.925,16.499-15.104
			c4.184-1.822,10.687-4.339,11.097,2.422c0.329,5.427-5.658,13.729-9.305,17.503c7.913-5.181,14.98-9.325,24.751-8.861
			c6.926,0.329,19.813,2.137,20.088,11.057c0.518,16.822-28.266,14.922-38.633,16.909c8.803-0.391,26.473,11.424,19.444,21.675
			c-8.246,12.026-26.09,6.705-35.561-0.257c2.891,5.672,4.644,13.889-3.998,14.818c-9.858,1.06-12.069-12.199-13.599-19.248
			C340.833,393.934,341.324,386.447,343.235,379.274z"/>
		<path style="fill:#E9C3C8;" d="M319.029,265.88c-1.922-1.343,4.798-20.21,5.979-23.679c2.997-8.807,8.857-18.98,18.072-22.443
			c13.825-5.196,7.444,11.575,6.073,18.88c6.729-8.653,11.943-17.915,20.379-25.324c6.796-5.968,18.019-16.172,27.991-11.909
			c9.626,4.115,3.98,15.906-0.289,22.55c-3.06,4.763-8.015,12.964-13.021,15.831c5.486-4.855,14.874-9.409,22.505-11.329
			c8.266-2.079,30.889-5.167,31.247,8.992c0.337,13.311-20.182,19.478-30.083,20.999c17.521-0.177,16.991,17.828,4.051,25.02
			c-8.608,4.784-18.014,6.658-27.666,7.891c-9.299,1.187-18.712-1.402-28.038-1.864c-12.337-0.612-21.775-6.592-30.906-13.782
			C320.019,271.536,319.116,268.742,319.029,265.88z"/>
		<path style="fill:#E0A8B8;" d="M329.893,269.252c-1.267-0.886,3.165-13.332,3.944-15.62c1.977-5.81,5.843-12.521,11.922-14.805
			c9.12-3.428,4.911,7.636,4.006,12.454c4.439-5.708,7.879-11.818,13.444-16.705c4.483-3.937,11.886-10.668,18.465-7.856
			c6.35,2.715,2.626,10.493-0.19,14.876c-2.019,3.142-5.287,8.552-8.59,10.443c3.619-3.203,9.812-6.207,14.846-7.473
			c5.453-1.372,20.376-3.409,20.613,5.932c0.222,8.78-13.313,12.849-19.845,13.852c11.558-0.117,11.208,11.761,2.672,16.505
			c-5.679,3.156-11.884,4.392-18.25,5.205c-6.134,0.783-12.344-0.924-18.496-1.23c-8.138-0.404-14.364-4.349-20.388-9.092
			C330.547,272.983,329.951,271.14,329.893,269.252z"/>
		<path style="fill:#FFFFFF;" d="M344.674,137.385c-0.038-0.161-0.113-0.302-0.222-0.422c-0.087-0.135-0.204-0.242-0.348-0.32
			l-0.297-0.125c-0.165-0.052-0.33-0.059-0.495-0.022c-0.165,0.008-0.319,0.057-0.462,0.147c-0.084,0.065-0.168,0.13-0.251,0.194
			c-0.154,0.155-0.26,0.338-0.319,0.548c-0.015,0.11-0.03,0.22-0.044,0.33c0,0.005,0.002,0.009,0.002,0.014
			c-0.015,0.14-0.014,0.279,0.024,0.419c0.053,0.19,0.149,0.355,0.288,0.495c0.14,0.139,0.305,0.235,0.495,0.288
			c0.139,0.037,0.277,0.039,0.416,0.024c0.006,0,0.011,0.002,0.017,0.002c0.171,0.006,0.33-0.029,0.478-0.107
			c0.154-0.05,0.287-0.136,0.4-0.257c0.065-0.084,0.129-0.167,0.194-0.251c0.091-0.142,0.14-0.296,0.147-0.462
			C344.733,137.715,344.726,137.55,344.674,137.385z"/>
		<path style="fill:#FFFFFF;" d="M354.412,171.327c-0.014-0.023-0.028-0.046-0.042-0.069c-0.215-0.354-0.475-0.644-0.839-0.852
			c-0.045-0.026-0.092-0.049-0.138-0.073c-0.176-0.074-0.352-0.148-0.528-0.222c-0.294-0.092-0.587-0.105-0.881-0.04
			c-0.199,0-0.385,0.051-0.557,0.151c-0.274,0.089-0.511,0.241-0.711,0.457c-0.115,0.149-0.23,0.298-0.345,0.447
			c-0.074,0.176-0.148,0.352-0.223,0.528c-0.092,0.294-0.105,0.587-0.039,0.881c0.013,0.294,0.101,0.568,0.262,0.821
			c0.024,0.046,0.047,0.093,0.072,0.138c0.208,0.363,0.499,0.624,0.853,0.839c0.023,0.014,0.046,0.028,0.069,0.042
			c0.347,0.201,0.722,0.303,1.124,0.304c0.402-0.001,0.777-0.102,1.124-0.304c0.079-0.053,0.155-0.112,0.227-0.175
			c0.241-0.156,0.431-0.363,0.57-0.621c0.001-0.001,0.001-0.002,0.002-0.003c0.202-0.347,0.303-0.722,0.304-1.124
			C354.715,172.048,354.613,171.674,354.412,171.327z"/>
		<path style="fill:#FFFFFF;" d="M374.458,200.622c0-0.127-0.033-0.246-0.096-0.356c-0.057-0.175-0.154-0.326-0.291-0.454
			c-0.095-0.073-0.19-0.147-0.285-0.22c-0.112-0.047-0.224-0.095-0.337-0.142c-0.187-0.059-0.375-0.067-0.562-0.025
			c-0.188,0.009-0.362,0.064-0.524,0.167c-0.145,0.093-0.295,0.185-0.418,0.307c-0.109,0.109-0.195,0.22-0.258,0.353
			c-0.012,0.024-0.023,0.049-0.035,0.073c-0.022,0.045-0.043,0.09-0.065,0.136c-0.012,0.024-0.023,0.049-0.035,0.073
			c-0.051,0.105-0.096,0.213-0.137,0.323c-0.055,0.174-0.062,0.348-0.023,0.522c-0.004,0.063,0.004,0.123,0.025,0.18
			c0.062,0.22,0.173,0.411,0.334,0.573c0.161,0.16,0.36,0.276,0.579,0.336c0.232,0.062,0.464,0.062,0.696,0
			c0.11-0.041,0.218-0.086,0.323-0.137c0.023-0.011,0.045-0.022,0.068-0.033c0.047-0.022,0.094-0.045,0.141-0.067
			c0.024-0.012,0.049-0.023,0.073-0.035c0.133-0.063,0.245-0.15,0.353-0.258c0.122-0.123,0.213-0.273,0.307-0.418
			c0.047-0.112,0.095-0.224,0.142-0.337C374.492,200.997,374.5,200.809,374.458,200.622z"/>
		<path style="fill:#FFFFFF;" d="M414.94,237.088c-0.001-0.228-0.058-0.441-0.173-0.639c-0.06-0.214-0.169-0.4-0.326-0.559
			c-0.112-0.19-0.264-0.342-0.454-0.454c-0.244-0.224-0.531-0.375-0.861-0.453c-0.016-0.004-0.033-0.007-0.049-0.01
			c-0.117-0.02-0.261-0.035-0.356-0.048c-0.098-0.013-0.238-0.036-0.357-0.048c-0.032-0.003-0.064-0.005-0.096-0.004
			c-0.014,0.001-0.029,0.002-0.043,0.003c-0.237,0.024-0.486,0.023-0.71,0.095l-0.625,0.264c-0.204,0.108-0.382,0.245-0.532,0.412
			c-0.162,0.189-0.324,0.38-0.455,0.591c-0.087,0.206-0.174,0.411-0.26,0.617c-0.031,0.229-0.062,0.458-0.092,0.687
			c0.031,0.229,0.062,0.458,0.092,0.687c0.08,0.336,0.234,0.629,0.462,0.879c0.115,0.194,0.269,0.349,0.463,0.463
			c0.161,0.16,0.351,0.271,0.57,0.332c0.201,0.117,0.419,0.176,0.652,0.176c0.343,0.077,0.687,0.061,1.03-0.046
			c0.276-0.086,0.169,0.066,0.709-0.282c0.04-0.031,0.081-0.062,0.121-0.094c0.026-0.017,0.051-0.035,0.08-0.048
			c0.171-0.132,0.342-0.264,0.512-0.396c0.132-0.171,0.264-0.341,0.396-0.512c0.085-0.202,0.17-0.403,0.255-0.605
			C415,237.761,415.015,237.425,414.94,237.088z"/>
		<path style="fill:#FFFFFF;" d="M401.888,262.789c-0.082-0.291-0.229-0.545-0.443-0.759c-0.116-0.09-0.232-0.179-0.348-0.269
			c-0.269-0.156-0.558-0.234-0.869-0.235c-0.237-0.009-0.458,0.04-0.663,0.148c-0.213,0.069-0.398,0.188-0.554,0.356
			c-0.168,0.156-0.286,0.341-0.356,0.554c-0.108,0.205-0.157,0.426-0.148,0.663l0.061,0.458c0.082,0.291,0.229,0.545,0.443,0.759
			c0.116,0.09,0.232,0.179,0.348,0.269c0.268,0.156,0.558,0.234,0.869,0.235c0.237,0.009,0.458-0.04,0.663-0.148
			c0.213-0.069,0.398-0.188,0.554-0.356c0.168-0.156,0.286-0.341,0.356-0.554c0.108-0.205,0.157-0.426,0.148-0.663
			C401.929,263.094,401.908,262.941,401.888,262.789z"/>
		<path style="fill:#FFFFFF;" d="M377.264,224.354c-0.075-0.267-0.21-0.499-0.405-0.695c-0.143-0.154-0.312-0.262-0.507-0.326
			c-0.188-0.099-0.39-0.144-0.607-0.136c-0.217-0.008-0.419,0.037-0.607,0.136c-0.195,0.064-0.365,0.172-0.507,0.326
			c-0.195,0.197-0.33,0.428-0.405,0.695c-0.081,0.238-0.183,0.481-0.158,0.739c0.001,0.274,0.07,0.529,0.207,0.766
			c0.135,0.228,0.316,0.41,0.545,0.544c0.462,0.271,1.071,0.281,1.532,0c0.006-0.003,0.011-0.007,0.017-0.01
			c0.103-0.08,0.206-0.16,0.31-0.239c0.08-0.103,0.16-0.206,0.239-0.31c0.004-0.007,0.009-0.013,0.013-0.02
			c0.02-0.029,0.04-0.059,0.061-0.089l0.115-0.168c0.143-0.246,0.214-0.511,0.215-0.796
			C377.301,224.633,377.282,224.493,377.264,224.354z"/>
		<path style="fill:#FFFFFF;" d="M433.412,298.197c-0.082-0.294-0.231-0.55-0.447-0.767c-0.157-0.169-0.344-0.289-0.559-0.359
			c-0.207-0.109-0.43-0.159-0.669-0.15c-0.314,0.001-0.606,0.08-0.877,0.237c-0.068,0.046-0.14,0.085-0.215,0.118
			c-0.022,0.01-0.045,0.018-0.067,0.029c-0.131,0.101-0.263,0.203-0.394,0.304c-0.102,0.131-0.203,0.263-0.304,0.394
			c-0.057,0.072-0.095,0.156-0.112,0.251c-0.076,0.18-0.085,0.165-0.105,0.275c-0.013,0.068-0.032,0.132-0.054,0.198
			c-0.086,0.322-0.086,0.643,0,0.965c0.086,0.308,0.242,0.575,0.467,0.801c0.227,0.225,0.494,0.381,0.801,0.467
			c0.322,0.087,0.644,0.087,0.965,0c0.055-0.013,0.109-0.031,0.161-0.052c0.172-0.067,0.356-0.138,0.526-0.223
			c0.131-0.102,0.263-0.203,0.394-0.304c0.102-0.131,0.203-0.263,0.304-0.394c0.179-0.273,0.206-0.455,0.244-0.743
			c0.021-0.156,0.043-0.27,0.029-0.417C433.48,298.618,433.458,298.404,433.412,298.197z"/>
		<path style="fill:#FFFFFF;" d="M427.273,352.053c-0.082-0.195-0.164-0.39-0.247-0.585c-0.154-0.285-0.364-0.514-0.63-0.687
			c-0.236-0.216-0.514-0.362-0.832-0.438c-0.032-0.011-0.064-0.022-0.096-0.033c-0.123-0.042-0.163-0.029-0.364-0.056
			c-0.41-0.055-0.539-0.09-1.017,0.047c-0.065,0.019-0.13,0.038-0.195,0.058c-0.194,0.082-0.387,0.164-0.581,0.245
			c-0.283,0.153-0.511,0.361-0.682,0.626c-0.151,0.152-0.255,0.33-0.313,0.536c-0.152,0.29-0.222,0.602-0.209,0.937
			c0.029,0.215,0.058,0.431,0.087,0.646c0.082,0.193,0.163,0.387,0.245,0.581c0.153,0.283,0.362,0.511,0.626,0.682
			c0.235,0.215,0.51,0.36,0.827,0.435c0.065,0.019,0.13,0.039,0.195,0.058c0.221,0.03,0.441,0.059,0.662,0.089
			c0.008,0.001,0.016,0.002,0.023,0.003c0.221-0.03,0.442-0.059,0.663-0.089c0.007-0.003,0.014-0.005,0.021-0.008
			c0.036-0.012,0.072-0.025,0.107-0.037c0.195-0.082,0.39-0.164,0.585-0.247c0.285-0.154,0.514-0.364,0.687-0.63
			c0.152-0.153,0.257-0.333,0.315-0.54c0.153-0.292,0.224-0.606,0.211-0.943C427.332,352.486,427.302,352.27,427.273,352.053z"/>
		<path style="fill:#FFFFFF;" d="M395.446,372.318c-0.046-0.109-0.092-0.219-0.138-0.328c-0.071-0.092-0.143-0.185-0.214-0.278
			c-0.124-0.134-0.271-0.228-0.441-0.284c-0.107-0.062-0.222-0.093-0.346-0.094c-0.182-0.041-0.365-0.033-0.547,0.025
			c-0.001,0-0.001,0-0.002,0.001c-0.178,0.042-0.334,0.124-0.466,0.245c-0.149,0.097-0.267,0.225-0.353,0.384
			c-0.046,0.109-0.092,0.218-0.138,0.327c-0.065,0.243-0.065,0.486,0,0.728c0,0.001,0,0.001,0,0.002
			c0.046,0.109,0.092,0.218,0.138,0.328c0.072,0.092,0.143,0.185,0.215,0.277c0.124,0.134,0.271,0.228,0.441,0.284
			c0.107,0.062,0.222,0.093,0.346,0.094c0.121,0.033,0.243,0.033,0.365,0c0.124,0,0.239-0.032,0.346-0.094
			c0.116-0.033,0.217-0.091,0.303-0.177c0.149-0.097,0.267-0.225,0.353-0.385c0.046-0.109,0.092-0.219,0.138-0.328
			c0.016-0.122,0.033-0.243,0.049-0.365C395.479,372.561,395.463,372.439,395.446,372.318z"/>
		<path style="fill:#FFFFFF;" d="M396.19,409.436c-0.112-0.4-0.315-0.748-0.608-1.043c-0.159-0.123-0.319-0.246-0.478-0.369
			c-0.369-0.214-0.766-0.321-1.193-0.323c-0.325-0.012-0.629,0.055-0.91,0.203c-0.293,0.095-0.546,0.258-0.76,0.489
			c-0.23,0.214-0.393,0.468-0.489,0.761c-0.148,0.282-0.216,0.585-0.204,0.91c0.028,0.209,0.056,0.419,0.084,0.628
			c0.112,0.401,0.315,0.748,0.608,1.043c0.159,0.123,0.319,0.246,0.478,0.369c0.369,0.214,0.766,0.321,1.193,0.323
			c0.325,0.012,0.629-0.055,0.91-0.203c0.293-0.095,0.546-0.258,0.76-0.489c0.23-0.214,0.393-0.468,0.489-0.761
			c0.148-0.281,0.216-0.585,0.204-0.91C396.247,409.855,396.218,409.646,396.19,409.436z"/>
		<path style="fill:#FFFFFF;" d="M362.999,427.483c-0.001-0.224-0.057-0.432-0.169-0.626c-0.078-0.144-0.184-0.26-0.319-0.348
			c-0.12-0.11-0.26-0.184-0.422-0.222c-0.206-0.055-0.412-0.054-0.618-0.006c-0.313-0.078-0.627-0.079-0.94,0.005
			c-0.611,0.168-1.123,0.666-1.283,1.283c-0.008,0.03-0.008,0.062-0.013,0.093c-0.004,0.01-0.012,0.016-0.016,0.026
			c-0.081,0.191-0.09,0.377-0.045,0.582c0.01,0.046,0.034,0.083,0.05,0.125c0.057,0.346,0.216,0.735,0.497,0.961
			c0.124,0.096,0.248,0.192,0.372,0.287c0.146,0.062,0.293,0.124,0.439,0.185c0.163,0.022,0.326,0.044,0.488,0.066
			c0.253,0.009,0.489-0.043,0.708-0.158c0.156-0.044,0.291-0.122,0.405-0.236c0.138-0.082,0.248-0.191,0.329-0.33
			c0.114-0.115,0.193-0.25,0.236-0.405c0.059-0.112,0.1-0.229,0.127-0.35c0.034-0.081,0.076-0.158,0.101-0.242
			c0.008-0.026,0.012-0.053,0.017-0.08c0.023-0.144,0.046-0.292,0.058-0.438C363.005,427.599,363.003,427.54,362.999,427.483z"/>
	</g>
	<g>
		<path style="fill:#DAEAE7;" d="M202.825,185.669c-2.89-5.292-3.631-11.824-5.061-17.807c-2.138-8.947-6.533-17.691-11.062-25.67
			c-5.31-9.355-13.64-23.118-24.637-26.198c-5.082,12.301-10.072,23.324-9.855,37.144c0.229,14.597,6.865,28.851,18.988,37.27
			c5.036,3.498,11.941,6.295,17.996,4.263c5.994-2.011,11.285-8.714,8.364-15.059"/>
		<path style="fill:#B9D8D2;" d="M181.79,204.612c2.727-6.027-4.93-22.503-7.212-28.292c-4.535-11.504-11.372-21.398-19.892-30.367
			c-11.921-12.55-27.332-28.067-45.418-30.504c3.16,6.808,2.488,16.297,4.012,23.771c2.712,13.305,8.464,25.237,16.042,36.493
			c9.458,14.049,24.678,32.107,42.778,32.955C176.172,208.859,181.155,207.943,181.79,204.612z"/>
		<path style="fill:#DAEAE7;" d="M188.303,230.396c0.092-11.847-9.404-22.819-18.356-29.507
			c-14.937-11.16-31.381-12.736-49.266-13.872c4.869,21.575,17.081,46.494,37.571,57.436c7.961,4.251,14.036,2.796,20.997-2.264
			C183.377,239.188,188.876,233.241,188.303,230.396z"/>
		<path style="fill:#DAEAE7;" d="M147.523,329.683c9.34-5.138-25.352-27.886-29.197-29.694
			c-16.207-7.621-34.349-10.547-51.774-6.937c16.359,13.979,29.608,31.423,50.66,39.359c6.557,2.472,13.142,2.527,19.98,1.756
			C140.361,333.81,148.057,332.72,147.523,329.683z"/>
		<path style="fill:#B9D8D2;" d="M152.982,348.529c-2.299-5.031-9.158-10.393-12.291-13.127
			c-6.786-5.815-13.784-10.068-22.218-13.052c-20.065-7.099-40.014-4.106-59.787,2.786c7.813,4.869,14.01,12.667,21.952,17.82
			c12.554,8.145,27.778,12.67,42.425,15.385c8.891,1.648,16.903,2.583,25.482-0.859
			C153.986,355.297,154.564,351.992,152.982,348.529z"/>
		<path style="fill:#B9D8D2;" d="M163.505,316.841c4.343-3.193-12.854-21.437-15.777-24.023
			c-12.629-11.173-27.813-19.411-44.949-19.368c2.25,4.469,1.629,10.809,2.551,15.699c1.266,6.715,3.75,13.879,8.183,19.212
			c6.722,8.086,16.955,13.337,26.925,15.882C150.278,326.755,158.76,321.344,163.505,316.841z"/>
		<path style="fill:#B9D8D2;" d="M159.501,148.412c1.366,0.111,2.598,0.562,3.8,1.224c1.175,0.646,2.309,1.355,3.406,2.126
			c1.094,0.769,2.166,1.568,3.224,2.386c0.257,0.199,0.542,0.416,0.826,0.65c-0.775-3.609-1.532-7.221-2.242-10.84
			c-0.48-2.443-0.941-4.887-1.295-7.351c-0.183-1.273-0.363-2.547-0.547-3.82c-0.194-1.342-0.058-2.515,0.116-3.857
			c0.039-0.299,0.416-0.456,0.597-0.162c0.537,0.873,1.161,1.733,1.481,2.713c0.348,1.068,0.622,2.167,0.934,3.246
			c0.598,2.071,1.144,4.145,1.661,6.235c0.268-0.643,0.541-1.284,0.784-1.934c0.401-1.068,0.768-2.145,1.19-3.205
			c0.223-0.563,0.409-1.175,0.731-1.691c0.137-0.22,0.34-0.46,0.551-0.614c0.13-0.094,0.334-0.163,0.415-0.225
			c0.091-0.069,0.272-0.022,0.316,0.083c0.044,0.104,0.182,0.252,0.248,0.4c0.106,0.238,0.158,0.555,0.162,0.813
			c0.008,0.608-0.16,1.232-0.288,1.822c-0.258,1.188-0.634,2.335-1.029,3.484c-0.398,1.156-0.759,2.407-1.339,3.485
			c-0.249,0.462-0.547,0.903-0.856,1.329c0.787,3.386,1.543,6.781,2.318,10.169c0.695,3.04,1.396,6.079,2.092,9.119
			c0.559-1.293,1.133-2.573,1.761-3.84c0.804-1.622,1.555-3.266,2.309-4.912c0.608-1.327,1.244-3.293,2.621-4.006
			c0.116-0.06,0.247-0.007,0.288,0.117c0.483,1.471-0.447,3.346-0.943,4.717c-0.616,1.704-1.232,3.406-1.796,5.128
			c-0.566,1.73-1.188,3.419-1.87,5.107c-0.337,0.835-0.726,1.741-1.261,2.518c0.966,4.216,1.927,8.433,2.901,12.647
			c1.136,4.916,2.656,9.845,1.816,14.912c-0.064,0.385-0.566,0.35-0.748,0.098c-2.664-3.685-3.513-8.065-4.515-12.423
			c-1.028-4.47-2.046-8.942-3.054-13.415c-0.905-4.013-1.806-8.032-2.687-12.055c-1.374,0.124-2.58-0.902-3.594-1.722
			c-0.99-0.801-2.001-1.575-3.031-2.324c-1.058-0.77-2.105-1.554-3.157-2.332c-1.11-0.821-2.078-1.69-2.846-2.838
			C158.689,148.988,159.027,148.373,159.501,148.412z"/>
		<path style="fill:#B9D8D2;" d="M125.723,202.202c0.15-0.053,0.261-0.296,0.399-0.394c0.114-0.081,0.265-0.144,0.388-0.211
			c0.302-0.165,0.593-0.343,0.93-0.429c0.643-0.164,1.35-0.269,2.009-0.309c0.623-0.038,1.301-0.129,1.971-0.15
			c-0.642-0.562-1.291-1.117-1.93-1.683c-1.445-1.28-3.504-2.809-3.712-4.848c-0.026-0.254,0.233-0.456,0.463-0.463
			c1.79-0.051,3.257,1.428,4.587,2.474c1.617,1.271,3.173,2.624,4.771,3.92c1.208,0.981,2.419,1.958,3.631,2.935
			c-0.149-0.761-0.286-1.517-0.444-2.229c-0.272-1.22-0.48-2.443-0.657-3.681c-0.186-1.299-0.274-2.5,0.192-3.741
			c0.061-0.163,0.252-0.228,0.387-0.102c0.95,0.888,1.392,1.967,1.813,3.184c0.422,1.221,0.764,2.462,1.069,3.716
			c0.305,1.251,0.646,2.499,0.915,3.758c0.139,0.651,0.237,1.319,0.333,1.978c0.74,0.589,1.477,1.182,2.221,1.767
			c4.865,3.822,9.82,7.529,14.851,11.129c-0.517-1.453-0.971-2.934-1.41-4.408c-0.577-1.938-1.091-3.884-1.487-5.867
			c-0.197-0.984-0.408-1.975-0.536-2.971c-0.113-0.885-0.345-1.973-0.008-2.819c0.228-0.572,0.94-0.877,1.427-0.377
			c0.636,0.653,0.849,1.625,1.127,2.476c0.313,0.957,0.559,1.938,0.849,2.902c0.581,1.931,1.16,3.867,1.792,5.783
			c0.633,1.92,1.36,3.8,2.057,5.696c0.217,0.59,0.725,1.803,0.836,2.866c1.796,1.247,3.61,2.468,5.39,3.738
			c0.921,0.658,1.868,1.287,2.716,2.04c0.891,0.791,1.303,1.408,1.711,2.504c0.132,0.355-0.204,0.681-0.532,0.698
			c-1.007,0.053-1.589-0.027-2.526-0.436c-0.983-0.43-1.869-0.99-2.771-1.567c-1.672-1.07-3.301-2.198-4.926-3.336
			c-3.309-2.318-6.585-4.683-9.827-7.094c-0.327-0.243-0.651-0.491-0.978-0.735c-0.648,0.156-1.34,0.202-1.715,0.229
			c-1.654,0.121-3.306,0.185-4.957,0.353c-1.65,0.168-3.28,0.449-4.924,0.656c-1.466,0.184-3.454,0.798-4.747-0.118
			c-0.176-0.125-0.249-0.336-0.141-0.535c0.762-1.392,2.778-1.644,4.202-1.962c1.625-0.363,3.299-0.565,4.951-0.77
			c1.317-0.164,2.639-0.286,3.963-0.386c-5.048-3.833-10.027-7.77-14.835-11.893c-0.33-0.283-0.654-0.573-0.983-0.857
			c-0.336,0.155-0.7,0.263-1.016,0.343c-0.792,0.202-1.615,0.228-2.427,0.299c-0.77,0.067-1.516,0.09-2.289,0.055
			c-0.429-0.02-0.792-0.125-1.194-0.271c-0.144-0.053-0.298-0.094-0.437-0.159c-0.197-0.092-0.333-0.316-0.542-0.357
			C125.536,202.508,125.571,202.256,125.723,202.202z"/>
		<path style="fill:#B9D8D2;" d="M84.345,297.972c2.034,0.191,3.828,1.965,5.47,3.073c0.408,0.275,0.824,0.538,1.236,0.808
			c-0.004-0.032-0.007-0.058-0.008-0.067c-0.017-0.12-0.035-0.241-0.054-0.361c-0.048-0.302-0.1-0.603-0.158-0.904
			c-0.122-0.634-0.171-1.255-0.28-1.878c-0.159-0.917,0.949-1.41,1.496-0.631c0.174,0.248,0.333,0.486,0.513,0.715
			c0.222,0.281,0.366,0.594,0.521,0.915c0.305,0.629,0.59,1.271,0.844,1.922c0.225,0.578,0.333,1.227,0.454,1.835
			c0.038,0.19,0.087,0.414,0.106,0.619c0.221,0.133,0.438,0.273,0.66,0.405c3.751,2.233,7.68,4.051,11.632,5.894
			c0.117,0.055,0.236,0.106,0.353,0.161c-0.528-0.725-1.045-1.459-1.53-2.212c-0.738-1.146-1.432-2.365-2.001-3.603
			c-0.339-0.736-0.614-1.427-0.755-2.187c-0.069-0.371-0.148-0.763-0.171-1.14c-0.022-0.377,0.125-0.674,0.186-1.035
			c0.077-0.452,0.664-0.62,1.019-0.415c0.087,0.05,0.174,0.101,0.26,0.152c0.496,0.168,0.854,0.572,1.224,0.971
			c0.505,0.546,0.916,1.089,1.309,1.721c0.725,1.166,1.427,2.348,2.149,3.517c0.701,1.135,1.4,2.267,2.154,3.369
			c0.622,0.908,1.308,2.036,1.4,3.19c6.215,2.65,12.544,4.993,18.896,7.323c2.31,0.847,4.627,1.676,6.948,2.496
			c2.241,0.792,4.71,1.504,6.47,3.184c0.467,0.446,0.064,1.087-0.478,1.154c-2.19,0.27-4.4-0.493-6.461-1.14
			c-2.089-0.656-4.177-1.32-6.259-1.997c-0.604-0.197-1.206-0.403-1.808-0.606c-0.71,0.319-1.506,0.493-2.235,0.66
			c-1.398,0.32-2.794,0.663-4.207,0.91c-2.63,0.462-5.692,1.459-8.228,0.242c-0.266-0.128-0.299-0.535-0.094-0.727
			c0.978-0.914,2.285-1.427,3.597-1.647c1.42-0.238,2.846-0.449,4.269-0.672c0.8-0.126,1.605-0.228,2.41-0.325
			c-2.099-0.758-4.187-1.545-6.266-2.352c-4.153-1.612-8.264-3.325-12.279-5.256c-2.582-1.242-5.074-2.624-7.542-4.055
			c-0.071,0.062-0.141,0.124-0.226,0.184c-0.347,0.242-0.735,0.473-1.13,0.622c-0.653,0.247-1.339,0.432-2.015,0.601
			c-0.751,0.188-1.552,0.328-2.326,0.274c-0.468-0.033-0.87-0.092-1.268-0.35c-0.348-0.225-0.724-0.467-0.735-0.932
			c-0.018-0.826,1.149-1.296,1.769-1.469c0.802-0.224,1.31-0.233,2.245-0.347c0.018-0.004,0.353-0.05,0.392-0.056
			c0.186-0.029,0.371-0.06,0.556-0.094c0.017-0.003,0.035-0.007,0.052-0.01c-0.442-0.263-0.884-0.524-1.326-0.788
			c-0.744-0.446-1.478-0.91-2.212-1.372c-0.143-0.043-0.281-0.117-0.405-0.23c-0.016-0.014-0.029-0.034-0.045-0.049
			c-1.228-0.78-2.446-1.576-3.643-2.404c-1.752-1.212-4.39-2.591-5.149-4.683C83.489,298.475,83.893,297.93,84.345,297.972z"/>
		<path style="fill:#DAEAE7;" d="M119.575,293.802c-2.697-2.957-5.294-6.003-7.797-9.126c-0.713-0.89,0.473-2.159,1.283-1.283
			c2.304,2.49,4.676,4.923,7.099,7.306c-0.029-0.118-0.063-0.235-0.09-0.354c-0.179-0.775-0.44-1.576-0.525-2.366
			c-0.084-0.781-0.038-1.599-0.065-2.386c-0.006-0.172,0.212-0.2,0.298-0.081c0.46,0.632,0.994,1.241,1.414,1.898
			c0.414,0.647,0.682,1.439,1.007,2.136c0.357,0.766,0.672,1.543,0.98,2.329c0.302,0.772,0.647,1.51,0.64,2.348
			c3.86,3.623,7.852,7.109,11.962,10.442c-0.099-0.304-0.2-0.608-0.29-0.914c-0.378-1.288-0.725-2.586-1.087-3.879
			c-0.362-1.291-0.687-2.602-0.936-3.92c-0.124-0.654-0.238-1.317-0.315-1.977c-0.073-0.637,0.084-1.115,0.184-1.729
			c0.037-0.229,0.359-0.284,0.506-0.133c0.525,0.541,0.936,0.919,1.284,1.613c0.302,0.6,0.58,1.217,0.838,1.837
			c0.574,1.383,1.103,2.772,1.593,4.187c0.471,1.362,0.958,2.719,1.388,4.094c0.348,1.112,0.647,2.314-0.079,3.265
			c1.791,1.399,3.596,2.781,5.428,4.121c3.07,2.246,6.755,4.286,9.017,7.413c0.426,0.588-0.274,1.242-0.864,1.124
			c-3.372-0.678-6.343-3.027-9.07-5c-2.866-2.073-5.688-4.215-8.407-6.479c-2.116-1.762-4.192-3.581-6.238-5.435
			c-0.626,0.136-1.255,0.244-1.915,0.246c-0.593,0.002-1.196,0.075-1.783,0.063c-0.549-0.011-1.109-0.11-1.656-0.164
			c-1.203-0.119-2.402-0.229-3.595-0.424c-0.988-0.162-2.515-0.399-3.037-1.376c-0.171-0.32-0.103-0.637,0.117-0.906
			c0.694-0.848,2.343-0.776,3.331-0.75c1.108,0.029,2.208,0.146,3.312,0.245c0.581,0.052,1.166,0.088,1.744,0.167
			c0.16,0.022,0.317,0.063,0.475,0.098C123.611,298.029,121.542,295.96,119.575,293.802z"/>
		<path style="fill:#DAEAE7;" d="M79.272,329.542c2.215-0.028,4.377-0.047,6.594,0.108c1.264,0.088,2.528,0.217,3.79,0.357
			c-0.108-0.102-0.222-0.196-0.326-0.302c-0.713-0.72-1.436-1.43-2.168-2.13c-0.714-0.682-1.438-1.352-2.167-2.018
			c-0.174-0.159-0.341-0.316-0.492-0.498c-0.11-0.133-0.216-0.267-0.321-0.404c-0.167-0.217-0.249-0.41-0.371-0.652
			c0.098,0.194-0.028-0.013-0.081-0.09c-0.07-0.102-0.141-0.203-0.211-0.305c-0.229-0.332-0.341-0.641-0.321-1.051
			c0.02-0.387,0.278-0.836,0.695-0.913c0.475-0.087,0.784-0.059,1.225,0.158c0.114,0.057,0.226,0.118,0.339,0.177
			c0.03,0.016,0.317,0.164,0.131,0.086c0.288,0.121,0.565,0.208,0.833,0.383c0.291,0.191,0.567,0.403,0.825,0.638
			c0.748,0.683,1.48,1.384,2.204,2.091c0.706,0.689,1.404,1.388,2.091,2.096c0.366,0.376,0.702,0.764,1.03,1.174
			c0.147,0.184,0.294,0.367,0.439,0.552c0.292,0.372,0.426,0.679,0.529,1.124c0.026,0.113,0.036,0.226,0.033,0.337
			c2.842,0.334,5.686,0.698,8.518,1.124c0.089-0.032,0.174-0.071,0.264-0.1c0.457-0.149,0.838,0.019,1.086,0.313
			c0.737,0.116,1.474,0.23,2.209,0.355c3.884,0.661,7.716,1.554,11.465,2.707c-0.19-0.194-0.377-0.391-0.571-0.581
			c-1.392-1.37-2.831-2.693-4.313-3.966c-1.441-1.238-2.93-2.42-4.396-3.627c-1.529-1.259-2.832-2.563-3.873-4.255
			c-0.251-0.407,0.162-0.792,0.563-0.732c1.958,0.293,3.647,1.066,5.275,2.188c1.693,1.167,3.281,2.456,4.832,3.806
			c1.474,1.282,2.903,2.613,4.286,3.992c0.691,0.689,1.383,1.381,2.039,2.104c0.679,0.749,1.605,1.67,1.858,2.659
			c0.035,0.135,0.043,0.275,0.036,0.414c2.002,0.787,3.975,1.653,5.911,2.617c1.918,0.955,3.84,1.968,5.611,3.179
			c0.909,0.622,1.777,1.289,2.529,2.098c0.729,0.784,1.29,1.716,1.925,2.577c0.167,0.227-0.115,0.607-0.382,0.497
			c-1.744-0.722-3.499-1.215-5.152-2.165c-1.638-0.942-3.25-1.925-4.924-2.805c-3.417-1.797-6.973-3.253-10.615-4.524
			c-4.953-1.729-10.01-3.128-15.134-4.225c-0.695,0.572-1.461,1.057-2.226,1.53c-0.993,0.614-1.996,1.21-3.01,1.789
			c-1.014,0.578-2.057,1.109-3.122,1.589c-0.618,0.279-1.336,0.517-2.016,0.577c-0.55,0.048-1.051-0.087-1.585-0.19
			c-0.254-0.049-0.351-0.37-0.234-0.575c0.277-0.486,0.507-0.997,0.929-1.384c0.408-0.375,0.917-0.736,1.393-1.016
			c1.035-0.61,2.133-1.136,3.201-1.685c0.893-0.459,1.775-0.938,2.653-1.425c-1.626-0.296-3.255-0.572-4.891-0.81
			c-2.465-0.359-4.938-0.65-7.408-0.975c-2.416-0.318-4.749-0.814-7.123-1.331C78.803,330.123,78.898,329.546,79.272,329.542z"/>
		<path style="fill:#DAEAE7;" d="M121.786,145.751c1.071-0.273,2.289,0.347,3.208,0.823c0.946,0.489,1.891,0.98,2.836,1.47
			c0.941,0.488,1.923,0.934,2.807,1.519c0.195,0.128,0.4,0.26,0.607,0.398c-1.077-1.625-2.154-3.25-3.202-4.894
			c-1.56-2.447-3.068-4.913-4.493-7.442c-0.748-1.329-1.439-2.674-2.097-4.05c-0.57-1.193-1.224-2.381-1.374-3.702
			c-0.027-0.233,0.295-0.411,0.482-0.276c0.876,0.63,1.436,1.462,2.085,2.321c0.834,1.105,1.667,2.222,2.435,3.373
			c1.031,1.544,2.054,3.092,3.077,4.64c-0.016-0.225-0.027-0.452-0.025-0.684c0.008-0.869,0.161-1.741,0.216-2.61
			c0.056-0.883,0.174-1.747,0.281-2.625c0.063-0.518,0.251-0.976,0.359-1.484c0.094-0.446,0.267-0.798,0.497-1.191
			c0.206-0.352,0.643-0.289,0.86,0c0.29,0.384,0.482,0.727,0.611,1.191c0.14,0.507,0.332,0.956,0.391,1.484
			c0.108,0.955,0.146,1.868,0.058,2.826c-0.091,0.995-0.158,2.034-0.457,2.99c-0.24,0.768-0.648,1.817-1.293,2.36
			c2.722,4.166,5.527,8.28,8.398,12.344c0.93,1.316,1.885,2.613,2.832,3.915c0.043-0.465,0.096-0.915,0.127-1.312
			c0.139-1.797,0.131-3.605-0.024-5.4c-0.154-1.789-0.464-3.582-0.868-5.331c-0.389-1.68-0.601-3.402-0.803-5.114
			c-0.042-0.359,0.503-0.576,0.729-0.302c1.151,1.392,2.1,2.983,2.6,4.72c0.534,1.855,0.85,3.746,1.016,5.668
			c0.164,1.915,0.163,3.845-0.006,5.759c-0.098,1.106-0.262,2.746-0.937,3.841c4.626,6.245,9.452,12.341,14.452,18.294
			c1.239,1.474,2.506,2.924,3.768,4.379c-0.248-1.68-0.467-3.361-0.665-5.048c-0.217-1.841-0.465-3.679-0.593-5.529
			c-0.14-2.022,0.069-3.941,0.183-5.954c0.026-0.46,0.66-0.557,0.804-0.109c0.616,1.915,1.298,3.714,1.671,5.703
			c0.341,1.822,0.563,3.663,0.816,5.499c0.252,1.83,0.488,3.656,0.68,5.493c0.116,1.102,0.398,2.387,0.339,3.582
			c1.572,1.641,3.221,3.37,3.765,5.518c0.16,0.632-0.439,1.351-1.116,1.116c-2.462-0.855-3.981-3.029-5.653-4.924
			c-1.736-1.967-3.45-3.952-5.143-5.956c-1.529-1.809-3.03-3.64-4.519-5.481c-0.277-0.028-0.552-0.072-0.805-0.134
			c-1.049-0.257-2.085-0.629-3.111-0.967c-1.99-0.655-3.958-1.445-5.862-2.318c-1.873-0.859-3.685-1.782-5.439-2.864
			c-1.825-1.125-3.365-2.495-4.876-4.011c-0.216-0.217,0.001-0.643,0.312-0.535c1.879,0.653,3.737,1.269,5.529,2.133
			c1.907,0.92,3.807,1.858,5.721,2.763c1.849,0.874,3.704,1.731,5.563,2.583c0.156,0.071,0.314,0.138,0.47,0.207
			c-0.956-1.209-1.92-2.412-2.861-3.632c-4.7-6.092-9.209-12.329-13.506-18.71c-0.95,0.117-1.931-0.286-2.808-0.61
			c-1.052-0.39-2.042-0.932-3.046-1.43c-0.986-0.49-1.973-0.979-2.959-1.469c-0.931-0.464-2.039-1.079-2.454-2.093
			C121.257,146.183,121.507,145.822,121.786,145.751z"/>
		<path style="fill:#E9C3C8;" d="M165.405,378.126c-2.761-10.365-7.422-20.31-13.136-29.366
			c-6.521-10.335-14.342-18.594-25.727-23.552c-6.523-2.841-16.664-6.766-17.303,3.776c-0.513,8.462,8.823,21.407,14.509,27.292
			c-12.34-8.078-23.359-14.54-38.595-13.817c-10.8,0.512-30.895,3.332-31.323,17.241c-0.808,26.23,44.075,23.267,60.24,26.366
			c-13.726-0.61-41.279,17.814-30.32,33.798c12.857,18.753,40.681,10.455,55.451-0.4c-4.508,8.843-7.241,21.656,6.234,23.106
			c15.372,1.654,18.818-19.022,21.204-30.013C169.151,400.985,168.385,389.312,165.405,378.126z"/>
		<path style="fill:#E0A8B8;" d="M163.24,381.936c-1.826-6.855-4.909-13.433-8.688-19.423c-4.313-6.835-9.486-12.298-17.016-15.577
			c-4.314-1.879-11.022-4.475-11.444,2.498c-0.339,5.597,5.835,14.159,9.596,18.051c-8.161-5.343-15.45-9.617-25.527-9.139
			c-7.143,0.339-20.434,2.204-20.717,11.403c-0.535,17.349,29.151,15.389,39.843,17.439c-9.079-0.403-27.302,11.782-20.053,22.354
			c8.504,12.403,26.907,6.915,36.675-0.265c-2.981,5.849-4.789,14.324,4.123,15.282c10.167,1.094,12.447-12.581,14.025-19.851
			C165.717,397.055,165.21,389.334,163.24,381.936z"/>
		<path style="fill:#E9C3C8;" d="M188.204,264.991c1.982-1.386-4.949-20.843-6.167-24.421c-3.091-9.082-9.135-19.574-18.638-23.146
			c-14.258-5.359-7.677,11.938-6.264,19.471c-6.94-8.924-12.317-18.476-21.017-26.117c-7.009-6.155-18.583-16.678-28.867-12.281
			c-9.927,4.244-4.105,16.404,0.298,23.256c3.156,4.912,8.266,13.37,13.429,16.327c-5.658-5.007-15.34-9.704-23.21-11.683
			c-8.525-2.145-31.856-5.329-32.226,9.274c-0.348,13.727,20.814,20.088,31.025,21.657c-18.069-0.183-17.523,18.387-4.178,25.804
			c8.878,4.934,18.579,6.867,28.532,8.138c9.59,1.225,19.298-1.445,28.916-1.922c12.723-0.631,22.457-6.798,31.874-14.214
			C187.183,270.824,188.115,267.943,188.204,264.991z"/>
		<path style="fill:#E0A8B8;" d="M187.278,278.336c1.307-0.914-3.264-13.749-4.068-16.11c-2.039-5.991-6.026-12.913-12.295-15.269
			c-9.405-3.535-5.065,7.875-4.132,12.845c-4.578-5.887-8.125-12.188-13.865-17.228c-4.623-4.06-12.259-11.002-19.043-8.102
			c-6.549,2.8-2.708,10.822,0.196,15.341c2.082,3.24,5.453,8.82,8.859,10.77c-3.732-3.303-10.119-6.401-15.311-7.707
			c-5.624-1.415-21.015-3.516-21.258,6.118c-0.229,9.056,13.73,13.251,20.466,14.286c-11.92-0.121-11.559,12.129-2.756,17.022
			c5.857,3.255,12.256,4.53,18.822,5.368c6.326,0.808,12.73-0.953,19.075-1.268c8.393-0.416,14.814-4.485,21.026-9.377
			C186.605,282.184,187.219,280.283,187.278,278.336z"/>
		<path style="fill:#FFFFFF;" d="M169.685,146.466c-0.089-0.317-0.249-0.592-0.481-0.826c-0.126-0.098-0.253-0.195-0.379-0.293
			c-0.292-0.169-0.607-0.254-0.945-0.255c-0.258-0.01-0.498,0.044-0.721,0.161c-0.232,0.075-0.433,0.204-0.602,0.387
			c-0.182,0.169-0.312,0.37-0.387,0.602c-0.117,0.223-0.171,0.464-0.161,0.721c0.022,0.166,0.045,0.332,0.067,0.497
			c0.089,0.317,0.249,0.592,0.481,0.826l0.379,0.293c0.292,0.169,0.607,0.254,0.945,0.256c0.258,0.01,0.498-0.044,0.721-0.161
			c0.232-0.075,0.433-0.204,0.602-0.387c0.183-0.169,0.312-0.37,0.387-0.602c0.117-0.223,0.171-0.464,0.161-0.721
			C169.729,146.797,169.707,146.631,169.685,146.466z"/>
		<path style="fill:#FFFFFF;" d="M135.368,149.365c-2.118,0-2.122,3.292,0,3.292C137.486,152.657,137.49,149.365,135.368,149.365z"
			/>
		<path style="fill:#FFFFFF;" d="M130.614,214.113c-0.116-0.415-0.326-0.775-0.629-1.08c-0.165-0.128-0.33-0.255-0.495-0.383
			c-0.382-0.221-0.794-0.333-1.235-0.334c-0.337-0.013-0.651,0.058-0.943,0.211c-0.303,0.098-0.566,0.267-0.788,0.506
			c-0.239,0.222-0.407,0.484-0.506,0.788c-0.153,0.292-0.224,0.606-0.211,0.943c0.029,0.217,0.058,0.434,0.088,0.651
			c0.116,0.415,0.326,0.775,0.629,1.08c0.165,0.128,0.33,0.255,0.495,0.383c0.382,0.221,0.794,0.333,1.235,0.334
			c0.337,0.013,0.651-0.058,0.943-0.211c0.303-0.099,0.566-0.267,0.788-0.506c0.239-0.221,0.407-0.484,0.506-0.788
			c0.153-0.291,0.223-0.606,0.211-0.943C130.672,214.547,130.643,214.33,130.614,214.113z"/>
		<path style="fill:#FFFFFF;" d="M146.835,246.156c-0.387-0.848-1.851-0.848-2.238,0c-0.278,0.61-0.397,1.104-0.064,1.727
			c0.476,0.892,1.89,0.892,2.366,0C147.233,247.257,147.116,246.773,146.835,246.156z"/>
		<path style="fill:#FFFFFF;" d="M101.117,233.222c-1.349,0-1.351,2.096,0,2.096C102.466,235.318,102.468,233.222,101.117,233.222z"
			/>
		<path style="fill:#FFFFFF;" d="M90.166,332.641c-0.014-0.31-0.106-0.599-0.276-0.866c-0.207-0.35-0.486-0.628-0.836-0.835
			c-0.193-0.112-0.394-0.189-0.603-0.242c-0.06-0.01-0.118-0.025-0.175-0.047c-0.123-0.045-0.25-0.076-0.385-0.077
			c-0.119-0.027-0.238-0.031-0.357-0.032l0.022-0.003c-0.009,0.001-0.018,0.002-0.027,0.003c-0.167-0.001-0.333,0.017-0.5,0.066
			c-0.034,0.005-0.068,0.009-0.102,0.014c-0.281,0.067-0.526,0.196-0.735,0.387c-0.162,0.096-0.291,0.225-0.387,0.387
			c-0.191,0.209-0.32,0.454-0.387,0.734c-0.028,0.2-0.063,0.408-0.081,0.609c-0.002,0.016-0.003,0.032-0.003,0.048
			c-0.003,0.103,0.01,0.204,0.04,0.305c0.001,0.204,0.052,0.394,0.154,0.57c0.15,0.355,0.066,0.208,0.3,0.511
			c0.066,0.086,0.139,0.191,0.217,0.276c0.028,0.03,0.058,0.057,0.089,0.083c0.163,0.133,0.337,0.273,0.51,0.393
			c0.019,0.014,0.039,0.026,0.06,0.038c0.363,0.211,0.755,0.317,1.175,0.318c0.42-0.001,0.812-0.107,1.175-0.318
			c0.157-0.121,0.314-0.243,0.471-0.364c0.289-0.291,0.488-0.633,0.599-1.028C90.221,333.26,90.235,332.95,90.166,332.641z"/>
		<path style="fill:#FFFFFF;" d="M86.646,298.422c-1.27,0-1.272,1.973,0,1.973C87.916,300.395,87.918,298.422,86.646,298.422z"/>
		<path style="fill:#FFFFFF;" d="M123.163,354.504c-0.097-0.348-0.273-0.65-0.528-0.906c-0.138-0.107-0.277-0.214-0.415-0.321
			c-0.32-0.186-0.665-0.279-1.036-0.28c-0.283-0.01-0.546,0.048-0.791,0.177c-0.255,0.083-0.475,0.224-0.661,0.424
			c-0.2,0.186-0.342,0.406-0.424,0.661c-0.129,0.245-0.187,0.508-0.177,0.791c0.025,0.182,0.049,0.364,0.073,0.546
			c0.097,0.348,0.273,0.65,0.528,0.906c0.138,0.107,0.277,0.214,0.415,0.321c0.32,0.186,0.665,0.279,1.036,0.28
			c0.283,0.011,0.546-0.048,0.791-0.177c0.254-0.083,0.475-0.224,0.661-0.424c0.2-0.186,0.342-0.406,0.424-0.661
			c0.129-0.245,0.187-0.508,0.177-0.791C123.212,354.868,123.188,354.686,123.163,354.504z"/>
		<path style="fill:#FFFFFF;" d="M98.735,358.796c-0.1-0.169-0.234-0.303-0.402-0.402c-0.175-0.102-0.364-0.152-0.566-0.153
			c-0.163,0.001-0.315,0.043-0.46,0.109c-0.008,0.002-0.016,0.004-0.024,0.005c-0.004,0.001-0.009,0.002-0.013,0.003
			c-0.099,0.042-0.198,0.084-0.297,0.125c-0.187,0.11-0.336,0.259-0.446,0.446c-0.004,0.006-0.008,0.011-0.012,0.017
			c-0.015,0.02-0.031,0.04-0.046,0.06c-0.088,0.139-0.136,0.289-0.144,0.45c-0.029,0.107-0.029,0.214,0,0.322
			c0.007,0.161,0.055,0.311,0.144,0.45c0.063,0.082,0.126,0.163,0.189,0.245l0.245,0.189c0.139,0.088,0.289,0.136,0.45,0.144
			c0.161,0.036,0.321,0.029,0.482-0.022c0.031-0.006,0.062-0.015,0.092-0.025c0.263-0.089,0.255-0.091,0.427-0.224
			c0.158-0.122,0.199-0.142,0.322-0.353c0.057-0.097,0.091-0.207,0.132-0.313c0.005-0.013,0.01-0.026,0.014-0.039
			c0.009-0.027,0.015-0.054,0.02-0.082c0.017-0.107,0.032-0.218,0.044-0.325c0.001-0.006,0.001-0.012,0.002-0.018
			c0.001-0.013,0.001-0.027,0.001-0.04C98.887,359.16,98.836,358.971,98.735,358.796z"/>
		<path style="fill:#FFFFFF;" d="M77.857,374.112c0.012-0.318-0.054-0.615-0.199-0.891c-0.093-0.286-0.253-0.535-0.478-0.744
			c-0.209-0.225-0.457-0.385-0.744-0.478c-0.275-0.145-0.572-0.211-0.891-0.199c-0.205,0.028-0.41,0.055-0.614,0.083
			c-0.392,0.11-0.732,0.308-1.02,0.594l-0.361,0.468c-0.209,0.361-0.314,0.75-0.316,1.167c-0.006,0.052-0.011,0.105-0.017,0.157
			c-0.012,0.321,0.055,0.62,0.201,0.897c0.094,0.289,0.254,0.539,0.481,0.75c0.211,0.227,0.461,0.388,0.749,0.482
			c0.278,0.146,0.577,0.213,0.897,0.201c0.206-0.028,0.413-0.056,0.619-0.083c0.395-0.111,0.737-0.31,1.028-0.599
			c0.121-0.157,0.243-0.314,0.364-0.471c0.211-0.363,0.317-0.755,0.318-1.175C77.868,374.216,77.862,374.164,77.857,374.112z"/>
		<path style="fill:#FFFFFF;" d="M106.531,410.266c-0.144-0.186-0.275-0.396-0.442-0.564c-0.027-0.027-0.462-0.365-0.498-0.386
			c-0.01-0.006-0.567-0.241-0.58-0.245c-0.214-0.029-0.428-0.058-0.641-0.086c-0.086-0.009-0.173,0.011-0.258,0.034
			c0.081-0.011,0.161-0.022,0.242-0.033c-0.017,0.002-0.033,0.002-0.049,0.003c-0.355-0.013-0.687,0.061-0.994,0.222
			c-0.32,0.104-0.597,0.282-0.83,0.533c-0.32,0.322-0.541,0.702-0.663,1.139c-0.108,0.343-0.123,0.686-0.046,1.029
			c0.016,0.344,0.118,0.663,0.306,0.959c0.229,0.388,0.538,0.696,0.926,0.926c0.205,0.087,0.411,0.173,0.616,0.26
			c0.457,0.123,0.915,0.123,1.372,0c0.437-0.123,0.816-0.344,1.138-0.664c0.135-0.174,0.269-0.348,0.403-0.522
			c0.233-0.402,0.351-0.837,0.352-1.302C106.882,411.102,106.765,410.668,106.531,410.266z"/>
		<path style="fill:#FFFFFF;" d="M128.516,415.926c-0.068-0.241-0.189-0.45-0.365-0.627c-0.096-0.074-0.192-0.148-0.288-0.222
			c-0.221-0.128-0.46-0.193-0.717-0.194c-0.196-0.007-0.378,0.033-0.547,0.122c-0.176,0.057-0.328,0.155-0.457,0.294
			c-0.139,0.129-0.236,0.281-0.294,0.457c-0.089,0.169-0.13,0.352-0.122,0.547l0.051,0.378c0.067,0.241,0.189,0.45,0.365,0.627
			l0.287,0.222c0.221,0.128,0.46,0.193,0.717,0.194c0.196,0.008,0.378-0.033,0.547-0.122c0.176-0.057,0.329-0.155,0.457-0.294
			c0.138-0.129,0.236-0.281,0.294-0.457c0.089-0.169,0.13-0.352,0.122-0.547L128.516,415.926z"/>
		<path style="fill:#FFFFFF;" d="M156.969,412.439c-0.122-0.436-0.343-0.815-0.662-1.136c-0.174-0.134-0.347-0.268-0.521-0.402
			c-0.401-0.233-0.835-0.35-1.299-0.351c-0.354-0.013-0.685,0.06-0.992,0.222c-0.319,0.104-0.595,0.281-0.828,0.532
			c-0.251,0.233-0.428,0.509-0.532,0.829c-0.161,0.307-0.235,0.637-0.222,0.992c0.031,0.228,0.061,0.456,0.092,0.684
			c0.122,0.436,0.343,0.815,0.662,1.136c0.174,0.134,0.347,0.268,0.521,0.402c0.401,0.233,0.835,0.35,1.299,0.352
			c0.354,0.013,0.685-0.061,0.992-0.222c0.319-0.104,0.595-0.281,0.828-0.532c0.251-0.233,0.428-0.509,0.532-0.828
			c0.161-0.307,0.235-0.637,0.222-0.992C157.03,412.895,157,412.667,156.969,412.439z"/>
		<path style="fill:#FFFFFF;" d="M173.094,204.593c-0.014-0.303-0.104-0.585-0.27-0.846c-0.124-0.17-0.254-0.355-0.396-0.511
			c-0.019-0.021-0.038-0.041-0.059-0.059c-0.152-0.135-0.327-0.27-0.494-0.384c-0.022-0.015-0.044-0.03-0.068-0.042
			c-0.098-0.054-0.215-0.095-0.313-0.136c-0.095-0.04-0.204-0.094-0.309-0.127c-0.057-0.018-0.116-0.028-0.176-0.036
			c-0.214-0.031-0.435-0.08-0.653-0.075c-0.204,0.005-0.436,0.044-0.622,0.076c-0.06,0.011-0.119,0.024-0.178,0.043
			c-0.029,0.009-0.059,0.02-0.088,0.031c-0.259,0.098-0.499,0.207-0.697,0.404c-0.02,0.025-0.039,0.051-0.059,0.076
			c-0.008,0.005-0.018,0.007-0.027,0.011c-0.129,0.074-0.245,0.173-0.36,0.265c-0.041,0.033-0.08,0.067-0.116,0.105
			c-0.197,0.211-0.335,0.436-0.415,0.715c-0.037,0.128-0.049,0.266-0.062,0.397c-0.005,0.057-0.005,0.113,0,0.171
			c0.016,0.166,0.043,0.33,0.129,0.477c-0.02,0.114-0.02,0.234,0.011,0.357c0.117,0.468,0.46,0.893,0.9,1.095
			c0.303,0.14,0.636,0.246,0.973,0.277c0.169,0.072,0.339,0.143,0.508,0.214c0.302,0.095,0.605,0.109,0.907,0.041
			c0.205-0.001,0.397-0.052,0.574-0.155c0.282-0.092,0.526-0.248,0.732-0.47c0.118-0.153,0.237-0.307,0.356-0.46
			c0.076-0.181,0.153-0.362,0.229-0.543C173.149,205.198,173.162,204.895,173.094,204.593z"/>
	</g>
	<path style="fill:#E0A8B8;" d="M349.09,73.4c-0.441-1.363-1.466-2.342-2.779-2.715c-0.091-0.035-0.182-0.076-0.271-0.105
		c-0.719-0.233-1.558-0.149-2.284,0.022c-0.241,0.057-0.478,0.132-0.716,0.2c-0.539,0.154-1.061,0.344-1.588,0.535
		c-0.382,0.138-0.755,0.289-1.131,0.436c-0.035-0.335-0.076-0.67-0.141-1.005c-0.062-0.318-0.147-0.626-0.263-0.928
		c-0.226-0.589-0.431-1.173-0.912-1.614c-0.28-0.257-0.595-0.48-0.902-0.702c-0.855-0.618-2.194-0.507-3.061,0
		c-0.95,0.556-1.359,1.457-1.48,2.497c0.026-0.194,0.052-0.388,0.078-0.582c-0.03,0.215-0.066,0.426-0.096,0.644
		c-0.002,0.015,0.001,0.028-0.001,0.043c0,0.006-0.002,0.011-0.003,0.016c-0.004,0.04-0.007,0.08-0.011,0.12
		c0.004-0.033,0.009-0.066,0.013-0.099c-0.049,0.461,0.007,0.877,0.081,1.341c-0.039-0.288-0.077-0.576-0.116-0.864
		c0.123,1.091-0.196,2.175-0.125,3.269c0.138,2.147,0.907,4.139,2.762,5.373c1.867,1.242,4.209,0.925,6.248,0.363
		c1.953-0.538,4.619-0.993,5.882-2.704c0.243-0.281,0.453-0.592,0.617-0.982C349.221,75.179,349.358,74.229,349.09,73.4z"/>
	<path style="fill:#E0A8B8;" d="M425.342,181.686c-0.921-1.429-2.616-2.201-4.299-1.749c-0.465,0.125-0.886,0.312-1.294,0.523
		c-0.147-0.342-0.302-0.681-0.481-1.008c-0.374-0.685-0.765-1.478-1.394-1.967c-0.103-0.105-0.206-0.211-0.309-0.316
		c-0.731-0.742-1.88-0.932-2.823-0.535c-0.937,0.396-1.59,1.325-1.589,2.362c0,0.081-0.002,0.162-0.002,0.244
		c-0.184,0.843,0.163,1.828,0.327,2.653c0.11,0.554,0.263,1.09,0.409,1.636c0.297,1.112,0.559,2.234,0.777,3.365
		c0.152,0.788,0.908,1.721,1.608,2.091c0.797,0.421,1.815,0.668,2.696,0.353c1.031-0.369,2.061-0.689,3.029-1.214
		c0.985-0.534,1.953-1.006,2.749-1.824c0.59-0.606,0.935-1.353,1.047-2.186C425.903,183.302,425.799,182.395,425.342,181.686z"/>
	<path style="fill:#E0A8B8;" d="M445.745,400.074c-0.291-1.752-1.635-3.144-2.971-4.217c-0.105-0.084-0.213-0.165-0.319-0.249
		c0.109-0.093,0.223-0.178,0.327-0.278c0.142-0.137,0.294-0.27,0.425-0.416c0.482-0.537,0.721-1.079,0.996-1.753
		c-0.119,0.282-0.237,0.563-0.356,0.844c0.072-0.17,0.145-0.34,0.217-0.51c0.291-0.502,0.438-1.044,0.44-1.625
		c-0.002-0.581-0.148-1.123-0.44-1.625c-0.54-0.923-1.673-1.678-2.78-1.595c-0.217,0.016-0.435,0.029-0.652,0.046
		c-0.863,0.07-1.537,0.345-2.284,0.724c-0.509,0.259-0.96,0.597-1.427,0.925c-1.245,0.873-2.607,1.686-3.4,3.033
		c-0.634,1.078-0.853,2.405-0.55,3.622c0.279,1.121,0.951,2.015,1.845,2.706c0.754,0.582,1.591,1.039,2.372,1.584
		c0.416,0.345,0.821,0.703,1.2,1.09c0.238,0.243,0.495,0.452,0.759,0.668c0.333,0.271,0.651,0.578,1.025,0.79
		c0.38,0.216,0.859,0.358,1.278,0.53c1.114,0.457,2.598-0.099,3.397-0.898C445.797,402.522,445.956,401.34,445.745,400.074z"/>
	<path style="fill:#E0A8B8;" d="M56.375,386.299c-1.507,0.813-2.412,2.135-3.251,3.579c-0.2,0.344-0.381,0.682-0.569,1.021
		c-0.559-0.322-1.115-0.651-1.656-1.001c-0.653-0.423-1.323-0.8-1.993-1.195c-0.366-0.215-0.717-0.448-1.107-0.62
		c-0.654-0.288-1.226-0.418-1.935-0.49c-0.674-0.068-1.345,0.366-1.735,0.871c-0.46,0.596-0.511,1.201-0.396,1.926
		c0.185,1.156,0.921,2.012,1.642,2.888c0.527,0.641,1.065,1.231,1.69,1.778c0.614,0.537,1.254,1.038,1.887,1.552
		c0.837,0.681,1.601,1.46,2.49,2.076c1.35,0.935,3.026,1.287,4.632,0.908c1.637-0.386,2.839-1.64,3.746-2.988
		c1.343-1.996,2.832-4.237,2.824-6.71C62.634,386.659,59.136,384.811,56.375,386.299z"/>
	<path style="fill:#E0A8B8;" d="M103.084,169.915c-0.466-1.105-1.373-2.154-2.604-2.435c-1.07-0.244-2.227-0.104-3.168,0.489
		c-0.985,0.621-1.608,1.45-2.049,2.495c-0.358,0.849-0.593,1.732-0.854,2.615c-0.075,0.253-0.139,0.507-0.211,0.76
		c-0.124-0.04-0.25-0.084-0.374-0.121c-1.425-0.424-2.842-1.131-4.355-0.991c-0.732,0.068-1.308,0.294-1.766,0.886
		c-0.396,0.512-0.665,1.318-0.402,1.96c0.305,0.746,0.524,1.285,1.098,1.867c0.457,0.463,0.983,0.844,1.5,1.237
		c0.699,0.533,1.409,1.079,2.158,1.54c0.743,0.456,1.531,0.857,2.313,1.24c0.91,0.446,1.645,0.751,2.676,0.724
		c0.666-0.018,1.289-0.197,1.862-0.486c1.147-0.394,1.979-1.405,2.441-2.499c0.214-0.507,0.394-1.021,0.576-1.539
		c0.256-0.727,0.489-1.459,0.715-2.196c0.225-0.732,0.49-1.464,0.663-2.211C103.571,172.102,103.542,171.003,103.084,169.915z"/>
	<path style="fill:#E0A8B8;" d="M178.262,69.687c-0.492-1.369-1.694-2.069-3.137-1.781c-0.181,0.036-0.366,0.061-0.546,0.102
		c-0.715,0.161-1.273,0.624-1.77,1.131c-0.543,0.554-0.976,1.197-1.449,1.81c0.179-0.231,0.357-0.462,0.536-0.694
		c-0.352,0.451-0.693,0.909-1.037,1.366c-0.077-0.063-0.147-0.133-0.226-0.194c-0.879-0.679-1.777-1.441-2.902-1.608
		c-0.941-0.139-1.797-0.047-2.506,0.662c-0.694,0.694-0.83,1.578-0.663,2.507c0.092,0.508,0.243,0.994,0.561,1.409
		c0.209,0.273,0.418,0.546,0.627,0.819c0.541,0.707,1.11,1.347,1.723,1.988c0.732,0.766,1.479,1.476,2.518,1.807
		c1.509,0.48,2.972-0.078,4.127-1.052c0.896-0.756,1.694-1.661,2.426-2.575c0.714-0.89,1.272-1.74,1.689-2.806
		c0.187-0.479,0.314-0.95,0.337-1.472C178.594,70.594,178.428,70.15,178.262,69.687z"/>
	<g>
		<path style="fill:#463047;" d="M250.017,26.803c-72.277,0-70.197,69.677-67.597,102.436c2.6,32.759-43.158,63.957-16.639,108.156
			c26.519,44.198,152.874,32.239,166.393-12.48c13.519-44.718-14.559-59.798-15.599-94.636
			C315.534,95.44,320.734,26.803,250.017,26.803z"/>
		<path style="fill:#CD5E79;" d="M216.738,188.664c-37.439,10.746-45.758,47.145-52.518,63.264
			c-6.76,16.119-14.559,41.598-8.32,58.238c6.24,16.639,185.633-2.08,185.633-2.08s-9.88-66.037-22.879-86.317
			c-12.999-20.279-18.719-22.532-36.398-28.945c-17.679-6.413-36.399-1.733-37.958-2.253
			C242.737,190.051,216.738,188.664,216.738,188.664z"/>
		<path style="fill:#E5B49C;" d="M235.804,158.505c0,0,1.733,6.24-1.733,16.986c-3.467,10.746-17.333,13.173-17.333,13.173
			s12.826,15.253,33.279,16.639c20.452,1.387,32.239-12.479,32.239-12.479s-14.559-7.28-17.679-15.253
			c-3.12-7.973-1.387-19.066-1.387-19.066H235.804z"/>
		<path style="fill:#DD997B;" d="M263.04,171.199c-0.395-3.107-0.376-6.152-0.249-8.482l-9.369-4.212h-17.618
			c0,0,1.733,6.24-1.733,16.986c-0.723,2.24-1.9,4.114-3.307,5.684c4.76,0.936,10.12,0.59,13.904-0.077
			c5.326-0.94,10.165-2.862,14.498-6.077C260.667,173.907,261.897,172.588,263.04,171.199z"/>
		<path style="fill:#E5B49C;" d="M293.695,112.426c0,0,6.347-0.028,6.586,7.626c0.347,11.093-9.013,11.44-9.013,11.44
			s-8.666,39.865-39.172,40.558c-30.506,0.693-42.985-41.252-42.985-41.252s-9.706-1.387-9.706-10.053
			c0-8.666,9.013-9.36,9.013-9.36s1.733-11.786,19.066-21.839c17.333-10.053,23.919-14.906,25.999-22.186
			c0,0,7.187,14.012,16.639,18.719C283.367,92.676,290.575,105.493,293.695,112.426z"/>
		<path style="fill:#DD997B;" d="M210.588,122.592c-0.146-0.766-0.503-1.509-0.841-2.207c-0.285-0.588-0.614-1.158-0.987-1.694
			c-0.476-0.683-1.009-1.322-1.627-1.879c-0.306-0.277-0.651-0.577-1.035-0.739c-0.456-0.193-1.092-0.1-1.247,0.448
			c-0.193,0.681,0.382,1.308,0.716,1.849c0.331,0.536,0.646,1.082,0.927,1.646c0.087,0.174,0.154,0.314,0.216,0.445
			c-0.373,0.213-0.715,0.482-0.993,0.758c-0.674,0.67-1.025,1.492-1.114,2.427c-0.174,1.826,1.399,3.503,3.258,3.253
			c0.97-0.13,1.783-0.68,2.319-1.498C210.731,124.56,210.77,123.55,210.588,122.592z"/>
		<path style="fill:#DD997B;" d="M298.463,122.418c-0.33-0.507-0.815-0.845-1.417-0.926c-0.219-0.029-0.44-0.06-0.66-0.076
			c-0.108-0.008-0.205,0.004-0.304,0.012c0.015-0.062,0.027-0.125,0.043-0.187c0.094-0.384,0.2-0.765,0.333-1.138
			c0.029-0.081,0.05-0.189,0.099-0.262c-0.009,0.014-0.008,0.012-0.016,0.024c0.018-0.029,0.036-0.059,0.045-0.078
			c0.08-0.166,0.168-0.328,0.264-0.484c0.048-0.077,0.103-0.15,0.151-0.227c0.023-0.031,0.023-0.033,0.023-0.034
			c0.047-0.061,0.094-0.122,0.141-0.182c0.136-0.216,0.302-0.534,0.339-0.773c0.119-0.771-0.31-1.524-1.168-1.534
			c-1.32-0.015-2.196,1.435-2.673,2.494c-0.51,1.131-0.933,2.329-1.067,3.567c-0.151,1.405,0.48,2.905,1.722,3.638
			c1.424,0.839,3.195,0.327,4.088-1.019C298.933,124.435,298.996,123.237,298.463,122.418z"/>
		<path style="fill:#573C5A;" d="M304.931,111.314c-0.947,0.168-1.905-0.5-2.873-0.554c-1.076-0.061-2.079-0.209-3.109-0.557
			c-2.096-0.708-3.968-2.089-5.536-3.648c-3.387-3.367-5.353-7.911-8.051-11.816c-2.744-3.971-6.146-6.919-10.435-9.023
			c-3.98-1.951-8.333-3.289-11.922-5.987c-2.133-1.603-3.72-3.785-5.082-6.079c-0.774-1.305-1.484-2.649-2.207-3.989
			c-0.807-1.498-1.817-3.231-3.162-4.095c-0.702,0.827-1.491,1.692-2.109,2.605c-0.673,0.995-1.194,2.121-1.785,3.171
			c-1.151,2.045-2.543,3.911-4.171,5.584c-3.569,3.669-8.027,5.653-12.582,7.73c-4.729,2.157-9.073,4.941-12.812,8.625
			c-3.753,3.698-6.502,8.261-10.026,12.166c-1.773,1.964-3.815,3.659-6.259,4.671c-2.513,1.04-4.916,1.299-7.603,1.168
			c-0.345-0.016-0.556,0.477-0.29,0.715c3.709,3.319,9.45,1.533,13.114-0.908c4.632-3.086,7.514-7.881,11.052-12.077
			c3.581-4.248,7.955-7.636,12.902-10.062c4.937-2.421,9.935-4.324,14.071-8.124c2.095-1.925,3.923-4.19,5.409-6.634
			c0.705-1.16,1.291-2.356,1.747-3.639c0.501,1.226,1.041,2.442,1.592,3.644c1.139,2.488,2.488,4.85,4.422,6.788
			c3.376,3.382,7.855,5.204,12.064,7.226c2.052,0.986,4.118,2.044,5.935,3.444c1.955,1.507,3.502,3.463,4.871,5.517
			c2.829,4.245,4.993,9.065,8.689,12.642c2.066,2,4.512,3.658,7.239,4.546c1.23,0.401,2.559,0.622,3.852,0.562
			c1.665-0.078,2.422-1.155,3.717-2.014C306.434,112.353,305.877,111.146,304.931,111.314z"/>
		<path style="fill:#573C5A;" d="M192.867,132.2c-0.082-0.931,0.064-1.799,0.016-2.724c-0.039-0.757-0.17-1.517-0.272-2.267
			c-0.222-1.648-0.31-3.436-1.212-4.855c-0.311-0.489-1.073-0.411-1.238,0.162c-0.402,1.396-0.176,2.795-0.149,4.24
			c0.014,0.755,0.015,1.511,0.002,2.266c-0.013,0.782,0.156,1.501,0.199,2.269c0.081,1.464-0.319,3.071-0.424,4.539
			c-0.109,1.516-0.265,3.029-0.487,4.533c-0.894,6.053-2.534,12.053-5.057,17.634c-2.6,5.752-6.294,10.809-9.54,16.19
			c-3.204,5.314-5.522,11.08-6.546,17.216c-0.546,3.272-0.788,6.591-0.657,9.907c0.065,1.65,0.214,3.308,0.586,4.919
			c0.402,1.741,1.099,3.214,1.855,4.823c0.312,0.665,1.415,0.337,1.377-0.373c-0.079-1.486-0.016-2.94-0.096-4.425
			c-0.081-1.498-0.203-2.994-0.278-4.492c-0.15-3.001-0.023-6.033,0.439-9.004c0.951-6.116,3.193-11.775,6.391-17.053
			c3.255-5.373,6.929-10.435,9.503-16.196c2.471-5.53,4.251-11.362,5.087-17.366C192.824,138.852,193.16,135.52,192.867,132.2z"/>
		<path style="fill:#573C5A;" d="M204.663,132.385c-0.126-0.939-1.566-0.818-1.781,0c-1.082,4.11-1.096,8.559-1.683,12.76
			c-0.593,4.253-1.468,8.5-2.896,12.557c-2.779,7.899-7.711,15.016-9.473,23.281c-0.467,2.188-0.718,4.461-0.652,6.699
			c0.072,2.446,0.697,4.232,2.196,6.154c0.405,0.518,1.17,0.046,1.198-0.496c0.047-0.898,0.195-1.785,0.217-2.686
			c0.025-1.069-0.121-2.133-0.134-3.201c-0.026-2.025,0.242-4.015,0.666-5.992c0.867-4.044,2.464-7.835,4.202-11.57
			c1.702-3.657,3.486-7.29,4.819-11.103c1.389-3.974,2.218-8.096,2.76-12.264C204.699,141.94,205.283,136.991,204.663,132.385z"/>
		<path style="fill:#573C5A;" d="M217.76,157.871c-0.467-0.733-1.462-0.381-1.545,0.418c-0.045,0.43-0.372,0.911-0.52,1.324
			c-0.183,0.509-0.329,1.023-0.462,1.546c-0.227,0.894-0.417,1.798-0.625,2.697c-0.452,1.951-0.828,3.916-1.219,5.88
			c-0.39,1.963-0.838,3.924-1.146,5.9c-0.315,2.025-0.272,3.83-0.075,5.857c0.045,0.458,0.687,0.737,0.941,0.255
			c0.986-1.871,1.774-3.653,2.235-5.735c0.466-2.104,0.815-4.241,1.219-6.358c0.406-2.125,0.785-4.248,1.123-6.385
			C217.931,161.729,218.667,159.295,217.76,157.871z"/>
		<path style="fill:#573C5A;" d="M324.9,196.518c-0.406-5.704-1.76-11.262-4.086-16.486c-2.386-5.359-6.057-10.023-8.148-15.527
			c-2.183-5.747-3.267-11.93-4.055-18.006c-0.452-3.482-0.725-6.977-1.001-10.476c-0.28-3.54-0.1-7.069-0.896-10.537
			c-0.035-0.151-0.24-0.13-0.285,0c-1.035,3.009-1.09,6.089-1.172,9.257c-0.081,3.073-0.041,6.138,0.151,9.207
			c0.377,6.008,1.05,12.074,2.598,17.904c0.773,2.913,1.799,5.755,3.126,8.463c1.275,2.602,2.825,5.056,4.204,7.602
			c2.646,4.886,4.43,10.272,5.17,15.785c0.415,3.09,0.493,6.237,0.278,9.345c-0.103,1.495-0.263,2.985-0.426,4.474
			c-0.081,0.738-0.195,1.474-0.158,2.213c0.04,0.817,0.313,1.586,0.446,2.389c0.088,0.534,0.915,0.751,1.256,0.332
			c0.821-1.011,1.595-1.83,1.99-3.106c0.449-1.452,0.695-2.998,0.872-4.505C325.085,202.091,325.097,199.281,324.9,196.518z"/>
		<path style="fill:#573C5A;" d="M306.792,183.781c-1.002-4.387-3.006-8.49-4.828-12.58c-1.889-4.238-3.181-8.535-3.979-13.107
			c-0.399-2.289-0.722-4.596-1.054-6.896c-0.14-0.966-0.28-1.956-0.252-2.934c0.026-0.888,0.351-1.748,0.318-2.637
			c-0.006-0.152-0.136-0.241-0.281-0.214c-1.638,0.315-1.996,2.472-2.112,3.845c-0.178,2.131,0.075,4.364,0.243,6.491
			c0.375,4.758,1.114,9.441,2.729,13.947c1.548,4.32,3.702,8.414,4.978,12.832c0.599,2.073,1.013,4.191,1.046,6.352
			c0.032,2.059-0.317,4.228,0.534,6.168c0.136,0.31,0.579,0.367,0.842,0.221C308.665,193.234,307.546,187.084,306.792,183.781z"/>
		<path style="fill:#573C5A;" d="M288.714,173.91c-0.478-1.993-1.032-3.973-1.6-5.942c-0.517-1.79-0.841-4.013-2.253-5.345
			c-0.15-0.141-0.365-0.068-0.432,0.114c-0.633,1.728-0.003,3.725,0.315,5.467c0.341,1.87,0.732,3.729,1.093,5.595
			c0.319,1.646,0.581,3.293,0.629,4.971c0.023,0.776,0.097,1.573,0.072,2.346c-0.026,0.796-0.182,1.514-0.015,2.309
			c0.053,0.254,0.341,0.313,0.543,0.221c1.451-0.66,2.051-2.694,2.223-4.153C289.505,177.65,289.143,175.7,288.714,173.91z"/>
		<path style="fill:#573C5A;" d="M249.771,50.016c-0.026-0.435-0.71-0.738-0.918-0.249c-0.503,1.182-0.81,2.49-1.458,3.601
			c-0.698,1.197-1.402,2.384-2.078,3.598c-1.293,2.323-2.663,4.593-4.411,6.607c-3.665,4.224-8.289,7.163-13.605,8.846
			c-2.977,0.942-6.093,1.769-8.708,3.544c-2.162,1.467-3.891,3.39-5.374,5.527c-2.935,4.229-4.712,9.239-7.966,13.251
			c-2.019,2.489-4.692,4.383-7.736,5.405c-1.543,0.518-3.16,0.861-4.784,0.978c-0.804,0.057-1.613,0.103-2.419,0.084
			c-0.811-0.019-1.129,0.031-1.814,0.452c-0.182,0.112-0.296,0.399-0.155,0.59c0.416,0.562,0.583,0.814,1.29,0.993
			c0.616,0.156,1.256,0.252,1.886,0.329c1.588,0.194,3.221,0.094,4.794-0.18c2.894-0.505,5.734-1.688,8.116-3.411
			c4.683-3.389,7.103-8.508,9.884-13.392c1.328-2.333,2.781-4.613,4.785-6.428c2.343-2.123,5.342-3.04,8.298-3.961
			c5.795-1.805,10.971-4.616,15.171-9.068c2.154-2.283,4.067-4.882,5.398-7.731c0.665-1.424,1.274-2.993,1.418-4.573
			C249.532,53.243,249.868,51.608,249.771,50.016z"/>
		<path style="fill:#573C5A;" d="M241.863,37.209c-2.777,4.471-4.685,9.492-8.609,13.154c-3.625,3.383-8.393,4.848-12.962,6.479
			c-4.339,1.548-8.823,3.344-11.976,6.847c-3.212,3.568-4.593,8.251-6.513,12.55c-1.078,2.414-2.433,4.81-4.568,6.447
			c-1.237,0.948-2.67,1.568-4.15,2.021c-1.424,0.436-2.914,0.427-4.318,0.918c-0.337,0.118-0.395,0.543-0.097,0.743
			c2.075,1.395,5.237,0.769,7.407-0.12c2.419-0.991,4.402-2.63,5.976-4.701c3.081-4.057,4.131-9.155,6.757-13.463
			c2.687-4.409,7.253-6.491,11.939-8.165c4.81-1.718,9.767-3.245,13.788-6.525c4.688-3.824,8.296-9.707,8.728-15.805
			C243.318,36.811,242.233,36.613,241.863,37.209z"/>
		<path style="fill:#573C5A;" d="M305.854,97.497c-2.13-0.445-4.169-0.654-6.064-1.828c-1.939-1.202-3.533-2.981-4.801-4.86
			c-2.537-3.756-4.06-8.107-6.705-11.806c-1.335-1.868-2.885-3.53-4.81-4.801c-2.039-1.346-4.43-2.08-6.77-2.702
			c-2.402-0.639-4.923-1.165-7.119-2.372c-1.824-1.003-3.386-2.461-4.56-4.177c-2.867-4.191-3.247-8.975-4.056-13.822
			c-0.121-0.722-1.319-0.712-1.449,0c-0.811,4.452,0.233,9.439,2.052,13.517c1.994,4.47,5.569,7.651,10.207,9.185
			c2.517,0.833,5.178,1.282,7.624,2.324c2.271,0.967,4.129,2.569,5.561,4.568c2.85,3.979,4.201,8.797,7.025,12.79
			c2.819,3.986,8.9,9.792,14.211,6.641C307.223,99.547,307.112,97.76,305.854,97.497z"/>
		<path style="fill:#573C5A;" d="M309.79,83.076c-1.555-1.849-4.042-2.299-6.135-3.341c-1.592-0.793-2.882-1.923-3.941-3.348
			c-2.156-2.9-3.401-6.358-5.356-9.383c-2.275-3.521-5.287-5.808-9.476-6.52c-2.329-0.396-4.653-0.604-6.788-1.702
			c-1.977-1.016-3.711-2.441-5.193-4.089c-1.845-2.053-3.227-4.48-4.38-6.976c-0.618-1.338-1.164-2.71-1.686-4.087
			c-0.481-1.267-0.862-2.794-1.843-3.769c-0.323-0.321-1.004-0.21-1.091,0.288c-0.203,1.161,0.154,2.303,0.466,3.422
			c0.383,1.37,0.817,2.729,1.303,4.066c0.905,2.488,1.984,4.944,3.432,7.167c2.606,4.001,6.339,7.317,11.055,8.496
			c2.331,0.583,4.943,0.554,7.101,1.702c1.563,0.832,2.749,2.149,3.709,3.616c2.064,3.151,3.327,6.767,5.529,9.835
			c1.376,1.917,3.047,3.601,5.173,4.678c2.408,1.22,5.533,2.007,8.025,0.679C309.981,83.659,309.975,83.296,309.79,83.076z"/>
		<path style="fill:#C84151;" d="M280.589,191.73c-3.508,3.689-7.467,6.413-12.265,8.173c-4.235,1.553-8.783,2.512-13.29,2.73
			c-2.305,0.111-4.592,0.016-6.891-0.159c-0.956-0.073-2.094-0.338-3.042-0.155c-0.061,0.012-0.089,0.024-0.135,0.035
			c-0.209-0.158-0.457-0.258-0.704-0.34c-0.6-0.2-1.251-0.285-1.871-0.425c-4.472-1.01-8.789-2.634-12.81-4.837
			c-2.234-1.224-4.415-2.553-6.405-4.147c-0.998-0.798-1.962-1.639-2.887-2.519c-0.976-0.929-1.752-1.761-3.04-2.233
			c-0.714-0.262-1.321,0.516-1.167,1.166c0.532,2.234,2.832,3.928,4.501,5.371c1.871,1.618,3.874,3.191,5.968,4.51
			c4.132,2.601,8.667,4.565,13.373,5.861c1.162,0.32,2.455,0.779,3.666,0.83c0.226,0.01,0.466-0.04,0.691-0.054
			c0.071,0.024,0.289,0.068,0.37,0.101c0.661,0.271,1.33,0.39,2.032,0.509c2.498,0.423,5.052,0.566,7.584,0.537
			c4.926-0.055,9.806-0.784,14.474-2.381c5.674-1.941,11.618-5.01,15.039-10.11C285.071,192.268,282.167,190.07,280.589,191.73z"/>
		<path style="fill:#C84151;" d="M199.34,234.749c-1.974,1.367-2.982,3.934-3.907,6.071c-1.08,2.496-2.101,5.035-2.958,7.617
			c-0.856,2.578-1.674,5.169-2.503,7.756c-0.743,2.319-2.135,5.309-1.134,7.729c0.104,0.251,0.384,0.434,0.651,0.265
			c2.096-1.322,2.687-4.213,3.368-6.418c0.803-2.601,1.597-5.206,2.42-7.801c0.785-2.477,1.521-4.968,2.39-7.417
			c0.835-2.354,2.269-4.924,2.266-7.462C199.932,234.807,199.591,234.574,199.34,234.749z"/>
		<path style="fill:#C84151;" d="M308.366,261.764c-0.473-1.281-0.953-2.559-1.439-3.835c-0.912-2.393-1.809-4.793-2.765-7.169
			c-0.929-2.309-1.851-4.621-2.898-6.879c-0.953-2.056-1.86-3.93-3.783-5.214c-0.18-0.12-0.385,0.078-0.344,0.264
			c1.005,4.537,2.79,8.985,4.414,13.341c0.864,2.318,1.752,4.628,2.62,6.945c0.419,1.119,0.843,2.236,1.268,3.353
			c0.454,1.193,0.791,2.604,1.567,3.627c0.713,0.941,2.575,0.794,2.483-0.673C309.407,264.207,308.82,262.994,308.366,261.764z"/>
		<path style="fill:#463047;" d="M240.754,108.03c-0.754-2.568-4.213-3.662-6.639-3.521c-1.403,0.082-2.749,0.534-3.99,1.176
			c-1.244,0.644-2.695,1.517-2.935,3.005c-0.138,0.856,0.347,1.665,1.285,1.686c0.666,0.015,1.308-0.118,1.873-0.483
			c0.414-0.267,0.835-0.519,1.276-0.737c0.11-0.054,0.221-0.106,0.333-0.157c0.023-0.01,0.038-0.017,0.046-0.022
			c0.021-0.007,0.05-0.017,0.091-0.031c0.23-0.079,0.458-0.161,0.692-0.227c0.235-0.066,0.472-0.117,0.71-0.167
			c0.038-0.008,0.068-0.014,0.093-0.018c0.122-0.013,0.245-0.024,0.367-0.033c0.214-0.016,0.427-0.025,0.642-0.021
			c0.108,0.002,0.215,0.006,0.322,0.013c0.015,0.001,0.061,0.005,0.109,0.008c0.06,0.008,0.139,0.019,0.162,0.024
			c0.106,0.02,0.21,0.043,0.315,0.068c0.235,0.058,0.463,0.131,0.691,0.211c0.083,0.044,0.17,0.082,0.253,0.126
			c0.187,0.1,0.363,0.215,0.541,0.33c0.01,0.006,0.013,0.008,0.021,0.013c0.005,0.005,0.005,0.007,0.012,0.014
			c0.071,0.076,0.158,0.141,0.238,0.208c0.282,0.235,0.552,0.387,0.871,0.55C239.467,110.731,241.214,109.595,240.754,108.03z"/>
		<path style="fill:#463047;" d="M276.229,108.261c-0.592-1.282-2.3-2.107-3.556-2.606c-1.207-0.48-2.553-0.698-3.847-0.721
			c-1.263-0.022-2.577,0.165-3.772,0.581c-1.382,0.481-2.78,1.153-3.408,2.557c-0.517,1.157,0.329,2.373,1.623,2.111
			c0.595-0.121,1.174-0.296,1.724-0.564c0.124-0.06,0.246-0.123,0.37-0.184c0.022-0.011,0.034-0.017,0.051-0.024
			c0.215-0.084,0.431-0.162,0.652-0.229c0.263-0.081,0.53-0.149,0.8-0.204c0.108-0.023,0.217-0.043,0.326-0.062
			c0.032-0.005,0.06-0.009,0.088-0.013c0.517-0.043,1.029-0.066,1.548-0.037c0.111,0.006,0.221,0.014,0.332,0.024
			c0.05,0.005,0.095,0.009,0.131,0.014c0.219,0.037,0.437,0.075,0.653,0.125c0.242,0.056,0.483,0.121,0.72,0.196
			c0.132,0.042,0.263,0.087,0.392,0.134c0.082,0.03,0.145,0.053,0.177,0.064c0.203,0.089,0.525,0.235,0.182,0.075
			c0.125,0.058,0.251,0.114,0.374,0.175c0.222,0.11,0.439,0.229,0.651,0.357c0.579,0.352,1.043,0.728,1.701,0.952
			c0.69,0.235,1.53-0.106,1.946-0.663C276.56,109.681,276.555,108.966,276.229,108.261z"/>
		<path style="fill:#463047;" d="M241.639,117.964c-0.261-0.228-0.587-0.274-0.895-0.116c-1.169,0.6-1.636,1.84-2.564,2.708
			c-0.832,0.778-2.004,1.247-3.097,1.263c-1.295,0.02-2.495-0.442-3.554-1.167c-1.219-0.834-1.988-2.1-2.916-3.211
			c-0.434-0.52-1.202-0.482-1.75-0.226c-0.86,0.402-2.008,0.985-2.434,1.881c-0.234,0.493,0.053,0.984,0.593,1.033
			c0.524,0.047,1.064-0.055,1.604-0.137c0.711,1.479,1.984,2.726,3.29,3.66c1.556,1.114,3.58,1.825,5.508,1.674
			c1.955-0.153,3.799-0.945,5.229-2.297C241.905,121.847,243.288,119.407,241.639,117.964z"/>
		<path style="fill:#463047;" d="M279.064,119.331c-0.098-0.186-0.269-0.36-0.406-0.522c-0.24-0.285-0.482-0.592-0.804-0.786
			c-0.253-0.152-0.511-0.297-0.776-0.429c-0.126-0.063-0.252-0.103-0.382-0.137c-0.079-0.066-0.145-0.146-0.236-0.199
			c-0.699-0.409-1.816-0.352-2.363,0.305c-0.274,0.329-0.481,0.673-0.707,1.031c-0.005,0.008-0.168,0.244-0.194,0.291
			c-0.077,0.095-0.156,0.189-0.239,0.279c-0.508,0.556-0.777,0.793-1.258,1.101c-0.265,0.17-0.54,0.318-0.822,0.457
			c-0.03,0.014-0.06,0.028-0.09,0.041c-0.003,0-0.029,0.009-0.085,0.031c-0.148,0.053-0.296,0.105-0.447,0.15
			c-0.656,0.195-0.924,0.221-1.676,0.179c-0.893-0.05-2.083-0.529-2.862-1.152c-1.022-0.819-1.629-1.921-2.493-2.919
			c-0.693-0.8-1.853-0.095-1.922,0.796c-0.141,1.797,0.989,3.378,2.293,4.511c1.393,1.212,3.053,1.965,4.891,2.164
			c1.743,0.189,3.552-0.235,5.105-1.022c0.757-0.384,1.472-0.899,2.073-1.497c0.559-0.556,1.136-1.248,1.478-1.997
			c0.05,0.043,0.101,0.085,0.151,0.13c0.157,0.141,0.305,0.298,0.481,0.416c0.065,0.044,0.137,0.081,0.208,0.115
			c0.136,0.066,0.273,0.108,0.426,0.115c0.025,0.001,0.046-0.009,0.07-0.011c0.052,0.015,0.105,0.029,0.157,0.045
			c0.278,0.083,0.62-0.151,0.598-0.455c-0.005-0.068-0.012-0.135-0.018-0.203C279.283,119.883,279.2,119.59,279.064,119.331z"/>
		<g>
			<path style="fill:#DD997B;" d="M256.27,134.862c0.073-0.287-0.189-0.56-0.48-0.48c-0.018,0.005-0.037,0.009-0.055,0.014
				c-0.161-0.023-0.317-0.02-0.488,0.009c-0.006,0.001-0.004,0.001-0.012,0.002c-0.181,0.027-0.218,0.032-0.354,0.079
				c-0.311,0.106-0.624,0.2-0.927,0.327c0.207-0.086,0.015-0.007-0.029,0.009c-0.068,0.024-0.135,0.049-0.203,0.071
				c-0.137,0.044-0.275,0.081-0.416,0.113c-0.056,0.013-0.112,0.024-0.169,0.035c0,0-0.075,0.012-0.123,0.02
				c-0.045,0.005-0.109,0.012-0.123,0.013c-0.072,0.006-0.144,0.01-0.216,0.013c-0.13,0.005-0.259,0.006-0.389,0.001
				c-0.072-0.003-0.144-0.009-0.215-0.013c-0.019-0.001-0.068-0.006-0.101-0.01c-0.25-0.036-0.503-0.077-0.747-0.135
				c-0.509-0.122-0.887-0.276-1.293-0.594c-0.722-0.566-1.621,0.295-1.016,1.016c0.937,1.117,2.317,1.71,3.761,1.728
				c0.686,0.009,1.4-0.1,2.044-0.342c0.735-0.276,1.527-0.937,1.522-1.767C256.251,134.935,256.261,134.898,256.27,134.862z"/>
			<path style="fill:#DD997B;" d="M255.236,134.407c0.004-0.001,0.007-0.001,0.011-0.001
				C255.301,134.397,255.305,134.395,255.236,134.407z"/>
		</g>
		<path style="fill:#DD997B;" d="M255.866,147.018c-0.348-0.052-0.65-0.076-0.987,0.045c-0.112,0.04-0.227,0.071-0.34,0.109
			c-0.109,0.036-0.213,0.085-0.319,0.13c-0.003,0.001-0.015,0.006-0.06,0.022c-0.242,0.089-0.486,0.167-0.737,0.225
			c-0.118,0.027-0.238,0.044-0.355,0.071c-0.008,0.002-0.003,0.001-0.009,0.003c-0.071,0.007-0.142,0.015-0.214,0.021
			c-0.241,0.019-0.484,0.022-0.726,0.01c-0.075-0.004-0.15-0.009-0.226-0.016c-0.009-0.001-0.055-0.005-0.09-0.009
			c-0.035-0.005-0.09-0.013-0.1-0.015c-0.06-0.01-0.119-0.022-0.179-0.034c-0.251-0.052-0.499-0.121-0.74-0.208
			c-0.154-0.056-0.294-0.123-0.458-0.145c-0.15-0.02-0.292,0.003-0.443,0.012c-0.555,0.034-0.879,0.581-0.62,1.081
			c0.178,0.345,0.402,0.583,0.759,0.744c0.308,0.14,0.622,0.267,0.947,0.361c0.603,0.174,1.248,0.26,1.875,0.255
			c1.229-0.01,3.193-0.312,3.559-1.715C256.5,147.599,256.284,147.08,255.866,147.018z"/>
		<path style="fill:#D98A79;" d="M286.181,127.619c-0.423-0.848-1.168-1.393-2.016-1.751c-1.197-0.505-2.591-0.698-3.88-0.745
			c-1.417-0.052-2.785,0.233-4.07,0.817c-0.568,0.258-1.122,0.613-1.533,1.085c-0.928,1.065-1.224,2.575-0.492,3.845
			c0.771,1.337,2.299,1.946,3.724,2.317c1.382,0.359,2.766,0.433,4.172,0.209c0.255-0.04,0.524-0.101,0.795-0.172
			c0.543-0.047,1.1-0.25,1.568-0.494c0.837-0.436,1.459-1.156,1.821-2.015C286.701,129.693,286.68,128.618,286.181,127.619z"/>
		<path style="fill:#D98A79;" d="M228.346,127.619c-0.423-0.848-1.168-1.393-2.016-1.751c-1.197-0.505-2.591-0.698-3.88-0.745
			c-1.417-0.052-2.785,0.233-4.07,0.817c-0.568,0.258-1.122,0.613-1.533,1.085c-0.928,1.065-1.224,2.575-0.492,3.845
			c0.771,1.337,2.299,1.946,3.724,2.317c1.382,0.359,2.766,0.433,4.172,0.209c0.255-0.04,0.524-0.101,0.795-0.172
			c0.543-0.047,1.1-0.25,1.568-0.494c0.837-0.436,1.458-1.156,1.821-2.015C228.866,129.693,228.845,128.618,228.346,127.619z"/>
	</g>
	<g>
		<circle style="fill:#F4E1E5;" cx="247.417" cy="364.244" r="113.355"/>
		<circle style="fill:#FFFFFF;" cx="247.417" cy="364.244" r="74.719"/>
		<path style="fill:#CD5E79;" d="M248.899,317.568c23.997-0.615,29.043,15.707,42.675,15.41
			c13.632-0.296,43.861-20.448,55.122-2.074c11.262,18.374-5.334,36.155-21.93,42.379c-16.596,6.223-29.043,1.482-30.821-10.372
			c-1.778-11.854,14.818-19.263,23.708-11.854c8.891,7.409,16.299,2.075,16.892-5.927c0.593-8.001-10.669-13.04-21.337-8.891
			c-10.669,4.149-17.189,11.854-25.783,14.818c-8.594,2.964-10.076,9.483-11.854,17.781c-1.778,8.298-9.187,10.076-6.223,19.856
			c2.964,9.78,5.255,13.532-1.482,22.523c-6.737,8.991-12.743,14.225-8.298,28.154c4.445,13.929,3.26,18.078-2.371,22.523
			c-5.631,4.445-24.69,0.303-22.227-9.187c2.464-9.49,8.298-9.78,3.26-21.041c-5.038-11.261-13.929-8.891-13.336-24.005
			c0.593-15.114,2.667-18.67-3.556-25.783c-6.223-7.112,3.853-14.521-3.26-23.116c-7.113-8.594-10.076-9.78-28.154-16.892
			c-18.078-7.113-21.634-5.631-23.116,2.074c-1.482,7.705,4.445,6.223,13.04,5.334c8.594-0.889,21.634,3.556,21.041,16.596
			c-0.593,13.04-20.152,16.596-37.341,2.964c-17.189-13.632-24.894-33.192-11.854-44.157c13.04-10.965,30.524,5.631,43.564,9.187
			C208.298,337.424,225.783,318.161,248.899,317.568z"/>
		<path style="fill:#C84151;" d="M339.376,331.191c-7.123-5.203-16.631-3.44-24.521-1.31c-9.45,2.552-18.466,6.403-27.606,9.854
			c-4.963,1.874-10.07,3.952-15.352,4.703c-2.486,0.353-4.972,0.347-7.441-0.111c-0.734-0.136-1.438-0.344-2.13-0.579
			c-4.558-4.724-11.117-7.025-19.202-4.59c-4.564,1.375-8.152,3.248-10.918,5.458c-0.185,0.027-0.369,0.061-0.554,0.084
			c-3.699,0.464-7.465,0.212-11.166-0.092c-4.096-0.337-8.273-0.647-12.223-1.849c-4.056-1.234-7.443-3.801-11.154-5.758
			c-3.858-2.034-8.077-3.237-12.302-4.241c-4.309-1.023-8.783-2.024-13.225-2.158c-6.941-0.209-15.332,3.195-16.461,10.932
			c-0.656,4.497,1.579,9.623,4.312,13.116c2.137,2.731,7.659,6.791,10.839,3.407c0.335-0.356,0.343-1.084-0.17-1.315
			c-0.683-0.308-1.274-0.582-2.015-0.731c-0.874-0.176-1.741-0.313-2.562-0.678c-1.693-0.753-3.042-2.1-4.056-3.627
			c-1.955-2.944-3.894-7.134-2.835-10.704c0.87-2.933,3.554-5.142,6.311-6.245c3.7-1.481,8.027-1.183,11.852-0.387
			c3.914,0.815,7.906,1.694,11.719,2.903c3.855,1.222,7.281,3.034,10.719,5.132c3.404,2.078,6.862,3.764,10.786,4.596
			c3.764,0.797,7.653,1.124,11.484,1.422c2.271,0.177,4.57,0.245,6.855,0.13c-8.466,11.306-2.1,27.604,6.225,34.919
			c2.155,3.121,3.962,6.456,5.204,10.043c1.042,3.013,1.58,6.128,1.585,9.286c-0.027,1.863-0.213,3.723-0.579,5.549
			c-0.203,0.916-0.456,1.821-0.762,2.709c-0.274,0.796-0.527,1.544-0.713,2.292c-1.138,2.887-2.509,5.406-1.94,8.682
			c0.515,2.965,2.357,5.418,3.377,8.195c2.45,6.673-3.769,12.759-4.876,19.105c-0.605,3.465-0.067,6.829,2.145,9.634
			c2.029,2.573,4.955,4.443,8.069,5.421c5.761,1.808,12.125-0.139,15.008-5.65c2.793-5.338,2.148-11.576,0.69-17.193
			c-0.912-3.512-2.122-7.039-2.348-10.684c-0.208-3.356,0.71-6.346,1.858-9.458c1.259-3.411,2.595-6.95,2.285-10.656
			c-0.326-3.887-2.3-7.146-3.649-10.718c-1.255-3.323-1.736-6.835-1.483-10.375c0.074-1.039,0.247-2.058,0.471-3.066
			c3.593-2.587,6.638-6.979,8.916-13.421c2.977-8.421,1.854-18.318-2.467-25.436c0.539,0.088,1.069,0.157,1.575,0.206
			c4.37,0.422,8.755-0.616,12.893-1.934c8.837-2.814,17.349-6.56,26.097-9.626c4.334-1.519,8.719-2.902,13.195-3.942
			c3.755-0.873,7.785-1.548,11.63-0.875c3.515,0.615,6.596,2.297,8.477,5.405c1.576,2.604,2.045,6.022,1.655,9.019
			c-0.482,3.707-2.477,7.047-5.165,9.58c-3.027,2.853-6.854,4.295-10.6,5.931c-2.077,0.907-1.058,4.534,1.169,4.314
			c7.968-0.785,15.668-7.014,18.508-14.453C347.429,344.486,345.442,335.621,339.376,331.191z"/>
		<path style="fill:#D8878E;" d="M175.107,356.094c-9.585,8.148,3.853,16.892,9.483,16.892c5.631,0,11.261-4.742,9.483-12.151
			C192.295,353.427,181.034,351.056,175.107,356.094z"/>
		<path style="fill:#D8878E;" d="M318.782,356.094c9.585,8.148-3.853,16.892-9.483,16.892c-5.631,0-11.261-4.742-9.483-12.151
			C301.594,353.427,312.855,351.056,318.782,356.094z"/>
		<path style="fill:#D8878E;" d="M245.343,345.425c-13.3,4.877-8.002,21.337-2.371,25.19c5.631,3.853,10.669,2.371,13.336-6.816
			C258.975,354.612,254.233,342.165,245.343,345.425z"/>
		<g>
			<path style="fill:#E5B6BB;" d="M248.279,351.163c-0.035,0.015-0.069,0.029-0.104,0.044c-0.135,0.057-0.27,0.115-0.405,0.171
				C247.939,351.306,248.109,351.234,248.279,351.163z"/>
			<path style="fill:#E5B6BB;" d="M249.974,348.434c0.037,0.089,0.075,0.177,0.112,0.266c-0.058-0.423-0.504-0.953-0.886-1.155
				c-0.219-0.116-0.452-0.197-0.694-0.244c-0.378-0.073-0.77-0.154-1.156-0.123c-0.412,0.032-0.844,0.061-1.235,0.201
				c-0.38,0.136-0.756,0.294-1.117,0.476c-0.573,0.288-1.101,0.687-1.58,1.11c-0.301,0.266-0.579,0.571-0.8,0.907
				c-0.068,0.104-0.129,0.216-0.185,0.327c-0.091,0.182-0.185,0.387-0.248,0.58c-0.067,0.206-0.081,0.425-0.068,0.644
				c-0.045,0.359-0.023,0.698,0.126,1.05c0.156,0.37,0.423,0.728,0.788,0.921c0.303,0.16,0.63,0.248,0.972,0.263
				c0.375,0.017,0.719-0.119,1.024-0.316c0.65-0.246,1.132-0.885,1.649-1.364c0.307-0.212,0.628-0.401,0.972-0.55
				c0.175-0.073,0.35-0.146,0.525-0.221c0.076-0.032,0.152-0.064,0.228-0.096c0.414-0.171,0.855-0.274,1.178-0.615
				c0.133-0.141,0.255-0.317,0.35-0.483C250.232,349.485,250.186,348.963,249.974,348.434z"/>
		</g>
		<path style="fill:#E5B6BB;" d="M241.824,356.255c-0.043-0.102-0.086-0.204-0.129-0.307c-0.067-0.086-0.134-0.173-0.201-0.26
			c-0.116-0.125-0.254-0.214-0.413-0.266c-0.1-0.058-0.208-0.087-0.324-0.087c-0.114-0.031-0.227-0.031-0.341,0
			c-0.116,0-0.224,0.03-0.324,0.087c-0.159,0.052-0.297,0.14-0.413,0.266c-0.082,0.068-0.17,0.132-0.242,0.21
			c-0.033,0.036-0.065,0.072-0.098,0.108c-0.212,0.236-0.336,0.418-0.423,0.727c-0.062,0.218-0.078,0.444-0.074,0.669
			c0.003,0.152,0.018,0.309,0.051,0.457c0.046,0.203,0.195,0.436,0.34,0.582c0.157,0.158,0.231,0.19,0.407,0.265
			c0.097,0.056,0.202,0.085,0.314,0.085c0.059,0.012,0.119,0.02,0.179,0.023c0.223,0.01,0.334-0.036,0.514-0.112
			c0.064-0.017,0.123-0.044,0.177-0.079c0.089-0.068,0.178-0.137,0.266-0.206l0.07-0.054c0.039-0.03,0.077-0.06,0.116-0.09
			c0.133-0.105,0.219-0.257,0.318-0.394l0.027-0.038c0.05-0.117,0.099-0.235,0.149-0.353c0.009-0.03,0.014-0.058,0.019-0.089
			c0.008-0.05,0.017-0.101,0.024-0.151c0.025-0.161,0.053-0.323,0.055-0.486c0.001-0.055,0.002-0.111,0.002-0.167
			C241.854,356.483,241.839,356.369,241.824,356.255z"/>
		<path style="fill:#E5B6BB;" d="M183.918,356.237c-0.532-0.686-1.49-0.788-2.325-0.722c-0.392,0.031-0.772,0.116-1.143,0.243
			c-0.598,0.206-1.075,0.571-1.323,1.159c-0.005,0.011-0.004,0.021-0.008,0.031c-0.322,0.123-0.632,0.275-0.897,0.474
			c-0.34,0.255-0.552,0.434-0.809,0.774c-0.072,0.095-0.142,0.192-0.209,0.291c-0.287,0.426-0.503,0.903-0.435,1.429
			c0.065,0.501,0.19,0.882,0.603,1.201c0.366,0.283,0.876,0.428,1.333,0.273c0.266-0.09,0.519-0.182,0.743-0.356
			c0.151-0.117,0.253-0.234,0.377-0.373c0.25-0.283,0.5-0.55,0.719-0.861c0.07-0.1,0.139-0.202,0.206-0.303
			c0.426,0.026,0.813-0.074,1.198-0.285c0.209-0.114,0.429-0.211,0.633-0.332c0.189-0.111,0.379-0.218,0.578-0.31
			c0.362-0.167,0.635-0.431,0.83-0.755C184.417,357.372,184.421,356.634,183.918,356.237z"/>
		<g>
			<path style="fill:#E5B6BB;" d="M314.827,361.219c-0.027-0.021-0.052-0.043-0.079-0.063c-0.112-0.084-0.223-0.167-0.341-0.261
				C314.548,361.003,314.687,361.111,314.827,361.219z"/>
			<path style="fill:#E5B6BB;" d="M317.965,360.126c0.003-0.014,0.007-0.027,0.01-0.04c0.261-0.849-0.241-1.84-0.879-2.394
				c-0.356-0.31-0.755-0.643-1.176-0.87c-0.407-0.219-0.857-0.39-1.296-0.535c-0.374-0.123-0.773-0.163-1.165-0.209
				c-0.548-0.083-1.166-0.179-1.696-0.043c-0.081,0.021-0.248,0.087-0.369,0.136c0.028-0.012,0.048-0.02,0.087-0.037l-0.095,0.04
				c-0.103,0.042-0.158,0.066-0.09,0.038c-0.053,0.022-0.106,0.045-0.159,0.067c-0.345,0.245-0.394,0.293-0.147,0.143
				c-0.101,0.074-0.2,0.15-0.298,0.228c-0.078,0.071-0.051,0.054,0.084-0.051c-0.118,0.076-0.236,0.18-0.346,0.272
				c-0.212,0.176-0.278,0.488-0.244,0.745c0.039,0.293,0.191,0.476,0.423,0.648c0.003,0.003,0.001,0,0.005,0.003
				c0.025,0.028,0.051,0.058,0.078,0.084c0.007,0.007,0.005,0.004,0.01,0.009c0.037,0.048,0.084,0.107,0.143,0.182
				c0.116,0.107,0.254,0.196,0.382,0.289c0.237,0.173,0.528,0.265,0.812,0.363c0.475,0.222,0.913,0.513,1.333,0.827
				c0.218,0.173,0.435,0.348,0.656,0.518c-0.14-0.108-0.28-0.217-0.42-0.325c0.147,0.117,0.291,0.238,0.428,0.367
				c0.223,0.209,0.47,0.389,0.713,0.574c0.206,0.154,0.418,0.292,0.691,0.368c0.217,0.061,0.437,0.078,0.657,0.07
				c0.017,0.001,0.033,0.004,0.05,0.005c0.429,0.046,1.039-0.238,1.324-0.548c0.241-0.262,0.401-0.559,0.484-0.889
				c-0.001,0.006-0.002,0.011-0.002,0.017C317.958,360.161,317.959,360.143,317.965,360.126z"/>
		</g>
	</g>
	<g>

			<ellipse transform="matrix(0.4057 -0.914 0.914 0.4057 -37.3612 502.3849)" style="fill:#463047;" cx="367.638" cy="279.922" rx="45.746" ry="45.746"/>
		<path style="fill:#FFFFFF;" d="M345.624,301.231l-1.181-0.454c-4.473-1.721-6.725-6.788-5.004-11.261l12.817-33.318
			c1.721-4.473,6.788-6.725,11.261-5.004l1.181,0.454c4.473,1.721,6.724,6.788,5.004,11.261l-12.817,33.318
			C355.164,300.7,350.097,302.952,345.624,301.231z"/>
		<path style="fill:#FFFFFF;" d="M371.334,311.122l-1.181-0.454c-4.473-1.721-6.725-6.788-5.004-11.261l12.817-33.318
			c1.721-4.473,6.788-6.725,11.261-5.004l1.181,0.454c4.473,1.721,6.725,6.788,5.004,11.261l-12.817,33.318
			C380.874,310.591,375.806,312.842,371.334,311.122z"/>
		<path style="fill:#614265;" d="M395.635,246.614c-0.935-2.491-3.135-3.84-5.289-5.197c-1.676-1.056-3.418-1.99-5.242-2.766
			c-1.934-0.824-4.021-1.627-6.089-2.013c-2.133-0.398-4.986-0.447-6.888,0.727c-1.624,1.002-1.244,3.082-0.155,4.24
			c0.433,0.46,0.975,0.686,1.534,0.947c-0.012-0.006,1.015,0.451,0.523,0.203c0.977,0.492,1.845,0.97,2.886,1.332
			c1.694,0.59,3.376,1.131,5.007,1.89c0.811,0.377,1.608,0.784,2.389,1.221c0.335,0.188,0.664,0.384,0.995,0.578
			c0.091,0.056,0.156,0.096,0.21,0.129c0.172,0.113,0.344,0.225,0.514,0.341c0.742,0.499,1.474,1.012,2.187,1.551
			c1.103,0.835,2.13,1.328,3.493,1.614C394.406,251.976,396.556,249.066,395.635,246.614z"/>
		<path style="fill:#614265;" d="M402.992,258.402c0.052-1.034,0.049-1.14-0.172-2.038c-0.096-0.68-0.317-1.387-0.757-1.919
			c-0.296-0.358-0.622-0.694-0.944-1.028c-0.119-0.123-0.243-0.242-0.373-0.355c-0.593-0.518-1.295-0.801-2.044-0.892
			c0.025,0.001,0.05,0.001,0.074,0.002c-0.428-0.125-0.856-0.216-1.316-0.117c-0.269,0.064-0.537,0.128-0.806,0.192
			c-0.4,0.137-0.74,0.359-1.019,0.665c-0.481,0.447-0.944,1.118-0.994,1.797c-0.018,0.249-0.056,0.666-0.03,0.916
			c0.026,0.247,0.107,0.52,0.185,0.771c0.1,0.522,0.301,1.02,0.645,1.542c0.018,0.028,0.033,0.057,0.051,0.085
			c0.255,0.558,0.561,1.031,0.973,1.444c0.002,0.002,0.004,0.004,0.005,0.007c0.101,0.148,0.216,0.281,0.332,0.412
			c-0.04-0.043-0.08-0.086-0.119-0.129c0.258,0.281,0.486,0.579,0.694,0.899c0.177,0.19,0.354,0.381,0.53,0.571
			c0.223,0.141,0.445,0.282,0.668,0.422c0.625,0.289,1.321,0.332,1.982,0.174c0.529-0.126,0.958-0.356,1.356-0.726
			c0.514-0.477,0.791-1.022,0.948-1.714C402.938,259.062,402.976,258.733,402.992,258.402z"/>
	</g>
	<g>
		<path style="fill:#463047;" d="M111.439,248.332l-11.91-19.028l12.614-7.895c4.275-2.676,5.583-8.362,2.907-12.637l-2.891-4.619
			c-2.676-4.275-8.362-5.583-12.637-2.908l-12.614,7.895l-7.262-11.602c-3.024-4.831-9.451-6.31-14.283-3.286l-2.594,1.624
			c-4.831,3.024-6.31,9.451-3.286,14.283l7.262,11.602l-12.614,7.895c-4.275,2.676-5.583,8.362-2.907,12.637l2.891,4.619
			c2.676,4.275,8.362,5.583,12.637,2.907l12.614-7.895l12.12,19.363c-10.819,12.987-12.641,31.946-3.185,47.053
			c11.779,18.819,36.583,24.526,55.402,12.747c18.819-11.779,24.526-36.583,12.747-55.402
			C146.743,250.18,128.196,243.587,111.439,248.332z M134.457,306.316c-10.661,6.673-24.713,3.44-31.385-7.221
			c-6.673-10.661-3.44-24.712,7.221-31.385c10.661-6.673,24.713-3.44,31.385,7.221C148.351,285.592,145.118,299.644,134.457,306.316
			z"/>
		<path style="fill:#614265;" d="M149.212,265.025c0.036-0.485,0.127-0.918,0.082-1.416c-0.144-1.619-0.944-3.062-1.945-4.3
			c-1.651-2.042-4.071-3.601-6.413-4.737c-2.551-1.237-5.238-2.14-7.937-2.991c-2.912-0.918-6.317-1.658-9.337-1.055
			c-1.685,0.336-1.988,2.509-0.958,3.63c1.874,2.039,4.7,3.199,7.242,4.194c1.133,0.444,2.312,0.782,3.458,1.192
			c1.251,0.448,1.997,0.729,2.972,1.189c1.065,0.503,2.104,1.069,3.08,1.728c0.181,0.122,0.359,0.248,0.536,0.376
			c0.041,0.033,0.09,0.072,0.136,0.112c0.413,0.355,0.809,0.725,1.194,1.11c0.34,0.34,0.669,0.693,1.023,1.017
			c0.217,0.199,0.439,0.404,0.664,0.595c0.01,0.008,1.095,0.844,0.564,0.429c0.641,0.501,1.167,0.853,1.924,1.154
			c-1.152-0.459,0.077,0.21,0.314,0.31c0.033,0.014,0.069,0.025,0.104,0.039c0.284,0.258,0.571,0.512,0.896,0.733
			c0.519,0.352,1.239,0.083,1.549-0.406c0.28-0.442,0.417-0.915,0.515-1.415c0.2-0.342,0.319-0.732,0.348-1.202
			C149.23,265.214,149.223,264.973,149.212,265.025z"/>
		<path style="fill:#614265;" d="M158.578,277.233c-0.088-0.823-0.18-1.687-0.484-2.464c-0.047-0.119-0.096-0.236-0.145-0.354
			c-0.315-0.758-0.442-0.971-0.964-1.62c-0.315-0.392-0.63-0.681-1.065-0.977c-0.203-0.139-0.417-0.275-0.637-0.386
			c-0.852-0.431-2.157-0.541-2.866,0.25c-0.555,0.618-0.76,1.175-0.821,2.027c-0.016,0.227-0.059,0.457-0.067,0.683
			c-0.026,0.745,0.139,1.512,0.316,2.23c0.363,1.472,0.781,3.432,2.159,4.231c0.402,0.435,0.898,0.776,1.537,0.747
			c0.581-0.026,1.089-0.259,1.503-0.66c0.1-0.097,0.198-0.225,0.293-0.355c0.289-0.21,0.543-0.469,0.754-0.829
			c0.353-0.604,0.354-0.964,0.441-1.646C158.571,277.813,158.611,277.533,158.578,277.233z"/>
		<path style="fill:#614265;" d="M77.88,202.995c0.272-0.577,0.345-1.204,0.164-1.835c-0.085-0.296-0.237-0.585-0.37-0.867
			c-0.202-0.426-0.467-0.788-0.764-1.157c-0.46-0.571-1.081-1.044-1.692-1.438c-0.608-0.392-1.299-0.695-2.012-0.821
			c-0.559-0.098-1.098-0.188-1.659-0.112c-0.229,0.031-0.434,0.057-0.651,0.125c-0.467,0.147-0.875,0.436-1.184,0.808
			c-0.419,0.368-0.692,0.85-0.692,1.44c0,0.551,0.295,1.214,0.785,1.536c0.019,0.021,0.031,0.046,0.051,0.067
			c0.248,0.25,0.465,0.369,0.725,0.482c-0.06-0.025-0.119-0.05-0.179-0.075c0.328,0.144,0.649,0.301,0.994,0.399
			c0.073,0.021,0.142,0.05,0.213,0.075c0.319,0.152,0.626,0.326,0.919,0.522c0.323,0.283,0.621,0.594,0.896,0.924
			c0.007,0.01,0.015,0.02,0.022,0.03c0.257,0.384,0.517,0.738,0.939,0.961c0.146,0.077,0.296,0.126,0.445,0.177
			c0.127,0.136,0.263,0.26,0.435,0.334c0.342,0.147,0.638,0.241,1.02,0.19c0.362-0.049,0.643-0.194,0.918-0.44
			c0.301-0.269,0.455-0.652,0.544-1.041C77.796,203.186,77.845,203.093,77.88,202.995z"/>
		<path style="fill:#614265;" d="M100.879,206.557l-0.395-0.512c-0.316-0.314-0.688-0.53-1.116-0.651
			c-0.308-0.121-0.658-0.18-0.987-0.183c-0.577-0.005-1.1,0.197-1.607,0.451c-0.269,0.135-0.574,0.252-0.821,0.423
			c-0.24,0.166-0.467,0.353-0.7,0.528c-0.447,0.337-0.911,0.654-1.251,1.096c-0.069,0.077-0.138,0.154-0.207,0.232
			c-0.055,0.061-0.11,0.122-0.164,0.184c-0.358,0.411-0.578,0.786-0.651,1.327c-0.08,0.592-0.025,1.302,0.436,1.743
			c0.423,0.404,0.879,0.683,1.472,0.763c0.417,0.056,0.859-0.016,1.291-0.095c0.424-0.009,0.823-0.145,1.217-0.29
			c0.382-0.141,0.764-0.279,1.14-0.438c0.371-0.157,0.701-0.357,1.047-0.562c0.473-0.281,0.898-0.643,1.189-1.117
			c0.174-0.284,0.298-0.621,0.362-0.949C101.26,207.861,101.251,207.134,100.879,206.557z"/>
		<path style="fill:#614265;" d="M107.613,203.443c-0.071-0.298-0.207-0.558-0.41-0.779c-0.161-0.249-0.376-0.446-0.643-0.59
			c-0.357-0.207-0.743-0.312-1.156-0.313c-0.273-0.002-0.508,0.036-0.749,0.125c-0.235,0.087-0.503,0.172-0.705,0.291
			c-0.43,0.252-0.58,0.473-0.866,0.871c-0.018,0.025-0.036,0.051-0.055,0.076c-0.032,0.044-0.064,0.089-0.096,0.133
			c-0.076,0.181-0.153,0.362-0.229,0.542c-0.027,0.201-0.054,0.402-0.081,0.604c0.027,0.201,0.054,0.402,0.081,0.604
			c0.07,0.296,0.206,0.553,0.407,0.772c0.101,0.171,0.237,0.307,0.407,0.407c0.142,0.141,0.309,0.238,0.501,0.292
			c0.177,0.103,0.368,0.154,0.573,0.155c0.302,0.067,0.604,0.054,0.906-0.041c0.488-0.129,0.975-0.295,1.33-0.685
			c0.04-0.044,0.078-0.089,0.117-0.134c0.017-0.019,0.033-0.038,0.05-0.057c0.366-0.424,0.421-0.53,0.617-1.055
			C107.722,204.255,107.722,203.848,107.613,203.443z"/>
	</g>
</g>
</svg>
