<?xml version="1.0" encoding="utf-8"?>
<!-- Generator: Adobe Illustrator 27.5.0, SVG Export Plug-In . SVG Version: 6.00 Build 0)  -->
<svg version="1.1" xmlns="http://www.w3.org/2000/svg" xmlns:xlink="http://www.w3.org/1999/xlink" x="0px" y="0px"
	 viewBox="0 0 500 500" style="enable-background:new 0 0 500 500;" xml:space="preserve">
<g id="BACKGROUND">
	<rect style="fill:#FFFFFF;" width="500" height="500"/>
</g>
<g id="OBJECTS">
	<g>
		<g>
			<path style="opacity:0.15;fill:#2C2255;" d="M162.848,60.726c-1.517,27.201-4.057,54.345-7.612,81.355
				c-1.062,8.066-8.093,13.994-16.225,13.727c-20.474-0.671-41.193-1.181-61.918-2.287c-9.968-0.532-17.96-8.368-18.747-18.32
				c-2.211-27.971-1.988-55.091-0.092-81.42c0.385-5.355,4.713-9.582,10.075-9.864c26.481-1.396,53.023-1.243,79.228-0.027
				C156.445,44.303,163.344,51.844,162.848,60.726z"/>
			<path style="fill:#B574FF;" d="M155.192,54.485c-0.784,27.232-2.592,54.435-5.418,81.531
				c-0.844,8.092-7.713,14.207-15.849,14.159c-20.485-0.119-41.21-0.071-61.957-0.618c-9.979-0.263-18.179-7.881-19.234-17.808
				c-2.964-27.901-3.471-55.017-2.285-81.388c0.241-5.363,4.453-9.705,9.806-10.132c26.434-2.109,52.97-2.671,79.199-2.161
				C148.348,38.24,155.448,45.592,155.192,54.485z"/>
			<path style="fill:#8842D6;" d="M141.177,141.279c-4.817,2.689-10.625,2.693-16.141,2.575
				c-17.912-0.381-35.813-1.299-53.671-2.751c-6.427-0.522-11.631-5.498-12.363-11.905c-3.422-29.959-4.123-58.967-2.714-87.847
				c-3.339,1.691-5.662,5.072-5.839,9.01c-1.186,26.371-0.679,53.487,2.285,81.388c1.055,9.927,9.255,17.545,19.234,17.808
				c20.747,0.547,41.472,0.499,61.957,0.618c8.136,0.048,15.005-6.067,15.849-14.159c0.18-1.729,0.345-3.46,0.517-5.191
				C148.068,135.08,145.3,138.977,141.177,141.279z"/>
		</g>
		<g>
			<path style="fill:#8842D6;" d="M80.604,115.128c-3.925-5.411-5.205-12.65-3.374-19.079c1.831-6.428,6.734-11.906,12.92-14.437
				c6.187-2.53,13.524-2.058,19.958,0.788c4.227-5.557,8.46-11.12,13.104-16.334c1.783-2.001,3.783-4.043,6.392-4.651
				c3.07-0.716,6.527,0.989,7.461,4.724c-7.202,8.676-14.404,17.352-21.662,26.752c-7.256-5.075-17.67-5.12-24.968-0.106
				C83.135,97.799,79.44,107.535,80.604,115.128z"/>
			<path style="fill:#8842D6;" d="M91.5,116.83c5.341,1.052,11.131-0.484,15.248-4.044c4.117-3.561,6.472-9.069,7.105-14.828
				c3.481,5.987,2.065,14.37-3.189,18.88C105.409,121.348,96.908,121.477,91.5,116.83z"/>
			<g>
				<path style="fill:#FFFFFF;" d="M137.235,64.325c-0.029-0.028-0.058-0.056-0.088-0.083c-2.479-2.336-6.375-2.258-8.729,0.203
					c-6.685,6.985-12.716,14.195-18.378,21.787c-6.141-3.289-13.62-3.505-19.677-0.677c-8.226,3.842-13.48,13.244-12.44,22.264
					c1.041,9.02,8.297,16.979,17.182,18.847c8.886,1.868,18.732-2.495,23.316-10.333c4.029-6.886,3.724-15.996-0.466-22.74
					c6.979-6.542,13.578-13.49,19.734-20.812C139.788,70.284,139.598,66.573,137.235,64.325z M113.17,111.023
					c-2.248,5.3-8.097,8.836-13.835,8.364c-5.737-0.472-10.929-4.917-12.28-10.513c-1.351-5.597,1.24-11.92,6.131-14.959
					c4.89-3.038,11.707-2.56,16.126,1.13C113.989,98.951,115.418,105.723,113.17,111.023z"/>
				<path style="fill:none;stroke:#2C2255;stroke-linecap:round;stroke-linejoin:round;stroke-miterlimit:10;" d="M137.235,64.325
					c-0.029-0.028-0.058-0.056-0.088-0.083c-2.479-2.336-6.375-2.258-8.729,0.203c-6.685,6.985-12.716,14.195-18.378,21.787
					c-6.141-3.289-13.62-3.505-19.677-0.677c-8.226,3.842-13.48,13.244-12.44,22.264c1.041,9.02,8.297,16.979,17.182,18.847
					c8.886,1.868,18.732-2.495,23.316-10.333c4.029-6.886,3.724-15.996-0.466-22.74c6.979-6.542,13.578-13.49,19.734-20.812
					C139.788,70.284,139.598,66.573,137.235,64.325z M113.17,111.023c-2.248,5.3-8.097,8.836-13.835,8.364
					c-5.737-0.472-10.929-4.917-12.28-10.513c-1.351-5.597,1.24-11.92,6.131-14.959c4.89-3.038,11.707-2.56,16.126,1.13
					C113.989,98.951,115.418,105.723,113.17,111.023z"/>
			</g>
		</g>
		<path style="opacity:0.09;fill:#2C2255;" d="M52.347,127.917c0.126,1.276,0.251,2.552,0.387,3.832
			c1.055,9.927,9.255,17.545,19.234,17.808c20.747,0.547,41.472,0.499,61.957,0.618c8.136,0.048,15.005-6.067,15.849-14.159
			c1.513-14.503,2.724-29.037,3.652-43.59C142.221,106.009,113.367,130.521,52.347,127.917z"/>
		<path style="fill:none;stroke:#2C2255;stroke-linecap:round;stroke-linejoin:round;stroke-miterlimit:10;" d="M155.192,54.485
			c-0.784,27.232-2.592,54.435-5.418,81.531c-0.844,8.092-7.713,14.207-15.849,14.159c-20.485-0.119-41.21-0.071-61.957-0.618
			c-9.979-0.263-18.179-7.881-19.234-17.808c-2.964-27.901-3.471-55.017-2.285-81.388c0.241-5.363,4.453-9.705,9.806-10.132
			c26.434-2.109,52.97-2.671,79.199-2.161C148.348,38.24,155.448,45.592,155.192,54.485z"/>
		<g>
			<path style="fill:#FFFFFF;" d="M78.749,57.398c-4.027,0.802-7.538,3.823-8.934,7.685c-0.9,2.491-0.965,5.251-2.073,7.658
				c-1.108,2.407-3.935,4.423-6.332,3.294c-1.481-0.698-2.258-2.336-2.734-3.903c-2.062-6.775-0.43-14.554,4.181-19.929
				c4.61-5.376,12.05-8.174,19.06-7.168c1.724,0.247,3.463,0.73,4.848,1.785c1.385,1.055,2.36,2.769,2.168,4.499
				c-0.184,1.645-1.38,3.042-2.813,3.868C84.686,56.013,83.071,56.537,78.749,57.398z"/>
			<path style="fill:#FFFFFF;" d="M65.094,81.739c-1.164-0.566-2.625-0.47-3.704,0.246c-1.778,1.179-2.146,4.009-0.723,5.599
				c1.424,1.59,4.284,1.531,5.637-0.119C67.657,85.814,67.256,82.79,65.094,81.739z"/>
		</g>
	</g>
	<g>
		<g>
			<path style="opacity:0.15;fill:#2C2255;" d="M280.126,45.961c-16.319-9.743-38.185-8.571-54.039,1.914
				c-15.852,10.486-25.385,29.445-25.551,48.45c-0.101,11.603,3.104,23.261,9.394,33.011c6.292,9.751,15.681,17.525,26.549,21.591
				c17.699,6.622,38.781,2.694,53.269-9.439c14.489-12.133,22.04-31.873,19.905-50.649
				C307.519,72.062,295.664,55.237,280.126,45.961z"/>
			<path style="fill:#FF5288;" d="M273.543,40.933c-16.319-9.743-38.185-8.571-54.039,1.914
				c-15.852,10.486-25.385,29.445-25.551,48.45c-0.101,11.603,3.104,23.261,9.394,33.011c6.292,9.751,15.681,17.525,26.549,21.591
				c17.699,6.622,38.781,2.694,53.269-9.439c14.489-12.133,22.04-31.873,19.905-50.649C300.936,67.035,289.081,50.21,273.543,40.933
				z"/>
			<path style="fill:#CC3564;" d="M257.759,141.517c-20.122,2.362-41.195-7.344-52.48-24.17
				c-10.066-15.01-11.924-35.075-5.235-51.811c-3.864,8.006-6.014,16.873-6.091,25.762c-0.101,11.603,3.104,23.261,9.394,33.011
				c6.292,9.751,15.681,17.525,26.549,21.591c17.699,6.622,38.781,2.694,53.269-9.439c5.974-5.002,10.745-11.31,14.168-18.297
				C287.815,130.673,273.349,139.687,257.759,141.517z"/>
		</g>
		<path style="fill:#D13B6A;" d="M259.791,87.989c2.639-6.156,1.026-13.884-3.854-18.471c-4.882-4.587-12.695-5.716-18.076-3.094
			c3.782-4.323,10.035-6.317,15.621-4.983c5.588,1.335,10.264,5.938,11.685,11.504C266.588,78.51,264.692,84.793,259.791,87.989z"/>
		<path style="fill:#CC3564;" d="M251.712,114.181c-0.081-4.217-0.163-8.491-0.2-12.873c7.247-1.284,13.515-7.016,15.44-14.12
			c-4.7,4.626-11.016,7.964-17.422,7.961c-6.407-0.002-12.72-3.344-16.324-8.641c-3.603-5.297-4.393-12.397-2.042-18.356
			c-4.932,4.845-6.08,12.833-3.615,19.623c2.464,6.791,8.469,12.183,15.804,13.546c0.073,4.183,0.146,8.369,0.315,12.549
			l-6.107-0.236c-1.643,0.625-2.331,2.788-1.705,4.432c0.626,1.643,2.245,2.745,3.944,3.203c1.4,0.38,2.864,0.385,4.32,0.327
			c0.125,1.614,0.267,3.227,0.444,4.837c0.218,1.973,0.526,4.056,1.79,5.587c1.263,1.53,3.815,2.165,5.574,0
			c0.011-3.592-0.029-7.185-0.087-10.805c1.132-0.057,2.264-0.114,3.396-0.171c2.061-0.103,4.207-0.23,6.004-1.245
			c1.797-1.015,3.111-3.205,2.435-5.155L251.712,114.181z"/>
		<path style="fill:#FFFFFF;" d="M228.596,56.075c-5.242,2.282-9.622,6.484-12.12,11.626c-0.788,1.622-1.417,3.367-2.622,4.709
			c-1.204,1.343-3.214,2.187-4.841,1.41c-1.298-0.619-2-2.113-2.06-3.548c-0.059-1.437,0.413-2.838,0.923-4.183
			c1.673-4.419,3.84-8.712,6.955-12.266c3.114-3.554,7.248-6.34,11.884-7.253c1.802-0.354,3.739-0.409,5.405,0.364
			c1.665,0.774,2.963,2.541,2.735,4.364C234.561,53.65,231.961,54.609,228.596,56.075z"/>
		<g>
			<path style="fill:#FFFFFF;" d="M265.501,91.045c4.993-5.701,6.785-14.093,4.36-21.272c-2.427-7.18-9.253-11.768-17.099-13.776
				c-6.813-1.744-14.414,0.801-19.194,5.96c-4.78,5.158-6.755,12.636-5.67,19.585c0.735,4.715,2.875,9.303,6.457,12.457
				c2.956,2.602,6.774,4.126,10.679,4.639c0.206,0.027,0.413,0.04,0.62,0.061c0.091,4.16,0.233,8.319,0.438,12.479
				c-2.126,0.222-4.252,0.467-6.386,0.765c-2.002,0.279-3.396,2.103-3.171,4.111c0.003,0.023,0.006,0.046,0.008,0.07
				c0.217,1.871,1.842,3.273,3.725,3.237c2.102-0.04,4.203-0.106,6.304-0.185c0.259,3.634,0.57,7.27,0.955,10.908
				c0.248,2.34,2.356,4.021,4.698,3.801c0.028-0.003,0.056-0.006,0.083-0.008c2.239-0.223,3.937-2.15,3.869-4.399
				c-0.109-3.589-0.279-7.177-0.479-10.762c1.889-0.121,3.777-0.255,5.664-0.408c1.893-0.153,3.333-1.733,3.385-3.632
				c0.01-0.348,0.01-0.694,0.001-1.038c-0.052-2.051-1.821-3.638-3.869-3.543c-1.928,0.089-3.832,0.195-5.723,0.317
				c-0.311-4.135-0.685-8.265-1.116-12.389C258.437,96.861,262.505,94.467,265.501,91.045z M263.297,81.237
				C261.44,87,255.717,91.3,249.663,91.444c-6.053,0.144-11.989-3.903-14.035-9.601s-0.024-12.617,4.791-16.288
				c4.814-3.672,12.048-3.781,16.95-0.228C262.691,69.183,265.154,75.474,263.297,81.237z"/>
			<path style="fill:none;stroke:#2C2255;stroke-linecap:round;stroke-linejoin:round;stroke-miterlimit:10;" d="M265.501,91.045
				c4.993-5.701,6.785-14.093,4.36-21.272c-2.427-7.18-9.253-11.768-17.099-13.776c-6.813-1.744-14.414,0.801-19.194,5.96
				c-4.78,5.158-6.755,12.636-5.67,19.585c0.735,4.715,2.875,9.303,6.457,12.457c2.956,2.602,6.774,4.126,10.679,4.639
				c0.206,0.027,0.413,0.04,0.62,0.061c0.091,4.16,0.233,8.319,0.438,12.479c-2.126,0.222-4.252,0.467-6.386,0.765
				c-2.002,0.279-3.396,2.103-3.171,4.111c0.003,0.023,0.006,0.046,0.008,0.07c0.217,1.871,1.842,3.273,3.725,3.237
				c2.102-0.04,4.203-0.106,6.304-0.185c0.259,3.634,0.57,7.27,0.955,10.908c0.248,2.34,2.356,4.021,4.698,3.801
				c0.028-0.003,0.056-0.006,0.083-0.008c2.239-0.223,3.937-2.15,3.869-4.399c-0.109-3.589-0.279-7.177-0.479-10.762
				c1.889-0.121,3.777-0.255,5.664-0.408c1.893-0.153,3.333-1.733,3.385-3.632c0.01-0.348,0.01-0.694,0.001-1.038
				c-0.052-2.051-1.821-3.638-3.869-3.543c-1.928,0.089-3.832,0.195-5.723,0.317c-0.311-4.135-0.685-8.265-1.116-12.389
				C258.437,96.861,262.505,94.467,265.501,91.045z M263.297,81.237C261.44,87,255.717,91.3,249.663,91.444
				c-6.053,0.144-11.989-3.903-14.035-9.601s-0.024-12.617,4.791-16.288c4.814-3.672,12.048-3.781,16.95-0.228
				C262.691,69.183,265.154,75.474,263.297,81.237z"/>
		</g>
		<path style="opacity:0.09;fill:#2C2255;" d="M303.07,85.812c-0.701-6.171-2.458-12.128-5.045-17.679
			c-6.72,19.647-21.443,36.44-40.085,45.597c-17.597,8.646-38.447,10.374-57.707,5.095c0.937,1.882,1.973,3.715,3.114,5.483
			c6.292,9.751,15.681,17.525,26.549,21.591c17.699,6.622,38.781,2.694,53.269-9.439C297.654,124.328,305.205,104.588,303.07,85.812
			z"/>
		<path style="fill:none;stroke:#2C2255;stroke-linecap:round;stroke-linejoin:round;stroke-miterlimit:10;" d="M273.543,40.933
			c-16.319-9.743-38.185-8.571-54.039,1.914c-15.852,10.486-25.385,29.445-25.551,48.45c-0.101,11.603,3.104,23.261,9.394,33.011
			c6.292,9.751,15.681,17.525,26.549,21.591c17.699,6.622,38.781,2.694,53.269-9.439c14.489-12.133,22.04-31.873,19.905-50.649
			C300.936,67.035,289.081,50.21,273.543,40.933z"/>
	</g>
	<g>
		<g>
			<path style="opacity:0.15;fill:#2C2255;" d="M444.516,160.496c-25.646,1.298-51.371,1.035-76.985-0.789
				c-8.458-0.602-15.214-7.274-15.891-15.726c-2.331-29.074-2.276-58.427,0.448-87.429c0.511-5.435,4.955-9.666,10.405-9.949
				c27.312-1.42,54.791-1.287,83.038,0.568c9.782,0.642,17.526,8.591,17.842,18.389c0.873,27.178-0.248,54.27-3.164,80.249
				C459.303,153.894,452.64,160.085,444.516,160.496z"/>
			<path style="fill:#7474FF;" d="M438.139,151.928c-25.611,1.862-51.336,2.165-76.984,0.905
				c-8.469-0.416-15.37-6.937-16.233-15.372c-2.97-29.016-3.561-58.363-1.476-87.418c0.391-5.445,4.741-9.773,10.184-10.176
				c27.274-2.021,54.749-2.492,83.03-1.259c9.794,0.427,17.711,8.203,18.242,17.992c1.471,27.152,0.946,54.262-1.397,80.299
				C452.776,145.002,446.251,151.338,438.139,151.928z"/>
			<path style="fill:#5353DB;" d="M438.139,151.928c8.113-0.59,14.638-6.926,15.366-15.029c0.15-1.662,0.27-3.34,0.405-5.011
				c-2.878,4.556-7.016,8.323-11.871,10.668c-7.881,3.807-16.987,3.837-25.739,3.791l-48.269-0.254
				c-7.316-0.038-13.438-5.522-14.332-12.782c-3.408-27.682-5.089-54.656-3.866-81.569c0.114-2.512,0.261-5.066,1.118-7.43
				c0.683-1.885,1.896-3.642,3.457-4.497c-0.259,0.019-0.518,0.033-0.777,0.052c-5.443,0.403-9.793,4.731-10.184,10.176
				c-2.085,29.055-1.494,58.402,1.476,87.418c0.863,8.435,7.764,14.956,16.233,15.372
				C386.803,154.093,412.528,153.79,438.139,151.928z"/>
		</g>
		<g>
			<path style="fill:#FFFFFF;" d="M375.35,46.865c-2.353-0.238-4.723-0.477-7.076-0.255c-2.355,0.222-4.72,0.937-6.561,2.421
				c-2.893,2.332-4.071,6.14-5.051,9.725c-0.774,2.827-1.525,5.731-1.269,8.651c0.17,1.935,1.095,4.125,2.994,4.537
				c2.076,0.449,3.913-1.531,4.65-3.524c0.735-1.994,0.911-4.24,2.145-5.97c1.245-1.745,3.365-2.653,5.456-3.125
				c2.092-0.472,4.259-0.595,6.317-1.195c2.058-0.601,4.087-1.797,4.99-3.743c0.749-1.615,0.58-3.62-0.429-5.087
				C380.507,47.833,378.679,47.202,375.35,46.865z"/>
			<path style="fill:#FFFFFF;" d="M362.093,78.86c-1.024-1.034-2.735-1.306-4.03-0.642c-1.294,0.665-2.071,2.213-1.828,3.648
				c0.253,1.502,1.638,2.756,3.162,2.785c1.368,0.026,2.661-0.893,3.249-2.128C363.235,81.288,363.099,79.875,362.093,78.86z"/>
		</g>
		<g>
			<g>
				<path style="fill:#5353DB;" d="M407.663,95.257c0.28,5.744-2.128,11.563-6.384,15.43c-4.257,3.867-10.279,5.708-16.333,5.427
					c3.685,3.916,9.467,5.73,14.729,4.619c5.26-1.112,9.815-5.11,11.6-10.182C413.06,105.48,412.014,99.51,407.663,95.257z"/>
				<path style="fill:#5353DB;" d="M401.766,63.848c-1.239,1.094-2.626,2.343-3.075,3.935c-0.449,1.591-0.15,3.461,1.048,4.601
					c0.983,0.936,2.392,1.258,3.74,1.418c2.511,0.297,5.072,0.16,7.646,0.075c-2.498,2.451-4.997,4.903-7.69,7.828
					c-6.717-3.94-15.503-4.076-22.339-0.346c-6.835,3.73-11.475,11.193-11.795,18.973c-0.32,7.78,3.691,15.599,10.252,18.523
					c-3.62-5.029-4.765-11.756-3.013-17.699c1.753-5.943,6.364-10.973,12.133-13.234c5.77-2.261,12.57-1.704,17.894,1.466
					l18.626-23.611L401.766,63.848z"/>
				<path style="fill:#5353DB;" d="M419.192,77.051c0.067,1.964-0.34,3.912-0.447,5.875c-0.108,1.962,0.062,5.546,1.247,7.114
					c1.183,1.569,3.542,2.367,5.2,1.312l-0.202-19.731L419.192,77.051z"/>
			</g>
			<g>
				<path style="fill:#FFFFFF;" d="M430.992,66.756c-0.096-2.68-2.321-4.811-5.002-4.835c-8.018-0.074-15.58,0.484-23.019,1.538
					c-1.902,0.269-3.295,1.927-3.206,3.845l0.003,0.072c0.093,2.007,1.777,3.573,3.787,3.508c5.353-0.173,8.169-0.287,13.695-0.508
					c-4.628,4.67-7.725,9.397-11.823,14.247c-6.711-3.489-15.222-3.569-21.837,0.175c-8.193,4.637-12.86,14.781-11.05,24.019
					c1.809,9.237,9.957,16.872,19.293,18.077c9.336,1.204,19.155-4.113,23.249-12.589c3.816-7.899,2.604-18.217-3.744-25.15
					l10.988-14.372c-0.322,4.299-0.466,8.739-0.342,13.191c0.052,1.853,1.574,3.435,3.428,3.427c0.158,0,0.317-0.005,0.477-0.013
					c1.541-0.075,2.867-1.172,3.202-2.678C430.701,81.475,431.257,74.102,430.992,66.756z M407.223,111.704
					c-3.254,5.254-10.075,8.003-16.07,6.501c-5.996-1.502-10.709-7.12-11.173-13.283c-0.465-6.163,3.336-12.412,9.011-14.861
					c5.674-2.448,12.81-0.938,17.027,3.58C410.585,98.533,410.478,106.45,407.223,111.704z"/>
				<path style="fill:none;stroke:#2C2255;stroke-linecap:round;stroke-linejoin:round;stroke-miterlimit:10;" d="M430.992,66.756
					c-0.096-2.68-2.321-4.811-5.002-4.835c-8.018-0.074-15.58,0.484-23.019,1.538c-1.902,0.269-3.295,1.927-3.206,3.845l0.003,0.072
					c0.093,2.007,1.777,3.573,3.787,3.508c5.353-0.173,8.169-0.287,13.695-0.508c-4.628,4.67-7.725,9.397-11.823,14.247
					c-6.711-3.489-15.222-3.569-21.837,0.175c-8.193,4.637-12.86,14.781-11.05,24.019c1.809,9.237,9.957,16.872,19.293,18.077
					c9.336,1.204,19.155-4.113,23.249-12.589c3.816-7.899,2.604-18.217-3.744-25.15l10.988-14.372
					c-0.322,4.299-0.466,8.739-0.342,13.191c0.052,1.853,1.574,3.435,3.428,3.427c0.158,0,0.317-0.005,0.477-0.013
					c1.541-0.075,2.867-1.172,3.202-2.678C430.701,81.475,431.257,74.102,430.992,66.756z M407.223,111.704
					c-3.254,5.254-10.075,8.003-16.07,6.501c-5.996-1.502-10.709-7.12-11.173-13.283c-0.465-6.163,3.336-12.412,9.011-14.861
					c5.674-2.448,12.81-0.938,17.027,3.58C410.585,98.533,410.478,106.45,407.223,111.704z"/>
			</g>
		</g>
		<path style="opacity:0.09;fill:#2C2255;" d="M361.155,152.833c25.648,1.26,51.373,0.957,76.984-0.905
			c8.113-0.59,14.638-6.926,15.366-15.029c1.768-19.646,2.497-39.903,2.119-60.328c-12.601,17.559-28.997,31.872-47.761,41.74
			c-19.422,10.215-41.329,15.644-63.271,15.754c0.109,1.132,0.214,2.264,0.33,3.395
			C345.785,145.896,352.686,152.417,361.155,152.833z"/>
		<path style="fill:none;stroke:#2C2255;stroke-linecap:round;stroke-linejoin:round;stroke-miterlimit:10;" d="M438.139,151.928
			c-25.611,1.862-51.336,2.165-76.984,0.905c-8.469-0.416-15.37-6.937-16.233-15.372c-2.97-29.016-3.561-58.363-1.476-87.418
			c0.391-5.445,4.741-9.773,10.184-10.176c27.274-2.021,54.749-2.492,83.03-1.259c9.794,0.427,17.711,8.203,18.242,17.992
			c1.471,27.152,0.946,54.262-1.397,80.299C452.776,145.002,446.251,151.338,438.139,151.928z"/>
	</g>
	<g>
		<g>
			<path style="opacity:0.15;fill:#2C2255;" d="M303.592,454.313c-28.082,2.29-56.471,0.805-84.16-4.401
				c-9.006-1.692-15.635-9.471-15.723-18.635c-0.203-21.063,1.008-41.793,3.523-62.918c1.052-8.842,8.09-15.812,16.948-16.731
				c23.325-2.423,46.994-3.005,71.43-1.701c9.565,0.511,17.541,7.568,19.013,17.034c3.772,24.258,4.637,48.924,3.003,72.998
				C317.111,447.554,311.18,453.694,303.592,454.313z"/>
			<path style="fill:#55C9F2;" d="M298.127,446.047c-27.916,3.811-56.344,3.87-84.275,0.175
				c-9.084-1.201-16.127-8.608-16.712-17.754c-1.346-21.021-1.262-41.786,0.102-63.017c0.571-8.887,7.22-16.228,16.015-17.627
				c23.159-3.686,46.762-5.552,71.232-5.576c9.579-0.009,17.926,6.604,19.91,15.977c5.084,24.018,7.286,48.601,6.962,72.727
				C311.259,438.564,305.67,445.017,298.127,446.047z"/>
			<path style="fill:#31A9D4;" d="M311.391,426.24c-1.708,4.17-5.432,7.603-9.61,9.53c-5.674,2.617-12.082,3.012-18.319,3.366
				c-20.927,1.189-42.001,2.371-62.844,0.61c-7.634-0.645-13.815-6.46-14.831-14.054c-2.715-20.278-2.584-40.621-1.409-60.863
				c0.299-5.153,0.94-10.81,3.057-15.062c-5.771,3.026-9.756,8.9-10.192,15.685c-1.364,21.231-1.449,41.995-0.102,63.017
				c0.585,9.146,7.627,16.553,16.712,17.754c27.931,3.695,56.359,3.636,84.275-0.175c7.543-1.03,13.132-7.483,13.234-15.095
				C311.382,429.383,311.391,427.812,311.391,426.24z"/>
		</g>
		<path style="fill:#FFFFFF;" d="M215.167,359.728c-4.123,5.217-6.252,11.971-5.864,18.609c0.122,2.095,0.519,4.258,1.746,5.961
			c0.453,0.629,1.075,1.214,1.846,1.3c1.261,0.14,2.253-1.084,2.707-2.269c1.512-3.948,0.051-8.69,2.041-12.418
			c1.092-2.044,3.057-3.446,4.65-5.129c1.593-1.684,2.893-4.047,2.167-6.248c-0.515-1.56-2.06-2.702-3.698-2.819
			C219.12,356.598,217.166,357.198,215.167,359.728z"/>
		<g>
			<g>
				<path style="fill:#31A9D4;" d="M269.913,365.479l-32.949-0.852c-1.448,1.12-1.689,3.364-0.84,4.985
					c0.849,1.621,2.557,2.654,4.329,3.109c1.773,0.455,3.631,0.408,5.46,0.358c0.451-0.012,0.903-0.025,1.354-0.037
					c0.022,2.704,0.023,5.55-0.031,8.775c-7.255,2.303-13.162,8.46-15.162,15.804c-2,7.344-0.033,15.647,5.053,21.311
					c5.085,5.664,13.126,8.514,19.673,5.893c-5.926-0.918-11.345-4.688-14.266-9.928c-2.919-5.238-3.277-11.83-0.941-17.353
					c2.335-5.524,7.314-9.859,13.107-11.413l-1.047-13.265c1.978-0.054,3.957-0.109,5.935-0.163
					c2.432-0.067,4.962-0.158,7.121-1.277C268.872,370.305,270.538,367.831,269.913,365.479z"/>
				<path style="fill:#31A9D4;" d="M249.649,393.158c3.337-0.281,8.054,2.021,9.939,4.789c1.885,2.768,2.388,6.347,1.72,9.629
					c-0.666,3.283-2.43,6.276-4.095,9.674c4.858,0.183,9.549-3.211,11.192-7.786c1.642-4.576,0.306-9.995-3.048-13.513
					C262.003,392.432,255.471,390.357,249.649,393.158z"/>
			</g>
			<g>
				<path style="fill:#FFFFFF;" d="M266.444,385.844c-2.518-1.361-5.274-2.186-8.056-2.475l-0.536-13.797
					c3.154-0.204,6.303-0.494,9.439-0.886c2.095-0.261,3.651-2.091,3.492-4.196c-0.002-0.025-0.004-0.048-0.006-0.073
					c-0.154-1.97-1.714-3.535-3.685-3.673c-9.413-0.659-18.848-0.006-28.09,1.951c-1.91,0.405-3.234,2.253-2.835,4.165
					c0.007,0.032,0.013,0.062,0.02,0.093c0.339,1.553,1.729,2.669,3.316,2.75c3.568,0.183,7.142,0.241,10.714,0.183
					c0.038,4.703,0.24,9.403,0.606,14.092c-6.307,1.702-11.86,6.275-14.46,12.293c-3.299,7.636-1.663,17.151,3.997,23.247
					c5.66,6.096,15.028,8.431,22.888,5.706c7.86-2.724,13.772-10.357,14.445-18.648
					C278.366,398.286,273.761,389.801,266.444,385.844z M265.877,405.488c-0.532,4.668-4.288,8.792-8.888,9.749
					c-4.6,0.957-9.693-1.33-12.026-5.409c-2.333-4.079-1.72-9.635,1.451-13.101c3.173-3.467,8.657-4.569,12.919-2.59
					C263.608,396.121,266.408,400.819,265.877,405.488z"/>
				<path style="fill:none;stroke:#2C2255;stroke-linecap:round;stroke-linejoin:round;stroke-miterlimit:10;" d="M266.444,385.844
					c-2.518-1.361-5.274-2.186-8.056-2.475l-0.536-13.797c3.154-0.204,6.303-0.494,9.439-0.886c2.095-0.261,3.651-2.091,3.492-4.196
					c-0.002-0.025-0.004-0.048-0.006-0.073c-0.154-1.97-1.714-3.535-3.685-3.673c-9.413-0.659-18.848-0.006-28.09,1.951
					c-1.91,0.405-3.234,2.253-2.835,4.165c0.007,0.032,0.013,0.062,0.02,0.093c0.339,1.553,1.729,2.669,3.316,2.75
					c3.568,0.183,7.142,0.241,10.714,0.183c0.038,4.703,0.24,9.403,0.606,14.092c-6.307,1.702-11.86,6.275-14.46,12.293
					c-3.299,7.636-1.663,17.151,3.997,23.247c5.66,6.096,15.028,8.431,22.888,5.706c7.86-2.724,13.772-10.357,14.445-18.648
					C278.366,398.286,273.761,389.801,266.444,385.844z M265.877,405.488c-0.532,4.668-4.288,8.792-8.888,9.749
					c-4.6,0.957-9.693-1.33-12.026-5.409c-2.333-4.079-1.72-9.635,1.451-13.101c3.173-3.467,8.657-4.569,12.919-2.59
					C263.608,396.121,266.408,400.819,265.877,405.488z"/>
			</g>
		</g>
		<path style="opacity:0.09;fill:#2C2255;" d="M197.336,430.218c1.311,8.327,8.019,14.881,16.516,16.004
			c27.931,3.695,56.359,3.636,84.275-0.175c7.543-1.03,13.132-7.483,13.234-15.095c0.281-20.928-1.342-42.198-5.094-63.145
			c-10.277,20.774-25.388,38.824-44.626,50.074C242.433,429.114,219.333,433.435,197.336,430.218z"/>
		<path style="fill:none;stroke:#2C2255;stroke-linecap:round;stroke-linejoin:round;stroke-miterlimit:10;" d="M298.127,446.047
			c-27.916,3.811-56.344,3.87-84.275,0.175c-9.084-1.201-16.127-8.608-16.712-17.754c-1.346-21.021-1.262-41.786,0.102-63.017
			c0.571-8.887,7.22-16.228,16.015-17.627c23.159-3.686,46.762-5.552,71.232-5.576c9.579-0.009,17.926,6.604,19.91,15.977
			c5.084,24.018,7.286,48.601,6.962,72.727C311.259,438.564,305.67,445.017,298.127,446.047z"/>
	</g>
	<g>
		<g>
			<path style="opacity:0.15;fill:#2C2255;" d="M316.488,256.185c3.925-5.499,4.212-12.791,0.848-18.651
				c-5.895-10.267-13.605-19.511-22.097-27.804c-6.123-5.982-12.661-11.503-19.379-16.812c-10.028-7.925-24.203-7.897-34.207,0.059
				c-13.698,10.894-26.326,22.618-38.44,34.989c-4.952,5.058-5.882,12.853-2.136,18.858c13.207,21.173,29.489,40.484,49.152,56.981
				c6.259,5.251,15.364,5.19,21.679,0.006C288.611,290.097,303.62,274.216,316.488,256.185z"/>
			<path style="fill:#BAB6CF;" d="M308.185,250.418c3.723-5.638,3.745-12.935,0.17-18.669
				c-6.264-10.046-14.305-19.004-23.093-26.983c-6.336-5.755-13.07-11.036-19.977-16.098c-10.31-7.555-24.474-7.013-34.182,1.301
				c-13.293,11.385-25.488,23.559-37.144,36.362c-4.765,5.234-5.412,13.058-1.45,18.923c13.967,20.68,30.939,39.387,51.189,55.159
				c6.445,5.021,15.543,4.628,21.665-0.781C281.558,285.32,295.98,268.905,308.185,250.418z"/>
			<path style="fill:#9993B8;" d="M250.916,296.64c-6.714-2.936-12.266-7.975-17.439-13.165
				c-11.422-11.455-21.634-24.054-31.091-37.191c-3.869-5.375-3.594-12.681,0.674-17.744c8.035-9.532,16.618-18.608,25.58-27.251
				c4.93-4.754,10.039-9.429,16.004-12.792c3.497-1.972,7.337-3.451,11.222-4.262c-8.5-2.18-17.781-0.244-24.762,5.735
				c-13.293,11.385-25.488,23.559-37.144,36.362c-4.765,5.234-5.412,13.058-1.45,18.923c13.967,20.68,30.939,39.387,51.189,55.159
				c6.445,5.021,15.543,4.628,21.665-0.781c0.404-0.357,0.793-0.73,1.194-1.09C261.415,299.635,255.793,298.773,250.916,296.64z"/>
		</g>
		<g>
			<path style="fill:#FFFFFF;" d="M233.851,204.365c-5.01,3.974-10.124,8.373-12.298,14.386c-0.4,1.108-0.684,2.369-0.181,3.432
				c0.622,1.317,2.294,1.863,3.73,1.621c1.436-0.242,2.685-1.097,3.859-1.959c5.136-3.772,9.869-8.153,13.641-13.289
				c0.727-0.989,1.429-2.028,1.773-3.207c0.345-1.179,0.285-2.532-0.426-3.534c-1.018-1.434-3.103-1.752-4.777-1.213
				C237.496,201.141,236.238,202.47,233.851,204.365z"/>
			<path style="fill:#FFFFFF;" d="M216.094,229.191c-1.69-0.842-3.997-0.003-4.774,1.718c-0.775,1.722,0.106,3.99,1.833,4.756
				c1.726,0.767,3.984-0.081,4.798-1.785C218.765,232.176,217.935,230.108,216.094,229.191z"/>
		</g>
		<g>
			<g>
				<path style="fill:#9993B8;" d="M272.773,252.051c-0.791,5.362-4.44,10.13-9.233,12.661c-4.793,2.532-10.597,2.899-15.804,1.395
					c-6.789-1.962-12.585-7.103-15.343-13.608c-2.757-6.506-2.419-14.247,0.893-20.488c3.313-6.242,9.534-10.86,16.638-11.296
					c-5.875,4.417-10.354,11.028-11.058,18.344c-0.705,7.316,2.889,15.171,9.464,18.455c3.686,1.841,8.029,2.177,12.055,1.3
					C264.412,257.938,268.129,255.904,272.773,252.051z"/>
				<path style="fill:#9993B8;" d="M259.491,254.156c1.843-3.502,3.378-7.255,3.678-11.203c0.301-3.947-0.768-8.133-3.539-10.961
					c-3.142-3.206-8.035-4.216-12.06-3.781c4.691-2.659,10.767-2.818,15.477-0.194c4.711,2.624,7.804,8.02,7.451,13.401
					C270.145,246.799,266.238,251.831,259.491,254.156z"/>
			</g>
			<g>
				<path style="fill:#FFFFFF;" d="M265.483,221.421c-6.124-3.529-14.116-3.036-20.253,0.475
					c-8.768,5.013-13.601,16.206-10.914,25.941c2.687,9.736,12.854,16.924,22.9,15.883c9.341-0.968,17.374-8.72,19.345-17.903
					C278.531,236.635,274.657,226.708,265.483,221.421z M257.583,252.944c-5.69,1.07-11.901-2.305-14.101-7.661
					c-2.201-5.355-0.154-12.12,4.644-15.36c4.799-3.239,11.839-2.606,15.982,1.436c3.157,3.079,3.887,6.294,3.832,9.327
					C267.835,246.475,263.273,251.874,257.583,252.944z"/>
				<path style="fill:none;stroke:#2C2255;stroke-linecap:round;stroke-linejoin:round;stroke-miterlimit:10;" d="M265.483,221.421
					c-6.124-3.529-14.116-3.036-20.253,0.475c-8.768,5.013-13.601,16.206-10.914,25.941c2.687,9.736,12.854,16.924,22.9,15.883
					c9.341-0.968,17.374-8.72,19.345-17.903C278.531,236.635,274.657,226.708,265.483,221.421z M257.583,252.944
					c-5.69,1.07-11.901-2.305-14.101-7.661c-2.201-5.355-0.154-12.12,4.644-15.36c4.799-3.239,11.839-2.606,15.982,1.436
					c3.157,3.079,3.887,6.294,3.832,9.327C267.835,246.475,263.273,251.874,257.583,252.944z"/>
			</g>
		</g>
		<path style="opacity:0.09;fill:#2C2255;" d="M308.355,231.749c-5.594-8.973-12.611-17.072-20.307-24.386
			c-18.915,29.191-47.601,50.952-79.524,59.099c10.411,12.365,22.107,23.772,35.175,33.95c6.445,5.021,15.543,4.628,21.665-0.781
			c16.195-14.311,30.617-30.727,42.822-49.213C311.908,244.78,311.93,237.483,308.355,231.749z"/>
		<path style="fill:none;stroke:#2C2255;stroke-linecap:round;stroke-linejoin:round;stroke-miterlimit:10;" d="M308.185,250.418
			c3.723-5.638,3.745-12.935,0.17-18.669c-6.264-10.046-14.305-19.004-23.093-26.983c-6.336-5.755-13.07-11.036-19.977-16.098
			c-10.31-7.555-24.474-7.013-34.182,1.301c-13.293,11.385-25.488,23.559-37.144,36.362c-4.765,5.234-5.412,13.058-1.45,18.923
			c13.967,20.68,30.939,39.387,51.189,55.159c6.445,5.021,15.543,4.628,21.665-0.781C281.558,285.32,295.98,268.905,308.185,250.418
			z"/>
	</g>
	<g>
		<g>
			<path style="opacity:0.15;fill:#2C2255;" d="M462.432,215.829c1.351,23.472,0.532,48.088-2.34,71.514
				c-1.17,9.543-9.181,16.786-18.791,17.101c-23.089,0.756-46.304,0.217-69.186-1.524c-11.875-0.903-21.277-10.392-21.96-22.282
				c-1.431-24.906,0.658-50.16,4.015-72.449c0.84-5.58,5.459-9.797,11.086-10.222c27.836-2.098,55.49-0.635,83.22,2.873
				C456.137,201.809,461.988,208.12,462.432,215.829z"/>
			<path style="fill:#B574FF;" d="M454.028,206.874c1.981,23.427,1.824,48.056-0.418,71.551
				c-0.913,9.571-8.727,17.027-18.325,17.599c-23.06,1.376-46.282,1.462-69.202,0.336c-11.895-0.584-21.549-9.817-22.55-21.684
				c-2.1-24.859-0.69-50.16,2.067-72.531c0.69-5.6,5.194-9.94,10.808-10.516c27.769-2.845,55.453-2.126,83.267,0.636
				C447.358,193.028,453.376,199.18,454.028,206.874z"/>
			<path style="fill:#8842D6;" d="M454.487,267.377c-2.858,7.83-8.372,14.679-15.968,17.928c-6.674,2.852-14.188,2.749-21.444,2.599
				l-45.238-0.936c-9.279-0.193-16.896-7.467-17.439-16.731c-1.254-21.338-1.301-42.122-0.725-62.875
				c0.088-3.141,0.196-6.326,1.125-9.328c0.928-3.002,2.792-5.847,6.009-6.356c-0.206-0.146-0.42-0.276-0.634-0.405
				c-1.255,0.114-2.51,0.227-3.766,0.356c-5.613,0.576-10.118,4.916-10.808,10.516c-2.757,22.371-4.166,47.672-2.067,72.531
				c1.001,11.867,10.655,21.1,22.55,21.684c22.92,1.126,46.142,1.04,69.202-0.336c9.598-0.573,17.412-8.028,18.325-17.599
				C453.959,274.769,454.239,271.079,454.487,267.377z"/>
		</g>
		<path style="fill:#FFFFFF;" d="M373.258,198.185c-5.151,1.882-9.465,5.944-11.656,10.972c-2.189,5.028-2.224,10.953-0.092,16.006
			c0.375,0.887,0.937,1.848,1.882,2.032c1.241,0.242,2.264-1,2.704-2.185c1.353-3.647,0.23-8.02,2.209-11.37
			c0.885-1.498,2.303-2.607,3.785-3.52c1.482-0.913,3.062-1.668,4.488-2.664c1.427-0.997,2.724-2.285,3.336-3.913
			c0.612-1.628,0.414-3.64-0.815-4.873C377.869,197.439,375.556,197.346,373.258,198.185z"/>
		<g>
			<g>
				<path style="fill:#8842D6;" d="M403.962,270.901c2.591-3.131,4.73-6.717,5.685-10.666c0.956-3.951,0.645-8.295-1.37-11.824
					c-2.017-3.529-5.864-6.087-10.41-6.543c5.165-1.378,11.019,0.252,14.728,4.099c3.71,3.847,5.124,9.758,3.558,14.869
					C414.587,265.944,410.104,270.048,403.962,270.901z"/>
				<path style="fill:#8842D6;" d="M402.896,277.907c-7.526,2.878-16.681,0.285-21.911-5.845
					c-5.229-6.129-6.418-15.287-3.331-22.728c3.088-7.442,10.159-12.978,17.957-14.913c-1.611,0.167-3.291,0.326-4.807-0.241
					c-1.518-0.568-2.808-2.096-2.536-3.693c0.181-1.065,0.982-1.904,1.773-2.639c1.59-1.477,3.296-2.826,4.615-4.005
					c-1.548-0.842-3.116-1.698-4.398-2.907c-1.283-1.209-2.27-2.832-2.344-4.592c-0.075-1.762,0.939-3.619,3.71-4.245
					c1.866,1.311,3.732,2.622,6.18,4.219c-0.896-1.777-0.793-4.017,0.262-5.704c1.055-1.687,3.027-2.76,5.016-2.73l2.588,11.078
					c0,0,11.196-5.454,11.154-5.324c1.108,2.264,0.006,5.029-1.628,6.948c-1.634,1.919-3.775,3.38-5.263,5.415
					c0,0,5.384,7.309,4.849,7.454c-2.558,2.022-6.301,2.409-9.896,1.518c0.151,1.092,0.302,2.183,0.397,3.959
					c-4.361,0.471-8.752,1.356-12.629,3.41c-3.875,2.055-7.216,5.402-8.513,9.593c-1.711,5.53,0.421,11.732,4.288,16.04
					C392.296,272.284,397.66,274.959,402.896,277.907z"/>
			</g>
			<g>
				<path style="fill:#FFFFFF;" d="M423.565,253.777c-1.192-8.425-7.851-15.827-16.198-17.969c0.106-1.734,0.196-3.47,0.256-5.207
					c1.281,0.951,2.562,1.904,3.851,2.844c1.337,0.975,3.209,0.72,4.244-0.571l0.036-0.044c0.987-1.233,0.897-3.025-0.232-4.129
					c-2.172-2.125-4.405-4.173-6.684-6.159c2.454-1.841,4.859-3.742,7.206-5.711c1.59-1.334,1.767-3.657,0.348-5.172l-0.047-0.049
					c-1.234-1.305-3.241-1.513-4.696-0.461c-1.391,1.006-2.772,2.024-4.153,3.043c-0.048-0.961-0.101-1.921-0.164-2.881
					c-0.126-1.939-1.76-3.44-3.704-3.438c-0.022,0-0.044,0-0.067,0c-1.889,0.006-3.468,1.432-3.679,3.309
					c-0.144,1.278-0.261,2.55-0.365,3.819c-1.683-1.262-3.386-2.496-5.113-3.694c-1.706-1.183-3.993-0.742-5.081,1.027
					c-0.012,0.019-0.024,0.038-0.036,0.058c-0.934,1.534-0.607,3.524,0.792,4.651c2.208,1.779,4.434,3.535,6.668,5.28
					c-2.196,1.703-4.384,3.417-6.555,5.152c-1.292,1.032-1.538,2.906-0.566,4.244l0.034,0.046c0.929,1.277,2.682,1.662,4.045,0.863
					c1.813-1.063,3.598-2.164,5.36-3.294c0.026,2.035,0.09,4.066,0.172,6.095c-6.77,1.02-13.097,5.233-16.291,11.324
					c-4.208,8.022-2.658,18.672,3.662,25.163s16.925,8.325,25.056,4.334C419.797,272.259,424.833,262.748,423.565,253.777z
					 M415.2,258.573c-1.098,5.628-6.061,10.278-11.748,11.011c-5.686,0.73-11.665-2.514-14.151-7.68
					c-2.486-5.167-1.291-11.864,2.828-15.851c4.12-3.987,10.851-4.964,15.934-2.311C413.541,246.6,416.299,252.947,415.2,258.573z"
					/>
				<path style="fill:none;stroke:#2C2255;stroke-linecap:round;stroke-linejoin:round;stroke-miterlimit:10;" d="M423.565,253.777
					c-1.192-8.425-7.851-15.827-16.198-17.969c0.106-1.734,0.196-3.47,0.256-5.207c1.281,0.951,2.562,1.904,3.851,2.844
					c1.337,0.975,3.209,0.72,4.244-0.571l0.036-0.044c0.987-1.233,0.897-3.025-0.232-4.129c-2.172-2.125-4.405-4.173-6.684-6.159
					c2.454-1.841,4.859-3.742,7.206-5.711c1.59-1.334,1.767-3.657,0.348-5.172l-0.047-0.049c-1.234-1.305-3.241-1.513-4.696-0.461
					c-1.391,1.006-2.772,2.024-4.153,3.043c-0.048-0.961-0.101-1.921-0.164-2.881c-0.126-1.939-1.76-3.44-3.704-3.438
					c-0.022,0-0.044,0-0.067,0c-1.889,0.006-3.468,1.432-3.679,3.309c-0.144,1.278-0.261,2.55-0.365,3.819
					c-1.683-1.262-3.386-2.496-5.113-3.694c-1.706-1.183-3.993-0.742-5.081,1.027c-0.012,0.019-0.024,0.038-0.036,0.058
					c-0.934,1.534-0.607,3.524,0.792,4.651c2.208,1.779,4.434,3.535,6.668,5.28c-2.196,1.703-4.384,3.417-6.555,5.152
					c-1.292,1.032-1.538,2.906-0.566,4.244l0.034,0.046c0.929,1.277,2.682,1.662,4.045,0.863c1.813-1.063,3.598-2.164,5.36-3.294
					c0.026,2.035,0.09,4.066,0.172,6.095c-6.77,1.02-13.097,5.233-16.291,11.324c-4.208,8.022-2.658,18.672,3.662,25.163
					s16.925,8.325,25.056,4.334C419.797,272.259,424.833,262.748,423.565,253.777z M415.2,258.573
					c-1.098,5.628-6.061,10.278-11.748,11.011c-5.686,0.73-11.665-2.514-14.151-7.68c-2.486-5.167-1.291-11.864,2.828-15.851
					c4.12-3.987,10.851-4.964,15.934-2.311C413.541,246.6,416.299,252.947,415.2,258.573z"/>
			</g>
		</g>
		<path style="opacity:0.09;fill:#2C2255;" d="M453.61,278.426c1.992-20.873,2.328-42.636,0.992-63.661
			c-26.37,33.613-68.776,54.135-111.498,53.955c0.124,1.987,0.261,3.974,0.429,5.958c1.001,11.867,10.655,21.1,22.55,21.684
			c22.92,1.126,46.142,1.04,69.202-0.336C444.883,295.452,452.697,287.997,453.61,278.426z"/>
		<path style="fill:none;stroke:#2C2255;stroke-linecap:round;stroke-linejoin:round;stroke-miterlimit:10;" d="M454.028,206.874
			c1.981,23.427,1.824,48.056-0.418,71.551c-0.913,9.571-8.727,17.027-18.325,17.599c-23.06,1.376-46.282,1.462-69.202,0.336
			c-11.895-0.584-21.549-9.817-22.55-21.684c-2.1-24.859-0.69-50.16,2.067-72.531c0.69-5.6,5.194-9.94,10.808-10.516
			c27.769-2.845,55.453-2.126,83.267,0.636C447.358,193.028,453.376,199.18,454.028,206.874z"/>
	</g>
	<g>
		<g>
			<path style="opacity:0.15;fill:#2C2255;" d="M121.307,341.095c-22.831-5.935-48.856,3.455-62.639,22.601
				c-13.782,19.144-14.43,46.803-1.558,66.572c9.705,14.905,26.436,24.966,44.134,26.734c17.698,1.769,36.014-4.732,48.767-17.131
				c13.321-12.95,20.346-32.321,17.634-50.701c-1.706-11.564-7.14-22.55-15.296-30.924
				C144.192,349.872,133.336,344.222,121.307,341.095z"/>
			<path style="fill:#B574FF;" d="M114.85,334.639c-22.831-5.935-48.856,3.455-62.639,22.601
				c-13.782,19.144-14.43,46.803-1.558,66.572c9.705,14.905,26.436,24.966,44.134,26.734c17.698,1.769,36.014-4.732,48.767-17.131
				c13.321-12.95,20.346-32.321,17.634-50.701c-1.706-11.564-7.14-22.55-15.296-30.924
				C137.735,343.416,126.879,337.766,114.85,334.639z"/>
			<path style="fill:#8842D6;" d="M143.554,433.415c7.171-6.971,12.513-15.805,15.499-25.342
				c-6.616,10.226-15.395,19.762-26.194,26.514c-12.889,8.058-28.892,11.832-43.627,8.095c-13.982-3.544-25.925-13.75-32.471-26.605
				c-6.546-12.853-7.841-28.11-4.506-42.145c2.826-11.891,8.862-22.888,16.873-32.144c-6.586,3.98-12.409,9.19-16.917,15.451
				c-13.782,19.144-14.43,46.803-1.558,66.572c9.705,14.905,26.436,24.966,44.134,26.734
				C112.485,452.315,130.801,445.814,143.554,433.415z"/>
		</g>
		<g>
			<path style="fill:#FFFFFF;" d="M75.743,348.001c-6.467,2.344-11.528,8.213-12.897,14.953c-0.205,1.009-0.332,2.06-0.093,3.062
				c0.238,1.002,0.9,1.951,1.869,2.296c1.687,0.602,3.47-0.82,4.259-2.428c0.788-1.607,1.006-3.462,1.902-5.013
				c1.141-1.977,3.237-3.21,5.361-4.046c2.123-0.837,4.371-1.371,6.401-2.416c1.239-0.638,2.465-1.574,2.813-2.925
				c0.519-2.017-1.246-4.049-3.256-4.599C80.089,346.336,78.089,347.15,75.743,348.001z"/>
			<path style="fill:#FFFFFF;" d="M63.976,375.058c-1.838-0.72-4.158,0.155-5.043,1.918c-0.886,1.764-0.185,4.164,1.522,5.155
				c1.706,0.992,4.154,0.397,5.198-1.278C66.696,379.178,66.503,376.047,63.976,375.058z"/>
		</g>
		<g>
			<g>
				<path style="fill:#8842D6;" d="M97.437,378.598c4.057-0.351,8.238,1.495,10.712,4.729c2.474,3.235,3.16,7.754,1.758,11.578
					c-1.402,3.823-4.847,6.827-8.532,8.052c2.791,1.097,6.042,0.481,8.632-1.032c4.066-2.373,6.745-6.959,6.816-11.667
					c0.071-4.708-2.469-9.372-6.463-11.866C106.368,375.897,101.062,375.66,97.437,378.598z"/>
				<path style="fill:#8842D6;" d="M104.942,419.408c-0.043-2.073-0.086-4.146-0.129-6.22c1.438-0.218,2.85-0.597,4.195-1.163
					c6.663-2.8,11.337-9.794,11.376-17.023c-3.795,6.355-12.096,10.726-19.773,9.399c-7.676-1.326-14.03-8.228-14.718-15.988
					c-4.015,6.588-2.2,14.801,2.992,19.83c2.304,2.232,5.215,3.776,8.321,4.562c-0.019,2.212-0.027,4.424-0.017,6.637l-6.377,0.028
					c-0.877,1.199-0.741,2.948,0.084,4.185c0.825,1.235,2.218,2.002,3.657,2.37c0.887,0.226,1.798,0.311,2.714,0.349
					c0.04,1.301,0.17,2.622,0.83,3.728c1.328,2.225,4.83,2.707,7.073,0.33c-0.028-1.328-0.055-2.656-0.083-3.984
					c0.423,0.002,0.845,0.005,1.268,0.008c1.572,0.01,3.16,0.017,4.692-0.332s3.026-1.092,3.986-2.338
					c0.959-1.244,1.282-3.041,0.538-4.424L104.942,419.408z"/>
				<path style="fill:#8842D6;" d="M76.017,373.944c-0.472,1.514-0.185,3.285,0.882,4.457c1.067,1.173,2.925,1.61,4.334,0.884
					c0.852-0.439,1.477-1.236,1.886-2.103c0.409-0.867,0.624-1.81,1.234-2.934c1.914,2.216,3.96,4.317,6.122,6.291l3.013-2.816
					l-11.003-13.118L76.017,373.944z"/>
				<path style="fill:#8842D6;" d="M129.792,380.86c-0.975,0.929-2.461,1.281-3.749,0.89c-1.288-0.392-2.327-1.513-2.905-2.92
					c-1.582,1.419-3.164,2.839-4.746,4.259l-4.034-3.134l12.334-11.786L129.792,380.86z"/>
				<path style="fill:#8842D6;" d="M113.22,364.015c-0.377,1.4,0.226,2.947,1.288,3.935c1.062,0.987,2.514,1.471,3.957,1.613
					s2.897-0.029,4.337-0.201l2.402-2.994L113.22,364.015z"/>
				<path style="fill:#8842D6;" d="M88.798,368.477c1.77,0.43,3.604,0.862,5.396,0.533c1.791-0.33,3.538-1.637,3.772-3.444
					c0.182-1.398-0.594-2.805-1.731-3.636l-9.209-0.203l-1.527,4.542L88.798,368.477z"/>
			</g>
			<g>
				<path style="fill:#FFFFFF;" d="M131.172,362.4c-5.172-0.905-10.281-1.149-15.361-0.967c-1.338,0.048-2.459,1.029-2.666,2.352
					l-0.008,0.052c-0.244,1.56,0.86,3.014,2.428,3.205c2.359,0.285,4.625,0.504,6.892,0.725c-2.58,2.669-5.34,5.595-8.112,8.538
					c-2.125-1.727-4.595-3.017-7.265-3.659c-4.303-1.034-8.829-0.377-12.721,1.524l-6.024-7.367c1.447,0.035,3.636,0.12,5.639,0.295
					c1.622,0.142,3.079-0.987,3.368-2.589l0.01-0.054c0.272-1.514-0.586-3.018-2.042-3.514c-4.227-1.441-8.992-2.402-13.226-3.209
					c-1.373-0.263-2.712,0.553-3.141,1.884c-1.614,4.996-2.564,10.021-3.088,15.077c-0.138,1.332,0.678,2.579,1.96,2.967
					l0.049,0.015c1.512,0.458,3.105-0.434,3.511-1.961c0.61-2.297,1.142-4.51,1.674-6.724c2.079,2.66,4.348,5.498,6.645,8.361
					c-1.257,1.158-2.363,2.473-3.244,3.94c-4.074,6.777-3.267,16.135,1.907,22.115c2.734,3.161,6.581,5.237,10.675,6.053
					c-0.005,2.36-0.005,4.718,0.003,7.07c-2.021,0.178-4.034,0.378-6.036,0.626c-1.773,0.219-3.045,1.816-2.842,3.59
					c0.173,1.514,1.385,2.715,2.904,2.833c2.012,0.156,4.028,0.242,6.045,0.295c0.027,1.543,0.06,3.083,0.108,4.613
					c0.063,2.047,1.698,3.779,3.746,3.803c0.085,0.001,0.169,0.001,0.254,0c2.093-0.029,3.79-1.745,3.846-3.837
					c0.041-1.546,0.065-3.092,0.083-4.639c1.875-0.079,3.748-0.191,5.617-0.36c1.915-0.174,3.464-1.701,3.539-3.622
					c0.002-0.046,0.003-0.092,0.005-0.138c0.065-2.166-1.775-3.907-3.942-3.868c-1.767,0.031-3.506,0.087-5.227,0.162
					c-0.029-2.192-0.083-4.384-0.158-6.575c1.02-0.226,2.023-0.533,2.992-0.939c7.293-3.057,12.176-11.08,11.541-18.962
					c-0.263-3.256-1.47-6.378-3.325-9.059l7.171-7.756c0.166,1.438,0.385,3.618,0.49,5.627c0.085,1.625,1.405,2.912,3.031,2.975
					l0.056,0.002c1.536,0.061,2.906-0.999,3.196-2.508c0.84-4.386,1.132-9.239,1.345-13.544
					C133.541,363.853,132.549,362.641,131.172,362.4z M114.395,392.283c-0.843,5.026-5.222,9.241-10.274,9.921
					c-5.051,0.679-10.374-2.21-12.582-6.803c-2.209-4.594-1.152-10.537,2.483-14.109c3.635-3.573,9.574-4.53,14.16-2.307
					C112.804,381.224,115.239,387.256,114.395,392.283z"/>
				<path style="fill:none;stroke:#2C2255;stroke-linecap:round;stroke-linejoin:round;stroke-miterlimit:10;" d="M131.172,362.4
					c-5.172-0.905-10.281-1.149-15.361-0.967c-1.338,0.048-2.459,1.029-2.666,2.352l-0.008,0.052
					c-0.244,1.56,0.86,3.014,2.428,3.205c2.359,0.285,4.625,0.504,6.892,0.725c-2.58,2.669-5.34,5.595-8.112,8.538
					c-2.125-1.727-4.595-3.017-7.265-3.659c-4.303-1.034-8.829-0.377-12.721,1.524l-6.024-7.367c1.447,0.035,3.636,0.12,5.639,0.295
					c1.622,0.142,3.079-0.987,3.368-2.589l0.01-0.054c0.272-1.514-0.586-3.018-2.042-3.514c-4.227-1.441-8.992-2.402-13.226-3.209
					c-1.373-0.263-2.712,0.553-3.141,1.884c-1.614,4.996-2.564,10.021-3.088,15.077c-0.138,1.332,0.678,2.579,1.96,2.967
					l0.049,0.015c1.512,0.458,3.105-0.434,3.511-1.961c0.61-2.297,1.142-4.51,1.674-6.724c2.079,2.66,4.348,5.498,6.645,8.361
					c-1.257,1.158-2.363,2.473-3.244,3.94c-4.074,6.777-3.267,16.135,1.907,22.115c2.734,3.161,6.581,5.237,10.675,6.053
					c-0.005,2.36-0.005,4.718,0.003,7.07c-2.021,0.178-4.034,0.378-6.036,0.626c-1.773,0.219-3.045,1.816-2.842,3.59
					c0.173,1.514,1.385,2.715,2.904,2.833c2.012,0.156,4.028,0.242,6.045,0.295c0.027,1.543,0.06,3.083,0.108,4.613
					c0.063,2.047,1.698,3.779,3.746,3.803c0.085,0.001,0.169,0.001,0.254,0c2.093-0.029,3.79-1.745,3.846-3.837
					c0.041-1.546,0.065-3.092,0.083-4.639c1.875-0.079,3.748-0.191,5.617-0.36c1.915-0.174,3.464-1.701,3.539-3.622
					c0.002-0.046,0.003-0.092,0.005-0.138c0.065-2.166-1.775-3.907-3.942-3.868c-1.767,0.031-3.506,0.087-5.227,0.162
					c-0.029-2.192-0.083-4.384-0.158-6.575c1.02-0.226,2.023-0.533,2.992-0.939c7.293-3.057,12.176-11.08,11.541-18.962
					c-0.263-3.256-1.47-6.378-3.325-9.059l7.171-7.756c0.166,1.438,0.385,3.618,0.49,5.627c0.085,1.625,1.405,2.912,3.031,2.975
					l0.056,0.002c1.536,0.061,2.906-0.999,3.196-2.508c0.84-4.386,1.132-9.239,1.345-13.544
					C133.541,363.853,132.549,362.641,131.172,362.4z M114.395,392.283c-0.843,5.026-5.222,9.241-10.274,9.921
					c-5.051,0.679-10.374-2.21-12.582-6.803c-2.209-4.594-1.152-10.537,2.483-14.109c3.635-3.573,9.574-4.53,14.16-2.307
					C112.804,381.224,115.239,387.256,114.395,392.283z"/>
			</g>
		</g>
		<path style="opacity:0.09;fill:#2C2255;" d="M149.579,356.001c-6.62,20.317-20.07,38.379-37.754,50.392
			c-17.961,12.203-40.114,18.056-61.76,16.475c0.196,0.315,0.385,0.633,0.587,0.944c9.705,14.905,26.436,24.966,44.134,26.734
			c17.698,1.769,36.014-4.732,48.767-17.131c13.321-12.95,20.346-32.321,17.634-50.701
			C159.755,372.997,155.681,363.695,149.579,356.001z"/>
		<path style="fill:none;stroke:#2C2255;stroke-linecap:round;stroke-linejoin:round;stroke-miterlimit:10;" d="M114.85,334.639
			c-22.831-5.935-48.856,3.455-62.639,22.601c-13.782,19.144-14.43,46.803-1.558,66.572c9.705,14.905,26.436,24.966,44.134,26.734
			c17.698,1.769,36.014-4.732,48.767-17.131c13.321-12.95,20.346-32.321,17.634-50.701c-1.706-11.564-7.14-22.55-15.296-30.924
			C137.735,343.416,126.879,337.766,114.85,334.639z"/>
	</g>
	<g>
		<g>
			<path style="opacity:0.15;fill:#2C2255;" d="M169.713,222.788c-3.353,23.145-8.278,46.062-14.73,68.542
				c-2.382,8.298-9.754,14.134-18.373,14.621c-21.055,1.19-41.995,0.12-62.573-3.056c-8.777-1.354-15.844-7.91-17.767-16.58
				c-5.294-23.878-7.403-48.814-6.458-73.704c0.316-8.328,6.675-15.144,14.961-16.048c15.229-1.66,30.686-1.332,45.956,0.14
				c15.101,1.454,30.063,4.011,45.616,7.149C165.115,205.621,170.995,213.934,169.713,222.788z"/>
			<path style="fill:#FF5288;" d="M162.092,212.417c-2.509,23.252-6.597,46.333-12.227,69.032
				c-2.079,8.379-9.233,14.479-17.829,15.28c-20.998,1.955-41.963,1.647-62.643-0.778c-8.82-1.034-16.121-7.329-18.358-15.923
				c-6.159-23.67-9.173-48.512-9.134-73.42c0.013-8.334,6.12-15.377,14.367-16.581c15.159-2.213,30.617-2.447,45.931-1.532
				c15.144,0.904,30.189,2.915,45.846,5.485C156.873,195.429,163.051,203.522,162.092,212.417z"/>
			<path style="fill:#CC3564;" d="M143.798,285.429c-3.549,1.557-7.454,2.079-11.31,2.483c-19.167,2.006-38.491,1.472-57.719-0.151
				c-9.205-0.777-16.791-7.626-18.497-16.705c-5.021-26.716-6.26-53.662-3.468-80.126c-6.433,2.404-10.892,8.564-10.904,15.678
				c-0.039,24.908,2.975,49.75,9.134,73.42c2.237,8.594,9.538,14.889,18.358,15.923c20.68,2.425,41.645,2.733,62.643,0.778
				c8.596-0.801,15.75-6.901,17.829-15.28c0.063-0.256,0.121-0.513,0.184-0.769C148.452,282.752,146.215,284.37,143.798,285.429z"/>
		</g>
		<g>
			<path style="fill:#FFFFFF;" d="M70.059,198.015c-6.047,1.058-11.199,6.084-12.406,12.103c-0.276,1.373-0.353,2.84,0.18,4.134
				c0.534,1.295,1.801,2.361,3.2,2.307c1.131-0.044,2.129-0.785,2.844-1.663c0.716-0.877,1.222-1.904,1.882-2.825
				c1.113-1.555,2.67-2.788,4.438-3.517c1.616-0.667,3.379-0.913,5.008-1.549s3.21-1.809,3.62-3.51
				c0.411-1.701-0.511-3.532-1.93-4.557C75.477,197.912,73.632,197.39,70.059,198.015z"/>
			<path style="fill:#FFFFFF;" d="M61.384,224.91c-1.367-0.96-3.476-0.611-4.461,0.736c-0.985,1.349-0.675,3.465,0.655,4.474
				c1.33,1.01,3.451,0.739,4.485-0.572C63.096,228.236,62.944,226.006,61.384,224.91z"/>
		</g>
		<g>
			<g>
				<path style="fill:#CC3564;" d="M122.348,257.244l-11.853,0.314l1.124-16.6c-5.259-2.337-8.991-7.784-9.27-13.533
					c-0.279-5.75,2.907-11.532,7.917-14.368c-7.375,1.018-13.801,6.88-14.312,14.262c-0.509,7.381,3.928,14.858,11.12,17.868
					c-0.515,4.167-1.03,8.335-1.544,12.503l-13.239,0.351c-0.225-8.332-0.474-16.755-0.563-16.894
					c-6.308-0.875-11.788-6.044-13.03-12.29c-1.242-6.247,1.844-13.118,6.879-16.913c-5.117,1.095-9.646,4.664-11.906,9.384
					c-2.26,4.72-2.202,10.484,0.153,15.158c2.355,4.673,6.955,8.15,12.363,9.119c-0.085,4.199-0.053,8.399,0.083,12.595l-4.62,0.122
					c-0.892,1.682,0.197,3.865,1.839,4.829c0.927,0.544,1.969,0.795,3.042,0.92c0.101,1.778,0.215,3.556,0.356,5.332
					c0.133,1.691,0.334,3.501,1.438,4.789c1.105,1.287,3.449,1.616,4.387,0.202c0,0-0.11-4.49-0.258-10.165
					c4.1,0.017,8.2-0.04,12.294-0.217c-0.104,0.839-0.207,1.678-0.311,2.517c-0.236,1.908-0.458,3.92,0.291,5.689
					c0.75,1.771,2.841,3.127,4.612,2.378l0.738-10.894c1.667-0.12,3.332-0.258,4.994-0.43c1.807-0.187,3.678-0.431,5.211-1.406
					C121.817,260.891,122.903,258.973,122.348,257.244z"/>
				<path style="fill:#CC3564;" d="M119.199,238.708c3.52-3.284,5.312-8.326,4.652-13.096c-0.66-4.768-3.753-9.135-7.24-11.414
					c5.803,0.264,11.123,4.873,12.21,10.579C129.907,230.483,126.652,236.726,119.199,238.708z"/>
			</g>
			<g>
				<g>
					<path style="fill:#FFFFFF;" d="M105.589,229.925l3.005-2.74l0,0c-0.172-5.345-2.872-10.637-7.313-13.66
						c-6.189-4.21-14.632-3.588-20.098,0.838c-3.811,3.086-6.019,7.937-6.168,12.822l0,0l2.14,1.892l2.555-1.892l0,0
						c-0.024-4.277,2.332-8.554,6.072-10.673c4.319-2.446,10.496-2.18,14.638,2.181c2.143,2.258,3.263,5.386,3.236,8.492
						L105.589,229.925z"/>
					<path style="fill:none;stroke:#2C2255;stroke-linecap:round;stroke-linejoin:round;stroke-miterlimit:10;" d="M108.594,227.185
						L108.594,227.185c-0.172-5.345-2.872-10.637-7.313-13.66c-6.189-4.21-14.632-3.588-20.098,0.838
						c-3.811,3.086-6.019,7.937-6.168,12.822"/>
					<path style="fill:none;stroke:#2C2255;stroke-linecap:round;stroke-linejoin:round;stroke-miterlimit:10;" d="M79.71,227.185
						L79.71,227.185c-0.024-4.277,2.332-8.554,6.072-10.673c4.319-2.446,10.496-2.18,14.638,2.181
						c2.143,2.258,3.263,5.386,3.236,8.492"/>
				</g>
				<g>
					<path style="fill:#FFFFFF;" d="M129.654,228.882l2.404-1.894v0c-0.194-4.582-2.17-9.112-5.623-12.148
						c-5.621-4.943-14.076-5.369-20.047-1.652c-4.688,2.919-7.632,8.31-7.885,13.8l2.912,1.176l1.85-1.176
						c0.03-4.708,3.058-9.299,7.422-11.1c4.587-1.894,10.685-0.867,14.255,3.973c1.51,2.047,2.266,4.587,2.27,7.127L129.654,228.882
						z"/>
					<path style="fill:none;stroke:#2C2255;stroke-linecap:round;stroke-linejoin:round;stroke-miterlimit:10;" d="M132.058,226.988
						c-0.194-4.582-2.17-9.112-5.623-12.148c-5.621-4.943-14.076-5.369-20.047-1.652c-4.688,2.919-7.632,8.31-7.885,13.8"/>
					<path style="fill:none;stroke:#2C2255;stroke-linecap:round;stroke-linejoin:round;stroke-miterlimit:10;" d="M103.265,226.988
						c0.03-4.708,3.058-9.299,7.422-11.1c4.587-1.894,10.685-0.867,14.255,3.973c1.51,2.047,2.266,4.587,2.27,7.127"/>
				</g>
				<g>
					<path style="fill:#FFFFFF;" d="M125.167,233.814c-2.817,4.087-8.339,6.089-13.121,4.757c-4.781-1.333-8.471-5.902-8.768-10.856
						c-0.015-0.242-0.014-0.485-0.013-0.727h-4.762c-0.069,1.502,0.051,3.011,0.407,4.48c1.653,6.836,7.996,12.264,15.005,12.841
						c7.01,0.578,14.155-3.739,16.906-10.212c0.952-2.241,1.34-4.682,1.237-7.109h-4.847
						C127.216,229.405,126.54,231.822,125.167,233.814z"/>
					<path style="fill:none;stroke:#2C2255;stroke-linecap:round;stroke-linejoin:round;stroke-miterlimit:10;" d="M127.212,226.988
						c0.004,2.417-0.672,4.834-2.045,6.826c-2.817,4.087-8.339,6.089-13.121,4.757c-4.781-1.333-8.471-5.902-8.768-10.856
						c-0.015-0.242-0.014-0.485-0.013-0.727"/>
					<path style="fill:none;stroke:#2C2255;stroke-linecap:round;stroke-linejoin:round;stroke-miterlimit:10;" d="M98.503,226.988
						c-0.069,1.502,0.051,3.011,0.407,4.48c1.653,6.836,7.996,12.264,15.005,12.841c7.01,0.578,14.155-3.739,16.906-10.212
						c0.952-2.241,1.34-4.682,1.237-7.109"/>
				</g>
				<g>
					<path style="fill:#FFFFFF;" d="M119.784,254.076c-1.459,0.06-2.921,0.121-4.381,0.181c0.499-4.356,0.929-8.722,1.25-13.101
						c-1.751-0.511-3.502-1.021-6.393-0.849c-0.678,4.726-1.354,9.454-1.957,14.247c-4.347,0.184-8.706,0.374-13.084,0.575
						c-0.023-3.705-0.121-7.411-0.272-11.118c6.054-1.229,11.362-5.948,13.064-11.918c0.456-1.597,0.636-3.255,0.583-4.908h-4.938
						c-0.016,1.847-0.436,3.685-1.29,5.327c-2.29,4.404-7.522,7.073-12.431,6.341c-4.91-0.731-9.137-4.81-10.043-9.69
						c-0.122-0.654-0.178-1.316-0.182-1.978h-4.695c-0.065,2.122,0.253,4.25,1.006,6.242c1.987,5.261,6.84,9.25,12.298,10.491
						c-0.068,3.83-0.123,7.67-0.126,11.545c-1.251,0.061-2.496,0.119-3.752,0.182c-1.847,0.093-3.219,1.803-2.849,3.615
						c0.01,0.049,0.02,0.097,0.03,0.145c0.294,1.371,1.543,2.335,2.945,2.344c1.226,0.008,2.452,0.003,3.679-0.004
						c0.055,3.244,0.157,6.519,0.341,9.853c0.104,1.902,1.448,3.439,3.094,3.541c0.018,0.001,0.038,0.002,0.057,0.003
						c1.671,0.1,3.075-1.351,3.163-3.276c0.157-3.407,0.238-6.822,0.286-10.238c4.113-0.112,8.231-0.296,12.356-0.549
						c-0.346,3.226-0.65,6.489-0.88,9.819c-0.131,1.901,1.013,3.592,2.633,3.896c0.02,0.003,0.038,0.007,0.058,0.011
						c1.645,0.306,3.218-0.961,3.543-2.86c0.647-3.772,1.203-7.563,1.715-11.363c1.856-0.146,3.712-0.3,5.572-0.469
						c1.559-0.142,2.751-1.457,2.748-3.022C122.928,255.376,121.498,254.006,119.784,254.076z"/>
					<path style="fill:none;stroke:#2C2255;stroke-linecap:round;stroke-linejoin:round;stroke-miterlimit:10;" d="M103.656,227.185
						c-0.016,1.847-0.436,3.685-1.29,5.327c-2.29,4.404-7.522,7.073-12.431,6.341c-4.91-0.731-9.137-4.81-10.043-9.69
						c-0.122-0.654-0.178-1.316-0.182-1.978"/>
					<path style="fill:none;stroke:#2C2255;stroke-linecap:round;stroke-linejoin:round;stroke-miterlimit:10;" d="M109.817,243.406
						c-0.526,3.696-1.042,7.402-1.514,11.147c-4.347,0.184-8.706,0.374-13.084,0.575c-0.023-3.705-0.121-7.411-0.272-11.118
						c6.054-1.229,11.362-5.948,13.064-11.918c0.456-1.597,0.636-3.255,0.583-4.908"/>
					<path style="fill:none;stroke:#2C2255;stroke-linecap:round;stroke-linejoin:round;stroke-miterlimit:10;" d="M75.015,227.185
						c-0.065,2.122,0.253,4.25,1.006,6.242c1.987,5.261,6.84,9.25,12.298,10.491c-0.068,3.83-0.123,7.67-0.126,11.545
						c-1.251,0.061-2.496,0.119-3.752,0.182c-1.847,0.093-3.219,1.803-2.849,3.615c0.01,0.049,0.02,0.097,0.03,0.145
						c0.294,1.371,1.543,2.335,2.945,2.344c1.226,0.008,2.452,0.003,3.679-0.004c0.055,3.244,0.157,6.519,0.341,9.853
						c0.104,1.902,1.448,3.439,3.094,3.541c0.018,0.001,0.038,0.002,0.057,0.003c1.671,0.1,3.075-1.351,3.163-3.276
						c0.157-3.407,0.238-6.822,0.286-10.238c4.113-0.112,8.231-0.296,12.356-0.549c-0.346,3.226-0.65,6.489-0.88,9.819
						c-0.131,1.901,1.013,3.592,2.633,3.896c0.02,0.003,0.038,0.007,0.058,0.011c1.645,0.306,3.218-0.961,3.543-2.86
						c0.647-3.772,1.203-7.563,1.715-11.363c1.856-0.146,3.712-0.3,5.572-0.469c1.559-0.142,2.751-1.457,2.748-3.022
						c-0.003-1.716-1.433-3.086-3.147-3.016c-1.459,0.06-2.921,0.121-4.381,0.181c0.379-3.308,0.718-6.623,1-9.944"/>
				</g>
			</g>
		</g>
		<path style="opacity:0.09;fill:#2C2255;" d="M115.645,256.869c-20.235,11.016-43.532,16.314-66.542,15.215
			c0.607,2.661,1.247,5.311,1.933,7.944c2.237,8.594,9.538,14.889,18.358,15.923c20.68,2.425,41.645,2.733,62.643,0.778
			c8.596-0.801,15.75-6.901,17.829-15.28c5.545-22.357,9.587-45.085,12.105-67.981C150.507,231.521,134.432,246.642,115.645,256.869
			z"/>
		<path style="fill:none;stroke:#2C2255;stroke-linecap:round;stroke-linejoin:round;stroke-miterlimit:10;" d="M162.092,212.417
			c-2.509,23.252-6.597,46.333-12.227,69.032c-2.079,8.379-9.233,14.479-17.829,15.28c-20.998,1.955-41.963,1.647-62.643-0.778
			c-8.82-1.034-16.121-7.329-18.358-15.923c-6.159-23.67-9.173-48.512-9.134-73.42c0.013-8.334,6.12-15.377,14.367-16.581
			c15.159-2.213,30.617-2.447,45.931-1.532c15.144,0.904,30.189,2.915,45.846,5.485
			C156.873,195.429,163.051,203.522,162.092,212.417z"/>
	</g>
	<g>
		<g>
			<path style="opacity:0.15;fill:#2C2255;" d="M429.4,347.59c-11.34-5.008-24.333-6.424-36.354-3.395
				c-12.021,3.028-22.946,10.592-29.523,21.1c-5.658,9.039-7.998,20.024-6.976,30.64c1.022,10.615,5.329,20.827,11.85,29.264
				c8.394,10.863,20.714,18.888,34.275,21.023c16.171,2.548,33.394-3.72,44.364-15.872c10.97-12.151,15.457-29.764,11.925-45.749
				C455.428,368.617,444.276,354.16,429.4,347.59z"/>
			<path style="fill:#FF5288;" d="M423.966,342.431c-11.34-5.008-24.333-6.424-36.354-3.395
				c-12.021,3.028-22.946,10.592-29.523,21.1c-5.658,9.039-7.998,20.024-6.976,30.639c1.022,10.615,5.329,20.827,11.85,29.264
				c8.394,10.863,20.714,18.888,34.275,21.023c16.171,2.548,33.394-3.72,44.364-15.872c10.97-12.151,15.456-29.764,11.924-45.749
				C449.994,363.458,438.843,349.002,423.966,342.431z"/>
			<path style="fill:#CC3564;" d="M436.554,421.023c-9.969,7.997-22.673,13.016-35.428,12.204
				c-14.046-0.894-27.305-9.051-34.965-20.859c-7.66-11.809-9.743-26.936-6.171-40.551c3.252-12.393,11.037-23.422,21.225-30.698
				c-9.434,3.782-17.739,10.409-23.126,19.016c-5.658,9.039-7.998,20.024-6.976,30.639c1.022,10.615,5.329,20.827,11.85,29.264
				c8.394,10.863,20.714,18.888,34.275,21.024c16.171,2.548,33.395-3.72,44.364-15.872c5.953-6.594,9.979-14.802,11.868-23.48
				C448.826,408.982,443.268,415.638,436.554,421.023z"/>
		</g>
		<g>
			<path style="fill:#FFFFFF;" d="M381.589,349.656c-5.5,3.505-10.895,8.221-12.185,14.615c-0.174,0.864-0.266,1.771-0.023,2.617
				c0.244,0.847,0.884,1.624,1.743,1.817c0.916,0.206,1.868-0.286,2.498-0.983c0.629-0.695,1.009-1.573,1.435-2.408
				c1.895-3.703,4.921-6.817,8.569-8.815c1.348-0.739,2.809-1.351,3.884-2.45c1.075-1.099,1.654-2.885,0.847-4.193
				c-0.539-0.872-1.577-1.337-2.596-1.435C384.741,348.324,383.618,348.363,381.589,349.656z"/>
			<path style="fill:#FFFFFF;" d="M370.443,374.128c-1.374-0.45-3.033,0.201-3.703,1.481c-0.671,1.281-0.241,3.04,0.965,3.839
				c1.204,0.799,3.019,0.49,3.865-0.681C372.417,377.594,372.658,374.854,370.443,374.128z"/>
		</g>
		<g>
			<g>
				<path style="fill:#CC3564;" d="M411.783,392.435c2.351-4.256,2.514-9.648,0.426-14.039s-6.374-7.665-10.481-8.764
					c3.87-1.628,8.608-0.684,11.771,2.078c3.164,2.762,4.735,7.142,4.37,11.324C417.505,387.217,415.31,391.149,411.783,392.435z"/>
				<path style="fill:#CC3564;" d="M415.744,370.256c3.755-2.415,5.799-7.227,4.929-11.607l-9.072,7.485L415.744,370.256z"/>
				<path style="fill:#CC3564;" d="M404.8,410.696c-0.05-2.826-0.078-5.639-0.074-8.445c3.842-0.158,7.633-1.44,10.586-3.884
					c4.052-3.351,6.303-8.914,5.263-14.069c-1.218,5.562-7.477,11.383-14.449,11.824c-6.97,0.442-13.901-4.521-15.758-11.254
					c-1.855-6.735,1.539-14.531,7.718-17.788c-3.147-2.95-6.005-5.901-8.527-9.116c-1.416,1.349-1.816,2.888-1.537,4.222
					c0.28,1.335,1.124,2.483,2.279,4.377c-5.626,5.126-8.011,13.541-5.911,20.857c1.989,6.93,7.912,12.554,14.895,14.289
					c-0.083,2.958-0.213,5.937-0.225,8.92l-8.429-0.096c-0.465,1.408,0.261,3,1.408,3.939c1.147,0.939,2.633,1.346,4.09,1.626
					c1.036,0.198,2.08,0.34,3.128,0.445c0.037,0.481,0.071,0.961,0.122,1.441c0.179,1.683,0.465,3.414,1.387,4.832
					c0.923,1.418,2.635,2.448,4.289,2.092c-0.031-2.741-0.085-5.44-0.141-8.123c1.496-0.001,2.994-0.035,4.487-0.072
					c1.973-0.049,4.027-0.117,5.778-1.03c1.75-0.913,3.088-2.942,2.546-4.84L404.8,410.696z"/>
			</g>
			<g>
				<path style="fill:#FFFFFF;" d="M414.146,407.626c-2.043-0.049-4.094-0.061-6.149-0.053c-0.144-2.672-0.323-5.341-0.542-8.008
					c0.326-0.065,0.653-0.126,0.976-0.211c7.331-1.918,13.042-8.879,13.493-16.444c0.351-5.896-2.523-11.795-7.143-15.43
					c2.517-1.583,4.675-3.738,6.179-6.296c0.569-0.967,0.458-2.227-0.3-3.054c-0.197-0.215-0.402-0.41-0.614-0.587
					c-1.169-0.976-2.916-0.654-3.738,0.629c-0.626,0.976-1.378,1.87-2.227,2.661c-2.4,2.236-5.678,3.182-8.954,3
					c-0.524-0.029-1.05-0.035-1.574-0.02c-2.323,0.07-4.631-0.537-6.588-1.791c-1.513-0.97-2.881-2.181-4.028-3.586
					c-0.945-1.158-2.746-1.155-3.679,0.015c-0.037,0.044-0.073,0.09-0.107,0.137c-0.506,0.697-0.57,1.64-0.144,2.389
					c1.264,2.224,3.02,4.15,5.079,5.673c-1.617,1.006-3.072,2.261-4.278,3.739c-4.789,5.874-5.294,14.864-1.197,21.239
					c2.788,4.337,7.563,7.231,12.639,8.037c-0.011,2.68,0.022,5.361,0.107,8.039c-2.361,0.084-4.724,0.194-7.092,0.365
					c-2.319,0.167-3.963,1.675-3.678,3.381l0.01,0.058c0.252,1.498,1.958,2.667,4.011,2.769c2.36,0.117,4.721,0.171,7.081,0.196
					c0.192,2.884,0.448,5.764,0.788,8.637c0.172,1.46,1.383,2.614,2.851,2.661c0.019,0,0.039,0.001,0.058,0.001
					c1.674,0.044,3.04-1.359,3.039-3.033c-0.001-2.772-0.058-5.544-0.141-8.315c2.127-0.056,4.251-0.135,6.368-0.266
					c2.182-0.135,3.876-1.414,3.929-3.021c0.001-0.021,0.001-0.041,0.002-0.063C418.637,409.246,416.649,407.686,414.146,407.626z
					 M404.105,394.696c-5.137,0.049-10.112-3.484-11.757-8.35c-1.646-4.866,0.163-10.692,4.275-13.772
					c4.112-3.078,10.213-3.173,14.417-0.224c4.325,3.033,6.21,8.874,4.659,13.771C414.147,391.018,409.242,394.646,404.105,394.696z
					"/>
				<path style="fill:none;stroke:#2C2255;stroke-linecap:round;stroke-linejoin:round;stroke-miterlimit:10;" d="M414.146,407.626
					c-2.043-0.049-4.094-0.061-6.149-0.053c-0.144-2.672-0.323-5.341-0.542-8.008c0.326-0.065,0.653-0.126,0.976-0.211
					c7.331-1.918,13.042-8.879,13.493-16.444c0.351-5.896-2.523-11.795-7.143-15.43c2.517-1.583,4.675-3.738,6.179-6.296
					c0.569-0.967,0.458-2.227-0.3-3.054c-0.197-0.215-0.402-0.41-0.614-0.587c-1.169-0.976-2.916-0.654-3.738,0.629
					c-0.626,0.976-1.378,1.87-2.227,2.661c-2.4,2.236-5.678,3.182-8.954,3c-0.524-0.029-1.05-0.035-1.574-0.02
					c-2.323,0.07-4.631-0.537-6.588-1.791c-1.513-0.97-2.881-2.181-4.028-3.586c-0.945-1.158-2.746-1.155-3.679,0.015
					c-0.037,0.044-0.073,0.09-0.107,0.137c-0.506,0.697-0.57,1.64-0.144,2.389c1.264,2.224,3.02,4.15,5.079,5.673
					c-1.617,1.006-3.072,2.261-4.278,3.739c-4.789,5.874-5.294,14.864-1.197,21.239c2.788,4.337,7.563,7.231,12.639,8.037
					c-0.011,2.68,0.022,5.361,0.107,8.039c-2.361,0.084-4.724,0.194-7.092,0.365c-2.319,0.167-3.963,1.675-3.678,3.381l0.01,0.058
					c0.252,1.498,1.958,2.667,4.011,2.769c2.36,0.117,4.721,0.171,7.081,0.196c0.192,2.884,0.448,5.764,0.788,8.637
					c0.172,1.46,1.383,2.614,2.851,2.661c0.019,0,0.039,0.001,0.058,0.001c1.674,0.044,3.04-1.359,3.039-3.033
					c-0.001-2.772-0.058-5.544-0.141-8.315c2.127-0.056,4.251-0.135,6.368-0.266c2.182-0.135,3.876-1.414,3.929-3.021
					c0.001-0.021,0.001-0.041,0.002-0.063C418.637,409.246,416.649,407.686,414.146,407.626z M404.105,394.696
					c-5.137,0.049-10.112-3.484-11.757-8.35c-1.646-4.866,0.163-10.692,4.275-13.772c4.112-3.078,10.213-3.173,14.417-0.224
					c4.325,3.033,6.21,8.874,4.659,13.771C414.147,391.018,409.242,394.646,404.105,394.696z"/>
			</g>
		</g>
		<path style="opacity:0.09;fill:#2C2255;" d="M408.6,398.847c-17.856,6.324-37.771,6.598-55.825,0.89
			c2.008,7.339,5.528,14.275,10.188,20.303c8.394,10.863,20.714,18.888,34.275,21.024c16.171,2.548,33.395-3.72,44.364-15.872
			c10.97-12.151,15.457-29.764,11.925-45.749c-0.717-3.246-1.764-6.422-3.077-9.489C439.252,382.38,424.841,393.095,408.6,398.847z"
			/>
		<path style="fill:none;stroke:#2C2255;stroke-linecap:round;stroke-linejoin:round;stroke-miterlimit:10;" d="M423.966,342.431
			c-11.34-5.008-24.333-6.424-36.354-3.395c-12.021,3.028-22.946,10.592-29.523,21.1c-5.658,9.039-7.998,20.024-6.976,30.639
			c1.022,10.615,5.329,20.827,11.85,29.264c8.394,10.863,20.714,18.888,34.275,21.023c16.171,2.548,33.394-3.72,44.364-15.872
			c10.97-12.151,15.456-29.764,11.924-45.749C449.994,363.458,438.843,349.002,423.966,342.431z"/>
	</g>
</g>
<g id="TEXTS">
	<rect x="62.198" y="162.696" style="fill:none;" width="80.367" height="13.304"/>
	<text transform="matrix(1 0 0 1 77.3855 173.196)" style="fill:#B574FF; font-family:'Mohave-SemiBold'; font-size:14px;">NEUTROIS</text>
	<rect x="62.198" y="311.391" style="fill:none;" width="80.367" height="13.304"/>
	<text transform="matrix(1 0 0 1 81.1936 321.8917)" style="fill:#FF5288; font-family:'Mohave-SemiBold'; font-size:14px;">LESBIAN</text>
	<rect x="62.198" y="460.087" style="fill:none;" width="80.367" height="13.304"/>
	<text transform="matrix(1 0 0 1 78.0363 470.5873)" style="fill:#B574FF; font-family:'Mohave-SemiBold'; font-size:14px;">BISEXUAL</text>
	<rect x="211.646" y="162.696" style="fill:none;" width="80.367" height="13.304"/>
	<text transform="matrix(1 0 0 1 232.4583 173.196)" style="fill:#FF5288; font-family:'Mohave-SemiBold'; font-size:14px;">FEMALE</text>
	<rect x="361.095" y="162.696" style="fill:none;" width="80.367" height="13.304"/>
	<text transform="matrix(1 0 0 1 387.7865 173.196)" style="fill:#7474FF; font-family:'Mohave-SemiBold'; font-size:14px;">MALE</text>
	<rect x="211.646" y="311.391" style="fill:none;" width="80.367" height="13.304"/>
	<text transform="matrix(1 0 0 1 229.7142 321.8917)" style="fill:#BAB6CF; font-family:'Mohave-SemiBold'; font-size:14px;">ASEXUAL</text>
	<rect x="211.646" y="460.087" style="fill:none;" width="80.367" height="13.304"/>
	<text transform="matrix(1 0 0 1 228.472 470.5873)" style="fill:#55C9F2; font-family:'Mohave-SemiBold'; font-size:14px;">TRAVESTI</text>
	<rect x="361.095" y="311.391" style="fill:none;" width="80.367" height="13.304"/>
	<text transform="matrix(1 0 0 1 364.5717 321.8917)" style="fill:#B574FF; font-family:'Mohave-SemiBold'; font-size:14px;">GENDERQUEER</text>
	<rect x="361.095" y="451.087" style="fill:none;" width="80.367" height="13.304"/>
	<text transform="matrix(1 0 0 1 368.6523 461.5873)" style="fill:#FF5288; font-family:'Mohave-SemiBold'; font-size:14px;">NON-BINARY</text>
	<rect x="361.095" y="465.391" style="fill:none;" width="80.367" height="13.304"/>
	<text transform="matrix(1 0 0 1 364.9599 475.8917)" style="fill:#FF5288; font-family:'Mohave-SemiBold'; font-size:14px;">TRANSGENDER</text>
</g>
</svg>
