<?xml version="1.0" encoding="utf-8"?>
<!-- Generator: Adobe Illustrator 27.5.0, SVG Export Plug-In . SVG Version: 6.00 Build 0)  -->
<svg version="1.1" xmlns="http://www.w3.org/2000/svg" xmlns:xlink="http://www.w3.org/1999/xlink" x="0px" y="0px"
	 viewBox="0 0 500 500" style="enable-background:new 0 0 500 500;" xml:space="preserve">
<g id="BACKGROUND">
</g>
<g id="OBJECTS">
	<circle style="fill:#F2E9D6;" cx="250" cy="273" r="192.152"/>
	<g>
		<g>
			<path style="fill:#FFBDCE;" d="M144.158,181.155c3.389-1.608,5.738-5.051,5.738-9.051c0-5.536-4.488-10.024-10.024-10.024
				c-0.326,0-0.648,0.018-0.966,0.049c0.617-1.531,0.966-3.2,0.966-4.952c0-7.321-5.935-13.256-13.256-13.256
				c-3.045,0-5.841,1.037-8.079,2.763c-4.688-6.029-12.006-9.913-20.234-9.913c-8.298,0-15.671,3.948-20.354,10.064
				c-2.472-1.824-5.518-2.915-8.826-2.915c-7.9,0-14.346,6.153-14.85,13.926c-0.628-0.084-1.264-0.142-1.916-0.142
				c-7.952,0-14.399,6.447-14.399,14.399c0,2.966,0.898,5.721,2.436,8.012c-3.318,4.638-5.277,10.314-5.277,16.451
				c0,15.637,12.677,28.314,28.314,28.314c4.158,0,8.103-0.904,11.66-2.514c2.865,3.84,7.429,6.338,12.589,6.338
				c5.562,0,10.437-2.897,13.23-7.257c5.315,5.078,12.513,8.203,20.445,8.203c16.353,0,29.609-13.257,29.609-29.609
				C150.965,192.863,148.409,186.281,144.158,181.155z"/>
			<circle style="fill:#FFBDCE;" cx="165.021" cy="196.23" r="8.875"/>
			<path style="fill:#FFBDCE;" d="M178.915,186.677c0,2.763,2.24,5.004,5.004,5.004c2.763,0,5.004-2.24,5.004-5.004
				c0-2.763-2.24-5.004-5.004-5.004C181.155,181.674,178.915,183.914,178.915,186.677z"/>
		</g>
		<path style="fill:#F46D62;" d="M114.605,177.503c0-11.89-9.673-21.564-21.564-21.564c-11.89,0-21.563,9.673-21.563,21.564
			c0,11.051,8.358,20.182,19.083,21.416v5.039H83.19c-1.37,0-2.48,1.11-2.48,2.48s1.11,2.48,2.48,2.48h7.372v7.372
			c0,1.37,1.11,2.48,2.48,2.48c1.37,0,2.48-1.11,2.48-2.48v-7.372h7.372c1.37,0,2.48-1.11,2.48-2.48s-1.11-2.48-2.48-2.48h-7.372
			v-5.039C106.248,197.685,114.605,188.554,114.605,177.503z M76.439,177.503c0-9.155,7.448-16.603,16.603-16.603
			c9.155,0,16.603,7.448,16.603,16.603c0,9.155-7.448,16.603-16.603,16.603C83.887,194.106,76.439,186.658,76.439,177.503z"/>
	</g>
	<g>
		<g>
			<path style="fill:#FFB35E;" d="M457.381,171.746c1.036-1.821,1.784-3.846,2.168-6.028c1.794-10.208-5.027-19.938-15.234-21.732
				c-3.621-0.636-7.179-0.184-10.347,1.113c-1.368-9.716-8.829-17.88-19.015-19.67c-12.658-2.225-24.723,6.233-26.948,18.891
				c-0.115,0.654-0.195,1.306-0.253,1.955c-0.713-0.284-1.465-0.501-2.25-0.639c-5.815-1.022-11.373,2.564-12.933,8.131
				c-0.442-0.135-0.893-0.253-1.36-0.335c-6.194-1.089-12.098,3.05-13.187,9.244c-0.525,2.987,0.174,5.901,1.725,8.246
				c-3.517,3.561-6.028,8.188-6.96,13.49c-2.439,13.875,6.832,27.1,20.707,29.539c4.894,0.86,9.704,0.258,13.992-1.483
				c2.356,2.333,5.421,3.999,8.934,4.616c7.19,1.264,14.114-2.229,17.55-8.214c1.434,1.056,3.12,1.816,4.993,2.146
				c1.893,0.333,3.755,0.188,5.479-0.329c3.408,3.018,7.665,5.163,12.477,6.009c13.875,2.439,27.1-6.832,29.539-20.708
				C468.118,186.538,464.342,177.391,457.381,171.746z"/>
			<circle style="fill:#FFB35E;" cx="336.564" cy="174.337" r="8.875"/>
			<circle style="fill:#FFB35E;" cx="313.264" cy="180.684" r="5.004"/>
		</g>
		<path style="fill:#34B7DF;" d="M418.203,149.796c-1.37,0-2.48,1.11-2.48,2.48s1.11,2.48,2.48,2.48h6.264l-9.291,9.047
			c-3.32-2.088-7.243-3.301-11.446-3.301c-11.89,0-21.564,9.673-21.564,21.564c0,11.89,9.673,21.564,21.564,21.564
			c11.89,0,21.563-9.673,21.563-21.564c0-5.892-2.377-11.237-6.22-15.133l9.175-8.934v6.803c0,1.37,1.11,2.48,2.48,2.48
			s2.48-1.11,2.48-2.48v-15.005H418.203z M403.729,198.669c-9.155,0-16.603-7.448-16.603-16.603c0-9.155,7.448-16.603,16.603-16.603
			c3.696,0,7.103,1.229,9.865,3.28c0.01,0.011,0.018,0.025,0.028,0.036c0.186,0.191,0.4,0.334,0.624,0.452
			c3.712,3.047,6.086,7.669,6.086,12.835C420.332,191.22,412.884,198.669,403.729,198.669z"/>
	</g>
	<g>
		<g>
			<path style="fill:#34B7DF;" d="M312.094,77.149c1.52-12.914-6.876-24.703-19.169-27.766c0.027-0.172,0.066-0.34,0.087-0.515
				c0.84-7.138-4.266-13.606-11.404-14.446c-3.214-0.378-6.287,0.457-8.777,2.132c-4.885-7.818-13.14-13.432-23.008-14.593
				c-16.413-1.932-31.351,9.144-34.519,25.079c-1.901-0.91-3.979-1.533-6.189-1.793c-10.775-1.268-20.539,6.439-21.807,17.214
				c-0.467,3.969,0.287,7.798,1.96,11.119c-4.915,2.751-8.49,7.734-9.199,13.755c-1.174,9.98,5.964,19.022,15.943,20.197
				c2.561,0.301,5.06,0.052,7.381-0.649c-0.327,7.717,5.337,14.5,13.133,15.418c4.216,0.496,8.22-0.829,11.249-3.341
				c4.576,3.093,9.934,5.175,15.799,5.866c11.766,1.385,22.863-3.122,30.354-11.183c2.539,3.255,6.324,5.535,10.747,6.055
				c8.779,1.033,16.734-5.246,17.767-14.026c0.422-3.583-0.39-7.019-2.077-9.913C306.65,91.784,311.156,85.113,312.094,77.149z"/>
			<circle style="fill:#34B7DF;" cx="230.716" cy="133.949" r="8.875"/>
			<circle style="fill:#34B7DF;" cx="243.241" cy="153.914" r="5.004"/>
		</g>
		<path style="fill:#FFFFFF;" d="M261.667,46.994c-1.37,0-2.48,1.11-2.48,2.48s1.11,2.48,2.48,2.48h6.264l-9.291,9.048
			c-3.32-2.088-7.243-3.302-11.446-3.302c-4.203,0-8.126,1.213-11.446,3.301l-2.621-2.553l2.299-2.415
			c0.945-0.992,0.906-2.562-0.086-3.506c-0.993-0.946-2.563-0.906-3.506,0.086l-2.26,2.374l-3.3-3.213h2.729
			c1.37,0,2.48-1.11,2.48-2.48c0-1.37-1.11-2.48-2.48-2.48h-11.471v11.007c0,1.37,1.11,2.48,2.48,2.48s2.48-1.11,2.48-2.48v-2.806
			l3.661,3.565l-1.958,2.056c-0.945,0.992-0.906,2.562,0.086,3.506c0.48,0.457,1.095,0.684,1.709,0.684
			c0.655,0,1.309-0.258,1.797-0.77l1.919-2.015l2.145,2.089c-3.843,3.896-6.221,9.241-6.221,15.134
			c0,11.051,8.358,20.182,19.083,21.416v5.039h-7.372c-1.37,0-2.48,1.11-2.48,2.48c0,1.37,1.11,2.48,2.48,2.48h7.372v7.372
			c0,1.37,1.11,2.48,2.48,2.48c1.37,0,2.48-1.11,2.48-2.48v-7.372h7.372c1.37,0,2.48-1.11,2.48-2.48c0-1.37-1.11-2.48-2.48-2.48
			h-7.372v-5.039c10.726-1.234,19.083-10.365,19.083-21.416c0-5.892-2.377-11.237-6.22-15.133l9.175-8.935v6.803
			c0,1.37,1.11,2.48,2.48,2.48s2.48-1.11,2.48-2.48V46.994H261.667z M247.193,95.867c-9.155,0-16.603-7.448-16.603-16.603
			c0-5.166,2.373-9.787,6.085-12.834c0.225-0.118,0.439-0.262,0.626-0.453c0.011-0.011,0.018-0.025,0.029-0.036
			c2.762-2.05,6.168-3.279,9.864-3.279c3.696,0,7.103,1.229,9.865,3.28c0.011,0.011,0.018,0.024,0.028,0.035
			c0.186,0.191,0.4,0.334,0.624,0.452c3.713,3.048,6.086,7.669,6.086,12.836C263.797,88.419,256.348,95.867,247.193,95.867z"/>
	</g>
	<g>
		<defs>
			<circle id="SVGID_1_" cx="250" cy="273" r="192.152"/>
		</defs>
		<clipPath id="SVGID_00000078751754768540972060000005609112942773129116_">
			<use xlink:href="#SVGID_1_"  style="overflow:visible;"/>
		</clipPath>
		<g style="clip-path:url(#SVGID_00000078751754768540972060000005609112942773129116_);">
			<defs>
				<rect id="SVGID_00000177453958173476775700000011776554077274856074_" x="2.64" y="127.749" width="494.72" height="348.926"/>
			</defs>
			<clipPath id="SVGID_00000145770112493316368820000012516882846267598729_">
				<use xlink:href="#SVGID_00000177453958173476775700000011776554077274856074_"  style="overflow:visible;"/>
			</clipPath>
			<g style="clip-path:url(#SVGID_00000145770112493316368820000012516882846267598729_);">
				<g>
					<g>
						<path style="fill:#F4C458;" d="M237.101,777.161c0,0-0.748,9.763,3.501,21.524c3.509,10.239,3.414,20.632-0.713,22.741
							c-3.071,1.522-14.428,3.383-18.261-10.114c-2.124-8.191,5.349-24.242,3.72-34.44"/>
						<g>
							<g>
								<path style="fill:#3FAF9A;" d="M240.524,807.397c-0.11,0-0.223-0.026-0.328-0.08c-7.501-3.904-14.711-0.046-14.781-0.007
									c-0.347,0.191-0.779,0.061-0.968-0.284c-0.188-0.346-0.062-0.778,0.283-0.968c0.321-0.175,7.959-4.251,16.124-0.007
									c0.35,0.182,0.485,0.613,0.304,0.962C241.031,807.258,240.782,807.397,240.524,807.397z"/>
							</g>
							<g>
								<path style="fill:#3FAF9A;" d="M239.494,801.296c-0.101,0-0.204-0.022-0.302-0.067c-7.205-3.378-13.724-0.05-13.789-0.015
									c-0.347,0.186-0.779,0.048-0.962-0.301c-0.183-0.349-0.048-0.78,0.301-0.962c0.292-0.152,7.22-3.683,15.056-0.015
									c0.356,0.167,0.51,0.592,0.343,0.949C240.02,801.143,239.763,801.296,239.494,801.296z"/>
							</g>
							<g>
								<path style="fill:#3FAF9A;" d="M237.671,795.193c-0.109,0-0.22-0.026-0.324-0.078c-5.764-2.951-11.491-0.033-11.547-0.004
									c-0.349,0.184-0.778,0.048-0.963-0.301c-0.182-0.349-0.049-0.778,0.299-0.962c0.259-0.135,6.423-3.302,12.861-0.004
									c0.351,0.18,0.49,0.609,0.309,0.96C238.18,795.052,237.93,795.193,237.671,795.193z"/>
							</g>
							<g>
								<path style="fill:#3FAF9A;" d="M236.563,788.696c-0.096,0-0.192-0.019-0.285-0.06c-5.234-2.284-9.889-0.035-9.936-0.015
									c-0.352,0.175-0.78,0.03-0.956-0.321c-0.175-0.353-0.032-0.78,0.319-0.955c0.214-0.106,5.28-2.576,11.144-0.017
									c0.361,0.158,0.527,0.578,0.369,0.94C237.099,788.536,236.838,788.696,236.563,788.696z"/>
							</g>
						</g>
					</g>
					<g>
						<g>
							<path style="fill:#F46D62;" d="M212.18,641.227c0.125,4.992-1.804,9.304-1.804,9.304s-13.71,43.228,2.754,78.571
								c13.968,32.749,11.717,51.434,12.074,53.453c3.729,2.011,7.98,1.891,12.164,0l0.103-123.755c0,0,1.614-8.197,1.694-16.967
								C230.21,642.409,220.811,642.2,212.18,641.227z"/>
							<path style="fill:#F46D62;" d="M239.165,641.835c0.033-3.627-0.195-7.352-0.91-10.636c-0.294-10.659,1.91-27.485,1.91-27.485
								s9.369-68.496,0.046-92.431l-52.37-25.908c0,0-16.755,53.025,13.046,106.574c9.896,25.322,11.593,40.781,11.292,49.277
								C220.811,642.2,230.21,642.409,239.165,641.835z"/>
						</g>
						<g>
							<defs>
								<path id="SVGID_00000085234753377635383820000009933986010733295529_" d="M239.165,641.835
									c0.033-3.627-0.195-7.352-0.91-10.636c-0.294-10.659,1.91-27.485,1.91-27.485s9.369-68.496,0.046-92.431l-52.37-25.908
									c0,0-16.755,53.025,13.046,106.574c9.896,25.322,11.593,40.781,11.292,49.277C220.811,642.2,230.21,642.409,239.165,641.835
									z"/>
							</defs>
							<clipPath id="SVGID_00000166639585108379593380000013346839435810314642_">
								<use xlink:href="#SVGID_00000085234753377635383820000009933986010733295529_"  style="overflow:visible;"/>
							</clipPath>
							<g style="clip-path:url(#SVGID_00000166639585108379593380000013346839435810314642_);">
								<g>
									<path style="fill:#D85852;" d="M183.309,529.498l-0.054-1.902c19.918-0.557,29.536-20.25,29.631-20.449l1.718,0.817
										C214.504,508.175,204.406,528.908,183.309,529.498z"/>
								</g>
								<g>
									<g>
										<g>
											<path style="fill:#D85852;" d="M214.15,514.068c-0.154,0-0.31-0.037-0.454-0.115c-0.462-0.252-0.632-0.83-0.38-1.291
												c0.268-0.492,0.406-0.778,0.412-0.791c0.226-0.475,0.795-0.676,1.266-0.449c0.474,0.225,0.676,0.793,0.451,1.267
												c0,0-0.153,0.321-0.46,0.884C214.813,513.89,214.487,514.068,214.15,514.068z"/>
										</g>
									</g>
									<g>
										<g>
											<path style="fill:#D85852;" d="M188.754,533.746c-0.452,0-0.853-0.323-0.935-0.784c-0.093-0.516,0.252-1.01,0.769-1.103
												c0.592-0.106,1.175-0.228,1.746-0.368c0.512-0.11,1.025,0.191,1.148,0.7c0.123,0.511-0.189,1.025-0.7,1.15
												c-0.608,0.147-1.228,0.277-1.859,0.39C188.866,533.74,188.81,533.746,188.754,533.746z M194.081,532.282
												c-0.385,0-0.748-0.236-0.891-0.618c-0.184-0.492,0.066-1.04,0.557-1.224c0.565-0.21,1.116-0.435,1.656-0.674
												c0.482-0.21,1.041,0.007,1.254,0.488c0.212,0.479-0.007,1.04-0.487,1.254c-0.573,0.251-1.158,0.49-1.756,0.715
												C194.304,532.264,194.191,532.282,194.081,532.282z M199.068,529.909c-0.327,0-0.644-0.169-0.822-0.47
												c-0.265-0.453-0.113-1.036,0.34-1.302c0.522-0.304,1.03-0.622,1.524-0.947c0.439-0.286,1.03-0.165,1.317,0.273
												c0.289,0.438,0.167,1.027-0.271,1.317c-0.522,0.344-1.058,0.676-1.607,0.999
												C199.396,529.866,199.231,529.909,199.068,529.909z M203.605,526.755c-0.276,0-0.549-0.119-0.737-0.349
												c-0.333-0.407-0.272-1.005,0.134-1.337c0.473-0.388,0.931-0.778,1.372-1.172c0.391-0.349,0.992-0.316,1.343,0.076
												c0.349,0.392,0.316,0.994-0.076,1.343c-0.462,0.412-0.94,0.821-1.435,1.224
												C204.029,526.685,203.817,526.755,203.605,526.755z M207.645,522.979c-0.234,0-0.467-0.086-0.651-0.258
												c-0.383-0.358-0.402-0.96-0.042-1.345c0.421-0.448,0.824-0.897,1.206-1.339c0.341-0.401,0.942-0.442,1.341-0.1
												c0.397,0.344,0.442,0.943,0.098,1.341c-0.399,0.464-0.82,0.932-1.26,1.402
												C208.151,522.879,207.898,522.979,207.645,522.979z M211.172,518.721c-0.194,0-0.391-0.06-0.56-0.182
												c-0.423-0.31-0.517-0.905-0.207-1.33c0.379-0.518,0.724-1.014,1.039-1.48c0.293-0.437,0.886-0.552,1.32-0.258
												c0.436,0.293,0.551,0.886,0.257,1.32c-0.326,0.485-0.686,0.999-1.08,1.54
												C211.755,518.585,211.465,518.721,211.172,518.721z"/>
										</g>
									</g>
									<g>
										<g>
											<path style="fill:#D85852;" d="M184.122,534.222c-0.512,0-0.934-0.409-0.95-0.923c-0.015-0.525,0.398-0.964,0.923-0.979
												c0.311-0.009,0.619-0.02,0.926-0.039c0.523-0.056,0.973,0.37,1.005,0.893c0.031,0.524-0.369,0.975-0.893,1.005
												c-0.325,0.019-0.652,0.034-0.981,0.043C184.142,534.222,184.131,534.222,184.122,534.222z"/>
										</g>
									</g>
								</g>
							</g>
						</g>
					</g>
				</g>
				<g>
					<g>
						<path style="fill:#F4C458;" d="M251.87,775.471c0,0,0.746,9.736-3.491,21.464c-3.5,10.211-3.405,20.575,0.711,22.678
							c3.063,1.517,16.654,3.374,20.477-10.086c2.118-8.169-6.257-24.175-4.632-34.345"/>
						<g>
							<g>
								<path style="fill:#3FAF9A;" d="M249.136,807.397c-0.258,0-0.507-0.139-0.633-0.384c-0.182-0.349-0.046-0.78,0.304-0.962
									c8.167-4.244,15.804-0.167,16.124,0.007c0.346,0.189,0.472,0.622,0.283,0.968c-0.189,0.345-0.62,0.474-0.968,0.284
									c-0.073-0.039-7.307-3.884-14.782,0.007C249.359,807.371,249.247,807.397,249.136,807.397z"/>
							</g>
							<g>
								<path style="fill:#3FAF9A;" d="M250.167,801.296c-0.268,0-0.526-0.152-0.646-0.411c-0.167-0.357-0.014-0.782,0.343-0.949
									c7.842-3.672,14.765-0.137,15.055,0.015c0.348,0.182,0.483,0.613,0.301,0.96c-0.181,0.351-0.613,0.487-0.961,0.303
									c-0.064-0.033-6.609-3.352-13.789,0.015C250.372,801.274,250.269,801.296,250.167,801.296z"/>
							</g>
							<g>
								<path style="fill:#3FAF9A;" d="M251.989,795.193c-0.259,0-0.509-0.141-0.635-0.388c-0.18-0.351-0.042-0.78,0.309-0.96
									c6.433-3.299,12.602-0.132,12.862,0.004c0.348,0.184,0.481,0.613,0.299,0.962c-0.181,0.351-0.611,0.487-0.963,0.301
									c-0.055-0.03-5.783-2.953-11.548,0.004C252.209,795.167,252.099,795.193,251.989,795.193z"/>
							</g>
							<g>
								<path style="fill:#3FAF9A;" d="M253.098,788.696c-0.275,0-0.537-0.16-0.654-0.427c-0.158-0.362,0.008-0.782,0.369-0.94
									c5.862-2.561,10.929-0.091,11.144,0.017c0.351,0.175,0.494,0.602,0.319,0.955c-0.175,0.351-0.605,0.496-0.956,0.321
									c-0.046-0.022-4.701-2.27-9.936,0.015C253.29,788.677,253.194,788.696,253.098,788.696z"/>
							</g>
						</g>
					</g>
					<g>
						<g>
							<g>
								<path style="fill:#704074;" d="M281.329,643.678c0.81,6.414,1.081,9.531,1.081,9.531s2.714,42.127-6.599,80.483
									c-11.078,39.044-10.212,46.863-10.577,48.932c-4.071,2.144-9.089,2.314-13.985,0.297
									c-1.612-47.889-4.929-89.788-0.994-125.021c0,0-1.03-4.616-1.112-13.599C258.316,644.888,272.488,644.675,281.329,643.678z"
									/>
								<path style="fill:#F46D62;" d="M249.142,644.3c-0.033-3.715,0.918-7.256,0.933-10.895
									c0.015-3.639-1.957-28.153-1.957-28.153l-2.51-93.462l49.722-27.294c0,0,8.403,46.967-4.434,105.766
									c-6.518,22.469-9.875,44.712-9.566,53.416C272.488,644.675,258.316,644.888,249.142,644.3z"/>
							</g>
						</g>
						<path style="fill:#F46D62;" d="M281.329,643.678c0.81,6.414,1.081,9.531,1.081,9.531s2.714,42.127-6.599,80.483
							c-11.078,39.044-10.212,46.863-10.577,48.932c-4.071,2.144-9.089,2.314-13.985,0.297
							c-1.612-47.889-4.929-89.788-0.994-125.021c0,0-1.03-4.616-1.112-13.599C258.316,644.888,272.488,644.675,281.329,643.678z"/>
						<g>
							<defs>
								<path id="SVGID_00000087393473047261606200000009349644942415098802_" d="M249.142,644.3
									c-0.033-3.715,0.918-7.256,0.933-10.895c0.015-3.639-1.957-28.153-1.957-28.153l-2.51-93.462l49.722-27.294
									c0,0,8.403,46.967-4.434,105.766c-6.518,22.469-9.875,44.712-9.566,53.416C272.488,644.675,258.316,644.888,249.142,644.3z"
									/>
							</defs>
							<clipPath id="SVGID_00000111914010414793080050000007716672815850691985_">
								<use xlink:href="#SVGID_00000087393473047261606200000009349644942415098802_"  style="overflow:visible;"/>
							</clipPath>
							<g style="clip-path:url(#SVGID_00000111914010414793080050000007716672815850691985_);">
								<g>
									<path style="fill:#D85852;" d="M297.918,529.498c-21.098-0.591-31.196-21.324-31.295-21.533l1.718-0.817
										c0.095,0.199,9.713,19.892,29.631,20.449L297.918,529.498z"/>
								</g>
								<g>
									<g>
										<path style="fill:#D85852;" d="M267.078,514.068c-0.336,0-0.662-0.178-0.835-0.494c-0.309-0.564-0.462-0.888-0.462-0.888
											c-0.224-0.475-0.02-1.042,0.454-1.265c0.474-0.227,1.039-0.024,1.266,0.451c0.007,0.015,0.142,0.299,0.409,0.788
											c0.253,0.461,0.083,1.038-0.378,1.291C267.388,514.031,267.232,514.068,267.078,514.068z"/>
									</g>
									<g>
										<path style="fill:#D85852;" d="M292.472,533.744c-0.056,0-0.111-0.006-0.168-0.015c-0.632-0.113-1.251-0.243-1.859-0.39
											c-0.511-0.124-0.824-0.639-0.7-1.149c0.123-0.509,0.641-0.812,1.148-0.7c0.571,0.139,1.153,0.262,1.746,0.368
											c0.517,0.093,0.862,0.587,0.769,1.103C293.324,533.421,292.924,533.744,292.472,533.744z M287.146,532.282
											c-0.111,0-0.223-0.019-0.333-0.059c-0.598-0.225-1.183-0.464-1.756-0.715c-0.48-0.214-0.698-0.774-0.487-1.254
											c0.212-0.481,0.77-0.698,1.254-0.488c0.54,0.24,1.091,0.464,1.656,0.674c0.491,0.184,0.741,0.732,0.557,1.224
											C287.894,532.047,287.531,532.282,287.146,532.282z M282.159,529.909c-0.163,0-0.329-0.043-0.48-0.13
											c-0.55-0.323-1.086-0.656-1.607-0.999c-0.439-0.29-0.56-0.878-0.271-1.317c0.289-0.438,0.877-0.559,1.317-0.273
											c0.494,0.325,1.002,0.643,1.524,0.947c0.453,0.266,0.604,0.849,0.34,1.302
											C282.803,529.74,282.486,529.909,282.159,529.909z M277.622,526.753c-0.212,0-0.425-0.071-0.601-0.216
											c-0.495-0.403-0.973-0.811-1.435-1.224c-0.392-0.349-0.425-0.951-0.076-1.343c0.35-0.392,0.953-0.425,1.343-0.076
											c0.441,0.394,0.899,0.784,1.371,1.172c0.407,0.332,0.467,0.931,0.135,1.337
											C278.171,526.635,277.897,526.753,277.622,526.753z M273.583,522.979c-0.254,0-0.506-0.1-0.693-0.299
											c-0.44-0.47-0.861-0.938-1.26-1.402c-0.344-0.398-0.299-0.997,0.099-1.341c0.398-0.342,0.998-0.301,1.341,0.1
											c0.383,0.442,0.786,0.891,1.206,1.339c0.36,0.384,0.341,0.986-0.042,1.345
											C274.05,522.894,273.817,522.979,273.583,522.979z M270.055,518.721c-0.294,0-0.583-0.136-0.769-0.39
											c-0.394-0.541-0.754-1.055-1.08-1.54c-0.294-0.434-0.178-1.027,0.257-1.32c0.435-0.294,1.025-0.178,1.32,0.258
											c0.315,0.466,0.66,0.962,1.039,1.48c0.31,0.425,0.216,1.02-0.207,1.33C270.446,518.661,270.249,518.721,270.055,518.721z"
											/>
									</g>
									<g>
										<path style="fill:#D85852;" d="M297.106,534.222c-0.009,0-0.019,0-0.029,0c-0.331-0.009-0.658-0.024-0.982-0.043
											c-0.525-0.03-0.924-0.481-0.893-1.005c0.031-0.524,0.478-0.955,1.005-0.893c0.306,0.019,0.615,0.03,0.927,0.039
											c0.525,0.015,0.938,0.453,0.923,0.979C298.041,533.813,297.617,534.222,297.106,534.222z"/>
									</g>
								</g>
							</g>
						</g>
					</g>
				</g>
				<g>
					<path style="fill:#F2AFA0;" d="M319.955,415.6c0,0-7.928-61.458-10.386-78.031c-2.436-12.768-12.821-18.457-12.821-18.457
						l-15.705,33.055l23.639,66.836L319.955,415.6z"/>
					<path style="fill:#F2AFA0;" d="M339.147,496.379c-0.108-30.694-7.558-57.324-9.001-61.917
						c-1.441-4.589-9.44-17.734-10.191-18.862c-4.2,0.586-11.717,2.61-15.274,3.402c-0.042,2.152,2.114,16.208,2.557,18.299
						c-0.531,2.402,20.63,60.965,20.63,60.965L339.147,496.379z"/>
					<g>
						<path style="fill:#FFDBA7;" d="M355.167,514.52c-3.914-1.951-4.833-4.829-4.833-4.829l-3.707-7.368
							c-1.897-2.756-4.85-4.356-7.48-5.944c0,0-7.977-0.188-11.215,1.999c-3.14,9.504,0.177,22.567,0.177,22.567
							s0.003-0.001,0.007-0.001l0.832,12.36c0,0,0.109,2.022,1.738,1.954c1.629-0.068,1.703-1.898,1.703-1.898l0.31-13.355
							c0.035-0.008,0.071-0.016,0.107-0.024l2.081,15.572c0,0,0.316,2.594,2.158,2.413c1.842-0.182,1.752-2.541,1.752-2.541
							l-1.065-16.671c0.016-0.004,0.031-0.008,0.046-0.013l3.796,16.898c0,0,0.536,2.424,2.365,2.111
							c1.829-0.313,1.5-2.778,1.5-2.778l-2.807-17.703c0.023-0.008,0.046-0.016,0.069-0.023l5.545,14.957
							c0,0,0.887,2.476,2.614,1.991c1.727-0.485,1.11-2.769,1.11-2.769l-4.788-15.897c-0.618-1.322-1.296-4.381-1.296-4.381
							l2.97,2.85c0,0,1.855,1.78,3.85,2.496c1.995,0.716,3.176-0.136,3.176-0.136S356.768,515.234,355.167,514.52z"/>
					</g>
					<path style="fill:#F46D62;" d="M296.915,319.179c0,0,9.716,3.891,13.24,16.214c3.703,14.628,6.759,36.604,6.759,36.604
						s-17.309,9.117-30.703,17.411l-7.822-28.557L296.915,319.179z"/>
				</g>
				<g>
					<path style="fill:#F2AFA0;" d="M175.331,415.146c0,0,9.458-61.165,12.686-77.653c3.162-13.012,13.695-17.897,13.695-17.897
						l15.41,34.13l-30.63,63.886L175.331,415.146z"/>
					<path style="fill:#F2AFA0;" d="M152.241,495.512c1.524-30.742,9.034-57.374,10.691-61.908
						c1.656-4.53,12.639-19.514,12.639-19.514l11.233,2.593c0,0-0.514,18.749-1.054,20.823c0.421,2.431-22.726,60.484-22.726,60.484
						L152.241,495.512z"/>
					<g>
						<path style="fill:#FFDBA7;" d="M135.863,512.364c3.897-1.72,4.922-4.478,4.922-4.478l3.941-6.999
							c1.971-2.595,4.916-4.016,7.547-5.442c0,0,7.769,0.18,10.819,2.456c2.622,9.389-1.2,21.945-1.2,21.945
							s-0.003-0.001-0.007-0.002l-1.372,11.986c0,0-0.198,1.962-1.78,1.822c-1.582-0.14-1.57-1.924-1.57-1.924l0.306-13.006
							c-0.034-0.01-0.068-0.019-0.103-0.028l-2.733,15.054c0,0-0.426,2.51-2.209,2.249c-1.784-0.261-1.589-2.552-1.589-2.552
							l1.795-16.169c-0.015-0.005-0.03-0.009-0.044-0.014l-4.462,16.265c0,0-0.632,2.333-2.397,1.946s-1.333-2.77-1.333-2.77
							l3.536-17.095c-0.022-0.009-0.044-0.017-0.066-0.026l-6.075,14.299c0,0-0.975,2.368-2.633,1.818
							c-1.658-0.551-0.954-2.745-0.954-2.745l5.382-15.247c0.661-1.258,1.461-4.203,1.461-4.203l-3.019,2.637
							c0,0-1.886,1.647-3.859,2.253c-1.973,0.606-3.084-0.277-3.084-0.277S134.273,512.986,135.863,512.364z"/>
					</g>
					<path style="fill:#F46D62;" d="M201.706,319.596c0,0-10.029,3.483-14.276,15.435c-4.382,14.439-8.17,36.39-8.17,36.39
						s12.944,7.444,25.936,16.356l11.926-34.052L201.706,319.596z"/>
				</g>
				<g>
					<path style="fill:#F2AFA0;" d="M296.915,319.179c-7.675-2.282-27.117-1.323-36.414-3.466
						c-10.038-2.313-7.04-18.798-7.04-18.798l-9.036-0.119h-9.061c0,0,3.006,17.007-7.06,19.326
						c-9.324,2.149-18.897,1.189-26.594,3.477l1.512,26.282c0,0-4.929,8.397-4.097,17.193c0.832,8.796,9.722,15.215,9.722,15.215
						l7.802,38.512c-10.816,25.438-25.708,38.735-28.791,68.575c0,0,44.802,27.992,56.567,27.992
						c11.764,0,50.906-28.872,50.906-28.872C287.564,429.877,296.915,319.179,296.915,319.179z"/>
					<g>
						<path style="fill:#F46D62;" d="M226.706,316.459c0,0,1.794,9.41,17.719,9.41s17.117-9.937,17.117-9.937
							s32.832,1.034,35.373,3.247c0,0-3.323,85.657-3.481,101.981c-0.158,16.325,5.562,81.338,4.398,83.382
							c-1.164,2.044-22.067,14.406-53.489,14.406c-31.422,0-61.195-14.406-61.195-14.406s-1.544-29.804,30.598-87.102l-4.899-39.151
							c0,0-20.396-9.901-5.625-32.408l-1.512-26.282C201.709,319.598,212.597,316.518,226.706,316.459z"/>
						<g>
							<defs>
								<path id="SVGID_00000075865135748945754780000017604421867021251204_" d="M226.706,316.459c0,0,1.794,9.41,17.719,9.41
									s17.117-9.937,17.117-9.937s32.832,1.034,35.373,3.247c0,0-3.323,85.657-3.481,101.981
									c-0.158,16.325,5.562,81.338,4.398,83.382c-1.164,2.044-22.067,14.406-53.489,14.406c-31.422,0-61.195-14.406-61.195-14.406
									s-1.544-29.804,30.598-87.102l-4.899-39.151c0,0-20.396-9.901-5.625-32.408l-1.512-26.282
									C201.709,319.598,212.597,316.518,226.706,316.459z"/>
							</defs>
							<clipPath id="SVGID_00000159472098458081618360000002784078725101831826_">
								<use xlink:href="#SVGID_00000075865135748945754780000017604421867021251204_"  style="overflow:visible;"/>
							</clipPath>
							<g style="clip-path:url(#SVGID_00000159472098458081618360000002784078725101831826_);">
								<g>
									<rect x="173.616" y="319.569" style="fill:#FFFFFF;" width="128.732" height="3.804"/>
								</g>
								<g>
									<rect x="173.616" y="330.822" style="fill:#FFFFFF;" width="128.732" height="3.804"/>
								</g>
								<g>
									<rect x="173.616" y="342.075" style="fill:#FFFFFF;" width="128.732" height="3.804"/>
								</g>
								<g>
									<rect x="173.616" y="353.327" style="fill:#FFFFFF;" width="128.732" height="3.804"/>
								</g>
								<g>
									<rect x="173.616" y="364.579" style="fill:#FFFFFF;" width="128.732" height="3.804"/>
								</g>
								<g>
									<rect x="173.616" y="375.616" style="fill:#FFFFFF;" width="128.732" height="3.804"/>
								</g>
								<g>
									<rect x="173.616" y="386.869" style="fill:#FFFFFF;" width="128.732" height="3.804"/>
								</g>
								<g>
									<rect x="173.616" y="398.121" style="fill:#FFFFFF;" width="128.732" height="3.804"/>
								</g>
								<g>
									<rect x="173.616" y="409.375" style="fill:#FFFFFF;" width="128.732" height="3.804"/>
								</g>
								<g>
									<rect x="173.616" y="420.627" style="fill:#FFFFFF;" width="128.732" height="3.804"/>
								</g>
								<g>
									<rect x="173.616" y="431.879" style="fill:#FFFFFF;" width="128.732" height="3.804"/>
								</g>
								<g>
									<rect x="173.616" y="443.133" style="fill:#FFFFFF;" width="128.732" height="3.804"/>
								</g>
								<g>
									<rect x="173.616" y="454.385" style="fill:#FFFFFF;" width="128.732" height="3.804"/>
								</g>
								<g>
									<rect x="173.616" y="465.421" style="fill:#F4C458;" width="128.732" height="3.804"/>
								</g>
								<g>
									<rect x="173.616" y="476.674" style="fill:#F4C458;" width="128.732" height="3.804"/>
								</g>
								<g>
									<rect x="173.616" y="487.927" style="fill:#F4C458;" width="128.732" height="3.804"/>
								</g>
								<g>
									<rect x="173.616" y="499.18" style="fill:#F4C458;" width="128.732" height="3.804"/>
								</g>
								<g>
									<rect x="173.616" y="510.431" style="fill:#F4C458;" width="128.732" height="3.804"/>
								</g>
							</g>
						</g>
					</g>
				</g>
				<g>
					<path style="fill:#F2AFA0;" d="M299.773,260.596c-2.055-7.83-5.521-10.728-9.954-11.206c3.04-7.932,4.974-17.789,5.603-29.987
						c0-32.439-22.503-50.291-51.757-50.291c-29.254,0-51.757,17.852-51.757,50.291c0.635,12.329,2.608,22.262,5.705,30.238
						c-3.754,0.925-6.706,3.981-8.536,10.955c-2.574,9.804,6.863,19.976,11.52,20.466c0.779,0.082,1.527,0.128,2.265,0.153
						c12.019,18.531,40.803,21.399,40.803,21.399s28.781-2.868,40.802-21.396c1.217,0.041,2.465-0.016,3.787-0.155
						C292.91,280.572,302.346,270.4,299.773,260.596z"/>
					<g>
						<g>
							<g>
								<g>
									<path style="fill:#272727;" d="M259.46,224.7c1.529-1.236,3.355-2.133,5.285-2.65c1.927-0.529,3.975-0.704,5.975-0.437
										c1.982,0.303,3.965,0.836,5.687,1.865l0.661,0.348c0.21,0.134,0.413,0.278,0.617,0.421l1.213,0.861
										c0.758,0.636,1.472,1.322,2.168,2.007c-0.849-0.509-1.616-1.107-2.455-1.591l-1.27-0.695l-0.629-0.35l-0.663-0.281
										l-1.314-0.569l-1.364-0.42c-0.447-0.163-0.913-0.253-1.378-0.341c-0.466-0.082-0.924-0.218-1.399-0.234
										c-1.876-0.271-3.793-0.152-5.667,0.195C263.054,223.197,261.203,223.802,259.46,224.7z"/>
								</g>
								<g>
									<g>
										<path style="fill:#FFFFFF;" d="M261.592,258.146c0.748,0.801,3.614,3.2,8.712,2.473c4.881-0.721,7.454-4.445,8.122-5.539
											c5.974-9.788-1.337-14.561-1.337-14.561c-0.908-0.684-2.387-1.58-4.369-1.929c-5.142-0.905-8.598,2.039-9.699,3.265
											c-0.762,0.773-4.922,5.612-3.593,11.765C259.867,255.649,260.795,257.095,261.592,258.146z"/>
										<g>
											<path style="fill:#272727;" d="M280.505,245.34c-0.423-1.053-0.977-2.035-1.714-2.862
												c-0.355-0.421-0.743-0.814-1.163-1.162c-0.208-0.174-0.428-0.341-0.646-0.48c-0.246-0.164-0.468-0.309-0.705-0.447
												c-1.875-1.12-4.066-1.609-6.222-1.443c-2.151,0.15-4.228,1.022-5.953,2.356c-0.857,0.666-1.617,1.492-2.281,2.382
												c-0.697,0.875-1.273,1.841-1.8,2.846c0.67-2.169,1.859-4.217,3.584-5.816c1.729-1.578,4.008-2.581,6.375-2.766
												c1.185-0.083,2.366,0.037,3.517,0.317c1.143,0.308,2.237,0.798,3.193,1.478c0.239,0.166,0.477,0.35,0.689,0.518
												c0.245,0.186,0.46,0.381,0.671,0.587c0.418,0.411,0.799,0.854,1.129,1.332
												C279.818,243.151,280.298,244.221,280.505,245.34z"/>
										</g>
										<path style="fill:#272727;" d="M259.73,249.852c-0.392,5.269,3.061,9.821,7.714,10.167
											c4.653,0.347,8.743-3.643,9.136-8.912c0.393-5.269-3.061-9.821-7.714-10.167
											C264.213,240.593,260.123,244.583,259.73,249.852z"/>
									</g>
								</g>
							</g>
							<g>
								<g>
									<path style="fill:#272727;" d="M230.673,224.7c-1.743-0.898-3.594-1.503-5.467-1.869c-1.875-0.347-3.792-0.466-5.667-0.195
										c-0.475,0.016-0.933,0.152-1.399,0.234c-0.466,0.089-0.931,0.178-1.378,0.341l-1.364,0.42l-1.314,0.569l-0.662,0.281
										l-0.629,0.35l-1.27,0.695c-0.839,0.484-1.606,1.082-2.455,1.591c0.696-0.685,1.41-1.371,2.168-2.007l1.213-0.861
										c0.203-0.144,0.407-0.288,0.617-0.421l0.661-0.348c1.722-1.029,3.706-1.563,5.687-1.865c2-0.267,4.048-0.092,5.975,0.437
										C227.317,222.567,229.143,223.464,230.673,224.7z"/>
								</g>
								<g>
									<g>
										<path style="fill:#FFFFFF;" d="M228.54,258.146c-0.748,0.801-3.614,3.2-8.712,2.473c-4.881-0.721-7.454-4.445-8.122-5.539
											c-5.974-9.788,1.337-14.561,1.337-14.561c0.909-0.684,2.387-1.58,4.369-1.929c5.142-0.905,8.598,2.039,9.699,3.265
											c0.762,0.773,4.922,5.612,3.593,11.765C230.266,255.649,229.338,257.095,228.54,258.146z"/>
										<g>
											<path style="fill:#272727;" d="M209.628,245.34c0.207-1.119,0.687-2.19,1.326-3.158c0.33-0.478,0.711-0.922,1.129-1.332
												c0.211-0.206,0.426-0.401,0.671-0.587c0.212-0.168,0.45-0.352,0.689-0.518c0.955-0.68,2.05-1.169,3.193-1.478
												c1.151-0.28,2.332-0.4,3.517-0.317c2.367,0.185,4.646,1.188,6.375,2.766c1.725,1.599,2.914,3.647,3.584,5.816
												c-0.527-1.006-1.103-1.972-1.8-2.846c-0.664-0.89-1.424-1.716-2.281-2.382c-1.725-1.335-3.801-2.206-5.953-2.356
												c-2.156-0.166-4.347,0.322-6.222,1.443c-0.238,0.138-0.46,0.283-0.705,0.447c-0.218,0.139-0.438,0.306-0.646,0.48
												c-0.42,0.348-0.808,0.741-1.163,1.162C210.604,243.305,210.051,244.287,209.628,245.34z"/>
										</g>
										<path style="fill:#272727;" d="M230.402,249.852c0.393,5.269-3.061,9.821-7.714,10.167
											c-4.653,0.347-8.743-3.643-9.136-8.912c-0.392-5.269,3.061-9.821,7.714-10.167
											C225.92,240.593,230.01,244.583,230.402,249.852z"/>
									</g>
									<g>
										<path style="fill:#272727;" d="M210.485,243.566c-0.479-0.179-0.875-0.39-1.279-0.635
											c-0.397-0.245-0.77-0.525-1.112-0.837c-0.685-0.622-1.212-1.412-1.466-2.266c0.412,0.794,1.043,1.422,1.77,1.869
											c0.364,0.224,0.747,0.412,1.143,0.563c0.389,0.148,0.816,0.275,1.191,0.337L210.485,243.566z"/>
									</g>
								</g>
							</g>
						</g>
						<g>
							<path style="fill:#272727;" d="M256.631,274.596c-1.532,1.435-3.393,2.52-5.372,3.286c-1.977,0.786-4.121,1.18-6.262,1.169
								c-2.132-0.04-4.295-0.361-6.251-1.215c-1.013-0.334-1.913-0.915-2.85-1.393c-0.892-0.561-1.725-1.214-2.551-1.846
								c0.956,0.446,1.829,1.008,2.781,1.413c0.961,0.379,1.871,0.869,2.875,1.101c1.938,0.655,3.977,0.922,5.996,0.941
								c2.028,0.034,4.053-0.308,6.012-0.894c0.489-0.15,0.97-0.327,1.458-0.489c0.471-0.203,0.954-0.386,1.419-0.608
								C254.838,275.655,255.742,275.149,256.631,274.596z"/>
						</g>
						<g>
							<path style="fill:#272727;" d="M237.449,264.516c0.827-1.282,1.866-2.442,3.109-3.383c0.621-0.473,1.3-0.879,2.036-1.199
								c0.744-0.301,1.551-0.49,2.387-0.506c1.685,0.052,3.175,0.803,4.409,1.733c1.247,0.933,2.294,2.084,3.138,3.355
								c-1.135-1.014-2.327-1.934-3.576-2.71c-1.25-0.756-2.612-1.357-3.978-1.379c-1.366-0.005-2.728,0.588-3.975,1.348
								C239.753,262.556,238.568,263.486,237.449,264.516z"/>
						</g>
						<g>
							<g>
								<path style="fill:#272727;" d="M192.055,264.741c-0.008-0.875,0.081-1.75,0.218-2.62c0.129-0.872,0.347-1.737,0.681-2.57
									c0.333-0.83,0.762-1.656,1.448-2.333c0.684-0.685,1.711-1.075,2.728-0.945c1.039,0.119,1.875,0.796,2.459,1.514
									c0.606,0.729,1.009,1.55,1.366,2.377c0.684,1.67,1.107,3.387,1.36,5.159l0.054,0.377l-0.382,0.108
									c-0.612,0.173-1.276,0.548-1.712,1.072c-0.459,0.521-0.701,1.214-0.759,1.938c-0.056,0.722,0.019,1.477,0.44,2.073
									c0.425,0.586,1.161,0.94,1.928,1.02c-0.77,0.056-1.605-0.202-2.173-0.819c-0.564-0.625-0.774-1.491-0.752-2.299
									c0.004-0.813,0.225-1.675,0.745-2.362c0.519-0.691,1.21-1.203,2.078-1.469l-0.328,0.485
									c-0.316-1.664-0.761-3.347-1.413-4.897c-0.344-0.761-0.697-1.534-1.209-2.151c-0.5-0.619-1.118-1.11-1.824-1.223
									c-0.71-0.123-1.484,0.125-2.079,0.626c-0.602,0.511-1.06,1.229-1.426,1.986C192.785,261.324,192.34,263.022,192.055,264.741
									z"/>
							</g>
							<g>
								<path style="fill:#272727;" d="M296.793,264.741c-0.284-1.719-0.73-3.417-1.446-4.952c-0.366-0.757-0.824-1.475-1.426-1.986
									c-0.595-0.501-1.369-0.749-2.078-0.626c-0.706,0.112-1.324,0.603-1.824,1.223c-0.512,0.617-0.865,1.391-1.209,2.151
									c-0.652,1.55-1.097,3.233-1.413,4.897l-0.328-0.485c0.868,0.266,1.559,0.777,2.078,1.469
									c0.52,0.688,0.742,1.549,0.745,2.362c0.022,0.808-0.189,1.674-0.752,2.299c-0.568,0.616-1.404,0.874-2.173,0.819
									c0.767-0.079,1.503-0.433,1.928-1.02c0.421-0.596,0.496-1.351,0.44-2.073c-0.058-0.723-0.3-1.417-0.759-1.938
									c-0.436-0.524-1.1-0.899-1.712-1.072l-0.382-0.108l0.054-0.377c0.252-1.771,0.676-3.488,1.36-5.159
									c0.357-0.827,0.76-1.648,1.366-2.377c0.583-0.719,1.419-1.396,2.459-1.514c1.017-0.13,2.045,0.259,2.728,0.945
									c0.686,0.677,1.115,1.503,1.448,2.333c0.334,0.834,0.552,1.698,0.681,2.57C296.712,262.991,296.802,263.866,296.793,264.741
									z"/>
							</g>
						</g>
					</g>
					<path style="fill:#34B7DF;" d="M217.121,190.937c0,0,3.447,23.106,29.442,31.048l-9.437-17.971
						c0,0,11.942,15.251,31.029,20.537l-4.08-10.22c0,0,7.261,6.694,18.789,11.492c0,0,5.882,10.832,6.954,23.567
						c0,0,2.94,0.294,4.443,1.613c0,0,7.574-23.429,1.737-45.374l4.211,3.959c0,0-0.552-26.476-31.016-37.786l5.462,0.151
						c0,0-7.379-6.876-30.231-8.335c-22.853-1.459-30.098,12.916-30.098,12.916s-14.828,3.021-21.212,22.05
						c-6.385,19.029-2.314,43.497,4.498,51.056C197.612,249.641,190.963,213.877,217.121,190.937z"/>
				</g>
			</g>
		</g>
	</g>
</g>
</svg>
