<?xml version="1.0" encoding="utf-8"?>
<!-- Generator: Adobe Illustrator 27.5.0, SVG Export Plug-In . SVG Version: 6.00 Build 0)  -->
<svg version="1.1" xmlns="http://www.w3.org/2000/svg" xmlns:xlink="http://www.w3.org/1999/xlink" x="0px" y="0px"
	 viewBox="0 0 500 500" style="enable-background:new 0 0 500 500;" xml:space="preserve">
<g id="Background_Simple">
	<g>
		<path style="fill:#92E3A9;" d="M184.689,461.884c108.979,20.094,217.426-70.543,267.313-157.442
			c33.151-57.746,46.358-125.521,27.013-180.672c-14.175-40.411-49.83-79.568-102.848-81.285
			c-59.083-1.914-106.65,55.92-167.341,54.749c-60.601-1.17-132.343,23.714-167.091,68.811
			C6.998,211.128-0.096,293.367,29.451,357.17c16.846,36.377,46.67,67.533,85.441,86.44c21.307,10.39,44.329,13.341,68.463,18.022
			C183.799,461.718,184.243,461.802,184.689,461.884z"/>
		<path style="opacity:0.8;fill:#FFFFFF;" d="M184.689,461.884c108.979,20.094,217.426-70.543,267.313-157.442
			c33.151-57.746,46.358-125.521,27.013-180.672c-14.175-40.411-49.83-79.568-102.848-81.285
			c-59.083-1.914-106.65,55.92-167.341,54.749c-60.601-1.17-132.343,23.714-167.091,68.811
			C6.998,211.128-0.096,293.367,29.451,357.17c16.846,36.377,46.67,67.533,85.441,86.44c21.307,10.39,44.329,13.341,68.463,18.022
			C183.799,461.718,184.243,461.802,184.689,461.884z"/>
	</g>
</g>
<g id="Reproductive_System">
	<g>
		<path style="fill:#263238;stroke:#263238;stroke-linecap:round;stroke-linejoin:round;stroke-miterlimit:10;" d="M184.165,183.544
			c0,0-8.172-0.409-17.978,4.903c-9.806,5.312-19.613,8.58-25.333,4.494c-5.72-4.086-6.946-3.677-6.946-3.677l0.409,19.613
			c0,0,8.58-3.269,18.387-9.398c9.806-6.129,24.516-13.075,35.956-11.44L184.165,183.544z"/>
		<path style="fill:#263238;stroke:#263238;stroke-linecap:round;stroke-linejoin:round;stroke-miterlimit:10;" d="M312.223,183.544
			c0,0,8.172-0.409,17.978,4.903c9.806,5.312,19.612,8.58,25.333,4.494c5.72-4.086,6.946-3.677,6.946-3.677l-0.409,19.613
			c0,0-8.58-3.269-18.387-9.398c-9.806-6.129-24.516-13.075-35.956-11.44L312.223,183.544z"/>
		<path style="fill:#FFFFFF;stroke:#263238;stroke-linecap:round;stroke-linejoin:round;stroke-miterlimit:10;" d="M184.165,156.986
			c0,0-14.301,12.258-26.15,11.441s-15.935-6.946-28.193-21.247c-12.258-14.301-48.214-13.484-48.214-13.484
			s-10.215-8.989-23.29-6.129c-13.075,2.86-22.473,12.258-13.892,33.913c8.581,21.655,23.698,30.644,24.107,33.913
			c0.409,3.269,2.86,2.043,2.043,8.172c-0.817,6.129,2.043,6.946,2.86,5.312c0.817-1.634-0.817-8.581-0.409-10.215
			c0.409-1.634,0,5.72,4.086,8.989c4.086,3.269,6.537,4.086,6.537,1.226c0-2.86-1.226-7.763-1.634-10.623
			c-0.409-2.86-0.817-4.495-0.817-4.495s6.537,0.409,14.301-0.409c7.763-0.817,13.075-13.075,8.58-13.075
			c-4.494,0-20.43-2.452-30.644-10.215c-10.215-7.763-11.849-20.838-4.903-23.698c6.946-2.86,9.806,1.634,15.526,2.043
			s23.698,1.226,32.279,7.763c8.58,6.537,22.064,24.924,31.462,26.15c9.398,1.226,17.161-6.946,28.193-3.269
			c11.032,3.677,9.398,19.204,9.806,29.01s9.806,14.301,19.612,22.064c9.806,7.763,12.666,15.527,9.398,27.376
			c-3.269,11.849-11.032,24.516-6.537,41.268c4.494,16.752,18.387,38.408,20.43,47.397c2.043,8.989,3.677,39.225,3.269,48.622
			c-0.409,9.398-1.226,13.484,0,13.892c1.226,0.409,6.946-2.86,6.946-2.86s8.989,4.495,22.881,0c0,0,4.903,2.86,7.355,2.043
			c2.452-0.817,0.409-5.72,0-13.075c-0.409-7.355,2.452-42.085,6.538-56.386c4.086-14.301,17.569-24.924,17.569-48.622
			c0-23.698-11.441-35.548-8.989-45.762c2.451-10.215,18.795-15.527,24.924-26.559c6.129-11.032,6.129-29.419,9.398-34.322
			c3.269-4.903,13.892-6.129,22.473-3.269c8.58,2.86,18.795,2.86,26.967-8.58c8.172-11.441,22.473-19.204,35.548-20.838
			c13.075-1.634,13.484-3.677,21.655-3.677c8.172,0,11.849,3.269,10.623,11.441c-1.226,8.172-11.441,15.118-20.021,17.978
			c-8.58,2.86-14.709,4.494-14.709,4.494s15.526,8.989,15.935,11.441c0.409,2.452-0.817,5.312-2.043,10.623
			c-1.226,5.312,0.409,7.355,3.677,3.269c3.269-4.086,5.72-13.892,6.946-9.806c1.226,4.086-1.634,12.666,1.226,12.666
			s0-6.129,5.312-14.301c5.312-8.172,21.655-14.301,25.741-40.859c4.086-26.558-15.935-27.376-25.333-25.741
			c-9.398,1.634-4.495,2.86-21.247,6.129c-16.752,3.269-31.87,8.989-40.451,16.752c-8.58,7.763-14.301,16.752-27.784,16.344
			c-13.484-0.409-31.87-14.301-44.128-26.559c-12.258-12.258-29.01-20.021-52.3-20.43
			C223.39,119.804,201.734,138.19,184.165,156.986z"/>
		<path style="fill:#D9D9D9;" d="M332.628,167.595c0,0-18.024-6.759-32.669-19.151c-14.645-12.391-32.669-20.84-43.934-22.53
			c-11.265-1.69-20.277-2.253-34.358,6.196c-14.081,8.449-23.657,18.587-28.163,23.093c-4.506,4.506-10.702,9.012-10.702,9.012
			s30.979-8.449,67.027-8.449S332.628,167.595,332.628,167.595z"/>
		<path style="fill:#D9D9D9;" d="M322.49,176.044c0,0-12.955-4.506-24.783-1.127c-11.828,3.38-18.024,8.449-20.84,22.53
			c-2.816,14.081-3.379,28.163-7.322,34.358s-11.828,9.575-11.828,15.771s5.633,43.934,8.449,47.313
			c2.816,3.379,11.265,0.563,15.208-1.126c3.943-1.69,6.196-7.322,3.943-20.277c-2.253-12.955-10.139-27.599-6.196-36.612
			c3.943-9.012,24.783-10.139,28.726-27.036C311.788,192.942,309.535,178.297,322.49,176.044z"/>
		<path style="fill:#D9D9D9;" d="M178.297,177.734c0,0,12.955-4.506,24.783-1.126c11.828,3.38,17.856,5.474,19.714,19.714
			c1.69,12.955,3.943,24.783,7.885,30.979s9.575,14.081,9.575,20.277s-2.816,45.624-5.633,49.003
			c-2.816,3.38-10.702-1.126-14.645-2.816c-3.943-1.69-6.759-5.633-4.506-18.587c2.253-12.955,10.138-27.599,6.196-36.611
			c-3.943-9.012-25.346-19.714-28.726-29.852C187.455,192.252,191.252,179.987,178.297,177.734z"/>
		<path style="fill:#92E3A9;stroke:#263238;stroke-linecap:round;stroke-linejoin:round;stroke-miterlimit:10;" d="M417.063,192.124
			c0.409,2.452-0.817,5.312-2.043,10.623c-0.44,1.908-0.506,3.384-0.265,4.316c1.348-1.339,2.67-2.876,3.534-4.316
			c2.452-4.086,4.903-9.806,9.398-11.032s15.526-6.537,21.655-19.613c6.129-13.075,6.537-24.107,1.634-33.504
			c-4.903-9.398-17.161-8.172-25.741-5.72c-8.58,2.451-22.064,4.494-31.87,7.763c-9.806,3.269-19.612,10.215-24.924,14.709
			c-5.312,4.494-9.398,12.258-17.978,14.709c-8.58,2.451-25.741-0.817-49.44-5.312c-18.914-3.587-37.047-4.051-43.598-4.092
			c-1.585-0.01-3.165-0.119-4.74-0.299c-5.086-0.581-19.145-1.47-42.37,2.348c-29.827,4.903-48.622,11.032-57.203,10.215
			s-17.57-11.441-29.827-22.881c-12.258-11.441-25.333-10.215-33.505-11.441c-8.172-1.226-17.161-6.538-22.881-8.172
			c-5.72-1.634-18.387,2.452-19.612,18.387c-1.226,15.935,11.441,30.236,17.161,34.73c5.72,4.495,8.989,8.989,9.398,13.484
			c0.374,4.11,2.812,9.576,9.786,11.419c-0.104-2.9-1.225-7.466-1.615-10.194c-0.409-2.86-0.817-4.494-0.817-4.494
			s6.537,0.409,14.301-0.409c4.75-0.5,8.577-5.28,9.807-8.918c-4.208-0.468-11.7-1.439-19.204-4.566
			c-9.806-4.086-25.333-8.58-25.333-24.924c0-16.344,11.441-15.118,16.344-12.258c4.903,2.86,17.161,5.312,25.333,5.312
			c8.172,0,17.978,4.494,24.107,13.483c6.129,8.989,15.118,19.204,27.784,17.161c12.666-2.043,31.053-5.312,43.311-6.946
			c12.258-1.634,26.15,4.903,29.827,17.57c3.677,12.666-1.634,22.064,6.129,34.73c7.763,12.666,11.441,12.666,11.849,24.515
			c0.409,11.849-2.043,22.881-3.269,33.096c-1.226,10.215-0.817,11.032,0,16.752c0.817,5.72-1.634,7.763-4.903,7.763
			c-3.269,0-18.387-7.355-18.387-7.355s0.409,15.527,8.172,31.053c7.763,15.526,11.849,29.827,11.849,44.945
			c0,15.118,0,31.053,0,31.053s8.989,4.495,22.881,0c0,0-0.409-29.827,1.226-46.579c1.634-16.752,10.215-26.559,14.709-38.816
			c4.495-12.258,4.495-20.838,4.495-20.838s-15.118,4.903-18.387,4.903c-3.269,0-4.495-6.946-3.677-9.398
			c0.817-2.451-2.043-15.526-2.86-21.247c-0.817-5.72-6.129-27.376-4.495-32.279c1.634-4.903,5.72-6.946,8.172-10.215
			c2.452-3.269,6.946-10.215,9.398-26.15c2.452-15.935,6.946-28.601,18.387-33.505c11.441-4.903,26.15,0.817,35.139,0.817
			c8.989,0,21.247,13.075,33.913,1.634c12.666-11.441,15.526-17.161,29.827-23.29c14.301-6.129,26.558-4.494,34.322-8.172
			c7.763-3.677,20.021-1.634,18.795,12.666c-1.226,14.301-12.258,19.612-20.43,22.473c-8.172,2.86-19.204,2.86-19.204,2.86
			S416.654,189.673,417.063,192.124z"/>
		<g>
			<path style="fill:#263238;stroke:#263238;stroke-linecap:round;stroke-linejoin:round;stroke-miterlimit:10;" d="
				M242.221,301.998c-0.502,2.978-2.491,4.124-4.939,4.124c-3.269,0-18.387-7.355-18.387-7.355s0.034,1.274,0.264,3.451
				c1.993,0.961,15.105,7.227,18.123,7.227C240.488,309.445,242.9,307.471,242.221,301.998z"/>
			<path style="fill:#263238;stroke:#263238;stroke-linecap:round;stroke-linejoin:round;stroke-miterlimit:10;" d="
				M257.303,273.843c-0.656-4.594-4.209-19.462-4.737-27.679c-0.665,6.596,3.977,25.684,4.737,31.003
				c0.618,4.328,2.405,12.865,2.885,17.826C260.911,292.327,258.111,279.497,257.303,273.843z"/>
			<path style="fill:#263238;stroke:#263238;stroke-linecap:round;stroke-linejoin:round;stroke-miterlimit:10;" d="
				M440.761,158.674c0.11-1.283,0.107-2.463,0.013-3.553c-0.006,0.078-0.007,0.151-0.013,0.23
				c-1.226,14.301-12.258,19.612-20.43,22.473c-8.172,2.86-19.204,2.86-19.204,2.86s2.282,1.322,5.117,3.088
				c3.938-0.306,9.468-1.008,14.087-2.625C428.503,178.287,439.535,172.975,440.761,158.674z"/>
			<path style="fill:#263238;stroke:#263238;stroke-linecap:round;stroke-linejoin:round;stroke-miterlimit:10;" d="
				M417.063,195.448c-0.017-0.101-0.068-0.218-0.135-0.341c-0.363,1.913-1.134,4.287-1.908,7.641
				c-0.44,1.908-0.506,3.384-0.265,4.316c0.031-0.031,0.061-0.064,0.091-0.095c0.053-0.293,0.101-0.581,0.174-0.898
				C416.245,200.759,417.471,197.899,417.063,195.448z"/>
			<path style="fill:#263238;stroke:#263238;stroke-linecap:round;stroke-linejoin:round;stroke-miterlimit:10;" d="M47.287,152.137
				c1.226-15.935,13.892-20.021,19.612-18.387c5.72,1.634,14.709,6.946,22.881,8.172s21.247,0,33.505,11.441
				c12.258,11.441,21.247,22.064,29.827,22.881s27.376-5.312,57.203-10.215c23.225-3.818,37.284-2.929,42.37-2.348
				c1.575,0.18,3.154,0.289,4.74,0.299c6.551,0.041,24.684,0.505,43.598,4.092c23.698,4.494,40.859,7.763,49.44,5.312
				c8.581-2.452,12.666-10.215,17.978-14.709c5.312-4.494,15.118-11.441,24.924-14.709c9.806-3.269,23.29-5.312,31.87-7.763
				c8.581-2.452,20.838-3.677,25.741,5.72c1.99,3.815,3.089,7.905,3.302,12.286c0.298-5.658-0.816-10.845-3.302-15.609
				c-4.903-9.398-17.161-8.172-25.741-5.72c-8.58,2.451-22.064,4.494-31.87,7.763c-9.806,3.269-19.612,10.215-24.924,14.709
				c-5.312,4.494-9.398,12.258-17.978,14.709c-8.58,2.451-25.741-0.817-49.44-5.312c-18.914-3.587-37.047-4.051-43.598-4.092
				c-1.585-0.01-3.165-0.119-4.74-0.299c-5.086-0.581-19.145-1.47-42.37,2.348c-29.827,4.903-48.622,11.032-57.203,10.215
				s-17.57-11.441-29.827-22.881c-12.258-11.441-25.333-10.215-33.505-11.441c-8.172-1.226-17.161-6.538-22.881-8.172
				c-5.72-1.634-18.387,2.452-19.612,18.387c-0.1,1.295-0.099,2.577-0.026,3.845C47.271,152.485,47.273,152.312,47.287,152.137z"/>
			<path style="fill:#263238;stroke:#263238;stroke-linecap:round;stroke-linejoin:round;stroke-miterlimit:10;" d="M81.844,197.114
				c-0.417-0.018-0.644-0.032-0.644-0.032s0.409,1.634,0.817,4.494c0.256,1.789,0.822,4.365,1.213,6.747
				c0.136,0.04,0.262,0.087,0.401,0.124c-0.104-2.9-1.225-7.466-1.615-10.194C81.959,197.846,81.901,197.471,81.844,197.114z"/>
			<path style="fill:#263238;stroke:#263238;stroke-linecap:round;stroke-linejoin:round;stroke-miterlimit:10;" d="
				M261.768,405.827c0.01-0.003,0.02-0.005,0.03-0.009c0,0-0.035-2.607-0.044-6.697C261.749,401.815,261.757,404.11,261.768,405.827
				z"/>
			<path style="fill:#263238;stroke:#263238;stroke-linecap:round;stroke-linejoin:round;stroke-miterlimit:10;" d="M260.06,298.818
				c-0.584,2.727,0.674,8.993,3.78,8.993c3.029,0,16.225-4.208,18.145-4.825c0.241-2.178,0.242-3.401,0.242-3.401
				s-15.118,4.903-18.387,4.903C261.714,304.487,260.457,301.548,260.06,298.818z"/>
			<path style="fill:#263238;stroke:#263238;stroke-linecap:round;stroke-linejoin:round;stroke-miterlimit:10;" d="
				M241.459,292.599c0.088-1.857,0.313-4.221,0.726-7.669c1.185-9.873,3.507-20.511,3.293-31.91
				c-0.224,10.15-2.224,19.679-3.293,28.587C241.483,287.46,241.318,290.226,241.459,292.599z"/>
			<path style="fill:#263238;stroke:#263238;stroke-linecap:round;stroke-linejoin:round;stroke-miterlimit:10;" d="M60.822,156.516
				c-0.031,0.562-0.052,1.14-0.052,1.75c0,16.344,15.526,20.838,25.333,24.924c6.647,2.77,13.279,3.847,17.634,4.382
				c0.694-1.058,1.233-2.141,1.571-3.14c-4.208-0.468-11.7-1.439-19.204-4.566C76.619,175.915,61.788,171.58,60.822,156.516z"/>
		</g>
		<g>
			<path style="fill:#FFFFFF;stroke:#263238;stroke-linecap:round;stroke-linejoin:round;stroke-miterlimit:10;" d="
				M149.802,198.253c2.51-10.042-7.845-16.294-15.705-19.324c-11.533-4.446-24.016-2.161-35.551,1.012
				c-8.212,2.258-17.446,5.31-18.614,15.044c-1.226,10.215,7.355,19.612,27.376,24.516
				C123.271,223.41,145.43,215.737,149.802,198.253z"/>
			<g>
				<path style="fill:none;stroke:#263238;stroke-linecap:round;stroke-linejoin:round;stroke-miterlimit:10;" d="M98.368,199.549
					c-0.298,2.136-2.016,3.401-3.875,3.401c-1.959,0-3.577-1.476-3.824-3.388"/>
				<path style="fill:none;stroke:#263238;stroke-linecap:round;stroke-linejoin:round;stroke-miterlimit:10;" d="M94.113,196.355
					c-0.362,1.739-1.904,3.045-3.75,3.045c-2.116,0-3.831-1.715-3.831-3.831"/>
				<path style="fill:none;stroke:#263238;stroke-linecap:round;stroke-linejoin:round;stroke-miterlimit:10;" d="M101.691,196.355
					c-0.362,1.739-1.904,3.045-3.75,3.045c-2.116,0-3.831-1.715-3.831-3.831"/>
			</g>
			<g>
				<path style="fill:none;stroke:#263238;stroke-linecap:round;stroke-linejoin:round;stroke-miterlimit:10;" d="M111.204,204.684
					c-0.298,2.136-2.016,3.401-3.875,3.401c-1.959,0-3.577-1.476-3.824-3.388"/>
				<path style="fill:none;stroke:#263238;stroke-linecap:round;stroke-linejoin:round;stroke-miterlimit:10;" d="M106.949,201.489
					c-0.363,1.739-1.904,3.045-3.75,3.045c-2.116,0-3.831-1.715-3.831-3.831"/>
				<path style="fill:none;stroke:#263238;stroke-linecap:round;stroke-linejoin:round;stroke-miterlimit:10;" d="M114.527,201.489
					c-0.363,1.739-1.904,3.045-3.75,3.045c-2.116,0-3.831-1.715-3.831-3.831"/>
			</g>
			<g>
				<path style="fill:none;stroke:#263238;stroke-linecap:round;stroke-linejoin:round;stroke-miterlimit:10;" d="M100.507,210.032
					c-0.298,2.136-2.016,3.401-3.875,3.401c-1.959,0-3.577-1.476-3.824-3.388"/>
				<path style="fill:none;stroke:#263238;stroke-linecap:round;stroke-linejoin:round;stroke-miterlimit:10;" d="M96.252,206.837
					c-0.362,1.739-1.904,3.045-3.75,3.045c-2.116,0-3.831-1.715-3.831-3.831"/>
				<path style="fill:none;stroke:#263238;stroke-linecap:round;stroke-linejoin:round;stroke-miterlimit:10;" d="M103.83,206.837
					c-0.363,1.739-1.904,3.045-3.75,3.045c-2.116,0-3.831-1.715-3.831-3.831"/>
			</g>
			<g>
				<path style="fill:none;stroke:#263238;stroke-linecap:round;stroke-linejoin:round;stroke-miterlimit:10;" d="M116.338,213.669
					c-0.298,2.136-2.016,3.401-3.875,3.401c-1.959,0-3.577-1.476-3.824-3.388"/>
				<path style="fill:none;stroke:#263238;stroke-linecap:round;stroke-linejoin:round;stroke-miterlimit:10;" d="M112.083,210.474
					c-0.362,1.739-1.904,3.045-3.75,3.045c-2.116,0-3.831-1.715-3.831-3.831"/>
				<path style="fill:none;stroke:#263238;stroke-linecap:round;stroke-linejoin:round;stroke-miterlimit:10;" d="M119.661,210.474
					c-0.363,1.739-1.904,3.045-3.75,3.045c-2.116,0-3.831-1.715-3.831-3.831"/>
			</g>
			<g>
				<path style="fill:none;stroke:#263238;stroke-linecap:round;stroke-linejoin:round;stroke-miterlimit:10;" d="M127.249,207.465
					c-0.298,2.136-2.016,3.401-3.875,3.401c-1.959,0-3.577-1.476-3.824-3.388"/>
				<path style="fill:none;stroke:#263238;stroke-linecap:round;stroke-linejoin:round;stroke-miterlimit:10;" d="M122.994,204.27
					c-0.363,1.739-1.904,3.045-3.75,3.045c-2.116,0-3.831-1.715-3.831-3.831"/>
				<path style="fill:none;stroke:#263238;stroke-linecap:round;stroke-linejoin:round;stroke-miterlimit:10;" d="M130.572,204.27
					c-0.362,1.739-1.904,3.045-3.75,3.045c-2.116,0-3.831-1.715-3.831-3.831"/>
			</g>
		</g>
		<g>
			<path style="fill:#FFFFFF;stroke:#263238;stroke-linecap:round;stroke-linejoin:round;stroke-miterlimit:10;" d="
				M346.586,198.253c-2.51-10.042,7.845-16.294,15.705-19.324c11.533-4.446,24.016-2.161,35.551,1.012
				c8.212,2.258,17.446,5.31,18.614,15.044c1.226,10.215-7.355,19.612-27.376,24.516
				C373.117,223.41,350.957,215.737,346.586,198.253z"/>
			<g>
				<path style="fill:none;stroke:#263238;stroke-linecap:round;stroke-linejoin:round;stroke-miterlimit:10;" d="M398.02,199.549
					c0.298,2.136,2.016,3.401,3.875,3.401c1.959,0,3.577-1.476,3.824-3.388"/>
				<path style="fill:none;stroke:#263238;stroke-linecap:round;stroke-linejoin:round;stroke-miterlimit:10;" d="M402.275,196.355
					c0.362,1.739,1.904,3.045,3.75,3.045c2.116,0,3.831-1.715,3.831-3.831"/>
				<path style="fill:none;stroke:#263238;stroke-linecap:round;stroke-linejoin:round;stroke-miterlimit:10;" d="M394.697,196.355
					c0.363,1.739,1.904,3.045,3.75,3.045c2.116,0,3.831-1.715,3.831-3.831"/>
			</g>
			<g>
				<path style="fill:none;stroke:#263238;stroke-linecap:round;stroke-linejoin:round;stroke-miterlimit:10;" d="M385.184,204.684
					c0.298,2.136,2.016,3.401,3.875,3.401c1.959,0,3.577-1.476,3.824-3.388"/>
				<path style="fill:none;stroke:#263238;stroke-linecap:round;stroke-linejoin:round;stroke-miterlimit:10;" d="M389.439,201.489
					c0.363,1.739,1.904,3.045,3.75,3.045c2.116,0,3.831-1.715,3.831-3.831"/>
				<path style="fill:none;stroke:#263238;stroke-linecap:round;stroke-linejoin:round;stroke-miterlimit:10;" d="M381.861,201.489
					c0.362,1.739,1.904,3.045,3.75,3.045c2.116,0,3.831-1.715,3.831-3.831"/>
			</g>
			<g>
				<path style="fill:none;stroke:#263238;stroke-linecap:round;stroke-linejoin:round;stroke-miterlimit:10;" d="M395.881,210.032
					c0.298,2.136,2.016,3.401,3.875,3.401c1.959,0,3.577-1.476,3.824-3.388"/>
				<path style="fill:none;stroke:#263238;stroke-linecap:round;stroke-linejoin:round;stroke-miterlimit:10;" d="M400.135,206.837
					c0.363,1.739,1.904,3.045,3.75,3.045c2.116,0,3.831-1.715,3.831-3.831"/>
				<path style="fill:none;stroke:#263238;stroke-linecap:round;stroke-linejoin:round;stroke-miterlimit:10;" d="M392.557,206.837
					c0.362,1.739,1.904,3.045,3.75,3.045c2.116,0,3.831-1.715,3.831-3.831"/>
			</g>
			<g>
				<path style="fill:none;stroke:#263238;stroke-linecap:round;stroke-linejoin:round;stroke-miterlimit:10;" d="M380.05,213.669
					c0.298,2.136,2.016,3.401,3.875,3.401c1.959,0,3.577-1.476,3.824-3.388"/>
				<path style="fill:none;stroke:#263238;stroke-linecap:round;stroke-linejoin:round;stroke-miterlimit:10;" d="M384.304,210.474
					c0.363,1.739,1.904,3.045,3.75,3.045c2.116,0,3.831-1.715,3.831-3.831"/>
				<path style="fill:none;stroke:#263238;stroke-linecap:round;stroke-linejoin:round;stroke-miterlimit:10;" d="M376.726,210.474
					c0.363,1.739,1.904,3.045,3.75,3.045c2.116,0,3.831-1.715,3.831-3.831"/>
			</g>
			<g>
				<path style="fill:none;stroke:#263238;stroke-linecap:round;stroke-linejoin:round;stroke-miterlimit:10;" d="M369.139,207.465
					c0.298,2.136,2.016,3.401,3.875,3.401c1.959,0,3.577-1.476,3.824-3.388"/>
				<path style="fill:none;stroke:#263238;stroke-linecap:round;stroke-linejoin:round;stroke-miterlimit:10;" d="M373.394,204.27
					c0.362,1.739,1.904,3.045,3.75,3.045c2.116,0,3.831-1.715,3.831-3.831"/>
				<path style="fill:none;stroke:#263238;stroke-linecap:round;stroke-linejoin:round;stroke-miterlimit:10;" d="M365.816,204.27
					c0.362,1.739,1.904,3.045,3.75,3.045c2.116,0,3.831-1.715,3.831-3.831"/>
			</g>
		</g>
		<g>
			<path style="fill:none;stroke:#263238;stroke-linecap:round;stroke-linejoin:round;stroke-miterlimit:10;" d="M273.294,310.018
				c1.031-0.207,2.074-0.429,3.129-0.667"/>
			<path style="fill:none;stroke:#263238;stroke-linecap:round;stroke-linejoin:round;stroke-miterlimit:10;" d="M232.465,311.214
				c7.724,1.246,20.387,2.231,36.251-0.363"/>
			<path style="fill:none;stroke:#263238;stroke-linecap:round;stroke-linejoin:round;stroke-miterlimit:10;" d="M224.098,309.351
				c0,0,1.623,0.541,4.632,1.173"/>
			<path style="fill:none;stroke:#263238;stroke-linecap:round;stroke-linejoin:round;stroke-miterlimit:10;" d="M244.747,320.117
				c8.516,0.32,19.305-0.258,31.676-3.051"/>
			<path style="fill:none;stroke:#263238;stroke-linecap:round;stroke-linejoin:round;stroke-miterlimit:10;" d="M224.098,317.066
				c0,0,5.943,1.981,16.179,2.791"/>
			<path style="fill:none;stroke:#263238;stroke-linecap:round;stroke-linejoin:round;stroke-miterlimit:10;" d="M270.87,325.91
				c0.893-0.162,1.796-0.335,2.709-0.52"/>
			<path style="fill:none;stroke:#263238;stroke-linecap:round;stroke-linejoin:round;stroke-miterlimit:10;" d="M228.845,325.978
				c6.877,1.433,20.816,3.302,39.103,0.426"/>
			<path style="fill:none;stroke:#263238;stroke-linecap:round;stroke-linejoin:round;stroke-miterlimit:10;" d="M265.38,334.496
				c1.01-0.138,2.034-0.29,3.072-0.457"/>
			<path style="fill:none;stroke:#263238;stroke-linecap:round;stroke-linejoin:round;stroke-miterlimit:10;" d="M245.001,335.556
				c4.591,0.162,9.834,0.062,15.622-0.503"/>
			<path style="fill:none;stroke:#263238;stroke-linecap:round;stroke-linejoin:round;stroke-miterlimit:10;" d="M233.542,334.525
				c2.443,0.364,5.321,0.69,8.588,0.892"/>
			<path style="fill:none;stroke:#263238;stroke-linecap:round;stroke-linejoin:round;stroke-miterlimit:10;" d="M236.649,342.649
				c7.117,0.82,16.962,1.169,28.756-0.442"/>
			<path style="fill:none;stroke:#263238;stroke-linecap:round;stroke-linejoin:round;stroke-miterlimit:10;" d="M253.991,350.948
				c2.774-0.118,5.706-0.34,8.782-0.695"/>
			<path style="fill:none;stroke:#263238;stroke-linecap:round;stroke-linejoin:round;stroke-miterlimit:10;" d="M238.275,350.538
				c3.259,0.322,7.019,0.534,11.217,0.516"/>
			<path style="fill:none;stroke:#263238;stroke-linecap:round;stroke-linejoin:round;stroke-miterlimit:10;" d="M239.958,358.405
				c5.922,0.487,13.312,0.586,21.841-0.329"/>
			<path style="fill:none;stroke:#263238;stroke-linecap:round;stroke-linejoin:round;stroke-miterlimit:10;" d="M250.801,366.47
				c3.329-0.052,6.918-0.25,10.738-0.652"/>
			<path style="fill:none;stroke:#263238;stroke-linecap:round;stroke-linejoin:round;stroke-miterlimit:10;" d="M241.625,366.243
				c2.001,0.133,4.153,0.219,6.444,0.237"/>
			<path style="fill:none;stroke:#263238;stroke-linecap:round;stroke-linejoin:round;stroke-miterlimit:10;" d="M255.402,374.023
				c1.75-0.095,3.56-0.232,5.426-0.418"/>
			<path style="fill:none;stroke:#263238;stroke-linecap:round;stroke-linejoin:round;stroke-miterlimit:10;" d="M241.623,373.958
				c2.941,0.195,6.207,0.29,9.763,0.217"/>
			<path style="fill:none;stroke:#263238;stroke-linecap:round;stroke-linejoin:round;stroke-miterlimit:10;" d="M250.026,381.909
				c3.127-0.028,6.491-0.184,10.068-0.518"/>
			<path style="fill:none;stroke:#263238;stroke-linecap:round;stroke-linejoin:round;stroke-miterlimit:10;" d="M241.383,381.656
				c1.792,0.123,3.707,0.209,5.736,0.242"/>
			<path style="fill:none;stroke:#263238;stroke-linecap:round;stroke-linejoin:round;stroke-miterlimit:10;" d="M241.365,389.37
				c5.257,0.362,11.569,0.404,18.731-0.264"/>
			<path style="fill:none;stroke:#263238;stroke-linecap:round;stroke-linejoin:round;stroke-miterlimit:10;" d="M257.529,397.033
				c0.689-0.05,1.387-0.106,2.093-0.169"/>
			<path style="fill:none;stroke:#263238;stroke-linecap:round;stroke-linejoin:round;stroke-miterlimit:10;" d="M240.92,397.052
				c3.749,0.274,8.05,0.387,12.826,0.193"/>
		</g>
	</g>
</g>
<g id="Labels">
	<g>
		<path style="fill:#263238;" d="M230.448,93.416c0,1.137,0.451,1.823,1.48,1.823c1.011,0,1.462-0.685,1.462-1.823V83.76h1.317
			v9.583c0,1.913-0.884,3.195-2.833,3.195c-1.931,0-2.816-1.282-2.816-3.195V83.76h1.39V93.416z"/>
		<path style="fill:#263238;" d="M237.921,96.394V85.041h-2.328V83.76h6.046v1.281h-2.328v11.353H237.921z"/>
		<path style="fill:#263238;" d="M247.089,89.355v1.263h-3.086v4.494h3.79v1.282h-5.198V83.76h5.198v1.281h-3.79v4.314H247.089z"/>
		<path style="fill:#263238;" d="M251.909,83.76c1.985,0,2.815,1.01,2.815,2.888v1.029c0,1.389-0.487,2.256-1.571,2.598
			c1.155,0.343,1.589,1.282,1.589,2.636v1.967c0,0.559,0.019,1.083,0.253,1.516h-1.426c-0.163-0.361-0.235-0.685-0.235-1.535v-1.985
			c0-1.426-0.668-1.877-1.839-1.877h-0.993v5.396h-1.408V83.76H251.909z M251.548,89.716c1.118,0,1.785-0.361,1.785-1.733v-1.21
			c0-1.136-0.415-1.733-1.461-1.733h-1.372v4.675H251.548z"/>
		<path style="fill:#263238;" d="M257.54,93.416c0,1.137,0.451,1.823,1.48,1.823c1.011,0,1.462-0.685,1.462-1.823V83.76h1.317v9.583
			c0,1.913-0.883,3.195-2.833,3.195c-1.931,0-2.816-1.282-2.816-3.195V83.76h1.39V93.416z"/>
		<path style="fill:#263238;" d="M268.659,86.792v0.343h-1.336V86.72c0-1.137-0.433-1.804-1.443-1.804
			c-1.012,0-1.444,0.668-1.444,1.787c0,2.834,4.241,3.104,4.241,6.66c0,1.913-0.92,3.158-2.851,3.158
			c-1.932,0-2.834-1.245-2.834-3.158V92.64h1.318v0.793c0,1.137,0.47,1.805,1.48,1.805c1.011,0,1.481-0.668,1.481-1.805
			c0-2.815-4.224-3.086-4.224-6.641c0-1.949,0.903-3.158,2.797-3.158C267.756,83.634,268.659,84.879,268.659,86.792z"/>
	</g>
	<g>
		<path style="fill:#263238;" d="M97.345,257.816c0-1.931,0.956-3.176,2.888-3.176c1.949,0,2.905,1.245,2.905,3.176v6.533
			c0,1.913-0.956,3.177-2.905,3.177c-1.931,0-2.888-1.264-2.888-3.177V257.816z M98.734,264.422c0,1.155,0.487,1.823,1.498,1.823
			c1.029,0,1.498-0.668,1.498-1.823v-6.678c0-1.137-0.469-1.823-1.498-1.823c-1.011,0-1.498,0.685-1.498,1.823V264.422z"/>
		<path style="fill:#263238;" d="M105.521,254.767l2.058,10.991l2.039-10.991h1.299l-2.364,12.633h-2.076l-2.382-12.633H105.521z"/>
		<path style="fill:#263238;" d="M112.976,264.856l-0.487,2.545h-1.3l2.419-12.633h2.04l2.418,12.633h-1.408l-0.487-2.545H112.976z
			 M113.157,263.647h2.816l-1.426-7.292L113.157,263.647z"/>
		<path style="fill:#263238;" d="M121.983,254.767c1.986,0,2.816,1.01,2.816,2.888v1.029c0,1.389-0.487,2.256-1.57,2.598
			c1.155,0.343,1.589,1.282,1.589,2.636v1.967c0,0.559,0.018,1.083,0.252,1.516h-1.426c-0.162-0.361-0.235-0.685-0.235-1.535v-1.985
			c0-1.426-0.668-1.877-1.84-1.877h-0.993v5.396h-1.408v-12.633H121.983z M121.622,260.723c1.119,0,1.786-0.361,1.786-1.733v-1.21
			c0-1.137-0.415-1.733-1.461-1.733h-1.372v4.675H121.622z"/>
		<path style="fill:#263238;" d="M128.336,262.87l-2.671-8.103h1.462l1.967,6.208l1.986-6.208h1.335l-2.689,8.103v4.53h-1.39V262.87
			z"/>
	</g>
	<g>
		<path style="fill:#263238;" d="M341.928,257.816v1.138h-1.337v-1.209c0-1.137-0.45-1.823-1.479-1.823
			c-1.012,0-1.481,0.685-1.481,1.823v6.678c0,1.137,0.469,1.823,1.481,1.823c1.029,0,1.479-0.685,1.479-1.823v-1.642h1.337v1.57
			c0,1.913-0.903,3.177-2.853,3.177c-1.931,0-2.833-1.264-2.833-3.177v-6.533c0-1.913,0.902-3.176,2.833-3.176
			C341.025,254.64,341.928,255.903,341.928,257.816z"/>
		<path style="fill:#263238;" d="M347.704,260.362v1.263h-3.087v4.494h3.79v1.282h-5.198v-12.633h5.198v1.281h-3.79v4.314H347.704z"
			/>
		<path style="fill:#263238;" d="M352.523,254.767c1.986,0,2.815,1.01,2.815,2.888v1.029c0,1.389-0.487,2.256-1.57,2.598
			c1.155,0.343,1.589,1.282,1.589,2.636v1.967c0,0.559,0.019,1.083,0.253,1.516h-1.427c-0.162-0.361-0.234-0.685-0.234-1.535v-1.985
			c0-1.426-0.668-1.877-1.841-1.877h-0.992v5.396h-1.408v-12.633H352.523z M352.162,260.723c1.119,0,1.787-0.361,1.787-1.733v-1.21
			c0-1.137-0.415-1.733-1.462-1.733h-1.371v4.675H352.162z"/>
		<path style="fill:#263238;" d="M357.847,254.767l2.058,10.991l2.039-10.991h1.299L360.88,267.4h-2.076l-2.382-12.633H357.847z"/>
		<path style="fill:#263238;" d="M365.736,254.767V267.4h-1.408v-12.633H365.736z"/>
		<path style="fill:#263238;" d="M370.32,261.949l-2.112,5.451h-1.335l2.544-6.516l-2.382-6.118h1.462l1.949,5.053l1.967-5.053
			h1.317l-2.364,6.118l2.528,6.516h-1.481L370.32,261.949z"/>
	</g>
	<g>
		<path style="fill:#263238;" d="M233.362,437.601l2.058,10.991l2.04-10.991h1.299l-2.364,12.633h-2.075l-2.383-12.633H233.362z"/>
		<path style="fill:#263238;" d="M240.817,447.69l-0.487,2.545h-1.3l2.419-12.633h2.04l2.419,12.633h-1.408l-0.487-2.545H240.817z
			 M240.998,446.481h2.816l-1.426-7.292L240.998,446.481z"/>
		<path style="fill:#263238;" d="M252.568,440.65v1.084h-1.337v-1.155c0-1.137-0.451-1.823-1.48-1.823
			c-1.011,0-1.48,0.685-1.48,1.823v6.678c0,1.137,0.469,1.823,1.48,1.823c1.029,0,1.48-0.685,1.48-1.823v-2.527h-1.299v-1.263h2.636
			v3.717c0,1.913-0.903,3.177-2.852,3.177c-1.931,0-2.833-1.264-2.833-3.177v-6.533c0-1.913,0.902-3.176,2.833-3.176
			C251.665,437.474,252.568,438.737,252.568,440.65z"/>
		<path style="fill:#263238;" d="M255.312,437.601v12.633h-1.408v-12.633H255.312z"/>
		<path style="fill:#263238;" d="M258.001,450.234h-1.264v-12.633h1.786l2.924,9.132v-9.132h1.245v12.633h-1.462l-3.23-10.215
			V450.234z"/>
		<path style="fill:#263238;" d="M265.563,447.69l-0.487,2.545h-1.299l2.418-12.633h2.04l2.419,12.633h-1.408l-0.487-2.545H265.563z
			 M265.744,446.481h2.815l-1.426-7.292L265.744,446.481z"/>
	</g>
	<g>
		<path style="fill:#263238;" d="M389.505,89.644v1.282H386.6v5.468h-1.408V83.76h5.018v1.281H386.6v4.603H389.505z"/>
		<path style="fill:#263238;" d="M392.52,93.849l-0.487,2.545h-1.3l2.419-12.633h2.039l2.418,12.633h-1.408l-0.486-2.545H392.52z
			 M392.701,92.64h2.816l-1.427-7.292L392.701,92.64z"/>
		<path style="fill:#263238;" d="M398.712,96.394V83.76h1.407v11.352h3.61v1.282H398.712z"/>
		<path style="fill:#263238;" d="M404.794,96.394V83.76h1.408v11.352h3.609v1.282H404.794z"/>
		<path style="fill:#263238;" d="M410.77,86.81c0-1.931,0.956-3.176,2.887-3.176c1.949,0,2.905,1.245,2.905,3.176v6.533
			c0,1.913-0.956,3.177-2.905,3.177c-1.931,0-2.887-1.264-2.887-3.177V86.81z M412.159,93.416c0,1.155,0.487,1.823,1.497,1.823
			c1.029,0,1.498-0.668,1.498-1.823v-6.678c0-1.137-0.47-1.823-1.498-1.823c-1.01,0-1.497,0.685-1.497,1.823V93.416z"/>
		<path style="fill:#263238;" d="M420.659,83.76c1.986,0,2.834,1.173,2.834,3.086v1.516c0,2.003-0.938,3.05-2.942,3.05h-1.245v4.981
			h-1.408V83.76H420.659z M420.551,90.149c1.047,0,1.552-0.487,1.552-1.696v-1.679c0-1.155-0.416-1.733-1.444-1.733h-1.353v5.108
			H420.551z"/>
		<path style="fill:#263238;" d="M426.002,83.76v12.633h-1.408V83.76H426.002z"/>
		<path style="fill:#263238;" d="M428.872,93.849l-0.487,2.545h-1.299l2.418-12.633h2.04l2.419,12.633h-1.408l-0.487-2.545H428.872z
			 M429.053,92.64h2.815l-1.426-7.292L429.053,92.64z"/>
		<path style="fill:#263238;" d="M436.309,96.394h-1.264V83.76h1.788l2.924,9.132V83.76h1.244v12.633h-1.462l-3.23-10.215V96.394z"
			/>
		<path style="fill:#263238;" d="M447.067,96.394V85.041h-2.329V83.76h6.047v1.281h-2.329v11.353H447.067z"/>
		<path style="fill:#263238;" d="M453.076,93.416c0,1.137,0.452,1.823,1.481,1.823c1.01,0,1.462-0.685,1.462-1.823V83.76h1.317
			v9.583c0,1.913-0.884,3.195-2.833,3.195c-1.932,0-2.816-1.282-2.816-3.195V83.76h1.389V93.416z"/>
		<path style="fill:#263238;" d="M461.56,83.76c1.968,0,2.744,0.938,2.744,2.798v0.595c0,1.336-0.38,2.166-1.481,2.508
			c1.228,0.343,1.696,1.318,1.696,2.707v1.065c0,1.895-0.92,2.96-2.887,2.96h-2.906V83.76H461.56z M461.218,89.12
			c1.118,0,1.696-0.361,1.696-1.679v-0.739c0-1.119-0.38-1.661-1.391-1.661h-1.389v4.079H461.218z M461.633,95.112
			c1.029,0,1.497-0.541,1.497-1.714v-1.12c0-1.407-0.559-1.877-1.769-1.877h-1.227v4.711H461.633z"/>
		<path style="fill:#263238;" d="M470.297,89.355v1.263h-3.087v4.494H471v1.282h-5.198V83.76H471v1.281h-3.79v4.314H470.297z"/>
	</g>
	<g>
		<line style="fill:none;stroke:#263238;stroke-miterlimit:10;" x1="328.196" y1="259.968" x2="274.046" y2="259.968"/>
		<path style="fill:#263238;stroke:#263238;stroke-miterlimit:10;" d="M276.5,259.968c0-1.355-1.099-2.454-2.453-2.454
			c-1.355,0-2.454,1.099-2.454,2.454c0,1.355,1.099,2.453,2.454,2.453C275.401,262.421,276.5,261.323,276.5,259.968z"/>
	</g>
	<g>
		<line style="fill:none;stroke:#263238;stroke-miterlimit:10;" x1="114.824" y1="248.355" x2="114.824" y2="220.425"/>
		<path style="fill:#263238;stroke:#263238;stroke-miterlimit:10;" d="M114.824,222.878c-1.355,0-2.454-1.098-2.454-2.453
			c0-1.355,1.099-2.454,2.454-2.454c1.355,0,2.453,1.099,2.453,2.454C117.278,221.78,116.179,222.878,114.824,222.878z"/>
	</g>
	<g>
		<line style="fill:none;stroke:#263238;stroke-miterlimit:10;" x1="249.599" y1="435.134" x2="249.599" y2="407.204"/>
		<path style="fill:#263238;stroke:#263238;stroke-miterlimit:10;" d="M249.599,409.657c-1.355,0-2.453-1.099-2.453-2.454
			c0-1.355,1.098-2.454,2.453-2.454c1.355,0,2.454,1.098,2.454,2.454C252.053,408.559,250.955,409.657,249.599,409.657z"/>
	</g>
	<g>
		<line style="fill:none;stroke:#263238;stroke-miterlimit:10;" x1="248.923" y1="99.684" x2="248.923" y2="127.614"/>
		<path style="fill:#263238;stroke:#263238;stroke-miterlimit:10;" d="M248.923,125.16c1.355,0,2.454,1.099,2.454,2.454
			c0,1.355-1.098,2.454-2.454,2.454c-1.355,0-2.453-1.099-2.453-2.454C246.469,126.259,247.568,125.16,248.923,125.16z"/>
	</g>
	<g>
		<line style="fill:none;stroke:#263238;stroke-miterlimit:10;" x1="432.589" y1="99.684" x2="432.589" y2="136.108"/>
		<circle style="fill:#263238;stroke:#263238;stroke-miterlimit:10;" cx="432.589" cy="136.108" r="2.454"/>
	</g>
</g>
</svg>
