<?xml version="1.0" encoding="utf-8"?>
<!-- Generator: Adobe Illustrator 27.5.0, SVG Export Plug-In . SVG Version: 6.00 Build 0)  -->
<svg version="1.1" xmlns="http://www.w3.org/2000/svg" xmlns:xlink="http://www.w3.org/1999/xlink" x="0px" y="0px"
	 viewBox="0 0 499.999 500" style="enable-background:new 0 0 499.999 500;" xml:space="preserve">
<g id="BACKGROUND">
	<rect x="-0.001" y="0.001" style="fill:#FFFFFF;" width="500" height="500"/>
</g>
<g id="OBJECTS">
	<g>
		<g>
			<g>
				<path style="fill:#FF8EB9;" d="M243.482,230.196l14.982-25.498l25.535-43.453L233,165.783l-5.001,0.462l47-71l-59,6l0,0
					l24.924-58.843c-12.507,4.307-25.884,10.723-36.707,18.198c-37.264,25.742-69.809,19.688-111.791,28.191
					c-46.316,9.381-68.206,53.438-55.868,97.854c10.398,47.557,64.931,59.051,105.885,54.912
					C179.858,237.775,208.33,230.237,243.482,230.196z"/>
			</g>
			<g>
				<path style="fill:#AAC5FF;" d="M459.843,139.912c-15.795-38.743-76.99-84.698-114.119-95.299
					c-33.238-13.025-71.146-13.415-104.801-2.211l-24.924,58.843l59-6l0,0l-47,71l56-5.168c0,0-0.135,0.277,0,0
					c0.133-0.277-26.488,45.244-26.488,45.244l-14.029,23.875c15.125,0.058,36.642,1.484,52.967,5.281
					c39.797,8.199,85.275,13.254,125.043,2.452C465.318,226.025,475.685,178.764,459.843,139.912z"/>
			</g>
			<g>
				<path style="fill:#FFFFFF;" d="M248.999,23.245l-3.548,9.994c-1.177,3.334-2.422,6.639-3.63,9.959l-3.666,9.944l-3.733,9.915
					l-3.735,9.915l-3.818,9.88l-3.817,9.88c-1.28,3.29-2.526,6.595-3.841,9.87l-3.562-4.825l29.432-3.669l14.724-1.754l14.729-1.706
					l9.671-1.119l-5.352,8.264l-11.572,17.868l-11.646,17.818l-11.718,17.771l-11.792,17.723l-4.563-7.655l28.019-2.286
					l14.015-1.087l14.02-1.035l8.504-0.628l-4.366,7.166c-2.439,4.004-4.896,7.997-7.385,11.972l-7.432,11.945
					c-2.488,3.975-4.928,7.979-7.458,11.929l-7.55,11.875l-3.775,5.938c-1.249,1.985-2.545,3.942-3.818,5.913l-7.667,11.807
					l-7.77,11.746l-3.93,5.847l-3.967,5.825l3.158-6.3l3.195-6.278l6.48-12.504l6.583-12.443c1.102-2.071,2.181-4.155,3.307-6.212
					l3.35-6.188l6.7-12.375c2.22-4.133,4.53-8.212,6.791-12.321l6.818-12.305c2.263-4.108,4.556-8.198,6.866-12.277l4.138,6.537
					l-13.98,1.465l-13.985,1.413l-27.981,2.714l-10.261,0.996l5.698-8.651l11.708-17.777l11.782-17.729l11.853-17.682l11.929-17.632
					l4.318,7.145l-14.77,1.294l-14.776,1.246l-29.568,2.332l-5.917,0.467l2.355-5.291c1.435-3.225,2.938-6.42,4.409-9.63l4.433-9.62
					l4.432-9.62l4.515-9.585l4.517-9.585l4.584-9.556c1.541-3.18,3.047-6.375,4.62-9.541L248.999,23.245z"/>
			</g>
		</g>
		<g>
			<g>
				<g>
					<g>
						<g>
							<path style="fill:#E4508E;" d="M150.608,171.292c2.624-7.645,9.648-10.446,17.101-8.011
								c7.643,2.497,10.322,10.119,7.812,17.275c-2.482,7.078-10.702,9.175-17.286,7.468
								C150.092,185.912,147.733,178.624,150.608,171.292c1.768-4.509-5.488-6.444-7.232-1.994
								c-4.388,11.192,0.883,21.778,12.053,25.71c10.418,3.667,22.722-1.188,26.94-11.517c4.515-11.053-0.651-22.923-11.853-27.137
								c-11.647-4.381-23.148,1.313-27.14,12.943C141.801,173.886,149.047,175.839,150.608,171.292L150.608,171.292z"/>
						</g>
					</g>
					<g>
						<g>
							<path style="fill:#E4508E;" d="M148.345,165.597c-6.646-2.765-13.293-5.53-19.939-8.295
								c-4.465-1.858-6.392,5.402-1.994,7.232c6.646,2.765,13.293,5.53,19.939,8.295
								C150.816,174.687,152.743,167.427,148.345,165.597L148.345,165.597z"/>
						</g>
					</g>
					<g>
						<g>
							<path style="fill:#E4508E;" d="M135.13,156.144c-2.008,4.828-4.016,9.656-6.024,14.483c-0.787,1.891,0.835,4.122,2.619,4.613
								c2.159,0.594,3.829-0.733,4.613-2.619c2.008-4.828,4.016-9.656,6.024-14.483c0.787-1.891-0.835-4.122-2.619-4.613
								C137.585,152.931,135.915,154.258,135.13,156.144L135.13,156.144z"/>
						</g>
					</g>
				</g>
				<g>
					<g>
						<g>
							<path style="fill:#E4508E;" d="M145.33,221.993c-0.523-9.534-8.554-15.908-16.997-18.836
								c-6.724-2.332-20.674-2.361-23.507,6.316c-1.129,3.459,1.271,8.129,3.246,10.807c2.751,3.73,6.929,6.131,11.173,7.771
								c8.384,3.239,19.569,2.626,25.584-4.736c0.911-1.115-0.673-2.718-1.593-1.593c-9.391,11.495-34.262,5.431-36.232-9.723
								c-0.528-4.062,4.767-6.491,8.015-7.425c3.795-1.092,7.945-0.557,11.687,0.439c7.835,2.084,15.899,8.355,16.373,16.979
								C143.157,223.437,145.41,223.445,145.33,221.993L145.33,221.993z"/>
						</g>
					</g>
					<g>
						<g>
							<g>
								<path style="fill:#E4508E;" d="M127.441,207.138c-5.288-1.342-9.994,1.46-11.442,6.71
									c-1.568,5.686,2.581,10.516,8.044,11.418C135.01,227.079,138.369,209.567,127.441,207.138
									c-1.415-0.314-2.016,1.857-0.599,2.172c8.018,1.782,6.091,14.006-1.891,13.803c-10.336-0.262-8.136-16.348,1.891-13.803
									C128.251,209.667,128.849,207.495,127.441,207.138L127.441,207.138z"/>
							</g>
						</g>
						<g>
							<path style="fill:#E4508E;" d="M126.101,212.037c-5.146-1.497-7.544,6.207-2.419,7.916
								C129.41,221.862,131.412,213.031,126.101,212.037"/>
						</g>
					</g>
					<g>
						<g>
							<g>
								<path style="fill:#E4508E;" d="M129.647,204.349c0.98-3.001,1.961-6.002,2.941-9.003c0.452-1.385-1.723-1.973-2.172-0.599
									c-0.98,3.001-1.961,6.002-2.941,9.003C127.023,205.135,129.198,205.723,129.647,204.349L129.647,204.349z"/>
							</g>
						</g>
						<g>
							<g>
								<path style="fill:#E4508E;" d="M121.066,202.448c-0.2-2.982-0.4-5.963-0.601-8.945c-0.097-1.441-2.35-1.451-2.252,0
									c0.2,2.982,0.4,5.963,0.601,8.945C118.911,203.889,121.164,203.898,121.066,202.448L121.066,202.448z"/>
							</g>
						</g>
						<g>
							<g>
								<path style="fill:#E4508E;" d="M113.452,203.33c-1.487-2.39-2.975-4.779-4.462-7.169c-0.765-1.23-2.714-0.1-1.944,1.137
									c1.487,2.39,2.975,4.779,4.462,7.169C112.273,205.696,114.222,204.566,113.452,203.33L113.452,203.33z"/>
							</g>
						</g>
						<g>
							<g>
								<path style="fill:#E4508E;" d="M137.917,208.857c1.922-2.288,3.844-4.576,5.766-6.864c0.927-1.105-0.657-2.706-1.593-1.593
									c-1.922,2.288-3.844,4.576-5.766,6.864C135.397,208.368,136.981,209.97,137.917,208.857L137.917,208.857z"/>
							</g>
						</g>
						<g>
							<g>
								<path style="fill:#E4508E;" d="M142.584,214.722c2.611-1.05,5.223-2.101,7.834-3.151c1.33-0.535,0.749-2.714-0.599-2.172
									c-2.611,1.05-5.223,2.101-7.834,3.151C140.656,213.085,141.236,215.265,142.584,214.722L142.584,214.722z"/>
							</g>
						</g>
					</g>
				</g>
				<g>
					<g>
						<g>
							<path style="fill:#FFFFFF;" d="M77.568,161.936c5.4-5.432,9.405-0.851,13.02,3.637c2.526,3.138,5.073,6.172,8.595,8.215
								c-0.149-0.57-0.299-1.139-0.448-1.709c-7.088,10.061-15.737,13.993-27.907,11.424c-11.047-2.332-16.473-10.268-18.871-20.769
								c-0.291,0.512-0.582,1.024-0.872,1.536c4.067-0.588,7.575-2.472,11.133-4.434c4.874-2.687,10.364-5.233,13.152,1.524
								c0.605,1.467,3.023,0.825,2.408-0.664c-5.795-14.044-17.918-0.2-27.358,1.165c-0.695,0.1-1.009,0.938-0.872,1.536
								c2.799,12.258,9.445,20.156,21.981,22.802c12.708,2.683,22.124-2.588,29.362-12.86c0.392-0.556,0.103-1.389-0.448-1.709
								c-8.097-4.697-14.015-22.151-24.642-11.462C74.666,161.313,76.432,163.08,77.568,161.936L77.568,161.936z"/>
						</g>
					</g>
					<g>
						<g>
							<path style="fill:#FFFFFF;" d="M51.59,165.46c6.733,4.622,15.191,6.65,23.096,8.152c7.627,1.45,15.798,2.336,23.493,0.941
								c1.583-0.287,0.911-2.694-0.664-2.408c-7.704,1.396-15.916,0.247-23.52-1.199c-7.253-1.378-14.991-3.419-21.145-7.644
								C51.519,162.389,50.271,164.555,51.59,165.46L51.59,165.46z"/>
						</g>
					</g>
				</g>
				<g>
					<g>
						<g>
							<path style="fill:#E4508E;" d="M191.379,138.114c1.859,6.91,3.718,13.82,5.577,20.73c0.218,0.809,1.12,1.352,1.938,1.1
								c6.426-1.979,12.852-3.957,19.277-5.936c0.781-0.24,1.384-1.107,1.1-1.938c-2.313-6.755-4.627-13.51-6.94-20.265
								c-0.271-0.794-1.079-1.362-1.938-1.1c-5.971,1.823-11.942,3.646-17.914,5.47c-1.936,0.591-1.11,3.632,0.838,3.037
								c5.971-1.823,11.942-3.646,17.914-5.47c-0.646-0.367-1.292-0.733-1.938-1.1c2.314,6.755,4.627,13.51,6.94,20.265
								c0.367-0.646,0.733-1.292,1.1-1.938c-6.426,1.979-12.852,3.957-19.277,5.936c0.646,0.367,1.292,0.733,1.938,1.1
								c-1.859-6.91-3.718-13.82-5.577-20.73C193.89,135.316,190.851,136.149,191.379,138.114L191.379,138.114z"/>
						</g>
					</g>
					<g>
						<g>
							<path style="fill:#E4508E;" d="M195.943,136.594c-0.323-1.615-0.647-3.23-0.97-4.846c-0.331,0.584-0.663,1.167-0.994,1.751
								c4.388-1.33,8.776-2.661,13.165-3.991c-0.583-0.331-1.167-0.662-1.751-0.994c0.668,1.596,1.335,3.192,2.003,4.788
								c0.697,1.667,3.452,0.936,2.744-0.757c-0.667-1.596-1.335-3.192-2.003-4.788c-0.293-0.7-0.938-1.24-1.751-0.994
								c-4.388,1.33-8.776,2.661-13.165,3.991c-0.782,0.237-1.149,0.975-0.994,1.751c0.323,1.615,0.646,3.23,0.97,4.846
								C193.559,139.149,196.302,138.386,195.943,136.594L195.943,136.594z"/>
						</g>
					</g>
					<g>
						<g>
							<path style="fill:#E4508E;" d="M195.974,131.137c-1.9-6.037-3.798-12.074-5.697-18.111c-0.516-1.641-3.102-0.94-2.582,0.712
								c1.899,6.037,3.798,12.074,5.697,18.111C193.908,133.49,196.494,132.789,195.974,131.137L195.974,131.137z"/>
						</g>
					</g>
					<g>
						<g>
							<path style="fill:#E4508E;" d="M206.728,127.35c-1.505-3.941-3.009-7.883-4.514-11.824c-0.609-1.596-3.199-0.904-2.582,0.712
								c1.505,3.941,3.009,7.883,4.514,11.824C204.755,129.658,207.345,128.965,206.728,127.35L206.728,127.35z"/>
						</g>
					</g>
					<g>
						<g>
							<path style="fill:#E4508E;" d="M202.767,116.677c-0.735-6.122-8.372-8.492-13.534-6.284
								c-2.858,1.223-1.914,4.533-0.025,6.172c3.28,2.846,8.714,2.604,12.576,1.403c1.643-0.511,0.941-3.096-0.712-2.582
								c-2.839,0.883-5.715,0.983-8.549,0.029c-1.478-0.497-3.666-2.24-1.298-2.912c3.12-0.885,8.413,0.42,8.864,4.173
								C200.292,118.37,202.973,118.389,202.767,116.677L202.767,116.677z"/>
						</g>
					</g>
				</g>
				<g>
					<path style="fill:#FFFFFF;" d="M221.156,221.754c-4.92-4.689-24.753-15.653-19.681-25.761c3.532-7.038,15.628-5.355,16.4,2.308
						c-0.689-9.529,11.027-13.122,15.58-6.217C238.217,199.307,225.329,216.948,221.156,221.754"/>
				</g>
				<g>
					<g>
						<g>
							<path style="fill:#E4508E;" d="M104.699,123.876c3.571-3.47,8.551-15.408,1.967-18.24
								c-9.06-3.896-10.143,9.902-10.587,15.134c0.699-0.189,1.399-0.379,2.098-0.568c-2.141-3.46-7.16-14.487-12.958-11.63
								c-9.949,4.902,0.752,14.119,6.104,16.867c0.189-0.699,0.379-1.399,0.568-2.098c-5.159-0.293-16.048-0.456-15.651,7.12
								c0.545,10.398,12.93,3.453,17.143,0.522c-0.514-0.513-1.027-1.027-1.54-1.541c-2.282,5.361-8.377,14.497-0.276,17.767
								c10.687,4.315,9.268-9.226,8.843-15.121c-0.699,0.189-1.399,0.379-2.098,0.568c1.977,4.175,9.099,16.872,15.396,11.085
								c6.765-6.216-2.273-12.751-7.85-15.397c-0.289,0.686-0.579,1.372-0.868,2.058c4.601,0.989,18.369,3.164,16.862-5.543
								c-1.444-8.345-13.471-6.239-18.518-2.752c-1.186,0.819-0.062,2.772,1.137,1.944c3.553-2.455,13.05-5.156,15.045,0.457
								c2.386,6.715-11.018,4.347-13.927,3.722c-1.189-0.255-2.076,1.485-0.868,2.058c2.078,0.987,3.988,2.131,5.803,3.555
								c2.526,1.982,6.329,9.914-1.001,8.828c-4.377-0.648-7.59-7.612-9.268-11.152c-0.476-1.004-2.177-0.526-2.098,0.568
								c0.301,4.185,2.718,13.404-3.844,13.358c-9.014-0.063-2.172-11.002-0.527-14.868c0.39-0.915-0.5-2.265-1.54-1.54
								c-3.449,2.398-13.348,9.176-13.799,0.572c-0.25-4.788,10.546-4.183,13.444-4.018c1.108,0.063,1.554-1.593,0.568-2.098
								c-2.665-1.369-5.058-2.864-7.172-5.024c-4.055-4.143,0.324-10.336,4.833-6.142c2.646,2.46,4.237,5.979,6.113,9.01
								c0.619,1,2.005,0.523,2.098-0.568c0.348-4.088,0.542-16.052,7.88-12.896c4.222,1.815-1.136,12.498-3.104,14.41
								C102.063,123.297,103.657,124.888,104.699,123.876L104.699,123.876z"/>
						</g>
					</g>
					<g>
						<g>
							<path style="fill:#E4508E;" d="M98.32,133.419c8.938,0,8.938-13.86,0-13.86C89.382,119.559,89.382,133.419,98.32,133.419
								L98.32,133.419z"/>
						</g>
					</g>
					<g>
						<g>
							<path style="fill:#FF8EB9;" d="M98.32,129.639c4.062,0,4.062-6.3,0-6.3C94.257,123.339,94.257,129.639,98.32,129.639
								L98.32,129.639z"/>
						</g>
					</g>
				</g>
				<g>
					
						<rect x="137.334" y="94.456" transform="matrix(0.9875 -0.1574 0.1574 0.9875 -13.9465 23.184)" style="fill:#FFFFFF;" width="4.157" height="10.391"/>
					<g>
						<path style="fill:#FFFFFF;" d="M151.307,93.143c4.336,2.805,8.671,5.608,13.001,8.405l0.352,2.217l0.235,1.476l2.04,12.784
							l1.321,8.281l-4.64,0.741c-6.034,0.963-12.066,1.926-18.101,2.888c-0.711-4.45-1.744-10.93-2.555-16.009l-0.802-5.026
							l-0.239-1.495l-0.357-2.231c0.852-1.053,1.703-2.104,2.553-3.156C146.514,99.061,148.911,96.103,151.307,93.143
							 M150.609,87.42c-0.583,0-1.083,0.369-1.706,1.14c-2.824,3.49-5.649,6.978-8.478,10.464c-2.608,3.225-5.22,6.454-7.844,9.673
							c-0.483,0.601-0.821,1.306-0.337,1.935c0.332,0.429,1.023,0.806,1.553,0.806c0.006,0,0.012,0,0.018,0
							c0.492-0.007,1.047-0.495,1.441-0.898c0.66-0.675,1.215-1.451,1.971-2.383c0.111,0.695,0.175,1.093,0.238,1.491
							c0.885,5.545,2.855,17.896,3.74,23.436c0.237,1.485,0.61,2.019,1.703,2.019c0.267,0,0.576-0.032,0.936-0.089
							c9.167-1.461,18.326-2.924,27.492-4.387c1.935-0.309,2.292-0.799,1.989-2.698c-0.884-5.537-2.855-17.895-3.739-23.437
							c-0.063-0.392-0.125-0.784-0.234-1.473c1.155,0.751,2.014,1.354,2.914,1.879c0.336,0.196,0.682,0.289,1.01,0.289
							c0.59,0,1.122-0.301,1.437-0.845c0.436-0.757,0.172-1.573-0.716-2.191c-0.182-0.13-0.376-0.243-0.565-0.367
							c-7.1-4.582-14.197-9.17-21.292-13.761C151.527,87.626,151.044,87.42,150.609,87.42L150.609,87.42z"/>
					</g>
					
						<rect x="150.497" y="114.882" transform="matrix(0.9875 -0.1575 0.1575 0.9875 -17.4731 26.1325)" style="fill:#FFFFFF;" width="11.2" height="16.795"/>
				</g>
			</g>
			<g>
				<circle style="opacity:0.4;fill:#FFFFFF;" cx="182.325" cy="216.053" r="8"/>
				<path style="opacity:0.4;fill:#FFFFFF;" d="M82.996,207.147c0,2.484-2.015,4.5-4.499,4.5c-2.485,0-4.501-2.016-4.501-4.5
					c0-2.485,2.016-4.5,4.501-4.5C80.981,202.647,82.996,204.662,82.996,207.147z"/>
				<circle style="opacity:0.4;fill:#FFFFFF;" cx="193.029" cy="87.438" r="6"/>
				<circle style="opacity:0.4;fill:#FFFFFF;" cx="59.825" cy="131.524" r="5"/>
			</g>
		</g>
		<g>
			<g>
				<g>
					<g>
						<g>
							<path style="fill:#7AA5FF;" d="M322.482,159.841c7.197,9.552,19.291,12.016,29.223,4.841
								c10.61-7.665,10.729-20.874,3.148-30.66c-7.392-9.543-20.305-8.645-29.039-1.814c-9.197,7.194-9.853,19.661-2.745,28.392
								c3.055,3.753,8.328-1.587,5.303-5.304c-9.688-11.903,8.581-27.58,19.573-17.706c14.596,13.11-7.597,33.581-18.986,18.465
								C326.086,152.245,319.569,155.975,322.482,159.841L322.482,159.841z"/>
						</g>
					</g>
					<g>
						<g>
							<path style="fill:#7AA5FF;" d="M370.505,122.964c-6.011,3.96-12.022,7.92-18.033,11.881c-4.02,2.647-0.267,9.145,3.785,6.475
								c6.011-3.96,12.022-7.92,18.033-11.881C378.31,126.792,374.557,120.294,370.505,122.964L370.505,122.964z"/>
						</g>
					</g>
					<g>
						<g>
							<path style="fill:#7AA5FF;" d="M374.059,139.105c0.715-4.011,1.431-8.021,2.147-12.032c0.844-4.729-6.384-6.75-7.232-1.994
								c-0.715,4.011-1.431,8.021-2.146,12.032C365.983,141.839,373.21,143.861,374.059,139.105L374.059,139.105z"/>
						</g>
					</g>
					<g>
						<g>
							<path style="fill:#7AA5FF;" d="M359.69,126.916c3.968,0.925,7.935,1.85,11.902,2.775c4.706,1.097,6.703-6.134,1.994-7.232
								c-3.968-0.925-7.936-1.85-11.902-2.775C356.978,118.587,354.981,125.818,359.69,126.916L359.69,126.916z"/>
						</g>
					</g>
				</g>
				<g>
					<g>
						<g>
							<path style="fill:#7AA5FF;" d="M291.233,96.164c4.191-4.068,8.382-8.137,12.572-12.205c-0.641-0.266-1.281-0.531-1.922-0.796
								c0.328,5.832,0.657,11.663,0.986,17.494c0.081,1.444,2.334,1.452,2.252,0c-0.328-5.832-0.657-11.663-0.986-17.494
								c-0.055-0.969-1.191-1.506-1.922-0.796c-4.191,4.068-8.382,8.137-12.572,12.205
								C288.597,95.585,290.191,97.176,291.233,96.164L291.233,96.164z"/>
						</g>
					</g>
					<g>
						<polyline style="fill:#7AA5FF;" points="297.656,89.257 302.253,85.099 302.82,91.272 						"/>
					</g>
					<g>
						<g>
							<path style="fill:#7AA5FF;" d="M289.971,96.878c4.52,1.763,9.039,3.525,13.559,5.288c-0.262-0.462-0.523-0.923-0.786-1.385
								c-2.547,6.529-5.094,13.059-7.64,19.588c-1.56,3.997-3.118,7.994-4.677,11.99c-0.448,1.149-0.896,2.298-1.345,3.448
								c-0.506,1.297-4.339,0.104-5.54-0.235c-0.925-0.261-6.606-2.505-5.987-4.094c0.349-0.893,0.697-1.786,1.045-2.679
								c1.587-4.069,3.174-8.138,4.762-12.207c2.665-6.833,5.33-13.666,7.995-20.5c0.528-1.355-1.65-1.936-2.172-0.599
								c-3.128,8.02-6.256,16.039-9.384,24.059c-1.426,3.656-2.852,7.312-4.277,10.968c-1.346,3.451,4.03,5.893,6.393,6.869
								c2.235,0.923,8.006,2.434,9.257-0.773c1.342-3.44,2.683-6.88,4.024-10.319c3.239-8.305,6.479-16.61,9.718-24.916
								c0.239-0.614-0.263-1.181-0.786-1.385c-4.52-1.763-9.039-3.525-13.559-5.288C289.215,94.178,288.634,96.357,289.971,96.878
								L289.971,96.878z"/>
						</g>
					</g>
					<path style="fill:none;stroke:#7AA5FF;stroke-width:5.544;stroke-miterlimit:10;" d="M296.65,99.464
						c-4.605,11.807-9.361,23.999-13.977,35.833"/>
				</g>
				<g>
					<path style="fill:#FFFFFF;" d="M301.507,208.717l-1.354-7.709l1.045,0.262l5.777-0.015l0.754-0.133c0,0,1.602-0.06,2.25-0.171
						l0.539-0.097c0.996-0.341,3.271-1.298,3.424-3.602l-0.105-0.592c-0.246-1.402-1.863-2.063-2.482-2.121l-1.369-0.203
						c-0.783-0.029-1.973-0.154-2.766-0.236l-2.08-0.137c-0.332,0.004-0.568-0.067-0.855-0.127
						c-1.648-0.209-2.748-0.463-2.748-0.463c-2.492-0.895-4.279-5.695-4.705-8.119l-0.066-0.379
						c-0.328-2.498-0.088-4.931-0.068-4.822l2.215-2.889c0.285-0.273,0.838-0.926,1.355-1.461l0.42-0.463
						c0.723-0.627,2.391-1.254,4.088-1.719l-0.561-4.458l0.572-0.212l0.572-0.544l1.33-0.345l0.748,0.146l0.961,1.053l0.617,3.505
						c2.066-0.251,3.978,0.19,6.039,0.218c1.109,0.305,1.975,0.486,2.553,0.607l-1.086,6.803l-0.928-0.226l-1.24,0.218l-3.74,0.213
						l-1.834,0.322c-1.941,0.34-2.24,2.115-2.24,2.115l0.18,1.023c0.113,0.646,2.383,1.861,2.383,1.861s3.814,0.83,5.734,1.326
						c1.463,0.41,4.732,1.947,6.225,2.852c0.682,0.715,1.369,2.096,1.699,3.982c0.086,0.484,0.213,1.518,0.256,2.4
						c0.07,2.933-0.596,5.16-1.252,6.164c-0.338,0.615-1.418,1.418-2.859,2.393c-0.295,0.219-0.535,0.428-0.787,0.584
						c-1.227,0.604-2.498,1.271-3.324,1.638c0.117,0.98,0.262,2.122,0.385,2.823l0.104,0.594l0.15,0.529
						c0.16,0.916-0.029,2.06-1.914,2.391c-2.103,0.371-2.58-1.713-2.646-2.091l-0.01-0.055l-0.381-3.434l-1.26,0.11
						c-1.033,0.125-2.021,0.188-3.207,0.395c-0.603,0.052-1.152,0.091-1.637,0.178L301.507,208.717z"/>
				</g>
				<g>
					<polyline style="fill:#FFFFFF;" points="407.499,171.523 427.499,133.523 436.499,173.523 406.499,146.523 444.499,149.523 
						407.499,171.523 					"/>
				</g>
				<g>
					<g>
						<g>
							<path style="fill:#7AA5FF;" d="M408.872,119.718c4.073-18.231-13.381-35.111-30.133-38.242
								c-0.609-0.114-1.428,0.161-1.539,0.874c-2.767,17.623,10.668,39.873,30.466,38.287c1.598-0.128,1.609-2.632,0-2.503
								c-18.048,1.446-30.59-18.964-28.054-35.119c-0.513,0.291-1.025,0.582-1.539,0.874c15.316,2.862,32.168,18.234,28.387,35.164
								C406.108,120.624,408.52,121.293,408.872,119.718L408.872,119.718z"/>
						</g>
					</g>
					<g>
						<g>
							<path style="fill:#7AA5FF;" d="M378.675,84.978c8.875,11.45,17.729,22.918,27.207,33.881c1.058,1.223,2.819-0.555,1.77-1.77
								c-9.478-10.963-18.332-22.431-27.207-33.881C379.458,81.934,377.7,83.719,378.675,84.978L378.675,84.978z"/>
						</g>
					</g>
					<g>
						<g>
							<g>
								<path style="fill:#7AA5FF;" d="M387.869,86.532c-0.043,2.398-0.583,4.738-1.243,7.034c-0.379,1.315,1.664,1.873,2.041,0.563
									c0.712-2.473,1.273-5.014,1.319-7.597C390.01,85.166,387.893,85.168,387.869,86.532L387.869,86.532z"/>
							</g>
						</g>
						<g>
							<g>
								<path style="fill:#7AA5FF;" d="M395.955,92.564c-0.388,3.419-0.88,6.815-1.886,10.113c-0.4,1.31,1.644,1.865,2.041,0.563
									c1.061-3.478,1.554-7.072,1.962-10.676C398.225,91.209,396.106,91.223,395.955,92.564L395.955,92.564z"/>
							</g>
						</g>
						<g>
							<g>
								<path style="fill:#7AA5FF;" d="M404.056,101.783c-1.301,2.906-2.377,5.901-3.571,8.852
									c-0.514,1.266,1.536,1.812,2.041,0.563c1.126-2.78,2.133-5.607,3.358-8.346
									C406.437,101.616,404.613,100.538,404.056,101.783L404.056,101.783z"/>
							</g>
						</g>
						<g>
							<g>
								<path style="fill:#7AA5FF;" d="M379.945,98.114c3.132-0.085,6.24,0.35,9.369,0.385c1.366,0.016,1.364-2.102,0-2.117
									c-3.129-0.035-6.237-0.47-9.369-0.385C378.583,96.034,378.579,98.151,379.945,98.114L379.945,98.114z"/>
							</g>
						</g>
						<g>
							<g>
								<path style="fill:#7AA5FF;" d="M385.591,109.022c3.99-0.056,7.941-0.704,11.936-0.642c1.366,0.021,1.364-2.096,0-2.117
									c-3.994-0.063-7.945,0.586-11.936,0.642C384.227,106.924,384.225,109.041,385.591,109.022L385.591,109.022z"/>
							</g>
						</g>
						<g>
							<g>
								<path style="fill:#7AA5FF;" d="M393.035,116.465c3.64,0.438,7.263-0.083,10.908-0.128c1.364-0.017,1.366-2.134,0-2.117
									c-3.646,0.045-7.269,0.565-10.908,0.128C391.681,114.185,391.697,116.305,393.035,116.465L393.035,116.465z"/>
							</g>
						</g>
					</g>
				</g>
				<g>
					<g>
						<path style="fill:#FFFFFF;" d="M317.249,66.123c0.721,32.821,47.186,17.59,27.932-8.483"/>
					</g>
					<g>
						<g>
							<path style="fill:#FFFFFF;" d="M335.343,79.988c1.904,6.301,3.81,12.602,5.715,18.903c0.763,2.524,4.721,1.448,3.953-1.09
								c-1.904-6.301-3.81-12.602-5.715-18.903C338.534,76.374,334.576,77.45,335.343,79.988L335.343,79.988z"/>
						</g>
					</g>
					<g>
						<g>
							<path style="fill:#FFFFFF;" d="M335.615,103.146c5.468-1.837,10.939-3.654,16.498-5.201c2.379-0.662,1.367-4.363-1.02-3.698
								c-5.559,1.547-11.03,3.364-16.498,5.201C332.263,100.232,333.264,103.937,335.615,103.146L335.615,103.146z"/>
						</g>
					</g>
				</g>
				<g>
					<g>
						<g>
							<path style="fill:#7AA5FF;" d="M382.598,198.163c-1.027-8.287-5.423-11.342-13.488-9.709
								c-4.651,0.942-9.103,2.428-13.879,2.685c-6.751,0.364-12.241-2.782-16.641-7.698c-1.085-1.212-3.244-0.266-3.189,1.321
								c0.507,14.81,9.086,26.618,24.373,28.041C368.631,213.629,383.179,209.335,382.598,198.163c-0.124-2.397-3.862-2.41-3.736,0
								c0.472,9.087-12.381,11.344-19.088,10.904c-13.198-0.866-20.214-11.977-20.637-24.305c-1.063,0.44-2.126,0.881-3.189,1.321
								c6.66,7.441,14.912,9.804,24.604,8.18c3.733-0.626,7.342-1.83,11.067-2.496c4.855-0.867,6.674,1.815,7.242,6.395
								C379.154,200.522,382.895,200.55,382.598,198.163L382.598,198.163z"/>
						</g>
					</g>
					<g>
						<g>
							<path style="fill:#7AA5FF;" d="M338.442,190.404c8.844,9.88,20.56,12.237,32.887,7.704c1.682-0.619,0.956-3.328-0.744-2.703
								c-11.451,4.21-21.928,2.215-30.16-6.983C339.216,187.072,337.241,189.061,338.442,190.404L338.442,190.404z"/>
						</g>
					</g>
					<g>
						<g>
							<path style="fill:#7AA5FF;" d="M338.936,192.79c4.099,7.267,10.892,13.087,19.485,13.586c1.807,0.105,1.796-2.699,0-2.803
								c-7.592-0.441-13.48-5.842-17.065-12.199C340.468,189.801,338.046,191.213,338.936,192.79L338.936,192.79z"/>
						</g>
					</g>
					<g>
						<g>
							<path style="fill:#7AA5FF;" d="M382.723,198.677c1.189-3.757,2.819-6.537,7.067-5.494c3.767,0.925,7.286,3.061,10.855,4.54
								c9.256,3.836,18.376,3.073,26.4-3.124c-0.915-0.703-1.83-1.407-2.745-2.11c-2.708,12.146-10.955,20.951-23.936,20.326
								C393.645,212.491,380.593,207.561,382.723,198.677c0.562-2.342-3.042-3.336-3.603-0.993
								c-2.616,10.914,10.308,17.466,19.167,18.657c15.334,2.061,26.415-8.493,29.618-22.859c0.315-1.413-1.334-3.2-2.745-2.11
								c-10.525,8.13-19.775,4.262-30.645-0.425c-7.571-3.265-12.833-1.362-15.396,6.737
								C378.39,199.988,381.999,200.966,382.723,198.677L382.723,198.677z"/>
						</g>
					</g>
					<g>
						<g>
							<path style="fill:#7AA5FF;" d="M422.416,195.949c-9.785,7.501-20.396,7.674-30.924,1.433c-1.559-0.924-2.968,1.5-1.414,2.42
								c11.307,6.702,23.188,6.666,33.752-1.434C425.244,197.285,423.85,194.849,422.416,195.949L422.416,195.949z"/>
						</g>
					</g>
					<g>
						<g>
							<path style="fill:#7AA5FF;" d="M420.94,198.662c-4.859,5.756-11.587,9.854-19.341,8.908c-1.792-0.219-1.771,2.587,0,2.803
								c8.4,1.025,16.044-3.476,21.323-9.729C424.081,199.272,422.108,197.279,420.94,198.662L420.94,198.662z"/>
						</g>
					</g>
				</g>
			</g>
			<g>
				<circle style="opacity:0.4;fill:#FFFFFF;" cx="275.371" cy="60.834" r="8"/>
				<circle style="opacity:0.4;fill:#FFFFFF;" cx="440.673" cy="199.314" r="4.5"/>
				<circle style="opacity:0.4;fill:#FFFFFF;" cx="341.193" cy="222.401" r="5"/>
				<circle style="opacity:0.4;fill:#FFFFFF;" cx="389.123" cy="159.378" r="6"/>
			</g>
		</g>
	</g>
	<g>
		<g>
			<g>
				<polygon style="fill:#FF8EB9;" points="232.846,42.245 211.565,20.917 220.639,14.699 				"/>
			</g>
			<g>
				<polygon style="fill:#FF8EB9;" points="223.59,44.808 201.165,37.612 204.27,31.338 				"/>
			</g>
		</g>
		<g>
			<g>
				<polygon style="fill:#AAC5FF;" points="243,35.193 242.379,10.661 253.159,12.854 				"/>
			</g>
			<g>
				<polygon style="fill:#AAC5FF;" points="252.615,34.347 265.81,16.253 270.751,21.211 				"/>
			</g>
		</g>
		<g>
			<g>
				<polygon style="fill:#FF8EB9;" points="230.127,235.191 211.937,253.688 205.908,244.488 				"/>
			</g>
			<g>
				<polygon style="fill:#FF8EB9;" points="241.666,234.754 240.321,246.821 233.883,244.073 				"/>
			</g>
		</g>
		<g>
			<g>
				<polygon style="fill:#AAC5FF;" points="247.487,237.754 262.732,256.036 256.755,259.68 				"/>
			</g>
			<g>
				<polygon style="fill:#AAC5FF;" points="257.615,235.754 279.419,248.81 271.861,256.801 				"/>
			</g>
		</g>
	</g>
	<g style="opacity:0.5;">
		<g>
			<g>
				<path style="fill:#AAC5FF;" d="M69.593,79.869c-6.3-13.499-12.6-26.999-18.899-40.498c-1.363-2.92-5.672-0.379-4.317,2.523
					c6.3,13.5,12.6,26.999,18.899,40.498C66.638,85.312,70.947,82.771,69.593,79.869L69.593,79.869z"/>
			</g>
		</g>
		<g>
			<g>
				<path style="fill:#AAC5FF;" d="M86.133,75.73c0-12.599,0-25.199,0-37.798c0-3.224-5-3.224-5,0c0,12.599,0,25.199,0,37.798
					C81.133,78.954,86.133,78.954,86.133,75.73L86.133,75.73z"/>
			</g>
		</g>
		<g>
			<g>
				<path style="fill:#AAC5FF;" d="M56.096,88.421c-9.149-5.85-18.299-11.699-27.448-17.549c-2.725-1.743-5.231,2.587-2.524,4.317
					c9.149,5.85,18.299,11.699,27.448,17.549C56.298,94.481,58.803,90.151,56.096,88.421L56.096,88.421z"/>
			</g>
		</g>
	</g>
	<g style="opacity:0.4;">
		<g>
			<g>
				<path style="fill:#FF8EB9;" d="M437.706,249.883c7.8,15.149,15.6,30.298,23.398,45.447c1.477,2.867,5.791,0.338,4.318-2.523
					c-7.8-15.149-15.6-30.298-23.398-45.447C440.547,244.492,436.233,247.022,437.706,249.883L437.706,249.883z"/>
			</g>
		</g>
		<g>
			<g>
				<path style="fill:#FF8EB9;" d="M423.865,256.721c0.45,11.999,0.899,23.999,1.35,35.998c0.12,3.214,5.121,3.225,5,0
					c-0.45-11.999-0.899-23.999-1.35-35.998C428.745,253.507,423.744,253.496,423.865,256.721L423.865,256.721z"/>
			</g>
		</g>
		<g>
			<g>
				<path style="fill:#FF8EB9;" d="M454.353,243.58c8.999,6.6,17.999,13.2,26.998,19.799c2.605,1.91,5.095-2.432,2.523-4.316
					c-8.999-6.601-17.999-13.2-26.998-19.8C454.272,237.353,451.782,241.695,454.353,243.58L454.353,243.58z"/>
			</g>
		</g>
	</g>
	<g>
		<g>
			<g>
				<g>
					<path style="fill:#EEBDAE;" d="M314.837,430.139c-69.878-34.713-58.916-41.277-47.4-139.42
						c1.752-14.934,17.211-15.104,19.949,0c5.072,27.975,5.072,48.307,0.533,82c0,0,49.557,24.185,55.5,29.455
						C349.609,407.666,350.865,448.038,314.837,430.139z"/>
				</g>
				<g>
					<g>
						<path style="fill:#EEBDAE;" d="M282.382,295.982c9.357-0.625,16.023-12.642,14.742-22.301
							c-2.18-11.997-11.117-12.653-21.553-11.271c-21.453,2.845-22.434,31.043-1.941,34.314"/>
					</g>
					<g>
						<path style="fill:#EEBDAE;" d="M290.228,272.272c16.727-7.916,20.068,17.281-0.777,12.103"/>
					</g>
					<g style="opacity:0.6;">
						<path style="fill:#B38E83;" d="M291.58,271.344c0.896,1.795,1.465,3.779,1.668,5.835c0.11,1.03,0.088,2.077-0.023,3.129
							c-0.113,1.054-0.358,2.112-0.805,3.137c-0.445,1.017-1.07,2.045-2.114,2.828c-0.522,0.38-1.158,0.675-1.846,0.803
							c-0.687,0.129-1.399,0.08-2.04-0.095c-1.284-0.362-2.284-1.097-3.077-1.898c-0.803-0.805-1.445-1.684-2.018-2.584l2.597-0.749
							c0.008,0.651-0.067,1.319-0.25,1.973c-0.177,0.654-0.483,1.283-0.884,1.848c-0.797,1.135-2.017,1.97-3.361,2.302
							c-0.671,0.17-1.371,0.22-2.055,0.148c-0.684-0.079-1.346-0.283-1.947-0.58c-1.212-0.598-2.142-1.558-2.809-2.589l1.961,0.074
							c-0.249,0.286-0.503,0.567-0.798,0.827c-0.289,0.261-0.599,0.512-0.947,0.73c-0.341,0.225-0.725,0.416-1.136,0.56
							c-0.409,0.145-0.857,0.224-1.307,0.24c-0.224-0.014-0.452-0.003-0.669-0.049c-0.219-0.041-0.44-0.074-0.641-0.152
							c-0.411-0.135-0.789-0.329-1.115-0.558c-0.666-0.45-1.185-1.002-1.636-1.57l1.253-0.149c-0.401,0.669-0.981,1.146-1.598,1.477
							c-0.62,0.331-1.293,0.531-1.984,0.564c-0.685,0.022-1.418-0.136-1.958-0.589c-0.544-0.461-0.736-1.149-0.734-1.756
							c0.156,0.6,0.519,1.123,1.007,1.358c0.483,0.246,1.051,0.239,1.571,0.104c1.05-0.248,1.989-1.031,2.339-1.874
							c0.152-0.365,0.571-0.538,0.935-0.387c0.083,0.034,0.156,0.082,0.218,0.141l0.101,0.096c0.444,0.423,0.92,0.791,1.406,1.023
							c0.239,0.126,0.485,0.2,0.718,0.24c0.115,0.037,0.23,0.031,0.343,0.044c0.112,0.016,0.222-0.015,0.331-0.012
							c0.218-0.037,0.432-0.095,0.643-0.198c0.211-0.103,0.422-0.232,0.623-0.399c0.203-0.157,0.398-0.352,0.585-0.559
							c0.188-0.207,0.362-0.439,0.544-0.666c0.421-0.526,1.188-0.611,1.715-0.189c0.081,0.064,0.152,0.138,0.212,0.218l0.034,0.046
							c0.528,0.709,1.179,1.271,1.899,1.565c0.719,0.29,1.489,0.339,2.198,0.148c0.709-0.192,1.337-0.643,1.743-1.253
							c0.404-0.61,0.636-1.357,0.643-2.176v-0.034c0.007-0.772,0.64-1.395,1.412-1.388c0.502,0.005,0.941,0.275,1.185,0.673
							c0.477,0.783,1.003,1.523,1.591,2.138c0.59,0.606,1.224,1.116,1.851,1.33c0.623,0.215,1.196,0.158,1.791-0.208
							c0.599-0.352,1.156-1.001,1.577-1.76c0.423-0.763,0.739-1.628,0.98-2.526c0.24-0.901,0.361-1.844,0.447-2.799
							C292.096,275.282,291.936,273.315,291.58,271.344z"/>
					</g>
				</g>
			</g>
			<g>
				<g>
					<path style="fill:#7AA5FF;" d="M305.82,377.383c22.314,6.129,54.701,17.979,39.172,50.526
						c-8.867,18.586-51.316,2.432-57.27-7.776C284.396,414.433,295.558,387.911,305.82,377.383"/>
				</g>
				<g>
					<g>
						<path style="fill:#5C7CBF;" d="M304.724,375.415c-11.106,12.685-16.988,28.371-20.343,44.705
							c-0.859,4.186,5.55,5.967,6.412,1.768c3.112-15.154,8.301-29.97,18.634-41.77
							C312.239,376.906,307.555,372.183,304.724,375.415L304.724,375.415z"/>
					</g>
				</g>
			</g>
		</g>
		<g>
			<g>
				<path style="fill:#E4508E;" d="M415.664,500c0.475-12.794,0.238-29.336-1.543-45.965c-1.781-16.629-5.107-33.006-10.807-44.773
					c-5.701-11.258-13.537-16.885-22.563-19.572c-9.025-2.686-19.238-2.43-29.688-1.918c-29.926,1.537-39.426,11.518-45.957,34.027
					c-6.531,22.518-6.293,54.671-6.293,78.201"/>
			</g>
			<g style="opacity:0.5;">
				<g>
					<path style="fill:#AB3C6B;" d="M326.814,447.541c0,0,0.735,0.492,1.951,1.419c0.598,0.477,1.361,1.005,2.189,1.639
						c0.827,0.635,1.777,1.326,2.816,2.08c1.016,0.777,2.147,1.572,3.327,2.423c1.164,0.869,2.453,1.701,3.73,2.621
						c1.325,0.856,2.649,1.798,4.053,2.661c1.377,0.905,2.816,1.748,4.243,2.613c1.451,0.813,2.882,1.676,4.342,2.414
						c0.732,0.364,1.435,0.783,2.159,1.125c0.723,0.352,1.436,0.7,2.138,1.042c0.695,0.362,1.416,0.619,2.096,0.947
						c0.687,0.311,1.355,0.63,2.026,0.881c1.333,0.533,2.592,1.08,3.789,1.476c0.597,0.222,1.168,0.434,1.711,0.637
						c0.553,0.178,1.077,0.346,1.57,0.504c0.991,0.311,1.858,0.629,2.589,0.804c1.455,0.405,2.304,0.694,2.304,0.694
						s-0.864,0.126-2.406,0.245c-0.774,0.08-1.71,0.096-2.785,0.05c-0.542-0.015-1.117-0.03-1.725-0.047
						c-0.602-0.066-1.234-0.136-1.895-0.209c-1.333-0.126-2.741-0.423-4.239-0.746c-0.758-0.138-1.5-0.385-2.274-0.6
						c-0.77-0.227-1.565-0.444-2.347-0.732c-1.564-0.572-3.189-1.172-4.758-1.943c-1.612-0.693-3.141-1.6-4.7-2.447
						c-1.502-0.94-3.024-1.853-4.419-2.898c-1.438-0.983-2.748-2.091-4.027-3.137c-1.235-1.1-2.436-2.153-3.486-3.244
						c-1.063-1.077-2.043-2.113-2.886-3.13c-0.423-0.507-0.838-0.978-1.211-1.449c-0.362-0.482-0.706-0.94-1.029-1.371
						c-0.656-0.849-1.179-1.618-1.585-2.264C327.247,448.312,326.814,447.541,326.814,447.541z"/>
				</g>
				<g>
					<path style="fill:#AB3C6B;" d="M333.289,467.037c0,0,0.392,0.098,1.01,0.338c0.307,0.123,0.686,0.265,1.092,0.456
						c0.208,0.092,0.416,0.202,0.642,0.311c0.224,0.08,0.458,0.164,0.703,0.252c0.476,0.176,0.966,0.371,1.453,0.591
						c0.477,0.227,1.093,0.408,1.635,0.658c0.284,0.113,0.561,0.245,0.841,0.378c0.275,0.137,0.595,0.229,0.884,0.363
						c0.601,0.235,1.18,0.524,1.774,0.794c0.607,0.267,1.216,0.525,1.798,0.827c0.58,0.296,1.181,0.576,1.742,0.877
						c0.57,0.293,1.097,0.624,1.622,0.92c0.519,0.306,1.004,0.616,1.447,0.919c0.884,0.61,1.617,1.19,2.107,1.642
						c0.495,0.44,0.762,0.744,0.762,0.744s-0.395,0.09-1.056,0.154c-0.665,0.07-1.59,0.132-2.68,0.073
						c-1.091-0.052-2.34-0.185-3.657-0.498c-0.657-0.155-1.337-0.299-2.009-0.557c-0.68-0.226-1.353-0.503-2.028-0.772
						c-0.659-0.328-1.317-0.672-1.944-1.04c-0.639-0.336-1.223-0.786-1.773-1.229c-0.552-0.453-1.071-0.84-1.533-1.353
						c-0.461-0.506-0.867-0.997-1.219-1.455c-0.17-0.233-0.344-0.446-0.479-0.663c-0.111-0.226-0.225-0.432-0.317-0.639
						c-0.196-0.403-0.342-0.78-0.468-1.085C333.391,467.427,333.289,467.037,333.289,467.037z"/>
				</g>
			</g>
		</g>
		<g>
			<g>
				<path style="fill:#EEBDAE;" d="M470.097,500c-4.617-10.732-12.881-23.286-19.541-33.167
					c-17.998-26.708-23.107-53.522-52.23-62.925c-35.035-11.31-20.861,20.691-15.506,27.336
					c15.889,19.712,33.471,49.515,51.295,68.756H470.097z"/>
			</g>
			<g>
				<g>
					<path style="fill:#7AA5FF;" d="M432.617,425.184c-7.621-17.163-29.781-38.175-48.008-28.856
						c-26.588,13.593,2.096,49.766,10.621,57.682C402.244,442.221,422.265,427.62,432.617,425.184"/>
				</g>
				<g>
					<g>
						<path style="fill:#5C7CBF;" d="M431.372,422.839c-15.436,3.549-28.573,16.425-38.007,28.526
							c-2.603,3.34,2.068,8.082,4.703,4.703c8.751-11.228,20.727-23.52,35.071-26.817
							C437.318,428.291,435.545,421.879,431.372,422.839L431.372,422.839z"/>
					</g>
				</g>
			</g>
		</g>
		<g>
			<g>
				<g>
					<path style="fill:#EEBDAE;" d="M395.74,309.202c-2.744,51.319-3.695,75.544-46.359,71.915
						c-38.877-3.308-31.955-30.743-29.545-73.53"/>
				</g>
				<g>
					<path style="fill:#EEBDAE;" d="M340.851,364.795c0,10.45,0,20.9,0,31.351c0,16.847,26.125,16.847,26.125,0
						c0-10.45,0-20.9,0-31.351C366.976,347.948,340.851,347.948,340.851,364.795L340.851,364.795z"/>
				</g>
			</g>
			<g>
				<g>
					<path style="fill:#FFFFFF;" d="M337.865,353.071c9.332,0.385,18.604,0,26.951,0
						C364.816,370.457,337.367,369.299,337.865,353.071"/>
				</g>
				<g>
					<g>
						<g>
							<path style="fill:#1E254F;" d="M341.306,344.046c3.782,0,3.782-5.865,0-5.865S337.524,344.046,341.306,344.046
								L341.306,344.046z"/>
						</g>
					</g>
					<g>
						<g>
							<path style="fill:#1E254F;" d="M358.064,344.046c3.782,0,3.782-5.865,0-5.865S354.282,344.046,358.064,344.046
								L358.064,344.046z"/>
						</g>
					</g>
				</g>
				<g>
					<g>
						<g>
							<path style="fill:#E4508E;" d="M371.689,361.05c6.126,0,6.126-9.5,0-9.5S365.563,361.05,371.689,361.05L371.689,361.05z"/>
						</g>
					</g>
					<g>
						<g>
							<path style="fill:#E4508E;" d="M330.65,361.05c6.126,0,6.126-9.5,0-9.5C324.524,351.55,324.524,361.05,330.65,361.05
								L330.65,361.05z"/>
						</g>
					</g>
				</g>
				<g style="opacity:0.6;">
					<path style="fill:#E4508E;" d="M349.177,338.354c-0.832,3.801-2.613,7.601-3.445,11.4c1.664,0.634,5.859,0.851,7.602,0.316"/>
				</g>
			</g>
			<g>
				<g>
					<g>
						<path style="fill:#534198;" d="M391.417,296.005c4.369-24.224-31.066-17.574-45.627-23.274
							c-8.738-2.85-23.885-18.751-33.979-13.773c-14.066,6.936-7.281,22.799,5.824,25.648c-18.93-4.275-18.93,23.749,0,20.899
							c-29.711,25.771,39.326,41.114,71.353,1.899"/>
					</g>
					<g>
						<path style="fill:#534198;" d="M381.927,295.53c11.305-16.636,33.959-9.037,31.824,15.199
							c-1.627,18.453-13.301,40.85-27.549,52.248c-1.426-14.248-4.662-34.959-5.701-48.923"/>
					</g>
				</g>
				<g>
					<path style="fill:#644CC6;" d="M343.066,282.329c-3.165-0.894-6.166-2.569-9.258-2.916c-0.765-0.043-1.521-0.094-2.247,0.053
						c-0.732,0.096-1.423,0.359-2.091,0.647l-0.483,0.271l-0.241,0.135l-0.12,0.066l-0.029,0.017l-0.016,0.008l-0.007,0.005
						c-0.018,0.01,0.126-0.077,0.061-0.037l-0.063,0.046c-0.311,0.241-0.711,0.497-0.914,0.721
						c-0.497,0.436-0.957,0.995-1.193,1.524c-0.506,1.061-0.233,2.185,0.561,3.294c0.78,1.099,1.953,2.048,3.201,2.859
						c1.255,0.813,2.634,1.479,4.044,1.968c1.398,0.483,2.883,0.801,4.143,0.762l-0.316,3.883c-0.541-0.05-1.079-0.12-1.616-0.129
						c-0.537-0.039-1.07-0.018-1.6-0.003c-0.529,0.027-1.05,0.085-1.562,0.165c-0.509,0.092-1.01,0.2-1.49,0.345
						c-0.48,0.143-0.935,0.326-1.366,0.521c-0.421,0.208-0.819,0.436-1.143,0.693c-0.345,0.248-0.576,0.532-0.765,0.777
						c-0.159,0.253-0.208,0.453-0.217,0.591c-0.014,0.137,0.022,0.247,0.143,0.449c0.028,0.097,0.157,0.21,0.231,0.328
						c0.129,0.115,0.233,0.244,0.392,0.365c0.309,0.244,0.681,0.488,1.105,0.702c0.415,0.223,0.892,0.404,1.364,0.591
						c0.985,0.335,2.033,0.605,3.121,0.814c1.085,0.213,2.208,0.352,3.337,0.47c1.299,0.137,2.242,1.3,2.106,2.599
						c-0.121,1.15-1.045,2.02-2.156,2.11l-0.017,0.001c-2.905,0.24-5.801,0.77-8.193,1.967c-1.177,0.598-2.244,1.343-2.961,2.212
						c-0.743,0.863-1.079,1.819-1.031,2.678c0.043,0.859,0.517,1.711,1.365,2.41c0.841,0.707,2.035,1.183,3.315,1.463
						c0.273,0.066,0.742,0.142,1.101,0.21l1.072,0.164c0.74,0.101,1.487,0.184,2.237,0.252c1.502,0.129,3.019,0.21,4.537,0.228
						c3.04,0.043,6.09-0.17,9.101-0.62c3.014-0.433,5.991-1.134,8.848-2.182c1.423-0.532,2.824-1.128,4.178-1.828
						c1.346-0.714,2.626-1.544,3.863-2.447c1.221-0.924,2.355-1.967,3.401-3.109c1.047-1.145,1.949-2.419,2.791-3.754
						c-0.582,1.463-1.318,2.878-2.198,4.217c-0.914,1.311-1.946,2.552-3.097,3.689c-2.327,2.248-5.08,4.044-7.999,5.461
						c-2.94,1.377-6.036,2.392-9.191,3.127c-3.165,0.688-6.383,1.105-9.622,1.264c-1.619,0.08-3.245,0.107-4.877,0.027
						c-0.815-0.039-1.633-0.093-2.452-0.168l-1.264-0.139c-0.415-0.061-0.725-0.091-1.221-0.178
						c-1.788-0.319-3.636-0.935-5.27-2.185c-0.809-0.624-1.557-1.402-2.131-2.345c-0.58-0.936-0.949-2.05-1.045-3.182
						c-0.203-2.29,0.708-4.469,1.975-5.997c1.261-1.582,2.851-2.648,4.454-3.478c3.245-1.631,6.66-2.224,9.991-2.471l-0.066,4.71
						c-1.259-0.139-2.521-0.303-3.791-0.56c-1.27-0.246-2.546-0.603-3.825-1.067c-0.642-0.263-1.281-0.524-1.922-0.878
						c-0.638-0.342-1.276-0.759-1.895-1.278c-0.308-0.255-0.607-0.578-0.896-0.89c-0.276-0.367-0.561-0.701-0.779-1.157
						c-0.462-0.841-0.737-1.952-0.605-3.013c0.112-1.058,0.54-1.995,1.064-2.729c0.537-0.708,1.146-1.3,1.786-1.743
						c0.637-0.464,1.3-0.812,1.967-1.11c0.668-0.285,1.347-0.509,2.024-0.682c0.679-0.172,1.358-0.288,2.036-0.377
						c0.679-0.077,1.355-0.12,2.026-0.125c0.67,0.006,1.34,0.016,1.999,0.09c0.664,0.048,1.311,0.175,1.962,0.277l0.045,0.008
						c1.063,0.169,1.789,1.168,1.62,2.232c-0.155,0.979-1.016,1.672-1.981,1.643c-1.022-0.029-1.957-0.202-2.855-0.432
						c-0.896-0.234-1.756-0.522-2.58-0.872c-1.652-0.693-3.201-1.564-4.642-2.627c-1.431-1.068-2.763-2.344-3.764-4.015
						c-0.489-0.835-0.887-1.804-0.987-2.887c-0.11-1.077,0.155-2.228,0.691-3.128c0.535-0.923,1.229-1.588,2.032-2.146
						c0.414-0.319,0.737-0.465,1.101-0.689l0.067-0.039l0.078-0.047l0.01-0.004l0.02-0.009l0.039-0.017l0.157-0.067l0.314-0.134
						l0.627-0.262c0.87-0.275,1.765-0.496,2.674-0.519c0.907-0.068,1.801,0.065,2.658,0.241c1.703,0.426,3.225,1.171,4.682,1.955
						C340.184,280.769,341.581,281.604,343.066,282.329z"/>
				</g>
			</g>
			<g>
				<path style="fill:#EEBDAE;" d="M389.609,338.612c17.156-2.156,17.945,17.823-0.643,15.252"/>
			</g>
		</g>
		<g>
			<g>
				<path style="fill:#5C7CBF;" d="M367.691,395.62c-4.166,5.849-23.067,8.343-26.816,0.95c-2.494-4.919-9.87-0.59-7.383,4.315
					c3.541,6.983,12.918,8.376,19.923,8.349c8.006-0.03,16.84-2.531,21.659-9.299C378.28,395.433,370.86,391.169,367.691,395.62
					L367.691,395.62z"/>
			</g>
		</g>
	</g>
	<g>
		<g>
			<path style="fill:#534198;" d="M138.74,277.481c-56.997-17.1-44.173,56.998-61.272,84.071
				c-11.398,15.675-29.084,15.831-37.522,39.423c-7.134,19.945-2.375,40.373,13.299,53.197
				c34.198,27.074,102.596,17.1,129.669-17.099c21.374-27.074,17.099-58.896,17.099-90.245c0-14.25-1.29-39.271-3.8-55.099"/>
		</g>
		<g>
			<g>
				<g>
					<path style="fill:#EEBDAE;" d="M197.968,420.639c69.877-34.713,58.916-41.277,47.399-139.42
						c-1.752-14.934-17.211-15.104-19.949,0c-5.072,27.975-5.072,48.307-0.532,82c0,0-49.559,24.185-55.5,29.455
						C163.197,398.166,161.94,438.538,197.968,420.639z"/>
				</g>
				<g>
					<g>
						<path style="fill:#EEBDAE;" d="M230.778,285.519c-9.357,0.608-17.546-10.426-17.546-20.17
							c0.584-12.179,9.358-14.006,19.886-14.006c21.64,0,26.317,27.823,6.434,33.761"/>
					</g>
					<g>
						<path style="fill:#EEBDAE;" d="M219.883,263.044c-17.623-5.647-17.623,19.771,2.363,11.896"/>
					</g>
					<g style="opacity:0.6;">
						<path style="fill:#B38E83;" d="M218.422,262.303c-0.094,2.001,0.005,3.971,0.404,5.851c0.21,0.936,0.454,1.853,0.811,2.716
							c0.357,0.858,0.785,1.675,1.304,2.375c0.517,0.697,1.155,1.269,1.795,1.538c0.638,0.284,1.214,0.266,1.802-0.03
							c0.594-0.293,1.155-0.883,1.66-1.562c0.503-0.685,0.927-1.488,1.296-2.328c0.312-0.708,1.138-1.029,1.846-0.718
							c0.459,0.202,0.756,0.621,0.822,1.083l0.005,0.036c0.115,0.811,0.442,1.521,0.923,2.072c0.483,0.552,1.165,0.916,1.894,1.013
							c0.728,0.096,1.484-0.054,2.159-0.436c0.676-0.387,1.247-1.029,1.678-1.801l0.025-0.045c0.328-0.589,1.071-0.799,1.66-0.471
							c0.091,0.051,0.177,0.115,0.249,0.184c0.209,0.201,0.414,0.409,0.627,0.589c0.212,0.181,0.431,0.348,0.653,0.477
							c0.222,0.14,0.447,0.24,0.669,0.314c0.224,0.075,0.442,0.104,0.663,0.112c0.108-0.017,0.221-0.001,0.331-0.032
							c0.109-0.027,0.224-0.036,0.334-0.088c0.226-0.07,0.459-0.177,0.68-0.333c0.451-0.295,0.874-0.722,1.259-1.199l0.085-0.106
							c0.249-0.308,0.699-0.356,1.007-0.108c0.07,0.057,0.128,0.126,0.17,0.199c0.458,0.789,1.492,1.442,2.566,1.55
							c0.534,0.065,1.097-0.003,1.543-0.311c0.454-0.298,0.744-0.864,0.82-1.478c0.082,0.602-0.019,1.309-0.497,1.838
							c-0.476,0.52-1.182,0.773-1.863,0.841c-0.69,0.059-1.384-0.052-2.042-0.298c-0.655-0.247-1.293-0.643-1.778-1.254l1.262-0.017
							c-0.374,0.623-0.814,1.237-1.416,1.772c-0.293,0.27-0.642,0.513-1.033,0.7c-0.188,0.103-0.404,0.165-0.614,0.235
							c-0.21,0.073-0.437,0.094-0.658,0.136c-0.447,0.043-0.901,0.024-1.327-0.066c-0.426-0.089-0.832-0.228-1.199-0.405
							c-0.375-0.171-0.714-0.379-1.036-0.6c-0.326-0.219-0.614-0.464-0.899-0.715l1.934-0.331c-0.526,1.109-1.321,2.184-2.444,2.935
							c-0.557,0.373-1.187,0.663-1.854,0.831c-0.669,0.161-1.369,0.204-2.057,0.124c-1.377-0.152-2.696-0.82-3.635-1.84
							c-0.471-0.507-0.858-1.091-1.119-1.717c-0.267-0.623-0.429-1.275-0.507-1.922l2.673,0.401
							c-0.451,0.967-0.972,1.923-1.662,2.827c-0.681,0.898-1.576,1.758-2.801,2.286c-0.612,0.257-1.312,0.399-2.01,0.362
							c-0.697-0.037-1.367-0.246-1.935-0.554c-1.137-0.639-1.893-1.577-2.468-2.525c-0.576-0.957-0.959-1.975-1.209-3.004
							c-0.249-1.028-0.408-2.064-0.435-3.099C217.467,266.242,217.77,264.2,218.422,262.303z"/>
					</g>
				</g>
			</g>
			<g>
				<g>
					<path style="fill:#E4508E;" d="M206.984,368.833c-22.313,6.128-54.701,17.979-39.172,50.526
						c8.868,18.586,51.316,2.432,57.271-7.776C228.409,405.883,217.246,379.362,206.984,368.833"/>
				</g>
				<g>
					<g>
						<path style="fill:#AB3C6B;" d="M203.379,371.568c10.333,11.8,15.521,26.616,18.632,41.77c0.862,4.199,7.271,2.418,6.412-1.768
							c-3.354-16.334-9.235-32.021-20.342-44.705C205.251,363.633,200.566,368.356,203.379,371.568L203.379,371.568z"/>
					</g>
				</g>
			</g>
		</g>
		<g>
			<g>
				<path style="fill:#7AA5FF;" d="M103.256,500c2.006-16.031,2.644-21.214,4.091-45.26c0.705-25.695,1.439-32.306,5.26-46.353
					c6.99-12.891,14.466-13.385,22.433-15.988c9.314-1.858,16.981-2.355,26.207-1.858c31.307-1.325,34.748,24.522,44.758,51.807
					c8.896,26.194-7.022,34.02-7.022,57.653"/>
			</g>
			<g style="opacity:0.5;">
				<path style="fill:#5C7CBF;" d="M165.611,470.184c0,0-0.276,0.579-0.828,1.524c-0.251,0.483-0.671,1.016-1.183,1.634
					c-0.255,0.304-0.53,0.657-0.847,0.962c-0.325,0.301-0.667,0.617-1.024,0.948c-0.707,0.694-1.606,1.236-2.533,1.89
					c-0.473,0.306-0.993,0.547-1.511,0.834c-0.518,0.292-1.065,0.548-1.638,0.762c-0.567,0.23-1.15,0.46-1.747,0.666
					c-0.604,0.177-1.218,0.352-1.842,0.51c-0.621,0.18-1.26,0.277-1.902,0.382c-0.643,0.096-1.286,0.223-1.937,0.255
					c-0.65,0.038-1.301,0.076-1.948,0.114c-0.648,0.005-1.293-0.036-1.932-0.057c-0.64-0.003-1.27-0.083-1.891-0.177
					c-0.619-0.094-1.234-0.144-1.827-0.285c-1.185-0.281-2.327-0.526-3.365-0.935c-0.521-0.195-1.027-0.37-1.507-0.566
					c-0.468-0.228-0.92-0.449-1.355-0.662c-0.867-0.409-1.609-0.897-2.252-1.336c-0.32-0.223-0.622-0.418-0.889-0.62
					c-0.256-0.221-0.492-0.423-0.704-0.605c-0.839-0.736-1.269-1.194-1.269-1.194s0.647,0.103,1.694,0.35
					c0.259,0.062,0.547,0.129,0.86,0.202c0.324,0.044,0.662,0.115,1.025,0.178c0.721,0.138,1.513,0.313,2.399,0.412
					c0.433,0.068,0.884,0.139,1.351,0.212c0.469,0.047,0.953,0.095,1.451,0.145c0.979,0.147,2.031,0.147,3.092,0.242
					c1.071,0.013,2.17,0.076,3.284,0.034c0.556-0.015,1.116-0.029,1.679-0.043l1.683-0.139c0.566-0.011,1.119-0.112,1.675-0.182
					c0.552-0.088,1.118-0.102,1.655-0.23c0.542-0.109,1.084-0.199,1.623-0.284c0.528-0.124,1.05-0.247,1.563-0.368
					c0.525-0.097,1.017-0.257,1.505-0.402c0.493-0.146,0.974-0.287,1.443-0.426c0.896-0.362,1.827-0.599,2.595-0.986
					c0.804-0.341,1.555-0.648,2.162-0.99c0.627-0.326,1.24-0.574,1.69-0.898C165.04,470.476,165.611,470.184,165.611,470.184z"/>
			</g>
		</g>
		<g>
			<g>
				<path style="fill:#EEBDAE;" d="M110.86,405.538c-28.107,12.104-30.669,39.279-46.071,67.565
					c-4.412,8.102-9.597,17.565-13.378,26.898h35.485c14.918-20.674,28.793-48.767,41.975-68.709
					C133.577,424.17,144.672,390.977,110.86,405.538z"/>
			</g>
			<g>
				<g>
					<path style="fill:#E4508E;" d="M81.137,428.034c7.621-17.163,29.781-38.174,48.008-28.855
						c26.588,13.593-2.095,49.766-10.62,57.682C111.51,445.071,91.49,430.469,81.137,428.034"/>
				</g>
				<g>
					<g>
						<path style="fill:#AB3C6B;" d="M81.499,431.271c6.229,0.705,12.751,6.348,17.421,10.076
							c6.051,4.83,11.971,10.402,16.247,16.897c2.347,3.565,8.108,0.237,5.742-3.355c-5.122-7.78-12.118-14.247-19.431-19.934
							c-5.754-4.475-12.519-9.489-19.979-10.335C77.241,424.138,77.288,430.793,81.499,431.271L81.499,431.271z"/>
					</g>
				</g>
			</g>
		</g>
		<g>
			<g>
				<g>
					<path style="fill:#EEBDAE;" d="M118.181,306.351c-2.823,50.774-0.454,75.131,41.61,72.865
						c38.454-2.07,35.66-23.921,32.396-77.33"/>
				</g>
				<g>
					<path style="fill:#EEBDAE;" d="M144.333,365.271c0,10.45,0,20.899,0,31.35c0,15.315,23.75,15.315,23.75,0
						c0-10.45,0-20.899,0-31.35C168.083,349.956,144.333,349.956,144.333,365.271L144.333,365.271z"/>
				</g>
			</g>
			<g>
				<g>
					<path style="fill:#FFFFFF;" d="M149.732,353.071c9.331,0.381,18.602,0,26.948,0
						C176.68,370.456,149.235,369.297,149.732,353.071"/>
				</g>
				<g>
					<g>
						<g>
							<path style="fill:#1E254F;" d="M154.883,344.045c3.782,0,3.782-5.865,0-5.865
								C151.101,338.18,151.101,344.045,154.883,344.045L154.883,344.045z"/>
						</g>
					</g>
					<g>
						<g>
							<path style="fill:#1E254F;" d="M171.641,344.045c3.782,0,3.782-5.865,0-5.865
								C167.859,338.18,167.859,344.045,171.641,344.045L171.641,344.045z"/>
						</g>
					</g>
				</g>
				<g>
					<g>
						<g>
							<path style="fill:#E4508E;" d="M142.669,361.875c6.126,0,6.126-9.5,0-9.5C136.542,352.375,136.542,361.875,142.669,361.875
								L142.669,361.875z"/>
						</g>
					</g>
					<g>
						<g>
							<path style="fill:#E4508E;" d="M183.895,361.875c6.126,0,6.126-9.5,0-9.5C177.769,352.375,177.769,361.875,183.895,361.875
								L183.895,361.875z"/>
						</g>
					</g>
				</g>
				<g style="opacity:0.6;">
					<path style="fill:#E4508E;" d="M163.69,338.354c0.83,3.801,2.611,7.601,3.443,11.4c-1.663,0.634-5.858,0.851-7.6,0.316"/>
				</g>
			</g>
			<g>
				<g>
					<g>
						<path style="fill:#534198;" d="M125.44,286.422c3.931,58.898,81.118,55.099,87.396,19.145
							c9.081-52.01-70.167-55.936-81.299-27.169"/>
					</g>
					<g>
						<path style="fill:#534198;" d="M143.014,297.43c-11.399,18.523-13.634,51.215-22.798,66.022
							c-16.971-26.682-41.323-87.396,12.823-83.122"/>
					</g>
				</g>
				<g>
					<path style="fill:#644CC6;" d="M143.541,291.875c0.208,4.56,1.477,8.93,3.441,12.862c1.007,1.953,2.146,3.823,3.521,5.474
						c1.373,1.644,2.926,3.102,4.643,4.204c0.852,0.551,1.756,0.979,2.763,1.39c0.929,0.379,1.939,0.705,2.9,0.917
						c1.935,0.451,3.853,0.375,5.261-0.321c1.409-0.685,2.358-2.047,2.851-3.812c0.495-1.76,0.509-3.8,0.29-5.838
						c-0.139-1.296,0.798-2.459,2.093-2.598c1.056-0.114,2.025,0.493,2.422,1.42c1.324,3.095,3.322,5.813,5.991,7.286
						c1.318,0.745,2.786,1.182,4.294,1.259c1.505,0.079,3.049-0.177,4.466-0.774c1.416-0.591,2.71-1.494,3.704-2.644
						c0.989-1.15,1.686-2.525,1.96-4.017c0.268-1.491,0.102-3.084-0.44-4.62c-0.277-0.765-0.604-1.534-1.029-2.269
						c-0.421-0.737-0.909-1.45-1.442-2.142l-0.103-0.133c-0.457-0.594-0.348-1.445,0.245-1.903c0.477-0.367,1.122-0.367,1.594-0.047
						c1.169,0.797,2.462,1.405,3.807,1.802c1.343,0.385,2.77,0.503,4.081,0.154c0.325-0.093,0.642-0.209,0.947-0.355
						c0.302-0.148,0.601-0.318,0.865-0.536c0.275-0.205,0.517-0.455,0.748-0.721c0.225-0.271,0.422-0.568,0.6-0.884
						c0.171-0.32,0.314-0.657,0.449-1.005c0.122-0.351,0.229-0.711,0.311-1.082c0.16-0.741,0.236-1.51,0.274-2.287
						c0.133,0.766,0.205,1.549,0.184,2.343c-0.011,0.398-0.051,0.796-0.11,1.197c-0.068,0.399-0.173,0.794-0.305,1.186
						c-0.142,0.389-0.313,0.771-0.528,1.138c-0.221,0.361-0.468,0.715-0.767,1.028c-0.288,0.325-0.626,0.604-0.982,0.858
						c-0.356,0.256-0.747,0.457-1.147,0.633c-1.621,0.676-3.401,0.754-5.073,0.513c-1.685-0.237-3.279-0.846-4.766-1.628
						l1.736-2.083c1.368,1.434,2.635,3.063,3.482,4.996c0.849,1.918,1.289,4.125,1.065,6.339c-0.225,2.207-1.094,4.367-2.46,6.106
						c-1.356,1.748-3.123,3.149-5.118,4.063c-1.988,0.921-4.195,1.417-6.418,1.344c-2.219-0.059-4.438-0.655-6.384-1.711
						c-1.949-1.059-3.604-2.539-4.943-4.189c-1.333-1.662-2.335-3.505-3.131-5.382l4.515-1.177c0.254,2.465,0.218,5.059-0.571,7.672
						c-0.396,1.299-1.003,2.606-1.932,3.754c-0.904,1.157-2.138,2.115-3.497,2.714c-1.359,0.614-2.811,0.834-4.178,0.835
						c-1.374-0.003-2.682-0.23-3.912-0.578c-1.239-0.355-2.363-0.831-3.501-1.393c-1.06-0.526-2.175-1.16-3.178-1.924
						c-2.01-1.501-3.661-3.351-4.981-5.359c-1.32-2.008-2.395-4.14-3.168-6.364c-0.772-2.222-1.333-4.505-1.576-6.817
						C143.145,296.463,143.151,294.129,143.541,291.875z"/>
				</g>
			</g>
			<g>
				<path style="fill:#EEBDAE;" d="M119.741,338.434c-19.949-4.275-22.324,19.949,0.475,15.674"/>
			</g>
		</g>
		<g>
			<g>
				<path style="fill:#AB3C6B;" d="M136.684,399.728c5.47,12.461,33.101,13.479,39.049,0.95c2.351-4.952-5.019-9.294-7.383-4.314
					c-3.286,6.922-21.322,5.796-24.283-0.95C141.855,390.375,134.49,394.731,136.684,399.728L136.684,399.728z"/>
			</g>
		</g>
	</g>
</g>
</svg>
