<?xml version="1.0" encoding="utf-8"?>
<!-- Generator: Adobe Illustrator 27.5.0, SVG Export Plug-In . SVG Version: 6.00 Build 0)  -->
<svg version="1.1" xmlns="http://www.w3.org/2000/svg" xmlns:xlink="http://www.w3.org/1999/xlink" x="0px" y="0px"
	 viewBox="0 0 750 500" style="enable-background:new 0 0 750 500;" xml:space="preserve">
<g id="BACKGROUND">
	<rect style="fill:#FFFAEB;" width="750" height="500"/>
</g>
<g id="OBJECTS">
	<g>
		<g>
			<path d="M170.318,63.533c-19.127-16.35-47.989-14.089-64.34,5.037c-13.937,16.305-14.342,39.678-2.313,56.35l-17.071,19.971
				l-0.951-12.141c-0.465-5.935-5.652-10.365-11.587-9.904c-5.934,0.465-10.369,5.652-9.904,11.587l2.981,38.082
				c0.442,5.648,5.163,9.938,10.734,9.938c0.282,0,0.567-0.011,0.853-0.033l38.082-2.981c5.934-0.465,10.369-5.652,9.904-11.587
				c-0.465-5.935-5.655-10.364-11.587-9.904l-12.14,0.95l17.069-19.968c6.48,3.281,13.541,4.906,20.584,4.906
				c12.891,0,25.708-5.418,34.722-15.962c0,0,0,0,0,0C191.704,108.745,189.444,79.883,170.318,63.533z M158.969,113.866
				c-8.626,10.09-23.855,11.284-33.947,2.657c-10.091-8.626-11.284-23.855-2.657-33.947c4.756-5.564,11.518-8.422,18.32-8.422
				c5.536,0,11.099,1.894,15.626,5.765C166.402,88.545,167.594,103.774,158.969,113.866z"/>
			<path style="fill:#66438F;" d="M175.102,65.223C165.63,55.661,148.041,53.2,148.041,53.2v1.177
				c-13.737-0.765-27.669,4.642-37.279,15.883c-13.937,16.305-14.342,39.678-2.313,56.349L91.378,146.58l-0.95-12.141
				c-0.203-2.591-1.306-4.895-2.979-6.63c-0.188-0.251-6.372-8.357-17.208-3.937l1.837,3.779c-2.157,2.152-3.399,5.195-3.142,8.471
				l2.981,38.082c0.058,0.737,0.192,1.449,0.387,2.133l-3.098,1.737c0,0,2.481,4.877,11.118,5.804
				c0.752,0.167,1.529,0.264,2.326,0.264c0.282,0,0.567-0.011,0.853-0.033l2.354-0.184c0,0,0.001,0,0.001,0c0,0,0.001,0,0.001,0
				l35.726-2.797c5.934-0.465,10.369-5.652,9.904-11.587c-0.162-2.066-0.906-3.942-2.045-5.501
				c-0.002-0.003-0.003-0.005-0.004-0.008c-3.802-6.476-12.202-6.042-12.202-6.042l-1.195,1.949l-8.28,0.648l17.069-19.968
				c6.48,3.281,13.541,4.906,20.584,4.906c12.891,0,25.708-5.418,34.722-15.962c0,0,0,0,0,0
				C196.488,110.436,194.229,81.573,175.102,65.223z M163.753,115.556c-8.626,10.09-23.855,11.284-33.947,2.657
				c-10.091-8.626-11.284-23.855-2.657-33.946c4.756-5.564,11.518-8.422,18.32-8.422c5.536,0,11.099,1.894,15.626,5.765
				C171.187,90.235,172.379,105.464,163.753,115.556z"/>
			<g>
				<defs>
					<path id="SVGID_1_" d="M170.318,63.533c-19.127-16.35-47.989-14.089-64.34,5.037c-13.937,16.305-14.342,39.678-2.313,56.35
						l-17.071,19.971l-0.951-12.141c-0.465-5.935-5.652-10.365-11.587-9.904c-5.934,0.465-10.369,5.652-9.904,11.587l2.981,38.082
						c0.442,5.648,5.163,9.938,10.734,9.938c0.282,0,0.567-0.011,0.853-0.033l38.082-2.981c5.934-0.465,10.369-5.652,9.904-11.587
						c-0.465-5.935-5.655-10.364-11.587-9.904l-12.14,0.95l17.069-19.968c6.48,3.281,13.541,4.906,20.584,4.906
						c12.891,0,25.708-5.418,34.722-15.962c0,0,0,0,0,0C191.704,108.745,189.444,79.883,170.318,63.533z M158.969,113.866
						c-8.626,10.09-23.855,11.284-33.947,2.657c-10.091-8.626-11.284-23.855-2.657-33.947c4.756-5.564,11.518-8.422,18.32-8.422
						c5.536,0,11.099,1.894,15.626,5.765C166.402,88.545,167.594,103.774,158.969,113.866z"/>
				</defs>
				<clipPath id="SVGID_00000054974747885640770020000002636728936574414744_">
					<use xlink:href="#SVGID_1_"  style="overflow:visible;"/>
				</clipPath>
				<g style="clip-path:url(#SVGID_00000054974747885640770020000002636728936574414744_);">
					<rect x="61.808" y="51.063" style="fill:#F04656;" width="217.047" height="21.898"/>
					<rect x="61.808" y="72.961" style="fill:#F07422;" width="217.047" height="21.898"/>
					<rect x="61.808" y="94.859" style="fill:#F1B62C;" width="217.047" height="21.898"/>
					<rect x="61.808" y="116.757" style="fill:#1EBD3D;" width="217.047" height="21.898"/>
					<rect x="61.808" y="138.655" style="fill:#2A70D9;" width="217.047" height="21.898"/>
					<rect x="61.808" y="160.553" style="fill:#A53AD6;" width="217.047" height="21.898"/>
				</g>
			</g>
		</g>
		<path style="fill:#D1D1D1;" d="M173.51,135.885c-0.764-3.189-2.913-6.12-5.573-8.137c-3.78-2.866-8.445-4.253-12.998-5.585
			c-1.704-0.499-3.36-1.121-4.995-1.743c-4.676,1.942-9.869,2.375-14.798,1.222c-0.564,5.338,0.532,10.853,3.158,15.539
			c1.836,3.277,4.41,6.126,7.449,8.334C155.629,145.444,165.436,142.185,173.51,135.885z"/>
		<g>
			<path style="fill:#66438F;" d="M218.216,168.581c-0.003-0.005-0.006-0.01-0.009-0.015c-0.523-1.18-1.257-2.289-2.224-3.256
				c-0.212-0.212-0.435-0.405-0.659-0.596c-5.012-4.852-11.62-4.247-11.62-4.247l-3.074,4.954l-8.5,8.5v-26.273
				c19.976-4.857,34.856-22.887,34.856-44.337c0-25.163-20.471-45.634-45.634-45.634c-25.162,0-45.633,20.471-45.633,45.634
				c0,21.449,14.879,39.479,34.855,44.337v26.272l-8.611-8.611c0,0-7.469-7.759-15.975-4.228c-2.811,1.167-2.332,3.303-0.442,5.638
				c-2.978,4.207-2.593,10.065,1.175,13.833l24.697,24.697l-1.036,1.826c0,0,5.511,6.152,13.001,3.452
				c0.001,0,0.001-0.001,0.002-0.001c2.048-0.391,4.004-1.378,5.589-2.964l27.011-27.01c2.959-2.959,3.829-7.207,2.628-10.933
				C218.532,169.282,218.406,168.936,218.216,168.581z M181.351,127.389c-13.276,0-24.077-10.801-24.077-24.077
				c0-13.277,10.801-24.077,24.077-24.077c13.276,0,24.077,10.801,24.077,24.077C205.428,116.589,194.627,127.389,181.351,127.389z"
				/>
			<path d="M195.956,163.62l-8.611,8.611v-26.273c19.976-4.857,34.856-22.887,34.856-44.337c0-25.163-20.471-45.634-45.634-45.634
				c-25.162,0-45.633,20.471-45.633,45.634c0,21.449,14.879,39.479,34.855,44.337v26.272l-8.611-8.611
				c-4.209-4.21-11.034-4.21-15.243,0c-4.209,4.209-4.209,11.034,0,15.243l27.011,27.01c2.105,2.105,4.863,3.157,7.621,3.157
				c2.758,0,5.517-1.053,7.621-3.157l27.011-27.01c4.21-4.209,4.21-11.033,0-15.243C206.99,159.411,200.165,159.41,195.956,163.62z
				 M152.49,101.622c0-13.276,10.801-24.077,24.077-24.077c13.276,0,24.077,10.801,24.077,24.077
				c0,13.276-10.801,24.077-24.077,24.077C163.291,125.699,152.49,114.898,152.49,101.622z"/>
			<g>
				<defs>
					<path id="SVGID_00000136392423598447685400000015003072143768041388_" d="M195.956,163.62l-8.611,8.611v-26.273
						c19.976-4.857,34.856-22.887,34.856-44.337c0-25.163-20.471-45.634-45.634-45.634c-25.162,0-45.633,20.471-45.633,45.634
						c0,21.449,14.879,39.479,34.855,44.337v26.272l-8.611-8.611c-4.209-4.21-11.034-4.21-15.243,0
						c-4.209,4.209-4.209,11.034,0,15.243l27.011,27.01c2.105,2.105,4.863,3.157,7.621,3.157c2.758,0,5.517-1.053,7.621-3.157
						l27.011-27.01c4.21-4.209,4.21-11.033,0-15.243C206.99,159.411,200.165,159.41,195.956,163.62z M152.49,101.622
						c0-13.276,10.801-24.077,24.077-24.077c13.276,0,24.077,10.801,24.077,24.077c0,13.276-10.801,24.077-24.077,24.077
						C163.291,125.699,152.49,114.898,152.49,101.622z"/>
				</defs>
				<clipPath id="SVGID_00000054985582948820650490000003469099140879325340_">
					<use xlink:href="#SVGID_00000136392423598447685400000015003072143768041388_"  style="overflow:visible;"/>
				</clipPath>
				<g style="clip-path:url(#SVGID_00000054985582948820650490000003469099140879325340_);">
					
						<rect x="40.114" y="70.51" transform="matrix(0.7071 -0.7071 0.7071 0.7071 -14.9037 126.1729)" style="fill:#F04656;" width="209.477" height="21.134"/>
					
						<rect x="55.058" y="85.454" transform="matrix(0.7071 -0.7071 0.7071 0.7071 -21.0938 141.117)" style="fill:#F07422;" width="209.477" height="21.134"/>
					
						<rect x="70.002" y="100.398" transform="matrix(0.7071 -0.7071 0.7071 0.7071 -27.2838 156.0613)" style="fill:#F1B62C;" width="209.477" height="21.134"/>
					
						<rect x="84.946" y="115.342" transform="matrix(0.7071 -0.7071 0.7071 0.7071 -33.4739 171.0054)" style="fill:#1EBD3D;" width="209.477" height="21.134"/>
					
						<rect x="99.891" y="130.286" transform="matrix(0.7071 -0.7071 0.7071 0.7071 -39.664 185.9497)" style="fill:#2A70D9;" width="209.477" height="21.134"/>
					
						<rect x="114.835" y="145.231" transform="matrix(0.7071 -0.7071 0.7071 0.7071 -45.8542 200.8939)" style="fill:#A53AD6;" width="209.477" height="21.134"/>
				</g>
			</g>
		</g>
		<path style="fill:#D1D1D1;" d="M147.866,81.36c5.406,0.861,10.512,3.43,14.468,7.212c1.403-1.806,3.055-3.407,4.907-4.751
			c-0.356-5.076-3.24-9.966-7.545-12.742c-4.406-2.842-10.071-3.457-15.103-1.975c-3.872,3.808-7.066,8.299-9.391,13.277
			C139.268,81.062,143.643,80.688,147.866,81.36z"/>
		<g>
			<defs>
				<path id="SVGID_00000170966880771157251040000002223921370987082397_" d="M138.199,76.964c2.356-0.74,4.81-1.12,7.27-1.12
					c1.884,0,3.769,0.238,5.617,0.68c1.841,0.883,3.601,2.007,5.225,3.395c2.766,2.364,4.858,5.226,6.268,8.341
					c4.417-5.497,11.188-9.025,18.771-9.025c1.733,0,3.418,0.198,5.047,0.549c-2.654-5.419-6.425-10.397-11.295-14.56
					c-3.18-3.21-7.273-5.618-11.309-7.403C153.137,60.933,144.087,67.834,138.199,76.964z"/>
			</defs>
			<clipPath id="SVGID_00000112606427174006454720000011027689202102674334_">
				<use xlink:href="#SVGID_00000170966880771157251040000002223921370987082397_"  style="overflow:visible;"/>
			</clipPath>
			<g style="clip-path:url(#SVGID_00000112606427174006454720000011027689202102674334_);">
				<path d="M170.318,63.533c-19.127-16.35-47.989-14.089-64.34,5.037c-13.937,16.305-14.342,39.678-2.313,56.35l-17.071,19.971
					l-0.951-12.141c-0.465-5.935-5.652-10.365-11.587-9.904c-5.934,0.465-10.369,5.652-9.904,11.587l2.981,38.082
					c0.442,5.648,5.163,9.938,10.734,9.938c0.282,0,0.567-0.011,0.853-0.033l38.082-2.981c5.934-0.465,10.369-5.652,9.904-11.587
					c-0.465-5.935-5.655-10.364-11.587-9.904l-12.14,0.95l17.069-19.968c6.48,3.281,13.541,4.906,20.584,4.906
					c12.891,0,25.708-5.418,34.722-15.962c0,0,0,0,0,0C191.704,108.745,189.444,79.883,170.318,63.533z M158.969,113.866
					c-8.626,10.09-23.855,11.284-33.947,2.657c-10.091-8.626-11.284-23.855-2.657-33.947c4.756-5.564,11.518-8.422,18.32-8.422
					c5.536,0,11.099,1.894,15.626,5.765C166.402,88.545,167.594,103.774,158.969,113.866z"/>
				<path style="fill:#66438F;" d="M175.102,65.223C165.63,55.661,148.041,53.2,148.041,53.2v1.177
					c-13.737-0.765-27.669,4.642-37.279,15.883c-13.937,16.305-14.342,39.678-2.313,56.349L91.378,146.58l-0.95-12.141
					c-0.203-2.591-1.306-4.895-2.979-6.63c-0.188-0.251-6.372-8.357-17.208-3.937l1.837,3.779c-2.157,2.152-3.399,5.195-3.142,8.471
					l2.981,38.082c0.058,0.737,0.192,1.449,0.387,2.133l-3.098,1.737c0,0,2.481,4.877,11.118,5.804
					c0.752,0.167,1.529,0.264,2.326,0.264c0.282,0,0.567-0.011,0.853-0.033l2.354-0.184c0,0,0.001,0,0.001,0c0,0,0.001,0,0.001,0
					l35.726-2.797c5.934-0.465,10.369-5.652,9.904-11.587c-0.162-2.066-0.906-3.942-2.045-5.501
					c-0.002-0.003-0.003-0.005-0.004-0.008c-3.802-6.476-12.202-6.042-12.202-6.042l-1.195,1.949l-8.28,0.648l17.069-19.968
					c6.48,3.281,13.541,4.906,20.584,4.906c12.891,0,25.708-5.418,34.722-15.962c0,0,0,0,0,0
					C196.488,110.436,194.229,81.573,175.102,65.223z M163.753,115.556c-8.626,10.09-23.855,11.284-33.947,2.657
					c-10.091-8.626-11.284-23.855-2.657-33.946c4.756-5.564,11.518-8.422,18.32-8.422c5.536,0,11.099,1.894,15.626,5.765
					C171.187,90.235,172.379,105.464,163.753,115.556z"/>
				<g>
					<defs>
						<path id="SVGID_00000091700444946911654400000002119665587400634023_" d="M170.318,63.533
							c-19.127-16.35-47.989-14.089-64.34,5.037c-13.937,16.305-14.342,39.678-2.313,56.35l-17.071,19.971l-0.951-12.141
							c-0.465-5.935-5.652-10.365-11.587-9.904c-5.934,0.465-10.369,5.652-9.904,11.587l2.981,38.082
							c0.442,5.648,5.163,9.938,10.734,9.938c0.282,0,0.567-0.011,0.853-0.033l38.082-2.981c5.934-0.465,10.369-5.652,9.904-11.587
							c-0.465-5.935-5.655-10.364-11.587-9.904l-12.14,0.95l17.069-19.968c6.48,3.281,13.541,4.906,20.584,4.906
							c12.891,0,25.708-5.418,34.722-15.962c0,0,0,0,0,0C191.704,108.745,189.444,79.883,170.318,63.533z M158.969,113.866
							c-8.626,10.09-23.855,11.284-33.947,2.657c-10.091-8.626-11.284-23.855-2.657-33.947c4.756-5.564,11.518-8.422,18.32-8.422
							c5.536,0,11.099,1.894,15.626,5.765C166.402,88.545,167.594,103.774,158.969,113.866z"/>
					</defs>
					<clipPath id="SVGID_00000102505650801011788540000011847301048054957755_">
						<use xlink:href="#SVGID_00000091700444946911654400000002119665587400634023_"  style="overflow:visible;"/>
					</clipPath>
					<g style="clip-path:url(#SVGID_00000102505650801011788540000011847301048054957755_);">
						<rect x="61.808" y="51.063" style="fill:#F04656;" width="217.047" height="21.898"/>
						<rect x="61.808" y="72.961" style="fill:#F07422;" width="217.047" height="21.898"/>
						<rect x="61.808" y="94.859" style="fill:#F1B62C;" width="217.047" height="21.898"/>
						<rect x="61.808" y="116.757" style="fill:#1EBD3D;" width="217.047" height="21.898"/>
						<rect x="61.808" y="138.655" style="fill:#2A70D9;" width="217.047" height="21.898"/>
						<rect x="61.808" y="160.553" style="fill:#A53AD6;" width="217.047" height="21.898"/>
					</g>
				</g>
			</g>
		</g>
		<path style="fill:#A1A1A1;" d="M98.133,98.449c-0.059,2.308,3.148,3.147,4.09,1.039c0.007-0.015,0.013-0.03,0.019-0.044
			c0.635-1.483,0.443-3.169,0.361-4.78c-0.619-12.218,6.519-24.488,17.446-29.989c1.416-0.713,2.903-1.331,4.132-2.333
			c0.012-0.01,0.024-0.02,0.037-0.03c1.408-1.164,0.006-3.42-1.682-2.722c-6.354,2.628-12.01,6.944-16.187,12.408
			c-4.978,6.514-7.829,14.627-8.02,22.824C98.298,96.189,98.162,97.307,98.133,98.449z"/>
		<path style="fill:#A1A1A1;" d="M126.849,60.323c0.455,0.434,1.11,0.606,1.738,0.598c0.628-0.008,1.242-0.177,1.848-0.345
			c1.377-0.382,2.805-0.79,3.879-1.733c0.365-0.321,0.703-0.812,0.518-1.262c-0.145-0.352-0.548-0.513-0.916-0.607
			C131.292,56.307,127.336,57.175,126.849,60.323z"/>
		<path style="fill:#A1A1A1;" d="M153.66,136.708c1.9,1.312,4.356-0.915,3.107-2.856c-0.009-0.014-0.018-0.027-0.027-0.04
			c-0.894-1.343-2.411-2.104-3.804-2.917c-10.567-6.164-16.935-18.851-15.564-31.008c0.178-1.575,0.474-3.159,0.307-4.735
			c-0.002-0.016-0.003-0.031-0.005-0.047c-0.205-1.816-2.86-1.876-3.199-0.08c-1.275,6.757-0.756,13.852,1.535,20.338
			c2.731,7.73,7.964,14.555,14.721,19.197C151.858,135.334,152.72,136.059,153.66,136.708z"/>
		<path style="fill:#A1A1A1;" d="M137.448,91.816c0.612-0.143,1.114-0.598,1.452-1.128c0.337-0.53,0.531-1.137,0.722-1.736
			c0.434-1.362,0.873-2.78,0.671-4.195c-0.069-0.482-0.295-1.033-0.773-1.124c-0.374-0.071-0.729,0.178-1.009,0.435
			C136.516,85.899,135.078,89.686,137.448,91.816z"/>
		<path style="fill:#A1A1A1;" d="M70.758,175.816c0.296,1.472,2.473,1.352,2.565-0.147c0.001-0.016,0.002-0.032,0.003-0.048
			c0.091-1.615-0.176-3.225-0.38-4.829c-0.988-7.767-0.518-15.634-0.576-23.463c-0.007-0.893-0.026-1.812-0.375-2.634
			s-1.113-1.531-2.006-1.545C64.668,143.071,68.745,165.784,70.758,175.816z"/>
		<path style="fill:#A1A1A1;" d="M67.482,138.639c0.061,0.329,0.132,0.665,0.312,0.946c0.18,0.282,0.494,0.501,0.828,0.477
			c0.41-0.031,0.705-0.398,0.923-0.747c0.928-1.483,1.43-3.212,1.521-4.954c0.065-1.254,0.133-4.081-1.423-4.572
			C66.103,128.675,67.22,137.225,67.482,138.639z"/>
		<path style="fill:#A1A1A1;" d="M176.962,205.222c1.25,0.832,2.704-0.793,1.709-1.918c-0.011-0.012-0.021-0.024-0.032-0.036
			c-1.077-1.206-2.404-2.156-3.683-3.146c-6.191-4.793-11.421-10.689-16.998-16.184c-0.636-0.627-1.299-1.263-2.128-1.597
			c-0.828-0.334-1.87-0.296-2.51,0.326C149.502,186.374,168.445,199.552,176.962,205.222z"/>
		<path style="fill:#A1A1A1;" d="M148.358,181.251c0.275,0.189,0.563,0.377,0.89,0.449c0.327,0.072,0.704,0.005,0.922-0.248
			c0.269-0.312,0.217-0.78,0.125-1.181c-0.393-1.705-1.26-3.282-2.428-4.578c-0.841-0.933-2.792-2.98-4.239-2.226
			C140.337,175.18,147.173,180.436,148.358,181.251z"/>
	</g>
	<g>
		<path style="fill:#66438F;" d="M457.318,37.133l-36.897-9.887c-5.75-1.541-11.66,1.871-13.201,7.621
			c-1.541,5.75,1.871,11.66,7.621,13.201l11.763,3.152l-24.44,14.11c-7.313-4.987-16.142-7.908-25.643-7.908
			c-9.5,0-18.329,2.921-25.642,7.908l-24.44-14.11l11.763-3.152c5.75-1.541,9.162-7.451,7.621-13.201
			c-1.541-5.75-7.45-9.161-13.201-7.621l-36.898,9.887c-2.761,0.74-5.115,2.546-6.545,5.022c-1.429,2.476-1.817,5.418-1.077,8.179
			l9.887,36.897c1.29,4.816,5.645,7.991,10.404,7.991c0.924,0,1.863-0.12,2.797-0.37c5.75-1.541,9.162-7.451,7.621-13.201
			l-3.152-11.763L336.19,81.74c-3.379,6.367-5.302,13.62-5.302,21.316c0,21.449,14.879,39.479,34.856,44.337v20.622h-9.652
			c-5.953,0-10.778,4.825-10.778,10.778c0,5.953,4.825,10.778,10.778,10.778h9.652v10.115c0,5.953,4.825,10.778,10.778,10.778
			c5.953,0,10.778-4.826,10.778-10.778v-10.115h9.652c5.953,0,10.778-4.825,10.778-10.778c0-5.953-4.825-10.778-10.778-10.778H387.3
			v-20.622c19.976-4.857,34.856-22.887,34.856-44.337c0-7.696-1.923-14.949-5.301-21.316l20.528-11.852l-3.152,11.762
			c-1.541,5.75,1.872,11.66,7.621,13.201c0.935,0.25,1.873,0.37,2.797,0.37c4.758,0,9.114-3.176,10.404-7.991l9.886-36.897
			C466.48,44.583,463.068,38.673,457.318,37.133z M376.522,127.134c-13.276,0-24.077-10.801-24.077-24.077
			c0-6.254,2.398-11.958,6.321-16.243c0.588-0.473,1.134-1.008,1.621-1.612c4.273-3.865,9.933-6.222,16.135-6.222
			c6.203,0,11.866,2.359,16.139,6.226c0.485,0.601,1.028,1.133,1.613,1.604c3.926,4.286,6.326,9.991,6.326,16.247
			C400.599,116.333,389.798,127.134,376.522,127.134z"/>
		<path style="fill:#66438F;" d="M403.687,34.867c0,0,1.362,9.542,8.145,11.877c6.783,2.335,7.268-10.459,7.268-10.459l-6.379-6.202
			L403.687,34.867z"/>
		<path style="fill:#66438F;" d="M454.918,32.633c0,0,13.177,5.142,10.302,16.264c-2.875,11.122-15.998,8.651-15.998,8.651
			l1.063-11.628L454.918,32.633z"/>
		<path style="fill:#66438F;" d="M430.626,78.979c0,0-1.72,12.34,10.144,15.521c9.936,2.664,3.795-11.629,3.795-11.629l-3.492-5.52
			L430.626,78.979z"/>
		<path style="fill:#66438F;" d="M397.61,163.986c0,0,10.727,5.064,10.121,14.808c-0.606,9.744-10.121,3.217-10.121,3.217
			s-2.068,0.261-3.458-4.343c-1.39-4.604-1.39-4.604-1.39-4.604L397.61,163.986z"/>
		<path style="fill:#66438F;" d="M362.602,197.077c0,0,1.55,9.204,9.05,12.221c7.5,3.017,4.871-9.473,4.871-9.473l-2.593-8.395
			L362.602,197.077z"/>
		<path style="fill:#66438F;" d="M342.152,176.083c0,0,0.449,11.367,11.098,13.102c10.648,1.734,5.939-12.598,5.939-12.598
			l-4.504-6.859L342.152,176.083z"/>
		<path style="fill:#66438F;" d="M338.291,24.063c0,0,9.243,4.846,7.895,13.281c-1.348,8.435-11.351,5.914-11.351,5.914
			l-3.546-6.511L338.291,24.063z"/>
		<path style="fill:#66438F;" d="M294.624,82.422c0,0,2.759,11.098,11.358,12.519c8.598,1.421,0-14.085,0-14.085l-1.187-6.686
			L294.624,82.422z"/>
		<path d="M453.951,32.324l-36.897-9.887c-5.75-1.541-11.66,1.871-13.201,7.621c-1.541,5.75,1.871,11.66,7.621,13.201l11.763,3.152
			l-24.44,14.11c-7.313-4.987-16.142-7.908-25.643-7.908c-9.5,0-18.329,2.921-25.642,7.908l-24.44-14.11l11.763-3.152
			c5.75-1.541,9.162-7.451,7.621-13.201c-1.541-5.75-7.45-9.161-13.201-7.621l-36.898,9.887c-2.761,0.74-5.115,2.546-6.545,5.022
			c-1.429,2.476-1.817,5.418-1.077,8.179l9.887,36.897c1.29,4.816,5.645,7.991,10.404,7.991c0.924,0,1.863-0.12,2.797-0.37
			c5.75-1.541,9.162-7.451,7.621-13.201l-3.152-11.763l20.528,11.852c-3.379,6.367-5.302,13.62-5.302,21.316
			c0,21.449,14.88,39.479,34.856,44.337v20.622h-9.652c-5.953,0-10.778,4.826-10.778,10.778c0,5.953,4.825,10.778,10.778,10.778
			h9.652v10.115c0,5.953,4.826,10.778,10.778,10.778c5.953,0,10.778-4.825,10.778-10.778v-10.115h9.652
			c5.953,0,10.778-4.825,10.778-10.778c0-5.953-4.826-10.778-10.778-10.778h-9.652v-20.622
			c19.976-4.857,34.856-22.887,34.856-44.337c0-7.696-1.923-14.949-5.301-21.316l20.528-11.852l-3.152,11.762
			c-1.541,5.75,1.872,11.66,7.621,13.201c0.935,0.25,1.873,0.37,2.797,0.37c4.758,0,9.114-3.176,10.404-7.991l9.886-36.897
			C463.113,39.774,459.701,33.864,453.951,32.324z M373.155,122.325c-13.277,0-24.077-10.801-24.077-24.077
			c0-6.254,2.398-11.958,6.321-16.243c0.588-0.474,1.134-1.008,1.621-1.612c4.273-3.865,9.933-6.222,16.135-6.222
			c6.203,0,11.865,2.359,16.139,6.226c0.485,0.601,1.028,1.133,1.613,1.604c3.926,4.286,6.326,9.991,6.326,16.247
			C397.232,111.524,386.431,122.325,373.155,122.325z"/>
		<g>
			<defs>
				<path id="SVGID_00000030474042731784958990000003720671880268332453_" d="M453.951,32.324l-36.897-9.887
					c-5.75-1.541-11.66,1.871-13.201,7.621c-1.541,5.75,1.871,11.66,7.621,13.201l11.763,3.152l-24.44,14.11
					c-7.313-4.987-16.142-7.908-25.643-7.908c-9.5,0-18.329,2.921-25.642,7.908l-24.44-14.11l11.763-3.152
					c5.75-1.541,9.162-7.451,7.621-13.201c-1.541-5.75-7.45-9.161-13.201-7.621l-36.898,9.887c-2.761,0.74-5.115,2.546-6.545,5.022
					c-1.429,2.476-1.817,5.418-1.077,8.179l9.887,36.897c1.29,4.816,5.645,7.991,10.404,7.991c0.924,0,1.863-0.12,2.797-0.37
					c5.75-1.541,9.162-7.451,7.621-13.201l-3.152-11.763l20.528,11.852c-3.379,6.367-5.302,13.62-5.302,21.316
					c0,21.449,14.88,39.479,34.856,44.337v20.622h-9.652c-5.953,0-10.778,4.826-10.778,10.778c0,5.953,4.825,10.778,10.778,10.778
					h9.652v10.115c0,5.953,4.826,10.778,10.778,10.778c5.953,0,10.778-4.825,10.778-10.778v-10.115h9.652
					c5.953,0,10.778-4.825,10.778-10.778c0-5.953-4.826-10.778-10.778-10.778h-9.652v-20.622
					c19.976-4.857,34.856-22.887,34.856-44.337c0-7.696-1.923-14.949-5.301-21.316l20.528-11.852l-3.152,11.762
					c-1.541,5.75,1.872,11.66,7.621,13.201c0.935,0.25,1.873,0.37,2.797,0.37c4.758,0,9.114-3.176,10.404-7.991l9.886-36.897
					C463.113,39.774,459.701,33.864,453.951,32.324z M373.155,122.325c-13.277,0-24.077-10.801-24.077-24.077
					c0-6.254,2.398-11.958,6.321-16.243c0.588-0.474,1.134-1.008,1.621-1.612c4.273-3.865,9.933-6.222,16.135-6.222
					c6.203,0,11.865,2.359,16.139,6.226c0.485,0.601,1.028,1.133,1.613,1.604c3.926,4.286,6.326,9.991,6.326,16.247
					C397.232,111.524,386.431,122.325,373.155,122.325z"/>
			</defs>
			<clipPath id="SVGID_00000163049906009569244940000016862114660562385832_">
				<use xlink:href="#SVGID_00000030474042731784958990000003720671880268332453_"  style="overflow:visible;"/>
			</clipPath>
			<g style="clip-path:url(#SVGID_00000163049906009569244940000016862114660562385832_);">
				<rect x="273.815" y="20.492" style="fill:#F04656;" width="198.075" height="31.662"/>
				<rect x="273.815" y="52.154" style="fill:#F07422;" width="198.075" height="31.662"/>
				<rect x="273.815" y="83.817" style="fill:#F1B62C;" width="198.075" height="31.662"/>
				<rect x="273.815" y="115.479" style="fill:#1EBD3D;" width="198.075" height="31.662"/>
				<rect x="273.815" y="147.141" style="fill:#2A70D9;" width="198.075" height="31.662"/>
				<rect x="273.815" y="178.803" style="fill:#A53AD6;" width="198.075" height="31.662"/>
			</g>
		</g>
		<path style="fill:#A1A1A1;" d="M351.155,134.635c1.9,1.312,4.356-0.915,3.107-2.856c-0.009-0.014-0.018-0.027-0.027-0.041
			c-0.894-1.343-2.411-2.104-3.804-2.917c-10.567-6.164-16.935-18.851-15.564-31.007c0.178-1.576,0.474-3.159,0.307-4.735
			c-0.002-0.016-0.003-0.032-0.005-0.047c-0.204-1.816-2.859-1.876-3.198-0.08c-1.275,6.757-0.756,13.852,1.535,20.338
			c2.731,7.73,7.964,14.555,14.721,19.197C349.354,133.261,350.215,133.986,351.155,134.635z"/>
		<path style="fill:#A1A1A1;" d="M334.943,89.743c0.612-0.143,1.114-0.597,1.452-1.128c0.337-0.53,0.531-1.137,0.722-1.735
			c0.433-1.362,0.872-2.781,0.67-4.195c-0.069-0.482-0.295-1.033-0.773-1.124c-0.374-0.071-0.729,0.178-1.009,0.435
			C334.011,83.826,332.574,87.613,334.943,89.743z"/>
		<path style="fill:#A1A1A1;" d="M291.148,38.205c-1.369,0.616-0.766,2.712,0.715,2.467c0.016-0.003,0.032-0.005,0.048-0.008
			c1.594-0.271,3.104-0.89,4.623-1.446c7.351-2.695,15.125-3.989,22.745-5.792c0.869-0.206,1.761-0.429,2.484-0.953
			c0.723-0.524,1.245-1.426,1.059-2.299C321.711,24.969,300.478,34.006,291.148,38.205z"/>
		<path style="fill:#A1A1A1;" d="M326.659,26.724c-0.307,0.132-0.619,0.277-0.853,0.515c-0.234,0.238-0.378,0.593-0.28,0.913
			c0.121,0.393,0.545,0.598,0.934,0.733c1.652,0.574,3.449,0.678,5.168,0.378c1.237-0.216,4.008-0.78,4.139-2.406
			C336.065,23.159,327.978,26.154,326.659,26.724z"/>
		<path style="fill:#A1A1A1;" d="M447.146,35.277c1.037,0.467,0.58,2.053-0.542,1.868c-0.012-0.002-0.024-0.004-0.036-0.006
			c-1.207-0.205-2.351-0.674-3.501-1.095c-5.567-2.041-11.454-3.021-17.224-4.386c-0.658-0.156-1.333-0.325-1.881-0.722
			c-0.547-0.397-0.943-1.08-0.802-1.741C424.001,25.254,440.08,32.098,447.146,35.277z"/>
		<path style="fill:#A1A1A1;" d="M420.254,26.583c0.233,0.1,0.469,0.209,0.646,0.39c0.177,0.18,0.287,0.449,0.212,0.691
			c-0.092,0.298-0.413,0.453-0.707,0.555c-1.251,0.434-2.612,0.514-3.914,0.286c-0.937-0.164-3.035-0.591-3.135-1.822
			C413.131,23.883,419.255,26.152,420.254,26.583z"/>
		<path style="fill:#A1A1A1;" d="M370.121,55.825c6.53-0.679,13.476,0.608,18.631,4.673c0.565,0.446,1.158,1.189,0.783,1.804
			c-0.401,0.658-1.4,0.385-2.097,0.056c-9.562-4.517-21.062-4.727-30.783-0.561c-0.833,0.357-4.437,2.018-4.2-0.077
			c0.131-1.159,4.181-2.24,5.169-2.629C361.639,57.51,365.818,56.273,370.121,55.825z"/>
	</g>
	<g>
		<path style="fill:#66438F;" d="M422.59,339.773c0-25.163-20.471-45.634-45.634-45.634s-45.634,20.471-45.634,45.634
			c0,21.45,14.879,39.479,34.856,44.337v12.731l-1.526-0.881c-5.155-2.977-11.748-1.21-14.724,3.945
			c-2.976,5.155-1.21,11.748,3.945,14.724l1.525,0.881l-1.525,0.88c-3.845,2.22-5.801,6.451-5.315,10.597l-2.542,2.003
			c0.792,1.174,3.27,6.381,11.618,7.376c0.541,0.083,1.087,0.139,1.638,0.139c1.253,0.06,2.272-0.122,3.104-0.478
			c0.777-0.235,1.542-0.544,2.275-0.967l1.526-0.881v2.225c0,1.568,0.342,3.053,0.944,4.397l-2.015,0.753
			c0,0,3.409,5.009,10.72,5.568c0.371,0.039,0.748,0.06,1.129,0.06c0.305,0.003,0.587-0.015,0.858-0.043
			c5.551-0.439,9.92-5.072,9.92-10.735v-2.225l1.526,0.881c1.697,0.98,3.551,1.445,5.379,1.445c3.725,0,7.348-1.933,9.345-5.391
			c2.976-5.155,1.21-11.747-3.945-14.724l-1.525-0.88l1.526-0.881c5.155-2.976,6.921-9.568,3.945-14.724
			c-2.546-6.187-10.846-7.231-10.846-7.231l-1.134,2.179c-0.939,0.238-1.863,0.598-2.743,1.107l-1.527,0.881V384.11
			C407.71,379.253,422.59,361.223,422.59,339.773z M376.956,363.851c-13.276,0-24.077-10.801-24.077-24.077
			c0-13.276,10.801-24.077,24.077-24.077s24.077,10.801,24.077,24.077C401.033,353.05,390.232,363.851,376.956,363.851z"/>
		<path d="M418.678,337.65c0-25.163-20.471-45.634-45.634-45.634c-25.163,0-45.634,20.471-45.634,45.634
			c0,21.45,14.88,39.479,34.856,44.337v12.731l-1.526-0.881c-5.155-2.977-11.747-1.21-14.723,3.945
			c-2.976,5.155-1.21,11.747,3.945,14.724l1.525,0.881l-1.525,0.881c-5.155,2.976-6.921,9.568-3.945,14.723
			c1.996,3.458,5.619,5.391,9.344,5.391c1.828,0,3.682-0.465,5.379-1.446l1.526-0.881v2.225c0,5.953,4.826,10.778,10.778,10.778
			c5.953,0,10.778-4.826,10.778-10.778v-2.225l1.526,0.881c1.697,0.98,3.551,1.446,5.379,1.446c3.725,0,7.348-1.933,9.344-5.391
			c2.976-5.155,1.21-11.747-3.945-14.723l-1.525-0.88l1.526-0.881c5.155-2.976,6.921-9.568,3.945-14.724
			c-2.975-5.155-9.568-6.923-14.724-3.945l-1.526,0.881v-12.732C403.799,377.129,418.678,359.099,418.678,337.65z M348.967,337.65
			c0-13.276,10.801-24.077,24.077-24.077c13.276,0,24.077,10.801,24.077,24.077c0,13.276-10.801,24.077-24.077,24.077
			C359.768,361.727,348.967,350.926,348.967,337.65z"/>
		<g>
			<defs>
				<path id="SVGID_00000004539425276884807360000001164349173405922490_" d="M418.678,337.65c0-25.163-20.471-45.634-45.634-45.634
					c-25.163,0-45.634,20.471-45.634,45.634c0,21.45,14.88,39.479,34.856,44.337v12.731l-1.526-0.881
					c-5.155-2.977-11.747-1.21-14.723,3.945c-2.976,5.155-1.21,11.747,3.945,14.724l1.525,0.881l-1.525,0.881
					c-5.155,2.976-6.921,9.568-3.945,14.723c1.996,3.458,5.619,5.391,9.344,5.391c1.828,0,3.682-0.465,5.379-1.446l1.526-0.881
					v2.225c0,5.953,4.826,10.778,10.778,10.778c5.953,0,10.778-4.826,10.778-10.778v-2.225l1.526,0.881
					c1.697,0.98,3.551,1.446,5.379,1.446c3.725,0,7.348-1.933,9.344-5.391c2.976-5.155,1.21-11.747-3.945-14.723l-1.525-0.88
					l1.526-0.881c5.155-2.976,6.921-9.568,3.945-14.724c-2.975-5.155-9.568-6.923-14.724-3.945l-1.526,0.881v-12.732
					C403.799,377.129,418.678,359.099,418.678,337.65z M348.967,337.65c0-13.276,10.801-24.077,24.077-24.077
					c13.276,0,24.077,10.801,24.077,24.077c0,13.276-10.801,24.077-24.077,24.077C359.768,361.727,348.967,350.926,348.967,337.65z"
					/>
			</defs>
			<clipPath id="SVGID_00000046335287216543114530000015036177212710492330_">
				<use xlink:href="#SVGID_00000004539425276884807360000001164349173405922490_"  style="overflow:visible;"/>
			</clipPath>
			<g style="clip-path:url(#SVGID_00000046335287216543114530000015036177212710492330_);">
				<rect x="240.564" y="292.016" style="fill:#F04656;" width="272.784" height="25.876"/>
				<rect x="240.564" y="317.892" style="fill:#F07422;" width="272.784" height="25.876"/>
				<rect x="240.564" y="343.767" style="fill:#F1B62C;" width="272.784" height="25.876"/>
				<rect x="240.564" y="369.643" style="fill:#1EBD3D;" width="272.784" height="25.876"/>
				<rect x="240.564" y="395.518" style="fill:#2A70D9;" width="272.784" height="25.875"/>
				<rect x="240.564" y="421.394" style="fill:#A53AD6;" width="272.784" height="25.876"/>
			</g>
		</g>
		<path style="fill:#A1A1A1;" d="M337.098,360.615c1.127,2.015,4.314,1.099,4.047-1.194c-0.002-0.016-0.004-0.032-0.006-0.048
			c-0.211-1.6-1.237-2.951-2.129-4.295c-6.768-10.191-6.891-24.386-0.302-34.693c0.854-1.336,1.818-2.626,2.363-4.115
			c0.005-0.015,0.011-0.03,0.016-0.045c0.617-1.72-1.74-2.944-2.835-1.482c-4.123,5.503-6.784,12.101-7.587,18.932
			c-0.957,8.142,0.733,16.575,4.752,23.72C336.086,358.587,336.54,359.618,337.098,360.615z"/>
		<path style="fill:#A1A1A1;" d="M342.334,313.173c0.612,0.141,1.264-0.045,1.8-0.372c0.536-0.327,0.978-0.786,1.413-1.239
			c0.989-1.031,2.009-2.111,2.451-3.47c0.151-0.463,0.19-1.057-0.198-1.35c-0.304-0.229-0.733-0.161-1.098-0.054
			C344.105,307.451,341.146,310.217,342.334,313.173z"/>
	</g>
	<g>
		<path style="fill:#66438F;" d="M197.379,269.281c0,0,8.613-0.849,13.439,7.51c4.826,8.359-9.313,9.95-9.313,9.95l-4.126-5.747
			V269.281z"/>
		<path style="fill:#66438F;" d="M225.753,276.53c0,0,10.228-0.762,13.374,7.509c3.146,8.271-15.532,11.324-15.532,11.324
			l-5.747-2.335L225.753,276.53z"/>
		<path style="fill:#66438F;" d="M208.669,320.833c0,0,3.144,7.273,13.256,7.514c10.112,0.241-1.203-9.996-1.203-9.996l-4.49-4.691
			L208.669,320.833z"/>
		<path style="fill:#66438F;" d="M172.628,396.77c0,0,9.671,1.203,12.09,9.255c2.419,8.053-16.08,12.329-16.08,12.329l-4.31-0.673
			L172.628,396.77z"/>
		<path style="fill:#66438F;" d="M116.734,396.77c0,0,6.685-1.399,11.384,5.089c4.7,6.488-5.692,10.782-5.692,10.782l-5.329-1.072
			L116.734,396.77z"/>
		<path style="fill:#66438F;" d="M132.75,438.765c0,0,6.45,8.684,14.757,8.505c8.307-0.179,2.422-12.441,2.422-13.177
			c0-0.736-6.333-5.395-6.333-5.395L132.75,438.765z"/>
		<path style="fill:#66438F;" d="M239.128,284.038c-2.976-5.155-9.567-6.923-14.723-3.945l-8.76,5.057l-4.826-8.359
			c-2.977-5.155-9.567-6.923-14.724-3.945c-5.155,2.977-6.921,9.568-3.945,14.724l4.826,8.359l-18.352,10.595
			c-8.158-7.62-19.099-12.298-31.117-12.298c-12.018,0-22.958,4.677-31.117,12.298l-18.352-10.595l4.826-8.359
			c2.976-5.155,1.21-11.748-3.945-14.724c-5.155-2.977-11.747-1.21-14.724,3.945l-4.826,8.359l-8.76-5.057
			c-5.154-2.975-11.747-1.209-14.723,3.945c-2.976,5.155-1.21,11.748,3.945,14.724l8.76,5.057l-4.826,8.359
			c-2.976,5.155-1.21,11.747,3.945,14.723c1.697,0.98,3.551,1.445,5.379,1.445c3.725,0,7.349-1.933,9.345-5.391l4.826-8.358
			l17.259,9.964c-1.708,4.785-2.646,9.934-2.646,15.299c0,21.449,14.879,39.479,34.856,44.337v26.273l-8.611-8.611
			c-4.209-4.21-11.034-4.21-15.243,0c-4.209,4.209-4.209,11.033,0,15.243l27.01,27.011c2.021,2.021,4.763,3.157,7.621,3.157
			c2.858,0,5.6-1.136,7.621-3.157l27.011-27.011c4.21-4.21,4.21-11.033,0-15.243c-4.209-4.209-11.034-4.209-15.243,0l-8.612,8.612
			v-26.273c19.976-4.857,34.856-22.887,34.856-44.337c0-5.365-0.938-10.513-2.646-15.298l17.259-9.965l4.826,8.359
			c1.997,3.458,5.619,5.391,9.345,5.391c1.828,0,3.682-0.465,5.379-1.445c5.155-2.977,6.921-9.568,3.945-14.723l-4.826-8.359
			l8.76-5.057C240.338,295.786,242.104,289.194,239.128,284.038z M147.507,363.938c-13.276,0-24.077-10.801-24.077-24.077
			c0-4.725,1.374-9.133,3.735-12.856c0.322-0.407,0.622-0.838,0.889-1.3c0.005-0.009,0.009-0.019,0.014-0.028
			c4.384-5.991,11.463-9.893,19.439-9.893c7.978,0,15.058,3.903,19.441,9.896c0.005,0.008,0.008,0.016,0.012,0.024
			c0.266,0.461,0.566,0.891,0.886,1.296c2.363,3.724,3.737,8.133,3.737,12.86C171.585,353.137,160.784,363.938,147.507,363.938z"/>
		<path d="M235.217,281.915c-2.976-5.155-9.568-6.923-14.724-3.945l-8.76,5.057l-4.826-8.359c-2.977-5.155-9.568-6.923-14.724-3.945
			c-5.155,2.977-6.921,9.568-3.945,14.723l4.826,8.359l-18.352,10.595c-8.158-7.62-19.099-12.298-31.117-12.298
			s-22.958,4.677-31.117,12.297l-18.352-10.595l4.826-8.359c2.976-5.155,1.21-11.747-3.945-14.723
			c-5.155-2.977-11.747-1.21-14.724,3.945l-4.826,8.359l-8.76-5.057c-5.155-2.975-11.748-1.209-14.724,3.945
			c-2.976,5.155-1.21,11.747,3.945,14.724l8.76,5.058l-4.826,8.358c-2.976,5.155-1.21,11.748,3.945,14.724
			c1.697,0.98,3.551,1.445,5.379,1.445c3.725,0,7.349-1.933,9.345-5.391l4.826-8.359l17.259,9.964
			c-1.708,4.785-2.646,9.934-2.646,15.299c0,21.449,14.879,39.479,34.856,44.337v26.272l-8.611-8.611
			c-4.209-4.21-11.034-4.21-15.243,0c-4.209,4.209-4.209,11.033,0,15.243l27.011,27.011c2.021,2.021,4.763,3.157,7.621,3.157
			c2.858,0,5.6-1.136,7.621-3.157l27.011-27.011c4.21-4.21,4.21-11.033,0-15.243c-4.209-4.209-11.034-4.209-15.243,0l-8.611,8.612
			v-26.273c19.976-4.857,34.856-22.887,34.856-44.337c0-5.365-0.938-10.513-2.646-15.298l17.259-9.965l4.826,8.359
			c1.997,3.458,5.619,5.391,9.344,5.391c1.828,0,3.682-0.465,5.379-1.445c5.155-2.977,6.921-9.568,3.945-14.724l-4.826-8.359
			l8.759-5.057C236.427,293.663,238.193,287.07,235.217,281.915z M143.596,361.815c-13.276,0-24.077-10.801-24.077-24.077
			c0-4.725,1.374-9.134,3.735-12.856c0.322-0.407,0.622-0.838,0.889-1.301c0.005-0.009,0.009-0.019,0.014-0.028
			c4.384-5.991,11.463-9.893,19.439-9.893c7.978,0,15.058,3.903,19.441,9.896c0.005,0.008,0.008,0.016,0.013,0.024
			c0.266,0.461,0.566,0.891,0.886,1.297c2.363,3.724,3.737,8.133,3.737,12.86C167.673,351.014,156.873,361.815,143.596,361.815z"/>
		<g>
			<defs>
				<path id="SVGID_00000161602973705481250310000002860529446862917006_" d="M235.217,281.915
					c-2.976-5.155-9.568-6.923-14.724-3.945l-8.76,5.057l-4.826-8.359c-2.977-5.155-9.568-6.923-14.724-3.945
					c-5.155,2.977-6.921,9.568-3.945,14.723l4.826,8.359l-18.352,10.595c-8.158-7.62-19.099-12.298-31.117-12.298
					s-22.958,4.677-31.117,12.297l-18.352-10.595l4.826-8.359c2.976-5.155,1.21-11.747-3.945-14.723
					c-5.155-2.977-11.747-1.21-14.724,3.945l-4.826,8.359l-8.76-5.057c-5.155-2.975-11.748-1.209-14.724,3.945
					c-2.976,5.155-1.21,11.747,3.945,14.724l8.76,5.058l-4.826,8.358c-2.976,5.155-1.21,11.748,3.945,14.724
					c1.697,0.98,3.551,1.445,5.379,1.445c3.725,0,7.349-1.933,9.345-5.391l4.826-8.359l17.259,9.964
					c-1.708,4.785-2.646,9.934-2.646,15.299c0,21.449,14.879,39.479,34.856,44.337v26.272l-8.611-8.611
					c-4.209-4.21-11.034-4.21-15.243,0c-4.209,4.209-4.209,11.033,0,15.243l27.011,27.011c2.021,2.021,4.763,3.157,7.621,3.157
					c2.858,0,5.6-1.136,7.621-3.157l27.011-27.011c4.21-4.21,4.21-11.033,0-15.243c-4.209-4.209-11.034-4.209-15.243,0l-8.611,8.612
					v-26.273c19.976-4.857,34.856-22.887,34.856-44.337c0-5.365-0.938-10.513-2.646-15.298l17.259-9.965l4.826,8.359
					c1.997,3.458,5.619,5.391,9.344,5.391c1.828,0,3.682-0.465,5.379-1.445c5.155-2.977,6.921-9.568,3.945-14.724l-4.826-8.359
					l8.759-5.057C236.427,293.663,238.193,287.07,235.217,281.915z M143.596,361.815c-13.276,0-24.077-10.801-24.077-24.077
					c0-4.725,1.374-9.134,3.735-12.856c0.322-0.407,0.622-0.838,0.889-1.301c0.005-0.009,0.009-0.019,0.014-0.028
					c4.384-5.991,11.463-9.893,19.439-9.893c7.978,0,15.058,3.903,19.441,9.896c0.005,0.008,0.008,0.016,0.013,0.024
					c0.266,0.461,0.566,0.891,0.886,1.297c2.363,3.724,3.737,8.133,3.737,12.86C167.673,351.014,156.873,361.815,143.596,361.815z"
					/>
			</defs>
			<clipPath id="SVGID_00000058549479731125257920000003783328440420830379_">
				<use xlink:href="#SVGID_00000161602973705481250310000002860529446862917006_"  style="overflow:visible;"/>
			</clipPath>
			<g style="clip-path:url(#SVGID_00000058549479731125257920000003783328440420830379_);">
				<rect x="11.116" y="265.7" style="fill:#F04656;" width="272.784" height="30.9"/>
				<rect x="11.116" y="296.6" style="fill:#F07422;" width="272.784" height="30.9"/>
				<rect x="11.116" y="327.5" style="fill:#F1B62C;" width="272.784" height="30.9"/>
				<rect x="11.116" y="358.401" style="fill:#1EBD3D;" width="272.784" height="30.9"/>
				<rect x="11.116" y="389.301" style="fill:#2A70D9;" width="272.784" height="30.9"/>
				<rect x="11.116" y="420.201" style="fill:#A53AD6;" width="272.784" height="30.9"/>
			</g>
		</g>
		<path style="fill:#A1A1A1;" d="M123.566,373.239c1.9,1.312,4.356-0.915,3.107-2.856c-0.009-0.013-0.018-0.027-0.027-0.04
			c-0.894-1.343-2.411-2.104-3.805-2.917c-10.567-6.164-16.935-18.851-15.564-31.007c0.178-1.576,0.474-3.159,0.307-4.735
			c-0.002-0.016-0.003-0.031-0.005-0.047c-0.204-1.816-2.859-1.876-3.198-0.08c-1.275,6.757-0.756,13.852,1.535,20.338
			c2.731,7.73,7.964,14.555,14.721,19.197C121.765,371.865,122.626,372.59,123.566,373.239z"/>
		<path style="fill:#A1A1A1;" d="M107.354,328.346c0.612-0.143,1.114-0.598,1.452-1.128c0.337-0.53,0.531-1.137,0.722-1.735
			c0.434-1.362,0.873-2.781,0.67-4.195c-0.069-0.482-0.295-1.033-0.773-1.124c-0.374-0.071-0.729,0.178-1.009,0.435
			C106.422,322.43,104.985,326.217,107.354,328.346z"/>
		<path style="fill:#A1A1A1;" d="M144.627,442.563c1.205,0.896,2.742-0.652,1.806-1.827c-0.01-0.013-0.02-0.025-0.03-0.038
			c-1.014-1.26-2.29-2.277-3.515-3.332c-5.935-5.107-10.853-11.265-16.139-17.041c-0.603-0.659-1.232-1.329-2.042-1.705
			c-0.81-0.376-1.852-0.392-2.524,0.196C118.178,422.321,136.415,436.461,144.627,442.563z"/>
		<path style="fill:#A1A1A1;" d="M117.3,417.145c0.265,0.204,0.543,0.406,0.865,0.494c0.322,0.089,0.703,0.041,0.934-0.2
			c0.284-0.297,0.257-0.768,0.186-1.173c-0.304-1.723-1.088-3.343-2.188-4.698c-0.791-0.975-2.634-3.12-4.118-2.443
			C109.604,410.668,116.16,416.271,117.3,417.145z"/>
		<path style="fill:#A1A1A1;" d="M89.096,271.745c0.971-0.326,2.069-0.537,2.995-0.1c0.927,0.437,1.459,1.767,0.777,2.532
			c-0.523,0.587-1.424,0.57-2.21,0.606c-3.438,0.156-6.704,2.361-8.134,5.491c-0.395,0.865-1.802,2.803-2.344,0.887
			c-0.313-1.106,1.203-3.156,1.798-4.01C83.707,274.666,86.218,272.709,89.096,271.745z"/>
		<path style="fill:#A1A1A1;" d="M190.831,282.328c0.554,2.268,1.609,4.378,2.656,6.466c0.309,0.616,0.633,1.251,1.171,1.681
			c0.538,0.43,1.355,0.593,1.914,0.191c0.638-0.459,0.664-1.441,0.31-2.143c-0.354-0.702-0.984-1.215-1.526-1.784
			c-2.498-2.623-3.126-6.852-1.498-10.088c0.259-0.515,0.573-1.015,0.692-1.579c0.12-0.564-0.003-1.229-0.473-1.564
			c-0.531-0.38-1.312-0.187-1.79,0.258C190.139,275.762,190.204,279.76,190.831,282.328z"/>
	</g>
	<g>
		<path style="fill:#66438F;" d="M539.418,253.811c0,0,11.278,1.262,12.966,10.114c1.688,8.853-18.019,8.853-18.019,8.095
			c0-0.758-2.779-4.8-2.526-6.064C532.092,264.693,539.418,253.811,539.418,253.811z"/>
		<path style="fill:#66438F;" d="M556.061,278.461c0,0,7.931,1.295,10.599,6.816c2.668,5.522-7.833,8.822-7.833,8.822l-3.4-2.3
			L556.061,278.461z"/>
		<path style="fill:#66438F;" d="M501.878,317.032c0,0,3.934,7.794,13.078,7.247c9.144-0.546,4.219-7.247,4.219-7.247l-6.294-6.434
			L501.878,317.032z"/>
		<path style="fill:#66438F;" d="M533.121,318.363c0.182,0.18,4.713,6.219,11.756,5.521c7.043-0.698,2.574-6.431,2.574-6.431
			l-4.47-3.571L533.121,318.363z"/>
		<path style="fill:#66438F;" d="M658.045,269.225c0,0,8.521-1.128,12.723,5.713c4.202,6.841-6.362,8.342-6.362,8.342l-6.362-3.931
			V269.225z"/>
		<path style="fill:#66438F;" d="M709.489,264.786c0,0,7.722,0.975,11.345,7.341c3.623,6.367-9.141,8.062-9.141,8.062l-5.883-3.971
			L709.489,264.786z"/>
		<path style="fill:#66438F;" d="M671.358,322.72c0,0,4.684,6.348,11.79,5.542c7.106-0.806,2.02-7.388,2.02-7.388l-4.388-3.789
			L671.358,322.72z"/>
		<path style="fill:#66438F;" d="M633.551,396.639c0,0,9.385-0.084,12.066,8.447c2.681,8.531-12.066,10.406-12.066,10.406
			l-6.637-3.399L633.551,396.639z"/>
		<path style="fill:#66438F;" d="M578.765,396.639c0,0,4.016-1.078,10.576,5.135c6.559,6.213-5.288,7.204-5.288,7.204l-6.987-2.912
			L578.765,396.639z"/>
		<path style="fill:#66438F;" d="M720.834,272.127c-2.977-5.155-9.568-6.922-14.724-3.945l-29.243,16.883l-4.826-8.359
			c-2.977-5.154-9.567-6.922-14.724-3.945c-5.155,2.977-6.921,9.568-3.945,14.723l4.826,8.359l-18.352,10.595
			c-8.158-7.62-19.099-12.298-31.117-12.298c-12.006,0-22.938,4.668-31.094,12.276l-12.308-7.162l1.598-2.767
			c2.976-5.155,1.21-11.747-3.945-14.724c-5.156-2.977-11.747-1.21-14.724,3.945l-1.561,2.704l-13.892-8.084l11.958-3.204
			c5.75-1.541,9.162-7.451,7.621-13.201c-1.541-5.75-7.451-9.16-13.201-7.621l-36.897,9.887c-4.712,1.263-7.849,5.46-7.982,10.099
			c-0.006,0.188,0.002,0.374,0.006,0.561c0.003,0.141-0.001,0.281,0.008,0.422c0.049,0.851,0.204,1.69,0.45,2.503l9.783,36.512
			c1.29,4.815,5.645,7.991,10.404,7.991c0.923,0,1.863-0.119,2.797-0.37c5.75-1.541,9.162-7.451,7.621-13.201l-3.099-11.566
			l13.643,7.939l-0.365,0.633c-2.976,5.155-1.21,11.747,3.945,14.724c1.697,0.98,3.551,1.445,5.379,1.445
			c3.724,0,7.348-1.933,9.344-5.391l0.329-0.569l11.204,6.52c-1.716,4.795-2.658,9.955-2.658,15.332
			c0,21.449,14.88,39.479,34.856,44.337v26.272l-8.611-8.611c-4.209-4.209-11.034-4.209-15.243,0
			c-4.209,4.209-4.209,11.033,0,15.243l27.01,27.011c2.105,2.105,4.863,3.157,7.621,3.157c2.758,0,5.517-1.052,7.621-3.157
			l27.011-27.011c4.21-4.209,4.21-11.033,0-15.243c-4.209-4.21-11.034-4.21-15.243,0l-8.612,8.611v-26.273
			c19.976-4.857,34.856-22.887,34.856-44.337c0-5.365-0.938-10.513-2.646-15.298l17.259-9.965l4.826,8.359
			c1.997,3.458,5.619,5.391,9.344,5.391c1.828,0,3.682-0.465,5.379-1.445c5.155-2.977,6.921-9.568,3.945-14.724l-4.826-8.359
			l29.243-16.883C722.044,283.874,723.81,277.283,720.834,272.127z M608.73,363.853c-13.276,0-24.077-10.801-24.077-24.077
			c0-4.722,1.372-9.127,3.73-12.848c0.317-0.4,0.612-0.823,0.876-1.277c0.01-0.016,0.016-0.033,0.026-0.049
			c4.383-5.997,11.466-9.903,19.446-9.903c7.978,0,15.058,3.903,19.441,9.896c0.005,0.008,0.008,0.016,0.013,0.024
			c0.266,0.461,0.566,0.891,0.886,1.297c2.363,3.724,3.737,8.133,3.737,12.86C632.808,353.052,622.007,363.853,608.73,363.853z"/>
		<path d="M716.923,270.004c-2.977-5.155-9.568-6.922-14.724-3.945l-29.243,16.883l-4.826-8.359
			c-2.977-5.155-9.567-6.922-14.723-3.945c-5.155,2.977-6.921,9.568-3.945,14.723l4.826,8.359l-18.352,10.595
			c-8.159-7.62-19.099-12.298-31.117-12.298c-12.007,0-22.938,4.668-31.094,12.276l-12.308-7.162l1.598-2.767
			c2.976-5.155,1.21-11.747-3.945-14.723c-5.156-2.977-11.747-1.21-14.724,3.945l-1.561,2.704l-13.892-8.084l11.958-3.205
			c5.75-1.541,9.162-7.451,7.621-13.201c-1.541-5.75-7.451-9.16-13.201-7.621l-36.897,9.887c-4.712,1.262-7.849,5.46-7.982,10.099
			c-0.006,0.188,0.002,0.374,0.006,0.561c0.003,0.141-0.001,0.281,0.008,0.422c0.049,0.851,0.205,1.69,0.45,2.503l9.783,36.513
			c1.29,4.815,5.645,7.991,10.404,7.991c0.923,0,1.863-0.119,2.797-0.37c5.75-1.541,9.162-7.451,7.621-13.201l-3.099-11.566
			l13.643,7.939l-0.365,0.633c-2.976,5.155-1.21,11.747,3.945,14.724c1.697,0.98,3.551,1.445,5.379,1.445
			c3.725,0,7.348-1.933,9.344-5.391l0.329-0.569l11.204,6.519c-1.716,4.795-2.657,9.955-2.657,15.332
			c0,21.449,14.879,39.479,34.856,44.337v26.272l-8.611-8.611c-4.209-4.209-11.034-4.209-15.243,0c-4.21,4.21-4.21,11.033,0,15.243
			l27.01,27.011c2.105,2.105,4.863,3.157,7.622,3.157c2.758,0,5.517-1.053,7.621-3.157l27.011-27.011
			c4.209-4.209,4.209-11.033,0-15.243c-4.209-4.21-11.034-4.21-15.243,0l-8.612,8.611v-26.273
			c19.976-4.857,34.856-22.887,34.856-44.337c0-5.365-0.938-10.513-2.646-15.298l17.259-9.965l4.826,8.359
			c1.997,3.458,5.619,5.391,9.344,5.391c1.828,0,3.682-0.465,5.379-1.445c5.155-2.977,6.921-9.568,3.945-14.724l-4.826-8.359
			l29.243-16.883C718.133,281.751,719.899,275.159,716.923,270.004z M604.819,361.73c-13.276,0-24.077-10.801-24.077-24.077
			c0-4.722,1.372-9.127,3.73-12.848c0.317-0.4,0.612-0.823,0.876-1.277c0.009-0.016,0.016-0.033,0.025-0.049
			c4.383-5.997,11.466-9.903,19.446-9.903c7.978,0,15.058,3.903,19.441,9.896c0.004,0.008,0.008,0.016,0.012,0.024
			c0.266,0.461,0.566,0.891,0.886,1.297c2.363,3.724,3.737,8.133,3.737,12.86C628.896,350.929,618.095,361.73,604.819,361.73z"/>
		<g>
			<defs>
				<path id="SVGID_00000134230365175182749750000015411144054182109327_" d="M716.923,270.004
					c-2.977-5.155-9.568-6.922-14.724-3.945l-29.243,16.883l-4.826-8.359c-2.977-5.155-9.567-6.922-14.723-3.945
					c-5.155,2.977-6.921,9.568-3.945,14.723l4.826,8.359l-18.352,10.595c-8.159-7.62-19.099-12.298-31.117-12.298
					c-12.007,0-22.938,4.668-31.094,12.276l-12.308-7.162l1.598-2.767c2.976-5.155,1.21-11.747-3.945-14.723
					c-5.156-2.977-11.747-1.21-14.724,3.945l-1.561,2.704l-13.892-8.084l11.958-3.205c5.75-1.541,9.162-7.451,7.621-13.201
					c-1.541-5.75-7.451-9.16-13.201-7.621l-36.897,9.887c-4.712,1.262-7.849,5.46-7.982,10.099
					c-0.006,0.188,0.002,0.374,0.006,0.561c0.003,0.141-0.001,0.281,0.008,0.422c0.049,0.851,0.205,1.69,0.45,2.503l9.783,36.513
					c1.29,4.815,5.645,7.991,10.404,7.991c0.923,0,1.863-0.119,2.797-0.37c5.75-1.541,9.162-7.451,7.621-13.201l-3.099-11.566
					l13.643,7.939l-0.365,0.633c-2.976,5.155-1.21,11.747,3.945,14.724c1.697,0.98,3.551,1.445,5.379,1.445
					c3.725,0,7.348-1.933,9.344-5.391l0.329-0.569l11.204,6.519c-1.716,4.795-2.657,9.955-2.657,15.332
					c0,21.449,14.879,39.479,34.856,44.337v26.272l-8.611-8.611c-4.209-4.209-11.034-4.209-15.243,0
					c-4.21,4.21-4.21,11.033,0,15.243l27.01,27.011c2.105,2.105,4.863,3.157,7.622,3.157c2.758,0,5.517-1.053,7.621-3.157
					l27.011-27.011c4.209-4.209,4.209-11.033,0-15.243c-4.209-4.21-11.034-4.21-15.243,0l-8.612,8.611v-26.273
					c19.976-4.857,34.856-22.887,34.856-44.337c0-5.365-0.938-10.513-2.646-15.298l17.259-9.965l4.826,8.359
					c1.997,3.458,5.619,5.391,9.344,5.391c1.828,0,3.682-0.465,5.379-1.445c5.155-2.977,6.921-9.568,3.945-14.724l-4.826-8.359
					l29.243-16.883C718.133,281.751,719.899,275.159,716.923,270.004z M604.819,361.73c-13.276,0-24.077-10.801-24.077-24.077
					c0-4.722,1.372-9.127,3.73-12.848c0.317-0.4,0.612-0.823,0.876-1.277c0.009-0.016,0.016-0.033,0.025-0.049
					c4.383-5.997,11.466-9.903,19.446-9.903c7.978,0,15.058,3.903,19.441,9.896c0.004,0.008,0.008,0.016,0.012,0.024
					c0.266,0.461,0.566,0.891,0.886,1.297c2.363,3.724,3.737,8.133,3.737,12.86C628.896,350.929,618.095,361.73,604.819,361.73z"/>
			</defs>
			<clipPath id="SVGID_00000167366836496605856410000018425574569717052295_">
				<use xlink:href="#SVGID_00000134230365175182749750000015411144054182109327_"  style="overflow:visible;"/>
			</clipPath>
			<g style="clip-path:url(#SVGID_00000167366836496605856410000018425574569717052295_);">
				<rect x="488.209" y="245.782" style="fill:#F04656;" width="241.969" height="33.567"/>
				<rect x="488.209" y="279.349" style="fill:#F07422;" width="241.969" height="33.567"/>
				<rect x="488.209" y="312.916" style="fill:#F1B62C;" width="241.969" height="33.567"/>
				<rect x="488.209" y="346.483" style="fill:#1EBD3D;" width="241.969" height="33.567"/>
				<rect x="488.209" y="380.05" style="fill:#2A70D9;" width="241.969" height="33.567"/>
				<rect x="488.209" y="413.617" style="fill:#A53AD6;" width="241.969" height="33.567"/>
			</g>
		</g>
		<path style="fill:#A1A1A1;" d="M585.15,375.191c1.996,1.159,4.272-1.252,2.875-3.089c-0.01-0.013-0.02-0.026-0.03-0.038
			c-0.996-1.269-2.568-1.909-4.02-2.611c-11.016-5.321-18.354-17.472-17.936-29.699c0.054-1.585,0.226-3.186-0.063-4.745
			c-0.003-0.016-0.006-0.031-0.009-0.047c-0.346-1.794-2.997-1.647-3.195,0.169c-0.744,6.836,0.327,13.869,3.117,20.156
			c3.325,7.494,9.075,13.889,16.174,17.99C583.247,373.962,584.162,374.617,585.15,375.191z"/>
		<path style="fill:#A1A1A1;" d="M565.485,331.701c0.599-0.19,1.064-0.683,1.359-1.237c0.295-0.555,0.441-1.175,0.585-1.786
			c0.326-1.391,0.653-2.84,0.341-4.235c-0.106-0.475-0.375-1.007-0.858-1.061c-0.378-0.042-0.713,0.234-0.972,0.513
			C564.094,325.875,562.957,329.762,565.485,331.701z"/>
		<path style="fill:#A1A1A1;" d="M680.022,284.41c-0.778,0.55-0.148,1.781,0.744,1.45c0.01-0.004,0.019-0.007,0.029-0.011
			c0.96-0.362,1.825-0.931,2.703-1.461c4.251-2.569,8.934-4.318,13.46-6.364c0.516-0.233,1.044-0.48,1.431-0.894
			c0.387-0.414,0.602-1.039,0.38-1.56C697.448,272.462,685.322,280.664,680.022,284.41z"/>
		<path style="fill:#A1A1A1;" d="M700.741,272.955c-0.175,0.12-0.352,0.247-0.469,0.424c-0.117,0.177-0.164,0.416-0.064,0.603
			c0.123,0.23,0.412,0.307,0.67,0.344c1.099,0.157,2.23,0.004,3.264-0.391c0.744-0.284,2.401-0.972,2.286-2
			C706.166,269.595,701.494,272.44,700.741,272.955z"/>
		<path style="fill:#A1A1A1;" d="M598.096,434.874c0.906,0.757,2.182-0.389,1.5-1.353c-0.007-0.01-0.015-0.021-0.022-0.031
			c-0.739-1.035-1.696-1.891-2.611-2.774c-4.432-4.276-8.018-9.332-11.91-14.104c-0.444-0.544-0.908-1.099-1.527-1.43
			c-0.619-0.332-1.437-0.391-1.991,0.041C578.233,417.794,591.92,429.714,598.096,434.874z"/>
		<path style="fill:#A1A1A1;" d="M577.776,413.691c0.199,0.172,0.408,0.343,0.657,0.427c0.249,0.084,0.55,0.064,0.742-0.116
			c0.236-0.221,0.236-0.591,0.198-0.913c-0.162-1.366-0.705-2.674-1.508-3.787c-0.578-0.801-1.928-2.568-3.124-2.103
			C572.022,408.259,576.919,412.953,577.776,413.691z"/>
		<path style="fill:#A1A1A1;" d="M496.607,272.257c-1.369,0.616-0.766,2.712,0.715,2.467c0.016-0.003,0.032-0.005,0.048-0.008
			c1.594-0.271,3.104-0.89,4.623-1.447c7.351-2.695,15.125-3.99,22.744-5.792c0.869-0.206,1.761-0.429,2.484-0.953
			c0.723-0.524,1.245-1.426,1.059-2.3C527.17,259.021,505.938,268.058,496.607,272.257z"/>
		<path style="fill:#A1A1A1;" d="M532.118,260.776c-0.307,0.133-0.619,0.277-0.853,0.515c-0.234,0.239-0.378,0.594-0.28,0.913
			c0.121,0.393,0.545,0.598,0.934,0.733c1.652,0.574,3.449,0.678,5.168,0.378c1.237-0.216,4.008-0.78,4.139-2.406
			C541.524,257.211,533.438,260.206,532.118,260.776z"/>
	</g>
	<g>
		<path style="fill:#66438F;" d="M597.416,163.908c0,0,9.993,0.916,10.987,9.575c0.994,8.659-12.068,8.337-12.39,7.692
			c-0.323-0.645-1.29-4.031-1.451-4.999C594.4,175.208,597.416,163.908,597.416,163.908z"/>
		<path style="fill:#66438F;" d="M543.732,179.254c0,0,2.44,7.409,13.412,7.809c10.971,0.4,3.392-10.404,2.909-11.21
			c-0.484-0.806-6.66-4.031-6.66-4.031L543.732,179.254z"/>
		<path style="fill:#66438F;" d="M563.156,197.448c0,0,1.734,10.509,14.419,10.509c9.925,0,0-10.657,0-10.657l-2.848-3.548
			L563.156,197.448z"/>
		<g>
			<path style="fill:#66438F;" d="M623.209,100.548c0-25.163-20.471-45.634-45.634-45.634c-25.163,0-45.634,20.471-45.634,45.634
				c0,21.45,14.879,39.479,34.856,44.337v20.622h-9.652c-5.953,0-10.778,4.825-10.778,10.778c0,5.953,4.826,10.778,10.778,10.778
				h9.652v10.115c0,5.953,4.826,10.778,10.778,10.778c5.953,0,10.778-4.826,10.778-10.778v-10.115h9.652
				c5.953,0,10.778-4.826,10.778-10.778c0-5.953-4.825-10.778-10.778-10.778h-9.652v-20.622
				C608.33,140.028,623.209,121.998,623.209,100.548z M553.497,100.548c0-13.276,10.801-24.077,24.077-24.077
				c13.276,0,24.077,10.801,24.077,24.077c0,13.276-10.801,24.077-24.077,24.077C564.298,124.626,553.497,113.825,553.497,100.548z"
				/>
			<path d="M619.297,98.425c0-25.163-20.471-45.634-45.634-45.634c-25.163,0-45.634,20.471-45.634,45.634
				c0,21.449,14.879,39.479,34.856,44.337v20.622h-9.652c-5.953,0-10.778,4.825-10.778,10.778c0,5.953,4.825,10.778,10.778,10.778
				h9.652v10.115c0,5.953,4.826,10.778,10.778,10.778c5.953,0,10.778-4.826,10.778-10.778V184.94h9.652
				c5.953,0,10.778-4.825,10.778-10.778c0-5.953-4.825-10.778-10.778-10.778h-9.652v-20.622
				C604.418,137.904,619.297,119.874,619.297,98.425z M549.586,98.425c0-13.276,10.801-24.077,24.077-24.077
				c13.276,0,24.077,10.801,24.077,24.077c0,13.276-10.801,24.077-24.077,24.077C560.387,122.502,549.586,111.701,549.586,98.425z"
				/>
			<g>
				<defs>
					<path id="SVGID_00000103263615595155212570000010459300281308201617_" d="M619.297,98.425
						c0-25.163-20.471-45.634-45.634-45.634c-25.163,0-45.634,20.471-45.634,45.634c0,21.449,14.879,39.479,34.856,44.337v20.622
						h-9.652c-5.953,0-10.778,4.825-10.778,10.778c0,5.953,4.825,10.778,10.778,10.778h9.652v10.115
						c0,5.953,4.826,10.778,10.778,10.778c5.953,0,10.778-4.826,10.778-10.778V184.94h9.652c5.953,0,10.778-4.825,10.778-10.778
						c0-5.953-4.825-10.778-10.778-10.778h-9.652v-20.622C604.418,137.904,619.297,119.874,619.297,98.425z M549.586,98.425
						c0-13.276,10.801-24.077,24.077-24.077c13.276,0,24.077,10.801,24.077,24.077c0,13.276-10.801,24.077-24.077,24.077
						C560.387,122.502,549.586,111.701,549.586,98.425z"/>
				</defs>
				<clipPath id="SVGID_00000173141302425740981010000002360657944160086965_">
					<use xlink:href="#SVGID_00000103263615595155212570000010459300281308201617_"  style="overflow:visible;"/>
				</clipPath>
				<g style="clip-path:url(#SVGID_00000173141302425740981010000002360657944160086965_);">
					<rect x="469.509" y="49.944" style="fill:#F04656;" width="272.784" height="26.988"/>
					<rect x="469.509" y="76.933" style="fill:#F07422;" width="272.784" height="26.988"/>
					<rect x="469.509" y="103.921" style="fill:#F1B62C;" width="272.784" height="26.988"/>
					<rect x="469.509" y="130.909" style="fill:#1EBD3D;" width="272.784" height="26.988"/>
					<rect x="469.509" y="157.897" style="fill:#2A70D9;" width="272.784" height="26.988"/>
					<rect x="469.509" y="184.885" style="fill:#A53AD6;" width="272.784" height="26.988"/>
				</g>
			</g>
		</g>
		<path style="fill:#D1D1D1;" d="M579.176,121.858c-1.772,0.417-3.616,0.644-5.513,0.644c-3.35,0-6.542-0.69-9.443-1.931
			c-0.001-0.001-0.002-0.001-0.003-0.002c1.848,7.565,3.933,15.151,7.983,21.776c3.72,6.086,9.427,11.31,16.153,13.341v-10.801
			c1.172-0.285,2.324-0.619,3.459-0.993C590.041,135.383,585.798,127.51,579.176,121.858z"/>
		<g>
			<path style="fill:#66438F;" d="M628.342,187.32c0,0,3.371,6.899,12.605,6.519c9.234-0.38,0-13.163,0-13.163l-3.486-2.806
				L628.342,187.32z"/>
			<path style="fill:#66438F;" d="M658.848,193.854c0,0,4.56,5.486,10.935,4.72c6.374-0.766,2.829-9.775,2.386-10.218
				c-0.443-0.443-6.794-2.494-6.794-2.494L658.848,193.854z"/>
			<path style="fill:#66438F;" d="M671.258,146.047c0,0,7.49,0.681,11.29,6.43c3.8,5.749-7.129,8.555-7.129,8.555
				s-7.237,0.295-7.385,0C667.886,160.737,671.258,146.047,671.258,146.047z"/>
			<path style="fill:#66438F;" d="M682.547,152.477c-3.525-4.796-10.271-5.827-15.068-2.302l-7.777,5.716l-12.213-16.616
				c13.219-15.744,14.531-39.084,1.828-56.368c-7.219-9.822-17.831-16.245-29.88-18.085c-12.05-1.841-24.095,1.121-33.916,8.341
				c-20.275,14.902-24.647,43.521-9.745,63.797c8.933,12.153,22.79,18.591,36.829,18.591c5.927,0,11.886-1.152,17.519-3.503
				l12.208,16.61l-7.777,5.716c-4.797,3.525-5.827,10.271-2.302,15.068c2.112,2.874,5.381,4.396,8.693,4.396
				c2.216,0,4.452-0.681,6.375-2.094l7.777-5.716l5.99,8.15c2.112,2.874,5.381,4.396,8.693,4.396c2.216,0,4.452-0.681,6.375-2.094
				c4.797-3.525,5.827-10.272,2.302-15.068l-5.99-8.15l7.777-5.716C685.042,164.02,686.072,157.274,682.547,152.477z
				 M593.146,124.193c-7.861-10.698-5.555-25.798,5.141-33.66c5.183-3.81,11.539-5.371,17.895-4.401
				c6.357,0.971,11.956,4.36,15.765,9.542c7.862,10.698,5.556,25.798-5.141,33.66C616.11,137.197,601.009,134.892,593.146,124.193z"
				/>
			<path d="M678.636,150.354c-3.525-4.796-10.271-5.827-15.068-2.302l-7.777,5.716l-12.213-16.616
				c13.219-15.744,14.531-39.084,1.828-56.368c-7.219-9.822-17.831-16.245-29.88-18.085c-12.05-1.841-24.095,1.121-33.916,8.341
				c-20.275,14.902-24.646,43.521-9.745,63.796c8.933,12.153,22.79,18.591,36.829,18.591c5.927,0,11.885-1.152,17.519-3.503
				l12.208,16.61l-7.777,5.716c-4.797,3.525-5.827,10.271-2.302,15.068c2.112,2.874,5.38,4.396,8.693,4.396
				c2.216,0,4.452-0.681,6.375-2.094l7.777-5.716l5.99,8.15c2.112,2.874,5.381,4.396,8.693,4.396c2.216,0,4.452-0.681,6.375-2.094
				c4.797-3.525,5.827-10.272,2.302-15.068l-5.99-8.15l7.777-5.716C681.131,161.897,682.161,155.15,678.636,150.354z
				 M589.234,122.07c-7.861-10.698-5.555-25.798,5.141-33.66c5.183-3.81,11.539-5.371,17.895-4.401
				c6.358,0.971,11.956,4.36,15.765,9.542c7.862,10.698,5.556,25.798-5.141,33.66C612.198,135.074,597.098,132.769,589.234,122.07z"
				/>
			<g>
				<defs>
					<path id="SVGID_00000139273621943013445040000005761214265131177884_" d="M678.636,150.354
						c-3.525-4.796-10.271-5.827-15.068-2.302l-7.777,5.716l-12.213-16.616c13.219-15.744,14.531-39.084,1.828-56.368
						c-7.219-9.822-17.831-16.245-29.88-18.085c-12.05-1.841-24.095,1.121-33.916,8.341c-20.275,14.902-24.646,43.521-9.745,63.796
						c8.933,12.153,22.79,18.591,36.829,18.591c5.927,0,11.885-1.152,17.519-3.503l12.208,16.61l-7.777,5.716
						c-4.797,3.525-5.827,10.271-2.302,15.068c2.112,2.874,5.38,4.396,8.693,4.396c2.216,0,4.452-0.681,6.375-2.094l7.777-5.716
						l5.99,8.15c2.112,2.874,5.381,4.396,8.693,4.396c2.216,0,4.452-0.681,6.375-2.094c4.797-3.525,5.827-10.272,2.302-15.068
						l-5.99-8.15l7.777-5.716C681.131,161.897,682.161,155.15,678.636,150.354z M589.234,122.07
						c-7.861-10.698-5.555-25.798,5.141-33.66c5.183-3.81,11.539-5.371,17.895-4.401c6.358,0.971,11.956,4.36,15.765,9.542
						c7.862,10.698,5.556,25.798-5.141,33.66C612.198,135.074,597.098,132.769,589.234,122.07z"/>
				</defs>
				<clipPath id="SVGID_00000034050303942736947180000017919038887192358018_">
					<use xlink:href="#SVGID_00000139273621943013445040000005761214265131177884_"  style="overflow:visible;"/>
				</clipPath>
				<g style="clip-path:url(#SVGID_00000034050303942736947180000017919038887192358018_);">
					
						<rect x="422.379" y="90.696" transform="matrix(0.4419 -0.8971 0.8971 0.4419 218.4036 559.4161)" style="fill:#F04656;" width="272.784" height="26.988"/>
					
						<rect x="446.59" y="102.621" transform="matrix(0.4419 -0.8971 0.8971 0.4419 221.2186 587.7907)" style="fill:#F07422;" width="272.784" height="26.988"/>
					
						<rect x="470.8" y="114.546" transform="matrix(0.4419 -0.8971 0.8971 0.4419 224.0335 616.1652)" style="fill:#F1B62C;" width="272.784" height="26.988"/>
					
						<rect x="495.011" y="126.471" transform="matrix(0.4419 -0.8971 0.8971 0.4419 226.8487 644.54)" style="fill:#1EBD3D;" width="272.784" height="26.988"/>
					
						<rect x="519.221" y="138.396" transform="matrix(0.4419 -0.8971 0.8971 0.4419 229.6638 672.9147)" style="fill:#2A70D9;" width="272.784" height="26.988"/>
					
						<rect x="543.432" y="150.321" transform="matrix(0.4419 -0.8971 0.8971 0.4419 232.4786 701.2892)" style="fill:#A53AD6;" width="272.784" height="26.988"/>
				</g>
			</g>
		</g>
		<path style="fill:#D1D1D1;" d="M571.423,81.412c9.067,0.773,17.841,4.881,24.17,11.426c0.829-0.821,1.726-1.594,2.694-2.305
			c0.452-0.333,0.917-0.642,1.386-0.94c0.286-1.469,0.201-3.061-0.183-4.652c-0.851-3.527-3.139-6.53-5.62-9.178
			c-2.617-2.793-5.64-5.365-9.146-6.811c-1.058,0.654-2.101,1.342-3.115,2.087C577.57,74.009,574.173,77.529,571.423,81.412z"/>
		<g>
			<defs>
				<path id="SVGID_00000026127891172221820840000004109619613217773470_" d="M595.259,87.793c5.013-3.357,11.011-4.7,17.012-3.784
					c1.773,0.271,3.484,0.736,5.116,1.369c-2.715-9.083-8.188-16.98-15.443-22.728c-7.281,1.069-14.237,3.907-20.335,8.39
					c-1.521,1.118-2.942,2.322-4.283,3.586C585.21,75.834,591.843,80.883,595.259,87.793z"/>
			</defs>
			<clipPath id="SVGID_00000155126718207529049030000011296982945990618508_">
				<use xlink:href="#SVGID_00000026127891172221820840000004109619613217773470_"  style="overflow:visible;"/>
			</clipPath>
			<g style="clip-path:url(#SVGID_00000155126718207529049030000011296982945990618508_);">
				<path style="fill:#66438F;" d="M623.209,100.548c0-25.163-20.471-45.634-45.634-45.634c-25.163,0-45.634,20.471-45.634,45.634
					c0,21.45,14.879,39.479,34.856,44.337v20.622h-9.652c-5.953,0-10.778,4.825-10.778,10.778c0,5.953,4.826,10.778,10.778,10.778
					h9.652v10.115c0,5.953,4.826,10.778,10.778,10.778c5.953,0,10.778-4.826,10.778-10.778v-10.115h9.652
					c5.953,0,10.778-4.826,10.778-10.778c0-5.953-4.825-10.778-10.778-10.778h-9.652v-20.622
					C608.33,140.028,623.209,121.998,623.209,100.548z M553.497,100.548c0-13.276,10.801-24.077,24.077-24.077
					c13.276,0,24.077,10.801,24.077,24.077c0,13.276-10.801,24.077-24.077,24.077C564.298,124.626,553.497,113.825,553.497,100.548z
					"/>
				<path d="M619.297,98.425c0-25.163-20.471-45.634-45.634-45.634c-25.163,0-45.634,20.471-45.634,45.634
					c0,21.449,14.879,39.479,34.856,44.337v20.622h-9.652c-5.953,0-10.778,4.825-10.778,10.778c0,5.953,4.825,10.778,10.778,10.778
					h9.652v10.115c0,5.953,4.826,10.778,10.778,10.778c5.953,0,10.778-4.826,10.778-10.778V184.94h9.652
					c5.953,0,10.778-4.825,10.778-10.778c0-5.953-4.825-10.778-10.778-10.778h-9.652v-20.622
					C604.418,137.904,619.297,119.874,619.297,98.425z M549.586,98.425c0-13.276,10.801-24.077,24.077-24.077
					c13.276,0,24.077,10.801,24.077,24.077c0,13.276-10.801,24.077-24.077,24.077C560.387,122.502,549.586,111.701,549.586,98.425z"
					/>
				<g>
					<defs>
						<path id="SVGID_00000010307538973650186770000008835295276779239600_" d="M619.297,98.425
							c0-25.163-20.471-45.634-45.634-45.634c-25.163,0-45.634,20.471-45.634,45.634c0,21.449,14.879,39.479,34.856,44.337v20.622
							h-9.652c-5.953,0-10.778,4.825-10.778,10.778c0,5.953,4.825,10.778,10.778,10.778h9.652v10.115
							c0,5.953,4.826,10.778,10.778,10.778c5.953,0,10.778-4.826,10.778-10.778V184.94h9.652c5.953,0,10.778-4.825,10.778-10.778
							c0-5.953-4.825-10.778-10.778-10.778h-9.652v-20.622C604.418,137.904,619.297,119.874,619.297,98.425z M549.586,98.425
							c0-13.276,10.801-24.077,24.077-24.077c13.276,0,24.077,10.801,24.077,24.077c0,13.276-10.801,24.077-24.077,24.077
							C560.387,122.502,549.586,111.701,549.586,98.425z"/>
					</defs>
					<clipPath id="SVGID_00000012462882690767305710000017024951657438398114_">
						<use xlink:href="#SVGID_00000010307538973650186770000008835295276779239600_"  style="overflow:visible;"/>
					</clipPath>
					<g style="clip-path:url(#SVGID_00000012462882690767305710000017024951657438398114_);">
						<rect x="469.509" y="49.944" style="fill:#F04656;" width="272.784" height="26.988"/>
						<rect x="469.509" y="76.933" style="fill:#F07422;" width="272.784" height="26.988"/>
						<rect x="469.509" y="103.921" style="fill:#F1B62C;" width="272.784" height="26.988"/>
						<rect x="469.509" y="130.909" style="fill:#1EBD3D;" width="272.784" height="26.988"/>
						<rect x="469.509" y="157.897" style="fill:#2A70D9;" width="272.784" height="26.988"/>
						<rect x="469.509" y="184.885" style="fill:#A53AD6;" width="272.784" height="26.988"/>
					</g>
				</g>
			</g>
		</g>
		<path style="fill:#A1A1A1;" d="M530.764,97.702c-0.11,2.306,3.078,3.216,4.066,1.13c0.007-0.015,0.014-0.029,0.02-0.044
			c0.668-1.469,0.513-3.158,0.467-4.771c-0.346-12.229,7.063-24.336,18.11-29.593c1.432-0.681,2.932-1.266,4.183-2.24
			c0.012-0.01,0.025-0.02,0.037-0.029c1.434-1.133,0.083-3.419-1.621-2.758c-6.411,2.486-12.162,6.674-16.459,12.045
			c-5.122,6.401-8.153,14.449-8.526,22.639C530.98,95.447,530.819,96.562,530.764,97.702z"/>
		<path style="fill:#A1A1A1;" d="M560.322,60.226c0.445,0.444,1.096,0.631,1.724,0.637c0.628,0.006,1.246-0.149,1.855-0.303
			c1.385-0.351,2.822-0.728,3.916-1.646c0.373-0.313,0.721-0.796,0.546-1.25c-0.137-0.355-0.536-0.525-0.903-0.627
			C564.854,56.31,560.879,57.09,560.322,60.226z"/>
		<path style="fill:#A1A1A1;" d="M581.946,140.755c1.747,1.509,4.43-0.438,3.398-2.503c-0.007-0.014-0.015-0.029-0.022-0.043
			c-0.743-1.432-2.169-2.352-3.466-3.312c-9.838-7.272-14.795-20.573-12.117-32.51c0.347-1.547,0.813-3.089,0.818-4.674
			c0-0.016,0-0.032,0-0.048c-0.007-1.827-2.64-2.174-3.171-0.426c-1.999,6.579-2.25,13.689-0.675,20.384
			c1.878,7.98,6.342,15.331,12.557,20.677C580.304,139.194,581.082,140.008,581.946,140.755z"/>
		<path style="fill:#A1A1A1;" d="M570.688,94.372c0.624-0.076,1.172-0.473,1.565-0.964c0.393-0.491,0.651-1.073,0.906-1.647
			c0.578-1.307,1.168-2.67,1.121-4.098c-0.016-0.486-0.182-1.059-0.647-1.201c-0.364-0.111-0.744,0.098-1.05,0.324
			C570.401,88.39,568.563,91.999,570.688,94.372z"/>
	</g>
</g>
<g id="TEXTS">
	
		<text transform="matrix(1 0 0 1 129.224 239.9998)" style="fill:#511C69; font-family:'Montserrat-SemiBold'; font-size:15.4035px;">GAY</text>
	
		<text transform="matrix(1 0 0 1 572.2248 239.9998)" style="fill:#511C69; font-family:'Montserrat-SemiBold'; font-size:15.4035px;">LESBIAN</text>
	
		<text transform="matrix(1 0 0 1 335.7062 239.9998)" style="fill:#511C69; font-family:'Montserrat-SemiBold'; font-size:15.4035px;">BISEXUAL</text>
	
		<text transform="matrix(1 0 0 1 106.2578 479.3361)" style="fill:#511C69; font-family:'Montserrat-SemiBold'; font-size:15.4035px;">BISEXUAL</text>
	
		<text transform="matrix(1 0 0 1 313.4099 479.3363)" style="fill:#511C69; font-family:'Montserrat-SemiBold'; font-size:15.4035px;">GENDERQUEER</text>
	
		<text transform="matrix(1 0 0 1 545.7155 479.3363)" style="fill:#511C69; font-family:'Montserrat-SemiBold'; font-size:15.4035px;">TRANSGENDER</text>
</g>
</svg>
