<?xml version="1.0" encoding="utf-8"?>
<!-- Generator: Adobe Illustrator 27.5.0, SVG Export Plug-In . SVG Version: 6.00 Build 0)  -->
<svg version="1.1" xmlns="http://www.w3.org/2000/svg" xmlns:xlink="http://www.w3.org/1999/xlink" x="0px" y="0px"
	 viewBox="0 0 750 500" style="enable-background:new 0 0 750 500;" xml:space="preserve">
<g id="BACKGROUND">
	<rect style="fill:#FCEEE5;" width="750" height="500"/>
	<g style="opacity:0.63;">
		<path style="opacity:0.41;fill:#FFB1A8;" d="M360.489,379.395c3.755-2.023,8.48-0.702,10.554,2.951s2.153,10.792-1.602,12.815
			c-3.754,2.023-7.206-3.591-10.836-5.812C353.543,386.251,356.735,381.418,360.489,379.395z"/>
		<path style="opacity:0.41;fill:#FFB1A8;" d="M198.887,79.411c2.509-3.721,7.557-4.8,11.276-2.411
			c3.719,2.389,7.283,9.002,4.774,12.723c-2.509,3.721-8.47,0.178-12.939-0.116C195.768,89.196,196.378,83.132,198.887,79.411z"/>
		<path style="opacity:0.41;fill:#FFB1A8;" d="M665.263,80.518c4.099-1.826,8.953-0.066,10.841,3.931
			c1.888,3.997,1.406,11.494-2.694,13.32c-4.1,1.826-7.278-4.338-10.911-6.955C657.432,87.162,661.163,82.343,665.263,80.518z"/>
		<path style="opacity:0.19;fill:#FFB1A8;" d="M432.251,146.542c1.221-1.811,3.678-2.336,5.487-1.173
			c1.81,1.163,3.544,4.38,2.323,6.191c-1.221,1.811-4.122,0.087-6.296-0.057C430.733,151.304,431.03,148.353,432.251,146.542z"/>
		<path style="opacity:0.19;fill:#FFB1A8;" d="M371.209,33.4c1.221-1.811,3.677-2.336,5.487-1.173
			c1.81,1.162,3.544,4.38,2.323,6.191c-1.221,1.811-4.122,0.087-6.296-0.056C369.691,38.161,369.988,35.21,371.209,33.4z"/>
		<path style="opacity:0.19;fill:#FFB1A8;" d="M515.33,56.243c1.221-1.811,3.678-2.336,5.487-1.173
			c1.81,1.163,3.544,4.38,2.323,6.191c-1.221,1.811-4.122,0.087-6.296-0.056C513.812,61.004,514.109,58.053,515.33,56.243z"/>
		<path style="opacity:0.19;fill:#FFB1A8;" d="M194.411,137.666c1.221-1.811,3.678-2.336,5.487-1.173
			c1.81,1.162,3.544,4.38,2.323,6.191c-1.221,1.811-4.122,0.087-6.296-0.057C192.893,142.428,193.19,139.477,194.411,137.666z"/>
		<path style="fill:#FFB1A8;" d="M150.987,29.479c0,0.883-0.716,1.598-1.598,1.598c-0.883,0-1.598-0.716-1.598-1.598
			c0-0.883,0.716-1.598,1.598-1.598C150.271,27.881,150.987,28.597,150.987,29.479z"/>
		<path style="fill:#FFB1A8;" d="M551.53,138.029c0,0.883-0.716,1.598-1.598,1.598c-0.883,0-1.598-0.716-1.598-1.598
			c0-0.883,0.716-1.598,1.598-1.598C550.815,136.431,551.53,137.146,551.53,138.029z"/>
		<path style="fill:#FFB1A8;" d="M610.225,57.251c0,0.883-0.716,1.598-1.598,1.598c-0.883,0-1.598-0.716-1.598-1.598
			c0-0.883,0.716-1.598,1.598-1.598C609.51,55.653,610.225,56.368,610.225,57.251z"/>
		<path style="fill:#FFB1A8;" d="M716.152,305.297c0,0.883-0.716,1.598-1.598,1.598c-0.883,0-1.598-0.716-1.598-1.598
			c0-0.883,0.716-1.598,1.598-1.598C715.436,303.699,716.152,304.415,716.152,305.297z"/>
		<path style="fill:#FFB1A8;" d="M461.802,342.184c0,0.883-0.716,1.598-1.598,1.598c-0.883,0-1.598-0.716-1.598-1.598
			c0-0.883,0.716-1.598,1.598-1.598C461.086,340.585,461.802,341.301,461.802,342.184z"/>
		<path style="fill:#FFB1A8;" d="M66.73,70.124c0,0.883-0.716,1.598-1.598,1.598c-0.883,0-1.598-0.716-1.598-1.598
			c0-0.883,0.716-1.598,1.598-1.598C66.014,68.525,66.73,69.241,66.73,70.124z"/>
		<path style="fill:#FFB1A8;" d="M36.146,296.359c0,0.883-0.716,1.598-1.598,1.598c-0.883,0-1.598-0.716-1.598-1.598
			c0-0.883,0.716-1.598,1.598-1.598C35.43,294.761,36.146,295.477,36.146,296.359z"/>
		<path style="fill:#FFB1A8;" d="M673.711,221.913c0,0.883-0.716,1.598-1.598,1.598s-1.598-0.716-1.598-1.598
			c0-0.883,0.716-1.598,1.598-1.598S673.711,221.03,673.711,221.913z"/>
		<path style="fill:#FFB1A8;" d="M42.882,209.908c0,0.883-0.716,1.598-1.598,1.598c-0.883,0-1.598-0.716-1.598-1.598
			c0-0.883,0.716-1.598,1.598-1.598C42.167,208.31,42.882,209.025,42.882,209.908z"/>
		<path style="fill:#FFB1A8;" d="M314.606,363.122c0,0.883-0.716,1.598-1.598,1.598c-0.883,0-1.598-0.716-1.598-1.598
			c0-0.883,0.716-1.598,1.598-1.598C313.89,361.523,314.606,362.239,314.606,363.122z"/>
	</g>
	<g style="opacity:0.54;">
		<g>
			<g style="opacity:0.53;">
				<path style="opacity:0.47;fill:#FFB1A8;" d="M703.145,218.413c-3.184-31.06-18.498-62.173-45.022-84.407
					C616.793,99.36,554.273,90.628,499.48,98.637c-22.951,3.355-45.711,9.297-69.21,7.427
					c-34.275-2.728-64.465-21.428-95.671-35.136c-42.478-18.66-91.171-28.703-136.33-20.583
					c-51.202,9.206-93.183,43.981-98.193,90.121c-2.27,20.907,20.794,57.739,13.515,77.552
					c-7.383,20.096-61.285,81.65-59.957,128.47c1.324,46.645,13.738,61.153,31.282,84.859H98.94h528.439h30.413
					c10.924-24.021,19.482-43.232,6.692-74.776c-10.219-25.203,17.544-45.959,28.286-69.42
					C702.33,266.273,705.477,241.163,703.145,218.413z"/>
			</g>
			<path style="opacity:0.41;fill:#FFB1A8;" d="M69.428,226.14c-3.422-6.579-0.763-14.636,5.94-17.995
				c6.703-3.359,19.568-3.083,22.99,3.497c3.422,6.579-6.895,12.197-11.11,18.316C81.368,238.492,72.85,232.719,69.428,226.14z"/>
			<path style="opacity:0.41;fill:#FFB1A8;" d="M698.417,327.749c5.431,3.975,6.55,11.519,2.5,16.85
				c-4.05,5.331-14.549,10.133-19.98,6.158c-5.431-3.975,0.622-12.541,1.544-19.129C683.768,322.44,692.986,323.773,698.417,327.749
				z"/>
			<path style="opacity:0.41;fill:#FFB1A8;" d="M421.385,63.187c5.279-7.894,15.901-10.184,23.725-5.116
				c7.824,5.069,15.324,19.098,10.045,26.992c-5.279,7.894-17.821,0.378-27.222-0.246C414.822,83.946,416.107,71.081,421.385,63.187
				z"/>
		</g>
		<g style="opacity:0.43;">
			<path style="fill:#FFB1A8;" d="M639.947,403.866c5.582-27.243-3.366-50.48-5.598-77.193c-2.113-25.29,7.038-46.559,12.115-70.646
				c4.518-21.437,3.012-45.717-2.659-66.786c-7.743-28.764-25.577-55.4-51.27-71.637c-40.035-25.301-93.427-22.322-137.651-4.918
				c-18.523,7.29-36.464,16.989-56.301,19.443c-28.933,3.578-57.093-8.663-85.277-16.007c-38.365-9.996-80.482-10.738-116.681,5.04
				c-41.043,17.889-70.226,58.273-66.816,102.751c1.545,20.154,9.448,40.043,6.651,60.064
				c-2.838,20.306-15.127,37.293-21.633,56.418c-8.88,26.103-9.688,64.466,4.588,90.952h510.921
				C634.744,422.687,637.991,413.412,639.947,403.866z"/>
		</g>
		<g>
			<g>
				<g style="opacity:0.47;">
					<path style="fill:#F7A59F;" d="M544.942,318.516c-1.631-16.458-9.477-32.944-23.066-44.726
						c-21.174-18.358-53.204-22.985-81.276-18.741c-11.758,1.778-23.418,4.926-35.458,3.935
						c-17.559-1.445-33.027-11.355-49.014-18.618c-21.763-9.888-46.709-15.209-69.845-10.907
						c-26.232,4.878-47.74,23.305-50.306,47.754c-1.163,11.078,10.653,30.595,6.924,41.094
						c-3.783,10.649-31.398,43.265-30.717,68.074c0.678,24.717,7.039,32.404,16.026,44.965h7.184h270.73h15.581
						c5.597-12.728,9.981-22.908,3.428-39.623c-5.235-13.355,8.989-24.353,14.492-36.785
						C544.524,343.876,546.137,330.571,544.942,318.516z"/>
				</g>
			</g>
		</g>
	</g>
</g>
<g id="OBJECTS">
	<g>
		<g>
			<g>
				<g>
					<g>
						<g>
							<g>
								<path style="fill:#FF8383;" d="M512.145,316.151c37.174,37.174,97.444,37.173,134.617,0
									c37.174-37.174,37.174-97.444,0-134.617c-37.174-37.174-97.444-37.173-134.617,0
									C474.972,218.707,474.972,278.977,512.145,316.151z M629.779,198.517c27.794,27.794,27.794,72.856,0,100.65
									c-27.794,27.794-72.856,27.794-100.65,0s-27.794-72.856,0-100.65C556.923,170.723,601.985,170.723,629.779,198.517z"/>
							</g>
						</g>
					</g>
				</g>
				<path style="fill:#FF8383;" d="M638.637,200.66c-2.815,0-5.63-1.074-7.778-3.222c-4.296-4.296-4.296-11.261,0-15.557
					l45.218-45.218c4.297-4.295,11.26-4.296,15.557,0c4.296,4.296,4.296,11.261,0,15.557l-45.218,45.218
					C644.267,199.586,641.452,200.66,638.637,200.66z"/>
				<path style="fill:#FF8383;" d="M687.624,180.976c-2.815,0-5.63-1.074-7.778-3.222l-29.304-29.303
					c-4.296-4.296-4.296-11.261,0-15.557c4.295-4.295,11.26-4.296,15.557,0l29.304,29.303c4.296,4.296,4.296,11.261,0,15.557
					C693.254,179.901,690.44,180.976,687.624,180.976z"/>
			</g>
			<g>
				<g>
					<g>
						<g>
							<g>
								<g>
									<path style="fill:#3151AD;" d="M96.087,253.49c0,52.571,42.618,95.189,95.189,95.189s95.189-42.617,95.189-95.189
										s-42.618-95.189-95.189-95.189S96.087,200.919,96.087,253.49z M262.446,253.49c0,39.306-31.864,71.17-71.17,71.17
										s-71.17-31.864-71.17-71.17s31.864-71.17,71.17-71.17S262.446,214.184,262.446,253.49z"/>
								</g>
							</g>
						</g>
					</g>
				</g>
				
					<rect x="92.149" y="127.783" transform="matrix(0.6675 -0.7446 0.7446 0.6675 -91.6643 131.7046)" style="fill:#3151AD;" width="19" height="81.427"/>
				<path style="fill:#3151AD;" d="M68.791,168.733c-0.091,0-0.182-0.002-0.273-0.005c-3.587-0.148-6.374-3.176-6.226-6.763
					l0.882-21.322c0.143-3.395,2.686-6.2,6.048-6.672l22.424-3.164c3.558-0.504,6.843,1.974,7.345,5.528
					c0.501,3.555-1.974,6.843-5.528,7.344l-17.505,2.47l-0.677,16.353C75.136,165.997,72.257,168.733,68.791,168.733z
					 M71.042,146.843l-0.009,0.001C71.036,146.844,71.039,146.843,71.042,146.843z"/>
			</g>
			<g>
				<g>
					<path style="fill:#4D67C2;" d="M337.646,154.988h62.747v14.466h-62.747V154.988z M337.646,179.137h62.747v14.465h-62.747
						V179.137z"/>
				</g>
			</g>
		</g>
		<g style="opacity:0.74;">
			<path style="fill:#FF8383;" d="M153.582,113.388c0,2.606-2.112,4.718-4.718,4.718c-2.606,0-4.718-2.112-4.718-4.718
				c0-2.606,2.113-4.718,4.718-4.718C151.47,108.67,153.582,110.782,153.582,113.388z"/>
			<path style="fill:#FF8383;" d="M386.534,216.408c0,1.303-1.056,2.359-2.359,2.359c-1.303,0-2.359-1.056-2.359-2.359
				c0-1.303,1.056-2.359,2.359-2.359C385.478,214.048,386.534,215.105,386.534,216.408z"/>
			<path style="fill:#FF8383;" d="M363.99,84.029c0,2.606-2.112,4.718-4.719,4.718c-2.606,0-4.718-2.112-4.718-4.718
				c0-2.606,2.112-4.718,4.718-4.718C361.878,79.311,363.99,81.423,363.99,84.029z"/>
			<circle style="fill:#FF8383;" cx="143.097" cy="236.243" r="2.447"/>
			<path style="fill:#FF8383;" d="M579.466,85.252c0,2.606-2.112,4.718-4.718,4.718c-2.606,0-4.719-2.113-4.719-4.718
				c0-2.606,2.112-4.718,4.719-4.718C577.354,80.534,579.466,82.646,579.466,85.252z"/>
			<path style="fill:#FF8383;" d="M637.485,250.223c0,2.606-2.112,4.718-4.718,4.718c-2.606,0-4.719-2.113-4.719-4.718
				s2.113-4.718,4.719-4.718C635.373,245.505,637.485,247.617,637.485,250.223z"/>
			<circle style="fill:#FF8383;" cx="185.65" cy="73.981" r="2.01"/>
			<path style="fill:#FF8383;" d="M90.845,302.651c0,1.11-0.9,2.01-2.01,2.01c-1.11,0-2.01-0.9-2.01-2.01c0-1.11,0.9-2.01,2.01-2.01
				C89.945,300.641,90.845,301.541,90.845,302.651z"/>
			<circle style="fill:#FF8383;" cx="431.447" cy="108.408" r="2.01"/>
			<path style="fill:#FF8383;" d="M624.379,136.282c0,1.11-0.9,2.01-2.01,2.01c-1.11,0-2.01-0.9-2.01-2.01
				c0-1.11,0.9-2.01,2.01-2.01C623.479,134.272,624.379,135.172,624.379,136.282z"/>
			<path style="fill:#FF8383;" d="M81.146,97.835c0,1.11-0.9,2.01-2.01,2.01c-1.11,0-2.01-0.9-2.01-2.01c0-1.11,0.9-2.01,2.01-2.01
				C80.246,95.825,81.146,96.725,81.146,97.835z"/>
			<circle style="fill:#FF8383;" cx="711.67" cy="107.621" r="2.01"/>
			<path style="fill:#3151AD;" d="M196.048,127.194c0,0.997-0.808,1.806-1.806,1.806c-0.997,0-1.806-0.809-1.806-1.806
				c0-0.997,0.809-1.806,1.806-1.806C195.24,125.388,196.048,126.197,196.048,127.194z"/>
			<path style="fill:#3151AD;" d="M200.184,204.786c0,0.997-0.808,1.806-1.806,1.806c-0.997,0-1.806-0.808-1.806-1.806
				c0-0.997,0.809-1.806,1.806-1.806C199.376,202.981,200.184,203.789,200.184,204.786z"/>
			<path style="fill:#3151AD;" d="M352.864,128.592c0,0.997-0.809,1.806-1.806,1.806c-0.997,0-1.806-0.809-1.806-1.806
				c0-0.997,0.809-1.806,1.806-1.806C352.056,126.786,352.864,127.595,352.864,128.592z"/>
			<path style="fill:#3151AD;" d="M344.476,211.485c0,0.997-0.809,1.806-1.806,1.806c-0.997,0-1.806-0.809-1.806-1.806
				c0-0.997,0.809-1.806,1.806-1.806C343.667,209.68,344.476,210.488,344.476,211.485z"/>
			<circle style="fill:#3151AD;" cx="124.864" cy="67.777" r="1.806"/>
			<path style="fill:#3151AD;" d="M714.961,162.553c0,0.997-0.808,1.806-1.806,1.806c-0.997,0-1.806-0.809-1.806-1.806
				s0.809-1.806,1.806-1.806C714.153,160.748,714.961,161.556,714.961,162.553z"/>
			<path style="fill:#3151AD;" d="M571.66,130.398c0,0.997-0.809,1.806-1.806,1.806c-0.997,0-1.806-0.809-1.806-1.806
				c0-0.997,0.808-1.806,1.806-1.806C570.852,128.592,571.66,129.401,571.66,130.398z"/>
			<path style="fill:#3151AD;" d="M612.204,273.699c0,0.997-0.809,1.806-1.806,1.806c-0.997,0-1.806-0.809-1.806-1.806
				c0-0.997,0.808-1.806,1.806-1.806C611.395,271.893,612.204,272.702,612.204,273.699z"/>
			<path style="fill:#3151AD;" d="M520.631,69.175c0,0.997-0.809,1.806-1.806,1.806c-0.997,0-1.806-0.809-1.806-1.806
				c0-0.997,0.808-1.806,1.806-1.806C519.823,67.369,520.631,68.177,520.631,69.175z"/>
			<path style="fill:#3151AD;" d="M129.466,152.971c0,0.434-0.352,0.786-0.786,0.786s-0.786-0.352-0.786-0.786
				s0.352-0.786,0.786-0.786S129.466,152.537,129.466,152.971z"/>
			<circle style="fill:#3151AD;" cx="232.136" cy="64.981" r="0.786"/>
			<path style="fill:#3151AD;" d="M393.786,117.495c0,0.434-0.352,0.786-0.786,0.786s-0.786-0.352-0.786-0.786
				c0-0.434,0.352-0.786,0.786-0.786S393.786,117.061,393.786,117.495z"/>
			<path style="fill:#3151AD;" d="M581.825,222.175c0,0.434-0.352,0.786-0.786,0.786c-0.434,0-0.786-0.352-0.786-0.786
				c0-0.434,0.352-0.786,0.786-0.786C581.473,221.388,581.825,221.74,581.825,222.175z"/>
			<path style="fill:#3151AD;" d="M632.068,93.641c0,0.434-0.352,0.786-0.786,0.786c-0.434,0-0.786-0.352-0.786-0.786
				s0.352-0.786,0.786-0.786C631.716,92.854,632.068,93.206,632.068,93.641z"/>
			<circle style="fill:#3151AD;" cx="621.67" cy="209.68" r="0.786"/>
			<path style="fill:#FF8383;" d="M80.068,198.291c0,0.885-0.717,1.602-1.602,1.602c-0.885,0-1.602-0.717-1.602-1.602
				c0-0.885,0.717-1.602,1.602-1.602C79.351,196.689,80.068,197.406,80.068,198.291z"/>
			<circle style="fill:#FF8383;" cx="694.777" cy="216.67" r="1.602"/>
		</g>
	</g>
	<g>
		<g>
			<rect x="233.213" y="225.757" style="fill:#365060;" width="71.651" height="205.165"/>
			<g>
				<g>
					<g>
						<path style="fill:#3A011F;" d="M305.314,87.144c-5.237-6.146-12.501-10.499-20.741-12.04
							c-3.744-3.421-8.581-5.574-13.695-6.256c-21.466-2.862-27.448,11.438-41.934,20.98c-20.137,13.266-10.433,33.549-3.206,40.605
							l0.084,6.121c0.151,11.052,9.233,19.89,20.285,19.739l53.582-0.732c8.185-0.112,14.73-6.838,14.618-15.023l-0.15-11
							l8.054-15.009C326.014,101.939,317.743,89.262,305.314,87.144z"/>
						<g>
							<g>
								<path style="fill:#FFAC79;" d="M327.242,151.399c-0.069-6.884-5.706-12.409-12.59-12.34l-4.748,0.048l-0.368,0.686
									c0,0,1.645-31.238-10.221-36.998c0,0-5.331,16.918-47.59,13.513c-6.451-0.52-12.928,1.742-17.434,6.389
									c-1.165,1.202-2.462,3.406-3.349,5.44v11.76l-4.549,0.046c-6.884,0.069-12.409,5.706-12.34,12.59l0.029,2.93
									c0.069,6.884,5.706,12.409,12.59,12.34l5.058-0.051l0.036,3.577c0.107,10.645,4.967,20.114,12.525,26.464v25.356
									c0,13.943,11.303,25.245,25.245,25.245h2.254c13.943,0,25.245-11.303,25.245-25.245v-25.023
									c8.031-6.498,13.142-16.45,13.03-27.582l-0.036-3.577l4.903-0.049c6.884-0.069,12.409-5.706,12.34-12.59L327.242,151.399z"
									/>
							</g>
						</g>
						<g>
							
								<ellipse transform="matrix(0.6932 -0.7208 0.7208 0.6932 -58.6523 255.1281)" style="opacity:0.46;fill:#F4544D;" cx="270.346" cy="196.457" rx="19.81" ry="19.81"/>
							<g>
								<path style="fill:#3A011F;" d="M286.661,205.703l-30.708,0.308c-13.225,0.133-24.045-9.722-24.168-22.01l-0.884-44.68
									l8.757,16.974c1.471,2.85,4.42,4.63,7.627,4.603l46.167-0.392c3.284-0.028,6.258-1.945,7.64-4.924L310.172,136l0.211,47.213
									C310.506,195.502,299.885,205.571,286.661,205.703z"/>
								<path style="fill:#FF755F;" d="M317.132,157.963c0.23,0,0.459-0.096,0.621-0.284c0.296-0.343,0.258-0.861-0.085-1.157
									l-2.755-2.377l4.116-4.804c0.295-0.344,0.255-0.861-0.09-1.156c-0.343-0.294-0.862-0.255-1.156,0.089l-5.179,6.045
									l3.993,3.445C316.751,157.898,316.942,157.963,317.132,157.963z"/>
								<path style="fill:#FF755F;" d="M225.22,158.404c0.195,0,0.392-0.069,0.548-0.21l3.924-3.524l-5.3-5.94
									c-0.302-0.339-0.819-0.367-1.158-0.066c-0.338,0.301-0.368,0.82-0.066,1.158l4.211,4.721l-2.706,2.432
									c-0.337,0.303-0.365,0.821-0.063,1.158C224.771,158.313,224.996,158.404,225.22,158.404z"/>
								<g>
									<g>
										<path style="fill:#FFFFFF;" d="M284.218,164.04c0,0-8.217,1.784-15.959,1.78c-7.743-0.004-4.926,9.226,6.729,9.661
											C286.642,175.916,290.643,163.757,284.218,164.04z"/>
									</g>
								</g>
								<g>
									<g>
										<g>
											<g>
												<path style="fill:#3A011F;" d="M277.213,125.416c1.116-0.845,2.773-1.075,4.36-1.389
													c1.605-0.282,3.21-0.606,4.594-0.938c1.387-0.331,2.966-0.767,4.525-1.241c1.558-0.437,3.146-0.982,4.512-0.73
													c1.315,0.226,2.158,1.572,1.189,3.707c-0.894,2.066-3.889,4.796-8.476,5.903c-4.587,1.084-8.458-0.006-10.159-1.452
													C275.965,127.802,276.133,126.215,277.213,125.416z"/>
											</g>
											<g>
												<path style="fill:#3A011F;" d="M260.619,123.328c-1.28-0.577-2.948-0.43-4.566-0.383
													c-1.629,0.083-3.268,0.125-4.692,0.11c-1.428-0.013-3.066-0.086-4.693-0.201c-1.618-0.078-3.291-0.257-4.565,0.295
													c-1.23,0.515-1.746,2.018-0.316,3.887c1.342,1.819,4.883,3.816,9.607,3.873c4.718,0.034,8.244-1.896,9.572-3.689
													C262.378,125.38,261.853,123.867,260.619,123.328z"/>
											</g>
										</g>
									</g>
								</g>
								<g>
									<g>
										<defs>
											<path id="SVGID_1_" d="M262.049,144.422c-0.555-3.169-2.518-7.833-9.236-8.591c-1.106-0.125-2.129-0.08-3.09,0.073
												c-4.446,0.708-7.363,4.042-9.074,6.869c-1.266,2.092,0.026,5.146,2.565,5.148c14.348,0.009,13.642,0.314,16.949-0.172
												c1.25-0.184,2.147-1.264,2.014-2.456C262.147,145.021,262.102,144.726,262.049,144.422z"/>
										</defs>
										<clipPath id="SVGID_00000044137979464569525570000005996086445713931951_">
											<use xlink:href="#SVGID_1_"  style="overflow:visible;"/>
										</clipPath>
										<path style="clip-path:url(#SVGID_00000044137979464569525570000005996086445713931951_);fill:#FFFFFF;" d="
											M262.049,144.422c-0.555-3.169-2.518-7.833-9.236-8.591c-1.106-0.125-2.129-0.08-3.09,0.073
											c-4.446,0.708-7.363,4.042-9.074,6.869c-1.266,2.092,0.058,4.773,2.565,5.148c6.856,1.025,13.642,0.314,16.949-0.172
											c1.25-0.184,2.147-1.264,2.014-2.456C262.147,145.021,262.102,144.726,262.049,144.422z"/>
										<path style="clip-path:url(#SVGID_00000044137979464569525570000005996086445713931951_);fill:#390028;" d="
											M258.849,143.794c0.098,3.643-2.92,6.725-6.739,6.885c-3.82,0.159-6.996-2.665-7.094-6.308
											c-0.098-3.643,2.92-6.725,6.74-6.885C255.575,137.327,258.751,140.152,258.849,143.794z"/>
									</g>
								</g>
								<g>
									<g>
										<defs>
											<path id="SVGID_00000082370391698133033450000000543139931595129786_" d="M276.792,144.208
												c0.555-3.169,2.518-7.833,9.236-8.591c1.106-0.125,2.129-0.08,3.089,0.073c4.446,0.708,7.363,4.042,9.074,6.869
												c1.266,2.091-0.026,5.146-2.565,5.148c-14.348,0.009-13.642,0.314-16.949-0.172c-1.25-0.184-2.147-1.264-2.014-2.456
												C276.693,144.807,276.738,144.512,276.792,144.208z"/>
										</defs>
										<clipPath id="SVGID_00000065755353358669743440000011612815546771575702_">
											<use xlink:href="#SVGID_00000082370391698133033450000000543139931595129786_"  style="overflow:visible;"/>
										</clipPath>
										<path style="clip-path:url(#SVGID_00000065755353358669743440000011612815546771575702_);fill:#FFFFFF;" d="
											M276.792,144.208c0.555-3.169,2.518-7.833,9.236-8.591c1.106-0.125,2.129-0.08,3.089,0.073
											c4.446,0.708,7.363,4.042,9.074,6.869c1.266,2.091-0.058,4.773-2.565,5.148c-6.855,1.025-13.642,0.314-16.949-0.172
											c-1.25-0.184-2.147-1.264-2.014-2.456C276.693,144.807,276.738,144.512,276.792,144.208z"/>
										<path style="clip-path:url(#SVGID_00000065755353358669743440000011612815546771575702_);fill:#390028;" d="
											M279.992,143.596c-0.098,3.643,2.919,6.725,6.739,6.885c3.82,0.159,6.996-2.665,7.094-6.308
											c0.098-3.643-2.919-6.725-6.74-6.884C283.266,137.129,280.09,139.953,279.992,143.596z"/>
									</g>
								</g>
								<g>
									<path style="fill:#FFAC79;" d="M268.401,130.689l-5.032,21.15c-0.647,2.717,1.414,5.325,4.207,5.325h8.618"/>
									<path style="fill:#FF755F;" d="M276.194,158.165h-8.618c-1.639,0-3.162-0.738-4.178-2.024
										c-1.017-1.286-1.382-2.938-1.002-4.533l5.032-21.15c0.128-0.538,0.671-0.866,1.204-0.741
										c0.537,0.127,0.869,0.667,0.741,1.204l-5.032,21.15c-0.236,0.996-0.009,2.027,0.626,2.83
										c0.634,0.803,1.585,1.264,2.608,1.264h8.618c0.553,0,1,0.448,1,1C277.194,157.717,276.747,158.165,276.194,158.165z"/>
								</g>
							</g>
						</g>
					</g>
				</g>
				<g>
					<path style="fill:#141C34;" d="M279.658,255.176l8.912-22.701l-45.288-5.267l10.156,27.675c1.002,2.731,2.649,4.85,4.648,6.365
						l-10.138,70.292l17.951,33.79l16.895-32.382l-8.432-71.162C276.619,260.305,278.507,258.107,279.658,255.176z"/>
					<g>
						<path style="fill:#F8F8EE;" d="M236.587,208.998l-2.195,16.101l12.438,21.118c1.156,1.963,3.893,2.22,5.395,0.508
							l14.319-16.326l-24.072-23.428C240.421,204.976,236.973,206.164,236.587,208.998z"/>
						<path style="fill:#F8F8EE;" d="M294.145,205.928l-27.601,24.47l15.283,16.733c1.448,1.585,3.972,1.494,5.301-0.192
							l16.686-21.166l-6.963-19.159C296.443,205.495,295.036,205.138,294.145,205.928z"/>
					</g>
				</g>
			</g>
			<g>
				<g>
					<path style="fill:#FF8383;" d="M389.538,309.017c5.13-27.532-8.12-55.091-32.54-68.429l0.009-0.513l-57.855-27.164
						l4.661,12.862l-4.803,6.231l-0.299,147.944l-0.807-0.216l-14.01-3.752l-57.935-15.515l-16.842,39.99
						c-0.976,2.428,0.226,5.184,2.668,6.121l26.412,10.129l38.131,14.624l0.076,0.029h87.457c2.974-4.434,5.126-9.548,6.156-15.201
						L389.538,309.017z"/>
					<g>
						<path style="fill:#FF8383;" d="M236.849,431.33l1.347-14.624l-26.412-10.129c-2.443-0.937-3.645-3.694-2.668-6.121
							l16.842-39.99l57.935,15.515l0.152-20.739c0.018-2.53-2.229-4.478-4.73-4.1l-40.252,6.078l-0.067,0.01l0.067-69.019
							l0.053-54.624l0.007-0.435l-4.731-8.053l1.946-14.043l-43.543,13.79c-14.306,4.682-25.38,16.124-29.59,30.577L132.111,362.14
							c-8.42,25.933,10,52.81,37.224,54.316l22.329-1.788l0.17-0.014l-2.257,16.705h47.27L236.849,431.33z"/>
					</g>
				</g>
				<g>
					<g>
						<g>
							<g>
								<g>
									<polygon style="opacity:0.59;fill:#E55A5A;" points="206.112,282.498 207.918,281.967 207.049,288.418 192.865,360.465 
										186.612,362.222 206.16,282.562 									"/>
									<polygon style="opacity:0.59;fill:#E55A5A;" points="217.565,360.465 209.533,357.372 238.998,353.917 238.995,357.23 
																			"/>
								</g>
							</g>
						</g>
					</g>
				</g>
				<g>
					<g>
						<polygon style="fill:none;" points="238.995,357.23 239.062,357.22 239.062,288.211 						"/>
					</g>
					<g>
						<path style="opacity:0.59;fill:#E55A5A;" d="M334.691,294.775l-13.458,58.214h-7.048c0,0,18.914-57.782,20.492-63.233
							l0.063,2.449L334.691,294.775z"/>
						<polygon style="opacity:0.59;fill:#E55A5A;" points="284.079,381.244 222.108,359.78 230.3,358.543 284.079,378.175 						"/>
					</g>
					<g>
						<path style="opacity:0.59;fill:#E55A5A;" d="M283.854,381.167c0,0,27.822,3.394,36.168,15.341
							c2.849,4.078,6.01,7.059,8.935,5.267c6.266-3.837,8.327-11.972,5.26-18.649c-4.865-10.589-13.715-26.697-22.28-26.013
							c-12.715,1.015,5.479,1.658,5.479,1.658l2.939-12.715l-9.234,2.564c-3.06,0.85-6,2.084-8.75,3.673l-2.355,1.361l-15.936,1.136
							L283.854,381.167z"/>
						<path style="fill:#FFAC79;" d="M283.854,381.167c0,0,34.528,2.544,38.856,14.445c1.7,4.675,6.01,7.059,8.935,5.267
							c6.266-3.837,8.327-11.972,5.26-18.648c-4.865-10.589-13.715-26.697-22.28-26.013c-12.716,1.015,5.479,1.658,5.479,1.658
							l2.939-12.714l-9.235,2.564c-3.06,0.85-6,2.084-8.75,3.673l-2.355,1.361l-18.625,2.032L283.854,381.167z"/>
						<path style="opacity:0.57;fill:#FF755F;" d="M331.299,400.628c0.555,0,1.007-0.444,1.015-1.001
							c0.004-0.274,0.03-6.804-5.597-13.905c-0.349-0.439-0.988-0.512-1.426-0.165c-0.44,0.349-0.514,0.988-0.165,1.427
							c5.151,6.501,5.157,12.558,5.157,12.618c-0.004,0.56,0.444,1.02,1.004,1.026C331.291,400.628,331.296,400.628,331.299,400.628
							z"/>
						<path style="opacity:0.57;fill:#FF755F;" d="M336.674,394.839c0.556,0,1.008-0.444,1.016-1
							c0.004-0.275,0.032-6.805-5.595-13.906c-0.347-0.439-0.988-0.514-1.426-0.165c-0.44,0.349-0.514,0.988-0.165,1.427
							c5.151,6.501,5.155,12.558,5.155,12.618c-0.006,0.559,0.444,1.02,1.004,1.026C336.666,394.839,336.67,394.839,336.674,394.839
							z"/>
					</g>
					<g>
						<path style="opacity:0.59;fill:#E55A5A;" d="M224.461,411.438l-12.676-4.862c-2.443-0.937-3.644-3.693-2.668-6.121
							l2.549-6.339l-0.355-0.48c-0.134,0.164-0.247,0.225-0.335,0.159c-1.443-1.082-18.753-36.785-35.342-28.49
							c-2.585,1.292-3.838,1.609-4.067,1.284c-2.541,2.273-2.402,3.304,2.471,0.867c14.699-7.349,29.962,19.84,34.253,26.884
							l-2.58,6.625c-0.903,2.317,0.141,4.938,2.389,6.001l10.646,5.034l-27.082,2.667l-0.502,4.962l35.752-3.174l10.801,5.489
							l0.483-5.239L224.461,411.438z"/>
						<path style="fill:#FFAC79;" d="M175.634,365.306c16.589-8.295,33.899,27.408,35.342,28.49
							c0.088,0.066,0.201,0.005,0.335-0.159c2.061-2.533,9.184-30.714,9.522-31.73c0.361-1.082-11.3-4.534-11.3-4.534
							c-10.351-13.197-39.206,7.453-37.966,9.217C171.796,366.915,173.049,366.598,175.634,365.306z"/>
					</g>
				</g>
			</g>
		</g>
		<g>
			<path style="fill:#3A011F;" d="M560.542,237.335c-2.109-4.86-2.214-10.356-0.294-15.294c3.405-8.757,2.145-18.643-3.349-26.264
				l-2.442-3.387c-3.711-5.148-5.441-11.462-4.871-17.782v0c0.051-0.561,0.088-1.122,0.112-1.681
				c0.268-6.165-1.303-11.981-4.209-16.976c-0.259-14.047-5.817-52.457-59.037-50.904c-27.085,0.79-38.187,17.195-42.686,29.067
				c-3.974,3.779-7.001,8.616-8.554,14.257c-0.148,0.54-0.285,1.085-0.409,1.634l0,0c-1.399,6.19-4.983,11.668-10.095,15.428
				l-3.364,2.474c-7.569,5.567-11.803,14.588-11.251,23.968v0c0.312,5.289-1.476,10.487-4.975,14.465l0,0
				c-6.378,7.251-5.264,18.39,2.423,24.236l21.536,16.376c10.396,7.905,25.438,1.384,26.773-11.608l0.378-3.676
				c0.51-4.966,3.52-9.328,7.981-11.568c6.501-4.231,10.488-11.199,10.738-18.919c0.228-7.003,0.526-36.038,3.19-42.746
				c0.614-1.545,2.427-7.772,4.109-13.693c4.931,3.702,12.439,7.175,23.855,8.875c-0.237,6.538-0.462,13.923-0.344,15.71
				c0.476,7.201-8.154,34.925-10.087,41.661c-2.131,7.424-0.476,15.279,4.412,21.302c3.558,3.502,5.082,8.577,4.044,13.459
				l-0.769,3.614c-2.717,12.775,9.596,23.599,21.917,19.267l25.523-8.974C559.906,256.453,564.385,246.193,560.542,237.335
				L560.542,237.335z"/>
			<g>
				<g>
					<g>
						<g>
							<g>
								<path style="fill:#141C34;" d="M554.043,401.707c-6.553-9.533-13.16-18.903-18.508-28.928l-51.392,2.308l-51.013-6.029
									l-5.521,6.434l-7.693,8.965l-8.056,9.387c-9.583,11.167-16.275,23.928-19.796,37.428h175.698
									C565.001,420.944,560.402,410.959,554.043,401.707z"/>
							</g>
						</g>
					</g>
				</g>
				<g>
					<g>
						<polygon style="fill:#141C34;" points="441.532,233.766 464.767,233.773 483.117,248.238 511.602,233.787 522.135,233.79 
							482.126,341.447 						"/>
						<g>
							<g>
								<g>
									<g>
										<g>
											<path style="fill:#FFA698;" d="M522.133,233.78h-0.271c0.094,0.002,0.18,0.008,0.273,0.01
												C522.135,233.79,522.133,233.78,522.133,233.78z"/>
											<path style="fill:#FFA698;" d="M441.107,233.766c0,0,0.001,0.006,0.001,0.007c0.142-0.002,0.283-0.005,0.424-0.007
												H441.107z"/>
											<path style="fill:#3151AD;" d="M601.755,314.415l-8.236-10.774l-37.302-49.879
												c-11.477-13.073-16.978-19.564-34.081-19.972c-0.094-0.002-0.179-0.009-0.273-0.01c-0.12-0.002-0.227-0.012-0.348-0.013
												l-0.005,0.013l-15.073,37.88l-0.273,0.687l-21.467,53.95l-6.49-0.37l-10.828-27.214l-10.764-27.053l-15.078-37.894l0,0
												c-0.001,0-0.003,0-0.004,0c-0.141,0.002-0.283,0.005-0.424,0.007c-0.034,0.001-0.068,0.001-0.102,0.002
												c-28.643,0.498-52.364,22.436-55.421,50.92l-3.075,28.653l-0.116-0.003l-0.309,3.959l0,0.003l0,0l-3.789,48.551
												c0.458,21.784,21.411,36.702,42.793,31.636l67.739-12.407c0.999-0.183,1.805-0.76,2.335-1.524
												c8.095-0.712,16.12-2.392,23.889-5.078l13.201-4.565l1.101,0.147l30.644,4.092c7.665,1.024,15.547,0.301,22.677-2.691
												C608.573,364.596,613.862,332.955,601.755,314.415z"/>
											<path style="fill:#254699;" d="M468.655,317.906l-34.061-36.259c-0.556-0.592-0.752-1.411-0.525-2.19
												c0.228-0.78,0.833-1.364,1.62-1.564l9.916-2.522l-23.332-20.415c-0.92-0.805-1.299-1.994-1.014-3.183
												c0.286-1.189,1.164-2.078,2.35-2.377l16.161-4.085l0.244,0.97l-16.161,4.085c-0.817,0.207-1.424,0.82-1.621,1.641
												c-0.197,0.82,0.065,1.642,0.699,2.197l24.764,21.667l-11.76,2.99c-0.44,0.112-0.779,0.44-0.906,0.876
												c-0.127,0.436-0.018,0.894,0.293,1.225l34.061,36.259L468.655,317.906z"/>
											<path style="fill:#254699;" d="M495.461,318.906l-0.729-0.686l34.061-36.259c0.311-0.331,0.421-0.789,0.294-1.225
												c-0.127-0.436-0.467-0.764-0.907-0.876l-11.759-2.99l24.763-21.667c0.635-0.556,0.896-1.378,0.699-2.198
												c-0.196-0.82-0.803-1.434-1.62-1.641l-16.162-4.084l0.244-0.97l16.162,4.085c1.186,0.3,2.064,1.188,2.349,2.377
												c0.285,1.188-0.094,2.379-1.014,3.184l-23.331,20.415l9.915,2.522c0.788,0.2,1.393,0.785,1.621,1.564
												c0.228,0.78,0.031,1.599-0.525,2.19L495.461,318.906z"/>
										</g>
									</g>
								</g>
							</g>
						</g>
						<g>
							<path style="fill:#254699;" d="M462.639,362.349l-1.142-7.918l-0.663-0.192l-1.137,7.476c0,3.236,2.46,5.941,5.68,6.248
								l63.977,6.103l0,0l-63.433-8.471C464.223,365.369,462.883,364.043,462.639,362.349z"/>
							<polygon style="fill:#254699;" points="421.017,298.835 418.234,335.134 450.11,326.411 422.068,330.534 							"/>
							<polygon style="fill:#254699;" points="520.527,328.343 484.696,326.297 486.168,322.599 							"/>
							<path style="fill:#254699;" d="M457.448,325.798L457.448,325.798c0-2.79,3.594-4.941,7.635-4.569l11.709,1.141l1.415,3.557
								L457.448,325.798z"/>
							<polygon style="fill:#254699;" points="538.154,304.082 560.424,330.06 555.877,330.362 538.708,308.866 							"/>
							<g>
								<path style="fill:none;" d="M554.498,330.283l2.203,0.126l-0.097-0.114C555.909,330.228,555.207,330.225,554.498,330.283z"
									/>
								<path style="fill:#FFAC79;" d="M556.604,330.294l-10.505-12.311c-4.55-1.692-9.107-1.848-12.7,1.181
									c-5.064,1.118-8.903,4.767-10.513,9.314l31.614,1.805C555.207,330.225,555.909,330.228,556.604,330.294z"/>
							</g>
							<g>
								<path style="fill:#FFAC79;" d="M416.171,350.431l-0.298-0.615c-0.974-2.01-0.135-4.429,1.875-5.403l4.302-2.086
									l-3.173,1.538c-1.745,0.846-3.909,0.253-4.857-1.439c-1.303-2.324-0.434-5.237,1.89-6.461
									c2.549-1.343,6.073-2.904,9.735-3.612c4.723-0.912,13.2-3.105,18.322-4.465c2.912-0.773,5.864-1.322,8.859-1.647
									l4.622-0.502l4.778,32.896l-26.516,3.081c-2.464,1.195-5.433,0.147-6.598-2.34c-0.323-0.689,0.008-1.52,0.693-1.852
									l1.219-0.591l-3.183,1.543c-2.243,1.088-4.943,0.151-6.031-2.092l-0.227-0.467c-0.802-1.654-0.111-3.644,1.542-4.446
									l4.39-2.128l-6.042,2.93C419.501,353.227,417.127,352.403,416.171,350.431z"/>
								<path style="opacity:0.57;fill:#FF755F;" d="M423.916,342.46c0.417-0.222,0.584-0.736,0.376-1.163
									c-0.214-0.435-0.741-0.616-1.175-0.403l-5.727,2.803c-0.437,0.158-0.617,0.74-0.404,1.176
									c0.214,0.435,0.74,0.616,1.175,0.402l5.727-2.803C423.898,342.47,423.907,342.465,423.916,342.46z"/>
								<path style="opacity:0.57;fill:#FF755F;" d="M422.023,353.155c0.004-0.002,0.007-0.004,0.012-0.006l7.046-3.899
									c0.425-0.235,0.578-0.77,0.344-1.195c-0.234-0.425-0.76-0.524-1.195-0.344l-7.046,3.898
									c-0.425,0.235-0.578,0.77-0.344,1.195C421.072,353.226,421.6,353.38,422.023,353.155z"/>
								<path style="opacity:0.57;fill:#FF755F;" d="M434.623,355.893c0.417-0.222,0.584-0.736,0.376-1.163
									c-0.215-0.435-0.741-0.616-1.177-0.402l-5.381,2.638c-0.441,0.18-0.614,0.738-0.403,1.175
									c0.215,0.435,0.741,0.616,1.177,0.402l5.381-2.638C434.606,355.902,434.613,355.898,434.623,355.893z"/>
							</g>
						</g>
					</g>
				</g>
			</g>
		</g>
		<g>
			<g>
				<g>
					<g>
						<g>
							<path style="fill:#FFAC79;" d="M536.237,181.556c0.693-6.466-3.987-12.27-10.454-12.963l-1.113-0.119l0,0l-3.163-0.339
								c-2.762-5.623-1.001-12.107-1.001-12.107c-0.311-0.133-0.624-0.265-0.937-0.396c-10.162-4.24-18.831-11.092-25.376-19.689
								c-8.082,6.935-17.833,11.78-28.49,13.846c-0.333,0.064-0.666,0.13-0.997,0.198c0,0,0.415,6.739-3.458,11.69l-7.038-0.754l0,0
								l-2.903-0.311c-3.671-0.393-7.125,0.948-9.555,3.361c-1.851,1.838-3.109,4.297-3.408,7.093
								c-0.33,3.078,0.568,5.998,2.286,8.296c1.891,2.53,4.779,4.304,8.167,4.667l1.054,0.113l1.849,0.198l-0.644,6.012
								c-1.204,11.234,2.989,21.797,10.488,29.126l-0.854,7.973c-1.055,9.844,7.966,18.958,20.046,20.252
								c12.08,1.295,22.827-5.701,23.882-15.545l0.886-8.27c8.667-5.604,14.827-14.924,16.013-25.986l0.644-6.012l1.114,0.119
								c2.218,0.238,4.351-0.169,6.234-1.051C533.114,189.27,535.782,185.804,536.237,181.556z"/>
						</g>
						<path style="opacity:0.55;fill:#FF755F;" d="M483.255,222.412c-19.144-2.052-33.074-18.993-31.531-38.07l-0.023-0.003
							l-0.644,6.012c-1.569,14.64,6.017,28.149,18.157,34.83c2.738,6.328,9.224,10.561,16.496,10.064
							c5.631-0.384,10.41-3.518,13.145-7.993c12.071-4.591,21.192-15.629,22.662-29.349l0.644-6.012l-0.023-0.003
							C519.602,210.859,502.399,224.463,483.255,222.412z"/>
					</g>
				</g>
			</g>
			<g>
				<path style="fill:#FF755F;" d="M447.156,174.224c-0.156,0-0.311-0.074-0.408-0.211c-0.159-0.226-0.105-0.538,0.12-0.697
					l2.669-1.886l-3.181-4.535c-0.159-0.226-0.104-0.538,0.122-0.696c0.224-0.158,0.539-0.105,0.696,0.122l3.753,5.352l-3.483,2.46
					C447.357,174.194,447.257,174.224,447.156,174.224z"/>
				<path style="fill:#FF755F;" d="M526.626,183.224c-0.135,0-0.27-0.055-0.368-0.162l-2.883-3.143l4.803-4.434
					c0.203-0.187,0.52-0.174,0.706,0.028c0.188,0.203,0.175,0.52-0.028,0.707l-4.07,3.758l2.209,2.409
					c0.187,0.204,0.173,0.52-0.03,0.707C526.868,183.18,526.747,183.224,526.626,183.224z"/>
				<g>
					<g>
						<g>
							<path style="opacity:0.57;fill:#FF755F;" d="M483.491,205.482c-0.153,0-0.305-0.07-0.403-0.203
								c-0.163-0.222-0.117-0.534,0.105-0.698c0.037-0.027,3.713-2.69,7.34-0.178c0.227,0.158,0.283,0.469,0.126,0.696
								c-0.158,0.228-0.471,0.283-0.696,0.126c-3.026-2.101-6.048,0.066-6.175,0.16
								C483.698,205.451,483.594,205.482,483.491,205.482z"/>
						</g>
					</g>
				</g>
				<g>
					<g>
						<g>
							<g>
								<g>
									<path style="fill:#390028;" d="M517.415,159.279c-1.032-0.558-2.434-0.537-3.789-0.595
										c-1.366-0.03-2.737-0.094-3.925-0.192c-1.192-0.098-2.555-0.258-3.907-0.451c-1.346-0.163-2.731-0.413-3.831-0.03
										c-1.061,0.355-1.587,1.577-0.513,3.222c1.004,1.598,3.833,3.477,7.774,3.811c3.938,0.313,7.006-1.082,8.231-2.497
										C518.753,161.096,518.411,159.803,517.415,159.279z"/>
								</g>
							</g>
							<g>
								<g>
									<path style="fill:#390028;" d="M466.487,152.843c1.127-0.263,2.451,0.121,3.752,0.417c1.304,0.326,2.622,0.621,3.775,0.835
										c1.156,0.216,2.492,0.418,3.826,0.584c1.321,0.194,2.701,0.315,3.643,0.964c0.913,0.612,1.09,1.909-0.363,3.192
										c-1.374,1.257-4.554,2.308-8.382,1.604c-3.819-0.723-6.363-2.843-7.151-4.504
										C464.738,154.222,465.404,153.083,466.487,152.843z"/>
								</g>
							</g>
						</g>
					</g>
				</g>
				<path style="fill:#390028;" d="M464.513,168.675c0,0-5.255-0.526-6.974-1.721c-1.856-1.291,0.262,5.002,4.546,8.165
					L464.513,168.675z"/>
				<path style="fill:#390028;" d="M514.714,175.352c0,0,5.064,1.497,7.107,1.038c2.206-0.495-2.13,4.534-7.292,5.845
					L514.714,175.352z"/>
				<g>
					<path style="fill:#FFFFFF;" d="M483.561,174.475c-0.241-3.435-1.753-8.604-8.469-10.082c-1.106-0.243-2.145-0.297-3.132-0.23
						c-4.567,0.312-7.854,3.577-9.871,6.421c-0.362,0.511-0.575,1.097-0.657,1.696c-0.212,1.759,0.857,3.563,2.729,4.05
						c1.222,0.121,2.327,0.233,3.345,0.338c-0.838-1.2-1.296-2.661-1.198-4.214c0.235-3.742,3.565-6.579,7.439-6.336
						c3.874,0.243,6.824,3.474,6.589,7.216c-0.112,1.779-0.928,3.347-2.164,4.483c0.869,0.073,1.477,0.087,2.268,0.06
						c0.023-0.001,0.048-0.002,0.071-0.003c0.053-0.002,0.108-0.004,0.163-0.007c0.226-0.01,0.442-0.021,0.644-0.032
						c1.283-0.072,2.299-1.134,2.285-2.419C483.6,175.123,483.585,174.804,483.561,174.475z"/>
					<path style="fill:#390028;" d="M480.336,173.333c0.235-3.742-2.715-6.973-6.589-7.216c-3.874-0.243-7.204,2.594-7.439,6.336
						c-0.098,1.553,0.36,3.014,1.198,4.214c6.463,0.666,9.032,1.012,10.665,1.149C479.408,176.68,480.224,175.111,480.336,173.333z"
						/>
				</g>
				<g>
					<path style="fill:#FFFFFF;" d="M516.486,179.247c0.061-0.601-0.008-1.221-0.24-1.803c-1.291-3.238-3.718-7.185-8.083-8.563
						c-0.943-0.298-1.965-0.49-3.098-0.513c-6.875-0.145-9.561,4.524-10.603,7.806c-0.1,0.315-0.19,0.621-0.262,0.905
						c-0.315,1.245,0.422,2.517,1.652,2.889c0.194,0.059,0.402,0.12,0.62,0.183c0.057,0.016,0.113,0.033,0.169,0.048
						c0.016,0.005,0.034,0.009,0.05,0.014c0.765,0.214,1.36,0.343,2.224,0.477c-0.934-1.395-1.358-3.112-1.048-4.867
						c0.652-3.692,4.279-6.138,8.101-5.463c3.822,0.675,6.392,4.216,5.74,7.908c-0.271,1.533-1.059,2.845-2.156,3.814
						c1.014,0.137,2.114,0.288,3.33,0.458C514.814,182.508,516.277,181.006,516.486,179.247z"/>
					<path style="fill:#390028;" d="M511.706,178.268c0.652-3.692-1.917-7.233-5.74-7.908c-3.822-0.675-7.449,1.77-8.101,5.463
						c-0.31,1.755,0.114,3.472,1.048,4.867c1.62,0.251,4.198,0.52,10.636,1.393C510.647,181.113,511.435,179.801,511.706,178.268z"
						/>
				</g>
				<g>
					<g>
						<path style="fill:#FFFFFF;" d="M474.291,184.708c0,0,5.94,3.548,12.101,5.164c6.161,1.617,0.826,10.483-8.593,8.489
							C468.381,196.367,469.273,183.073,474.291,184.708z"/>
					</g>
				</g>
				<g>
					<path style="fill:#FFAC79;" d="M492.714,161.934l1.929,19.421c0.043,0.427-0.078,0.849-0.346,1.185
						c-0.968,1.217-3.806,3.665-9.86,1.314"/>
					<path style="fill:#FF755F;" d="M489.082,185.336c-1.338,0-2.935-0.282-4.825-1.016c-0.258-0.1-0.386-0.39-0.285-0.647
						c0.1-0.257,0.389-0.384,0.646-0.285c5.77,2.24,8.417-0.064,9.289-1.159c0.184-0.231,0.268-0.523,0.238-0.823l-1.929-19.422
						c-0.027-0.275,0.173-0.52,0.447-0.547c0.282-0.019,0.52,0.173,0.547,0.448l1.929,19.421c0.057,0.559-0.103,1.108-0.45,1.545
						C493.978,183.743,492.263,185.335,489.082,185.336z"/>
				</g>
				<path style="fill:#F7EEE6;" d="M446.606,190.264c-0.221,0-0.442-0.013-0.665-0.038c-1.54-0.174-2.921-0.938-3.887-2.15
					c-0.966-1.212-1.402-2.729-1.228-4.269c0.361-3.18,3.223-5.476,6.421-5.115c1.54,0.174,2.921,0.938,3.887,2.15
					c0.967,1.212,1.402,2.729,1.229,4.269c-0.175,1.541-0.939,2.921-2.15,3.887C449.174,189.825,447.913,190.264,446.606,190.264z
					 M446.591,179.654c-2.409,0-4.493,1.815-4.77,4.265c-0.145,1.275,0.217,2.53,1.017,3.534c0.8,1.004,1.942,1.636,3.218,1.78
					c1.27,0.145,2.53-0.216,3.533-1.016c1.004-0.799,1.637-1.942,1.78-3.217c0.145-1.275-0.217-2.53-1.017-3.534
					c-0.8-1.004-1.942-1.636-3.218-1.78C446.951,179.664,446.771,179.654,446.591,179.654z"/>
				<path style="fill:#F7EEE6;" d="M525.541,199.196c-0.221,0-0.442-0.013-0.665-0.038c-3.18-0.359-5.474-3.239-5.114-6.419
					c0.175-1.54,0.938-2.921,2.15-3.887c1.213-0.966,2.727-1.406,4.271-1.228c1.54,0.174,2.921,0.938,3.887,2.15
					c0.966,1.212,1.402,2.729,1.228,4.269l0,0c-0.175,1.54-0.938,2.921-2.15,3.887C528.108,198.757,526.848,199.196,525.541,199.196
					z M525.519,188.586c-1.082,0-2.125,0.363-2.983,1.047c-1.004,0.799-1.637,1.942-1.78,3.217
					c-0.298,2.632,1.602,5.016,4.233,5.313c1.271,0.147,2.53-0.216,3.533-1.016c1.004-0.799,1.637-1.942,1.78-3.217l0,0
					c0.145-1.275-0.216-2.53-1.016-3.534c-0.8-1.004-1.942-1.636-3.218-1.78C525.886,188.596,525.702,188.586,525.519,188.586z"/>
			</g>
			<g>
				<path style="fill:#F8F8EE;" d="M453.622,224.391l-2.902,15.989l11.497,21.645c1.068,2.012,3.792,2.389,5.367,0.745l15.024-15.68
					l-23.018-24.464C457.63,220.541,454.133,221.576,453.622,224.391z"/>
			</g>
			<g>
				<path style="fill:#F8F8EE;" d="M512.793,230.678l-0.389,16.245l-15.633,18.875c-1.453,1.754-4.196,1.574-5.407-0.355
					l-11.546-18.392l27.487-19.308C509.646,226.098,512.862,227.818,512.793,230.678z"/>
			</g>
		</g>
	</g>
</g>
</svg>
